<?xml version="1.0" standalone="no"?>
<!DOCTYPE svg PUBLIC "-//W3C//DTD SVG 20010904//EN"
 "http://www.w3.org/TR/2001/REC-SVG-20010904/DTD/svg10.dtd">
<svg version="1.0" xmlns="http://www.w3.org/2000/svg"
 width="842.000000pt" height="842.000000pt" viewBox="0 0 842.000000 842.000000"
 preserveAspectRatio="xMidYMid meet">
<metadata>
Created by potrace 1.14, written by Peter Selinger 2001-2017
</metadata>
<g transform="translate(0.000000,842.000000) scale(0.100000,-0.100000)"
fill="#000000" stroke="none">
<path d="M3417 5306 c-9 -22 32 -90 92 -151 46 -48 58 -92 38 -132 -13 -24
-13 -33 -1 -61 7 -18 13 -33 13 -35 0 -1 5 -15 12 -32 6 -16 11 -49 11 -72 -1
-24 3 -54 8 -68 5 -14 7 -25 4 -25 -7 0 -60 30 -238 134 -206 121 -337 186
-408 202 -10 2 -27 6 -39 9 -11 2 -28 6 -37 9 -58 17 -213 24 -279 11 -20 -3
-60 -16 -90 -27 -54 -20 -83 -54 -78 -90 2 -9 6 -34 9 -55 3 -21 10 -53 15
-71 5 -18 11 -36 12 -40 4 -19 23 -62 46 -111 39 -78 87 -121 145 -125 31 -2
33 -5 30 -35 -5 -42 33 -99 90 -139 24 -17 67 -53 97 -81 74 -71 191 -148 203
-135 3 2 30 5 61 5 42 1 65 -5 99 -25 51 -30 90 -33 143 -10 46 19 55 13 21
-14 -19 -15 -26 -29 -26 -55 0 -27 -7 -41 -31 -61 -17 -14 -43 -28 -57 -31
-91 -19 -186 -65 -150 -73 10 -2 15 -9 11 -18 -7 -19 12 -18 32 2 8 9 22 14
29 11 14 -6 98 22 112 36 4 4 14 7 22 7 8 0 29 11 46 24 17 13 45 26 61 30 21
5 44 26 75 67 31 40 50 58 62 55 12 -3 36 16 70 56 29 33 56 66 61 73 4 8 14
12 22 9 8 -4 32 1 53 9 20 8 57 18 81 22 51 8 49 -3 -7 -39 -64 -40 -112 -95
-112 -127 0 -16 -3 -29 -7 -29 -5 0 -22 -12 -39 -28 -78 -68 -136 -201 -133
-300 1 -35 -5 -75 -15 -102 -26 -66 -31 -145 -12 -185 22 -46 12 -83 -40 -140
-52 -57 -84 -114 -84 -147 l1 -23 13 24 c12 22 13 22 21 5 7 -17 8 -17 19 6 6
14 33 46 58 72 25 26 61 77 79 115 18 37 38 73 45 78 17 13 38 123 43 223 1 7
6 10 12 7 6 -4 8 -13 5 -20 -2 -7 0 -17 4 -21 9 -9 17 -41 19 -71 1 -6 7 -18
14 -25 22 -21 38 -58 32 -68 -4 -6 1 -17 9 -26 9 -8 16 -22 16 -30 0 -8 4 -22
10 -32 5 -9 19 -39 31 -66 11 -27 27 -56 35 -63 8 -8 14 -20 14 -27 0 -8 18
-25 40 -40 23 -15 46 -38 52 -51 6 -14 17 -25 23 -25 7 0 29 -16 49 -35 21
-19 42 -33 47 -30 21 13 55 14 77 3 19 -10 25 -9 32 2 8 12 10 12 10 1 0 -8 6
-11 18 -6 29 12 46 12 75 2 25 -8 31 -6 55 21 15 16 37 33 50 36 12 4 22 11
22 15 0 14 45 61 58 61 7 0 12 5 12 10 0 6 6 10 14 10 8 0 17 13 21 29 3 16
13 32 21 35 8 3 14 15 14 26 0 11 4 20 9 20 5 0 13 15 16 33 4 17 11 37 15 42
4 6 10 23 14 38 4 15 11 25 16 22 5 -3 8 8 8 25 -1 16 7 38 16 49 9 10 25 49
36 86 23 80 30 90 31 44 3 -106 28 -212 55 -227 8 -4 16 -18 19 -31 7 -36 64
-121 112 -168 24 -23 43 -50 43 -60 1 -17 2 -17 13 -1 12 15 14 15 24 0 11
-15 12 -16 12 -1 2 32 -29 88 -74 136 -59 63 -73 108 -50 153 21 40 15 114
-17 207 -17 50 -19 67 -10 87 6 13 8 27 4 30 -3 4 -7 17 -9 29 -10 74 -63 168
-131 235 -26 25 -46 53 -44 62 3 20 -51 77 -113 120 -25 17 -45 36 -45 41 0 6
3 8 8 5 4 -2 27 -7 52 -11 24 -4 52 -11 62 -16 9 -5 27 -9 40 -9 15 0 34 -14
53 -37 74 -90 89 -104 106 -100 12 3 33 -14 68 -59 35 -43 59 -64 73 -64 12 0
31 -9 42 -19 28 -25 176 -83 198 -78 9 3 24 -4 34 -14 19 -21 36 -16 27 8 -5
12 -3 14 7 8 8 -5 11 -3 8 6 -4 15 -86 58 -122 65 -62 11 -75 17 -99 42 -15
16 -25 38 -25 55 0 18 -10 39 -27 57 l-28 29 52 -19 c60 -21 81 -19 151 16 41
21 61 25 106 21 46 -4 64 0 102 20 56 30 124 84 171 135 19 21 38 38 43 38 7
0 26 14 67 50 32 29 55 75 53 108 -3 32 0 34 43 32 3 0 18 6 34 14 68 36 138
170 169 327 17 86 4 122 -53 148 -16 7 -31 13 -32 12 -2 0 -18 6 -37 14 -18 8
-36 12 -39 9 -3 -3 -11 -3 -18 2 -14 8 -91 8 -184 -1 -70 -6 -231 -49 -252
-67 -7 -6 -13 -8 -13 -4 0 6 -23 -6 -155 -79 -22 -12 -110 -63 -195 -113 -183
-107 -197 -113 -185 -86 4 10 9 42 10 69 1 28 14 78 28 112 22 55 24 64 11 88
-22 42 -17 70 21 117 73 91 109 142 112 160 3 20 -13 25 -20 6 -4 -10 -8 -9
-16 2 -8 12 -11 11 -17 -5 -4 -11 -30 -43 -58 -71 -61 -60 -96 -107 -96 -129
0 -9 -11 -26 -23 -38 -25 -23 -34 -49 -43 -124 -5 -43 -13 -57 -37 -65 -4 -2
-9 -20 -11 -41 -2 -28 -18 -55 -67 -114 -93 -114 -102 -123 -111 -123 -4 0
-19 25 -33 56 -14 30 -30 52 -35 49 -6 -3 -10 -1 -10 5 0 7 -5 10 -12 8 -6 -2
-19 3 -28 11 -8 9 -26 23 -40 32 l-24 16 59 79 c32 43 60 81 61 83 2 2 16 4
32 6 45 4 103 26 96 37 -3 5 -24 7 -46 4 -23 -3 -47 -1 -59 7 -24 14 -20 18
-159 -158 l-32 -40 -75 0 c-86 -1 -82 -4 -168 105 -83 105 -81 103 -113 93
-15 -5 -44 -8 -64 -6 -20 2 -39 -1 -42 -6 -7 -10 89 -36 117 -32 9 1 17 -2 17
-6 0 -5 8 -18 18 -29 9 -10 36 -47 59 -80 l42 -61 -37 -24 c-20 -14 -51 -30
-68 -38 -22 -8 -34 -21 -37 -40 -3 -15 -14 -38 -25 -50 l-18 -24 -55 65 c-115
137 -119 142 -119 175 0 21 -7 37 -22 47 -12 9 -23 28 -25 43 -1 16 -5 37 -7
48 -2 11 -5 30 -5 43 -1 12 -12 32 -26 44 -14 12 -25 29 -25 39 0 21 -54 93
-108 146 -22 21 -43 47 -47 58 -5 13 -9 15 -12 8 -7 -19 -21 -16 -25 5 -3 16
-4 15 -11 -2z m-547 -270 c36 -9 102 -31 147 -48 73 -28 80 -33 70 -49 -22
-35 -38 -34 -237 13 -25 5 -82 11 -126 13 -87 4 -136 21 -154 55 -9 17 -6 20
22 28 51 13 206 6 278 -12z m2978 10 c18 -6 20 -11 12 -27 -19 -34 -66 -50
-158 -53 -48 -2 -125 -13 -172 -25 -121 -33 -150 -34 -180 -11 l-25 19 47 21
c26 11 50 21 53 21 2 0 25 8 51 19 25 11 60 23 77 26 18 3 50 9 72 13 47 9
192 6 223 -3z m-3348 -28 c0 -6 21 -31 46 -55 26 -24 41 -43 34 -43 -7 0 -30
-14 -52 -31 -21 -17 -41 -30 -43 -27 -9 8 -19 113 -16 156 1 15 31 16 31 0z
m3464 -3 c3 -8 3 -21 1 -27 -2 -7 -6 -37 -9 -66 -2 -30 -7 -56 -10 -59 -5 -5
-75 44 -88 62 -5 5 -1 15 8 20 30 18 64 56 64 70 0 20 26 19 34 0z m-3244
-130 c-4 -17 -5 -39 -3 -50 8 -48 -7 -80 -47 -98 -55 -26 -102 -38 -121 -32
-10 3 -24 21 -34 40 -14 31 -14 38 -2 56 31 44 158 119 197 116 14 -1 16 -7
10 -32z m476 16 c28 -17 42 -39 102 -165 5 -9 -16 -3 -96 26 -45 17 -119 74
-110 84 2 2 17 19 33 38 17 19 32 35 35 35 3 1 19 -8 36 -18z m2090 1 c10 -9
28 -27 38 -40 19 -22 19 -22 -10 -48 -32 -30 -112 -68 -164 -77 -19 -4 -30 -4
-23 1 6 4 28 40 48 80 31 61 54 86 91 102 1 0 10 -8 20 -18z m514 -10 c26 -11
67 -42 107 -80 25 -25 24 -46 -4 -90 -12 -19 -20 -22 -49 -17 -43 6 -116 39
-132 58 -7 8 -10 31 -8 53 1 21 0 51 -5 66 -4 14 -5 29 -3 31 6 6 59 -6 94
-21z m-2875 -22 c102 -30 125 -46 125 -86 0 -31 -14 -37 -54 -24 -46 15 -72
20 -140 26 -33 3 -64 8 -69 11 -8 5 -8 90 1 106 2 5 11 5 21 2 9 -4 61 -19
116 -35z m2713 28 c13 -13 16 -76 4 -95 -4 -6 -38 -14 -76 -18 -38 -3 -93 -14
-122 -24 -30 -10 -54 -15 -55 -12 0 3 -2 14 -4 25 -6 30 16 64 46 75 16 5 29
8 29 7 0 -2 35 9 78 24 42 15 79 28 83 29 3 0 10 -4 17 -11z m-2233 -118 c188
-114 295 -194 280 -208 -2 -2 -45 13 -97 34 -135 54 -201 107 -263 213 -5 8
-4 12 1 9 5 -3 41 -25 79 -48z m1688 20 c-35 -71 -131 -147 -233 -185 -25 -10
-60 -24 -78 -32 -41 -18 -46 -15 -23 14 15 18 175 133 186 133 4 0 106 66 120
78 6 5 17 12 25 15 8 3 16 6 17 6 1 1 -5 -13 -14 -29z m-1963 -71 c0 -5 7 -9
15 -9 8 0 67 -18 132 -40 108 -36 152 -63 153 -92 0 -10 10 -12 -95 17 -49 14
-119 32 -155 40 -89 21 -94 25 -86 68 5 26 11 35 21 30 8 -3 15 -9 15 -14z
m2204 5 c3 -9 6 -26 6 -39 0 -20 -8 -25 -52 -35 -29 -7 -104 -27 -166 -45 -62
-18 -115 -29 -118 -24 -13 22 49 59 159 94 64 21 124 43 134 51 23 18 30 17
37 -2z m-2398 -14 c42 -10 106 -37 94 -40 -3 -1 -30 -3 -60 -5 -92 -5 -143
-13 -195 -31 -65 -21 -135 -25 -164 -9 -24 12 -24 12 15 25 21 7 66 28 99 47
64 35 100 38 211 13z m2781 -22 c32 -18 74 -37 93 -44 l35 -12 -30 -12 c-41
-17 -72 -15 -149 9 -73 23 -124 31 -204 34 -30 1 -51 5 -49 11 7 21 173 57
224 49 12 -2 48 -18 80 -35z m-1451 -66 c16 1 39 -4 50 -10 12 -6 24 -9 27 -6
3 3 11 2 18 -2 7 -4 22 -9 33 -10 73 -9 137 -50 180 -116 33 -51 2 -74 -58
-43 -22 12 -32 12 -42 4 -13 -11 -18 -6 -15 14 2 11 -14 8 -27 -5 -9 -9 -12
-9 -12 1 0 8 -7 10 -19 6 -11 -3 -22 -1 -26 5 -5 8 -11 8 -21 -1 -11 -9 -14
-9 -14 1 0 7 -7 10 -16 6 -9 -3 -21 -3 -27 1 -7 4 -46 8 -87 9 -57 0 -78 -3
-87 -15 -9 -11 -12 -12 -13 -3 0 9 -5 10 -19 2 -14 -7 -22 -7 -27 1 -5 8 -10
6 -16 -5 -9 -16 -11 -16 -24 1 -12 17 -13 17 -14 1 0 -19 -20 -26 -20 -8 0 6
-4 10 -10 10 -5 0 -10 -7 -10 -15 0 -13 -3 -13 -20 -3 -17 11 -22 10 -29 -1
-5 -7 -14 -10 -20 -7 -6 4 -11 2 -11 -3 0 -16 -40 -13 -46 3 -13 34 86 140
137 149 13 2 31 7 40 11 9 4 20 6 25 5 5 -1 16 0 24 3 46 17 89 25 92 17 2 -5
14 -3 28 5 15 7 30 9 36 4 7 -5 25 -8 40 -6z m1302 -26 c57 -7 130 -38 138
-60 8 -20 -32 -93 -57 -107 -21 -11 -135 -8 -192 5 -39 9 -109 39 -133 56 -40
29 -37 38 22 65 56 25 154 55 164 50 3 -1 29 -5 58 -9z m-2521 -27 c43 -17 82
-35 88 -40 14 -14 -40 -55 -96 -74 -70 -24 -88 -27 -169 -32 -86 -4 -109 8
-136 72 -17 41 -14 49 27 71 81 42 186 43 286 3z m308 -33 c102 -27 125 -38
125 -56 0 -19 -4 -18 -77 9 -43 16 -96 37 -118 47 -22 10 -42 18 -45 19 -3 1
-17 7 -32 13 -52 22 -28 20 55 -5 45 -13 87 -25 92 -27z m1588 34 c-5 -17 -20
-27 -48 -31 -5 -1 -21 -5 -34 -10 -13 -5 -40 -12 -60 -15 -20 -3 -44 -11 -55
-16 -11 -6 -16 -6 -13 0 4 5 28 17 54 26 49 18 89 34 133 54 14 6 26 11 27 11
0 1 -1 -8 -4 -19z m302 11 c-9 -9 -169 -75 -257 -107 -35 -12 -38 -12 -38 6 0
20 2 21 230 89 80 24 76 23 65 12z m-1682 -22 c166 -68 170 -71 42 -39 -110
28 -112 29 -119 45 -8 21 16 19 77 -6z m-238 -96 c39 -14 122 -41 185 -60 63
-18 118 -37 123 -42 4 -4 -10 -15 -32 -23 -36 -15 -45 -15 -88 -1 -27 8 -84
16 -128 17 -66 2 -96 9 -163 37 -45 19 -81 36 -81 39 1 15 84 70 98 65 9 -4
48 -18 86 -32z m1926 -2 l42 -40 -29 -7 c-16 -4 -51 -18 -79 -32 -38 -20 -67
-26 -125 -28 -81 -2 -124 -8 -164 -24 -19 -7 -36 -5 -68 9 l-43 19 28 11 c16
6 32 11 36 11 13 0 313 100 330 110 24 14 26 13 72 -29z m-1604 -1 c41 -11 85
-27 96 -35 19 -13 19 -15 3 -21 -10 -4 -48 1 -84 10 -37 9 -75 19 -85 21 -47
11 -55 16 -50 35 6 21 9 21 120 -10z m1256 11 c4 -15 -2 -22 -24 -30 -16 -5
-29 -7 -29 -4 0 3 -7 0 -15 -7 -8 -7 -15 -10 -15 -6 0 3 -12 1 -27 -5 -73 -28
-165 -16 -96 13 23 9 172 53 194 57 4 1 9 -8 12 -18z m-1778 -100 c22 -6 57
-21 77 -34 l38 -22 -23 -32 c-27 -38 -75 -63 -123 -63 -34 0 -105 30 -130 54
-6 7 -30 28 -53 47 l-42 34 63 16 c69 17 131 17 193 0z m2377 -2 c9 -5 27 -9
40 -9 20 0 17 -6 -27 -46 -71 -65 -143 -97 -203 -90 -38 4 -54 13 -86 46 l-38
42 36 24 c65 45 221 63 278 33z m-2075 -73 c90 -9 98 -14 76 -39 -24 -26 -140
-80 -179 -82 -17 -2 -45 4 -63 11 -29 12 -31 15 -18 29 9 8 24 26 35 40 20 25
71 57 81 51 3 -2 34 -7 68 -10z m1712 -24 c13 -15 33 -37 44 -49 l20 -23 -36
-15 c-46 -19 -82 -13 -165 28 -63 31 -108 73 -80 74 26 1 133 15 136 18 11 10
61 -10 81 -33z m-1253 -196 c8 -8 14 -19 14 -25 0 -12 11 -14 49 -11 14 1 21
-2 17 -9 -7 -10 8 -15 42 -14 6 1 12 -3 12 -8 0 -6 8 -5 19 1 16 8 20 6 23
-12 3 -22 15 -26 113 -31 17 -1 33 -6 38 -12 5 -7 10 -7 15 0 4 6 25 11 47 13
22 2 49 5 60 7 11 2 26 4 33 4 6 1 12 11 12 22 0 18 2 20 16 8 13 -10 17 -10
24 1 5 8 12 11 16 7 4 -4 18 0 31 8 13 9 33 13 43 10 18 -6 22 -1 19 21 0 3 8
12 18 19 15 11 23 9 59 -16 50 -34 81 -82 82 -126 0 -17 5 -40 11 -50 6 -12 6
-25 0 -34 -5 -7 -9 -9 -9 -4 0 6 -5 2 -11 -8 -6 -9 -14 -15 -20 -12 -5 4 -9 1
-9 -4 0 -6 -7 -11 -15 -11 -8 0 -14 -5 -13 -11 3 -13 -21 -20 -77 -22 -22 -1
-45 -5 -52 -10 -6 -4 -15 -3 -18 3 -8 13 -47 2 -58 -16 -6 -11 -12 -11 -26 -2
-11 6 -26 8 -37 3 -11 -4 -29 -7 -41 -6 -13 1 -23 -3 -23 -9 0 -7 -6 -10 -14
-7 -7 3 -23 -1 -35 -9 -19 -14 -21 -13 -22 3 -1 17 -2 17 -6 0 -4 -17 -6 -17
-23 -2 -9 9 -21 15 -26 14 -5 -1 -16 0 -24 3 -42 15 -100 24 -100 17 0 -14
-27 -10 -33 4 -3 9 -26 13 -77 12 -46 -1 -77 3 -85 11 -8 9 -15 10 -23 2 -7
-7 -12 -4 -17 11 -6 19 -17 25 -37 22 -5 0 -8 6 -8 14 0 8 -6 14 -12 13 -13
-3 -13 5 -5 88 4 41 35 87 82 123 47 36 43 35 61 17z m624 -731 c0 -27 -40
-73 -58 -67 -7 2 -12 -7 -12 -22 0 -14 -4 -26 -10 -26 -5 0 -9 -3 -9 -7 3 -19
-2 -33 -12 -33 -6 0 -25 -11 -43 -25 -18 -14 -42 -25 -54 -25 -11 0 -23 -4
-27 -10 -7 -11 -65 -8 -65 4 0 5 -6 4 -12 -1 -19 -13 -68 -16 -68 -4 0 6 -9
11 -20 11 -22 0 -61 19 -72 35 -4 6 -12 11 -18 11 -5 1 -15 2 -22 3 -6 0 -9 4
-6 7 4 3 0 20 -7 39 -8 18 -11 36 -7 40 4 4 0 5 -8 4 -21 -5 -66 41 -65 66 0
21 30 29 51 13 6 -4 29 -9 51 -11 22 -2 45 -7 52 -11 6 -4 15 -5 20 -1 5 3 12
1 15 -4 4 -6 18 -6 36 -1 39 11 120 11 142 -1 10 -6 24 -6 31 -2 14 8 29 12
72 17 41 5 71 13 92 25 23 12 33 5 33 -24z"/>
</g>
</svg>
