<?xml version="1.0" encoding="UTF-8"?>
<svg id="Layer_2" data-name="Layer 2" xmlns="http://www.w3.org/2000/svg" viewBox="0 0 411.05 474.95">
  <defs>
    <style>
      .cls-1 {
        fill: #fcba16;
        stroke-width: 0px;
      }
    </style>
  </defs>
  <g id="g17">
    <g id="g19">
      <g id="g21">
        <g id="g31">
          <path class="cls-1" d="M205.5,0L0,118.6v237.3l8.6,5,133.4,77.1,5.36,3.09,46.83,26.99,11.31,6.52,11.28-6.52,15.04-8.69,37.18-21.49,133.4-77,8.6-5V118.6L205.5,0ZM402.4,351l-170.58,98.5v-143.1h62.99l13.06-71.15h-76.05v-25.17c0-37.6,14.75-52.06,52.93-52.06,11.86,0,21.4.29,26.9.87v-64.5c-10.41-2.89-35.87-5.78-50.62-5.78-77.8,0-113.67,36.73-113.67,115.98v30.66h-48.01v71.15h48.01v124.73L8.6,351V123.7L205.5,10l196.9,113.7v227.3Z"/>
        </g>
      </g>
    </g>
  </g>
</svg>