<?xml version="1.0" encoding="UTF-8"?>
<svg id="Layer_4" data-name="Layer 4" xmlns="http://www.w3.org/2000/svg" viewBox="0 0 411.05 474.95">
  <defs>
    <style>
      .cls-1 {
        fill-rule: evenodd;
      }

      .cls-1, .cls-2 {
        fill: #fcba16;
        stroke-width: 0px;
      }
    </style>
  </defs>
  <path class="cls-2" d="M205.55.35L.05,118.95v237.3l8.6,5,133.4,77.1,21.44,12.36,42.06,24.24,16.66-9.63,46.84-27.07,133.4-77,8.6-5V118.95L205.55.35ZM292.85,414.64l-70.64,40.79v-173.63c0-27.81,12.8-44.36,37.3-44.36,22.53,0,33.34,15.9,33.34,44.36v132.84ZM402.45,351.35l-48.67,28.1v-119.04c0-52.97-30.02-78.58-71.96-78.58s-59.61,32.68-59.61,32.68v-26.63h-58.72v252.88l-39.15-22.6v-230.28h-61.23v194.92l-54.46-31.45V124.05L205.55,10.35l196.9,113.7v227.3Z"/>
  <path class="cls-1" d="M93.43,89.02c-20,0-36.21,16.34-36.21,36.48s16.21,36.49,36.21,36.49,36.2-16.34,36.2-36.49-16.2-36.48-36.2-36.48Z"/>
</svg>