<?xml version="1.0" encoding="UTF-8"?>
<svg id="Layer_1" data-name="Layer 1" xmlns="http://www.w3.org/2000/svg" version="1.1" viewBox="0 0 411 474.6">
  <defs>
    <style>
      .cls-1 {
        fill: none;
      }

      .cls-1, .cls-2 {
        stroke-width: 0px;
      }

      .cls-2 {
        fill: #fcba16;
      }
    </style>
  </defs>
  <path class="cls-2" d="M206,.2L.4,118.8v237.3l8.6,5,133.4,77.1,63.5,36.6,63.5-36.7,133.4-77,8.6-5V118.8L206,.2ZM402.8,351.2l-196.9,113.7L9.1,351.2V123.8L206,10.1l196.9,113.7v227.3Z"/>
  <path class="cls-1" d="M206,10.1L9.1,123.8v227.3l196.9,113.7,196.9-113.7V123.8L206,10.1ZM385.8,159.8c-1.2,11-4.6,21.2-9.9,30.4-3.9,6.7-9.1,9.8-15.7,9.4-.1,0-.3,0-.6.1,0,.3.1.6.2.8,1.1,2.5.9,5-.7,7.7-2.4,4.3-5.8,7.7-10.3,10.2-1.2.7-2.5,1.4-3.3,2.4-4.4,5.4-9.7,9.5-16.2,14-2.9,2-7.4,4.6-12.6,3.3-4.1-1-7.8-.2-11.7,2.6-3.9,2.7-8.3,3.2-13,1.4-1.4-.5-2.7-1.1-4-1.7-.8-.4-1.6-.7-2.4-1.1-.3-.1-.7-.3-1-.4,0,0,.1.2.2.2.7.7,1.4,1.4,2.2,2,.9.8,1.7,1.6,2.6,2.5,1.6,1.5,2.2,3.4,1.6,5.5-.3,1.2,0,2.1.9,3.3,2.9,4.3,7.4,5.5,10.6,5.8,3.3.3,6,1.6,8.7,2.9.7.3,1.4.7,2.2,1,.7.3,1.2.8,1.7,1.3.2.2.5.4.7.6l.7.5-.6.6-.2.2-.4.4-.5-.2-1.4-.7c-.2,0-.3-.1-.4-.2.2.5.4.9.6,1.4l1.3,3.1-1.6-.8c-1-.4-1.6-.9-2.1-1.6-1-1.4-1.8-1.9-3.3-1.3-1.3.6-3.1,0-3.8-.3-1.7-.7-3.4-1.4-5-2.1-1.9-.8-3.9-1.7-5.9-2.4-2.7-1-4.5-2.3-6-4.1-.3-.4-.9-.7-1.1-.7-2.9,1-4.6-.7-6-2.4-2.1-2.6-4.3-5.2-6.3-7.8l-1.2-1.5c-.8-1-1.1-1.2-1.8-.9-2.1,1-3.5-.2-4.6-1.6-3-3.9-6.2-7.7-9.4-11.3-.3-.4-1.3-.7-1.6-.7-1.7.9-3,.4-4-.2-2.6-1.5-5.3-1.9-8.2-2.3-1.7-.3-3.6-.6-5.3-1.1,0,0,0,0-.2,0,.2,1.5,1.1,2.6,2.9,3.6,4.9,2.7,8.6,5.8,11.4,9.3.8,1,1.7,2.2,1.6,3.3-.4,2.7.7,4.4,3.5,5.7.6.3,1.1.8,1.5,1.2l.2.2c7,6.9,11.5,15.7,13.2,26.1.2,1.4-.1,3.1-1,5.1-.5,1-.5,1.6,0,2.3,3.6,6.7,4.6,14,5,19.6.2,2.4-.5,4.5-2.2,6.3-.4.5-.8,1.5-.8,2,.1,2.9.5,5.9,2.9,8.3,1,1,2,2.1,2.9,3.2,1,1.2,2,2.4,3.2,3.5,1.7,1.6,2.7,3.9,3.6,6.1.4.8.7,1.7,1.2,2.5.2.5.2.9.1,1.4,0,.2,0,.4,0,.7v3.1l-1.4-2.9c-.4-.8-.7-1.5-1.1-2.2,0-.2-.2-.4-.3-.5-.2.8-.4,1.7-.6,2.5l-.4,1.6-.9-1.4c-.4-.6-.6-1.2-.7-1.8,0-.3-.2-.5-.2-.7v-.3c-.4-.6-.7-1.4-1.1-1.6-4.9-2.7-7.7-7.1-9.6-10.6-.4-.8-.9-1.6-1.4-2.3-1.5-2.3-3.1-4.7-2.9-7.9,0,0-.1-.2-.2-.2-3-1.1-3.8-3.8-4.4-5.8-1.7-5.7-2.6-12.1-2.8-20.1,0-.2-.3-.5-.4-.7-.1-.2-.3-.3-.4-.5,0,.1,0,.4-.1.6-.1.6-.2,1.4-1,1.9h0s0,.3,0,.3c0,.4.2.8.3,1.2s.3,1,0,1.5c-.2.3-.5.5-1,.6,0,0,0,.1,0,.2,0,.3,0,.6-.1,1,0,.3,0,.7-.1,1,0,.3-.2,1.3-.9,1.4-.2,0-.2,0-.2,0,0,0,0,.3,0,.4,0,.1,0,.3,0,.4,0,.5.2,1.1.2,1.7v.6c0,0-.6.1-.6.1-.2,0-.4,0-.6.1,0,.2,0,.4.1.6,0,.4.1.9.2,1.3l.2.9h-.9c-.5-.1-1.1-.2-1.2,0,0,0-.1.1-.1.4,0,.6-.7.9-1.1.9h-.2c0,.1,0,.3.1.4v.3c.3,1,.4,1.6,0,2.1-.3.3-.7.4-1.3.4l1.3,3.9h-1.4c-.3,0-.5,0-.7,0,0,0-.3,0-.4,0,0,.2,0,.3,0,.4s0,.1,0,.2c0,.2.1.5.1.8-.1.5-.3,1.3-1,1.4-.2,0-.2,0-.2,0,0,0,0,.3,0,.4v.6c.2.5.2,1.1.2,1.6,0,.5-.5.9-.6,1-.3.2-.6.3-.9.3-.3,0-.3,0-.3,0,0,0,0,.3,0,.5,0,.3,0,.5,0,.7,0,.7,0,1.4-.6,1.8-.5.4-.5.7-.5,1.5v.5c0,.5-.1,1.1-.6,1.6-.3.3-.8.4-1.3.4-.1,0-.2,0-.2,0,0,0,0,0,0,.3-.1.9-.1,1.7-.2,2.6,0,.7-.2,1.2-.6,1.6-.3.3-.8.5-1.4.4-.4,0-.7,0-.8.8l-.2.7c-.2,1-.5,2.1-.8,3.1-.2.6-.9,1.3-1.7,1.3-.4,0-.6,0-.9.7-.3.5-1,1.3-1.7,1.3-1.4,0-2.1.4-2.3,1.6-.1.7-.5,1.2-.9,1.4-.3.2-.7.3-1.4.1,0,0-.2,0-.2,0,0,0,0,0-.1.3-.2.9-.4,1.6-.4,2.3-.1.7-.4,1.3-.9,1.5-.5.3-1,.3-1.7,0-.3-.1-.3-.2-.6.2-.3.5-.9.9-1.5,1.1q-1.5.3-1.9,1.8c-.1.5-.8,1.4-1.5,1.4-.5,0-.7.1-.9.8-.2.5-.7,1.8-2.3,1.4-.4-.1-.9-.3-1.3-.5-.8-.4-1.6-.7-2.5-.6-.5,0-.9-.1-1.3-.3-.7-.3-.9-.3-1.3,0v.2c-.1,0-.5,0-.5,0-.2,0-.5,0-.7-.2h0c0,0-.3.3-.4.4-.4.6-.9,1.1-1.6,1.1-.6,0-1.1-.6-1.4-1-.3-.5-.4-.5-.6-.5h-.1s-.2,0-.2,0c-.1,0-.2,0-.6.5-.3.5-.7,1-1.4,1h0c-.6,0-1.1-.5-1.4-1-.2-.3-.4-.5-.5-.6,0,0,0,0-.2,0,0,0-.4.1-.6.1h-.3c0,0-.2-.3-.2-.3-.3-.3-.5-.2-1.2,0-.4.2-.8.4-1.3.3-1,0-1.7.3-2.6.6-.4.2-.8.4-1.3.5-1.6.5-2.1-.9-2.3-1.3-.2-.7-.4-.8-.9-.8-.7,0-1.4-.9-1.5-1.4q-.4-1.6-1.9-1.8c-.6-.2-1.2-.6-1.5-1.1-.2-.4-.3-.3-.5-.2-.7.3-1.3.3-1.7,0-.5-.3-.7-.8-.8-1.6,0-.6-.2-1.3-.4-2.2,0-.3-.1-.4-.1-.4,0,0,0,0-.2,0-.6.2-1.1,0-1.4-.1-.4-.3-.8-.7-.9-1.4-.2-1.3-.8-1.7-2.3-1.6-.7,0-1.5-.7-1.7-1.3-.3-.6-.5-.7-.9-.7-.7,0-1.4-.7-1.6-1.3-.4-1.1-.6-2.3-.9-3.4v-.4c-.3-.8-.5-.8-.9-.8-.6,0-1.1,0-1.5-.4-.4-.3-.6-.9-.6-1.6,0-.9,0-1.7-.2-2.5,0-.3,0-.3,0-.3,0,0,0,0-.2,0-.6,0-1,0-1.3-.4-.5-.4-.6-1-.6-1.6,0-.2,0-.3,0-.5,0-.7,0-1.1-.5-1.5-.6-.4-.6-1.2-.5-1.8,0-.2,0-.4,0-.6,0-.3,0-.5,0-.7,0,0-.1,0-.2,0-.3,0-.6,0-.9-.3-.1-.1-.6-.5-.6-1,0-.5,0-1,.1-1.5,0-.2,0-.4,0-.5v-.2c0-.1,0-.4,0-.5,0,0,0,0-.2,0-.7-.1-.9-.9-1-1.4,0-.3,0-.6.1-.8,0,0,0-.2,0-.2,0,0,0-.3,0-.4-.1,0-.3,0-.4,0-.2,0-.4,0-.7,0h-1.4s1.3-3.9,1.3-3.9c-.6,0-1-.1-1.3-.4-.4-.5-.3-1,0-2v-.4c.1-.1.2-.3.2-.4h-.3c-.4,0-1.1-.4-1.1-.9s0-.3-.1-.4c-.1-.2-.7-.1-1.1,0h-.9c0,0,.1-.8.1-.8,0-.5.2-.9.2-1.3,0-.2,0-.4.1-.6-.2,0-.3,0-.6-.1h-.6c0-.1,0-.8,0-.8,0-.6.1-1.2.2-1.7,0-.1,0-.3,0-.4,0-.1,0-.3,0-.4,0,0,0,0-.2,0-.8-.1-.9-1.2-.9-1.5,0-.3,0-.6,0-.9,0-.4,0-.7-.1-1,0,0,0-.1,0-.2-.5-.1-.8-.3-1-.6-.3-.5-.2-1.1,0-1.5.1-.4.3-.8.3-1.2v-.3s0,0,0,0c-.7-.4-.9-1.3-1-1.9,0-.3,0-.5-.1-.6-.1.2-.3.3-.4.5-.2.2-.5.5-.5.6-.2,8-1.1,14.4-2.8,20.1-.6,2-1.4,4.7-4.4,5.8,0,0-.1.1-.1.2.2,3.3-1.3,5.6-2.9,7.9-.5.8-1,1.5-1.4,2.3-1.9,3.6-4.8,7.9-9.6,10.6-.4.2-.7,1-1,1.6v.3c-.2.2-.3.5-.3.7-.2.6-.3,1.2-.7,1.8l-.9,1.4-.4-1.6c-.2-.8-.4-1.7-.6-2.5,0,.1-.2.3-.3.5-.3.7-.7,1.4-1.1,2.3l-1.4,2.9v-3.1c0-.3,0-.5,0-.7,0-.5,0-.9.1-1.4.4-.8.8-1.7,1.2-2.5,1-2.2,1.9-4.5,3.6-6.1,1.1-1.1,2.2-2.3,3.2-3.5.9-1.1,1.8-2.2,2.9-3.2,2.4-2.4,2.8-5.4,2.9-8.3,0-.6-.4-1.5-.8-2-1.7-1.8-2.4-3.9-2.2-6.3.5-5.7,1.5-13,5.1-19.6.4-.7.4-1.2-.1-2.3-.9-2-1.3-3.7-1.1-5.1,1.7-10.4,6.2-19.2,13.2-26.1l.2-.2c.4-.4.9-.9,1.5-1.2,2.8-1.4,3.9-3.1,3.5-5.7-.2-1.1.7-2.3,1.5-3.3,2.9-3.5,6.6-6.5,11.5-9.3,1.8-1,2.7-2.1,2.9-3.6-.1,0-.2,0-.3,0-1.7.5-3.5.8-5.2,1.1-2.9.4-5.7.9-8.2,2.3-1,.6-2.4,1.1-4.1.2-.2,0-1.2.3-1.6.7-3.2,3.7-6.3,7.5-9.3,11.3-1,1.3-2.4,2.5-4.6,1.6-.7-.3-1-.1-1.8.9l-1.2,1.4c-2.1,2.6-4.2,5.3-6.3,7.9-1.4,1.7-3.1,3.4-6.1,2.4-.2,0-.8.4-1.1.8-1.5,1.8-3.3,3.1-6,4.1-2,.7-4,1.6-5.9,2.4-1.6.7-3.3,1.4-5,2.1-.7.3-2.5.8-3.9.3-1.5-.6-2.3,0-3.3,1.3-.5.7-1.2,1.2-2.1,1.6l-1.6.8,1.8-4.5c-.2,0-.3.1-.4.2l-1.9.9-.4-.4c0,0-.1-.1-.2-.2l-.7-.6.7-.5c.2-.2.5-.4.7-.6.5-.4,1.1-.9,1.7-1.3.7-.3,1.5-.7,2.2-1,2.6-1.3,5.4-2.6,8.7-2.9,3.2-.3,7.7-1.5,10.6-5.8.8-1.2,1.2-2.1.8-3.3-.6-2,0-3.9,1.6-5.5.9-.8,1.7-1.7,2.6-2.5.7-.7,1.5-1.4,2.2-2,0,0,.2-.1.2-.2-.3.2-.7.3-1,.4-.9.4-1.7.7-2.4,1.1-1.3.6-2.6,1.2-4,1.7-4.7,1.8-9.1,1.3-13-1.4-4-2.8-7.6-3.6-11.8-2.6-5.1,1.2-9.6-1.3-12.5-3.3-6.6-4.5-11.9-8.6-16.3-14-.8-1-2-1.7-3.3-2.4-4.6-2.6-8-5.9-10.3-10.2-1.5-2.7-1.7-5.2-.7-7.7.1-.2.1-.5.2-.8-.2,0-.4-.1-.6-.1-6.6.4-11.7-2.6-15.7-9.4-5.3-9.2-8.7-19.4-9.9-30.4-.4-3.7,1-6.3,4.3-8,7-3.6,14.8-5.2,23.7-5,15.8.4,31.1,4.7,45.6,12.7,8.1,4.5,16.1,9.2,23.9,13.8,4.3,2.5,8.5,5,12.7,7.5,2,1.2,3.9,2.2,6.2,3.4.5.2.9.5,1.3.7-.2-.6-.3-1-.4-1.4-1.3-2.9-2.2-6.1-1.1-9.7.2-.9-.2-2.1-.6-3.2-.7-1.8-1.3-3.7-2-5.4-.7-1.9-1.4-3.9-2.1-5.8-.7-1.9-.2-3.9,1.3-5.5,1.1-1.2,1.1-2.4.7-4.2-.9-4.3-3.7-7-6.7-10-.5-.6-1.1-1.1-1.7-1.7-1.9-1.9-3.3-4.3-4.6-6.6-.5-.8-.9-1.6-1.5-2.4-.4-.6-.2-1.5,0-2.1l.6-2.3.8,2c.7,1.7,1,2.3,1.3,2.7,0-.6.2-1.2.3-1.7l.2-1.2,1.7-.2v.7c.2.5.3.9.4,1.4v.3c.3,1.4,1.1,2.1,2.4,3l.3.3c3,2.4,5.6,5.2,8,8,1.5,1.7,2.7,3.6,3.7,5.4.5.9.8,2,1,3.4.2,1.6.6,2.3,1.7,2.6,1.7.5,2.7,1.8,3,3.9l.6,3.5c.5,3,1,6.2,1.4,9.3.2,1.3.5,1.6,1.4,1.6,2.7,0,2.8,2.4,2.8,3.2,0,1.8.3,3.7.7,5.8l17.1,20.2,3.7-6.4h.2s0,0,0,0c.2-.3.4-.5.4-.7.1-.3.1-.8.2-1.2v-.5c.1-1.2.5-2,1.3-2.3.6-.3,1.3-.3,2,0l1-2.2,1,.7c.2.1.3.3.5.4,1.9-2.6,4.5-3.9,7.1-5.1l.5-.3c.6-.3.8-.4.8-.5,0,0-.3-.3-.6-.7l-3.4-4.6c-2.7-3.6-5.4-7.3-8-10.9-.8-1-1.3-1.5-2.7-1.3-1.4.2-2.8-.2-4.1-.5-.3,0-.6-.1-.9-.2-1.2-.3-2.4-.7-3.6-1l-1.1-.3c-.3-.1-.5-.2-.8-.3l-.7-.3v-.5c0,0,0-.9,0-.9h.6c.1,0,.3-.1.4-.2.3,0,.7-.1,1.1,0,1.8.1,3.6.3,5.4.5,1.4.1,2.6-.1,3.7-.8,1.5-1,2.6-.8,3.7.5,2.1,2.6,4.2,5.2,6.3,7.7l2.8,3.6c1.9,2.4,3.8,4.8,5.7,7.3.6.8,1.2,1.1,2.2,1,.8,0,1.7,0,2.6-.1,1.3,0,2.6-.1,3.9-.1s2.6,0,3.9.1c.9,0,1.8,0,2.6.1,1,0,1.6-.3,2.2-1,1.9-2.5,3.8-4.9,5.7-7.3l2.7-3.4c2.1-2.6,4.1-5.2,6.3-7.8,1.1-1.4,2.2-1.5,3.7-.5,1.1.7,2.3,1,3.7.8,1.8-.2,3.6-.3,5.4-.5.4,0,.8,0,1.1,0,.2,0,.3,0,.4,0h.6v1.6l-.6.3c-.3.1-.5.2-.8.3l-1.1.3c-1.1.4-2.3.8-3.5,1-.3,0-.6.1-1,.2-1.4.4-2.8.7-4.1.5-1.4-.2-2,.2-2.8,1.3-3.8,5.2-7.6,10.3-11.4,15.4-.3.4-.5.7-.5.8,0,0,.3.1.8.4l.5.3c2.6,1.3,5.2,2.6,7,5.1h0c.1-.1.3-.3.5-.4l.9-.7,1.1,2.2c.8-.3,1.5-.3,2,0,.7.4,1.1,1.1,1.2,2.3v.5c0,.4,0,.9.2,1.2,0,.2.3.4.4.7,0,0,0,0,0,0h.2c0,0,3.7,6.4,3.7,6.4l17.1-20.2c.4-2.1.6-4,.6-5.8.1-2.1,1-3.2,2.9-3.2,1,0,1.2-.3,1.4-1.6.4-3.2,1-6.3,1.4-9.4l.6-3.4c.3-2,1.3-3.3,3-3.9,1.1-.3,1.6-1,1.8-2.6.2-1.5.5-2.6,1-3.4,1.1-1.8,2.2-3.7,3.7-5.4,2.5-2.8,5-5.6,8-8l.3-.3c1.2-.9,2.1-1.6,2.3-3v-.3c.2-.5.3-.9.3-1.4l.2-.7,1.7.2.2,1.3c.1.5.2,1.1.3,1.6.3-.4.6-1,1.3-2.7l.8-2,.6,2.3c.2.7.4,1.5,0,2.1-.5.8-1,1.6-1.5,2.4-1.4,2.3-2.8,4.7-4.7,6.6-.5.5-1.1,1.1-1.6,1.7-3,2.9-5.8,5.7-6.7,10-.4,1.8-.4,3,.7,4.2,1.5,1.7,2,3.6,1.3,5.5-.7,1.9-1.4,3.9-2.1,5.7-.7,1.8-1.4,3.6-2,5.4-.4,1-.8,2.3-.6,3.2,1.1,3.7.1,6.9-1.1,9.7-.2.4-.3.8-.4,1.4.4-.2.9-.5,1.3-.7,2.2-1.2,4.2-2.2,6.1-3.4,4.3-2.5,8.5-5,12.8-7.5,7.8-4.6,15.9-9.3,23.9-13.8,14.4-8,29.7-12.3,45.5-12.7,9-.2,16.7,1.4,23.7,5,3.3,1.7,4.7,4.3,4.3,8Z"/>
  <path class="cls-2" d="M381.5,151.8c-7-3.6-14.7-5.2-23.7-5-15.8.4-31.1,4.7-45.5,12.7-8.1,4.5-16.1,9.2-23.9,13.8-4.3,2.5-8.5,5-12.8,7.5-1.9,1.2-4,2.2-6.1,3.4-.5.2-.9.5-1.3.7.1-.6.3-1,.4-1.4,1.2-2.9,2.2-6.1,1.1-9.7-.2-.9.2-2.2.6-3.2.6-1.8,1.3-3.6,2-5.4.7-1.9,1.4-3.8,2.1-5.7.7-1.9.2-3.9-1.3-5.5-1.1-1.2-1.1-2.4-.7-4.2.9-4.3,3.7-7,6.7-10,.5-.6,1.1-1.1,1.6-1.7,1.9-1.9,3.3-4.3,4.7-6.6.5-.8.9-1.6,1.5-2.4.4-.6.2-1.5,0-2.1l-.6-2.3-.8,2c-.7,1.7-1,2.3-1.3,2.7,0-.6-.1-1.1-.3-1.6l-.2-1.3-1.7-.2-.2.7c0,.5-.1.9-.3,1.4v.3c-.3,1.4-1.2,2.1-2.4,3l-.3.3c-3,2.4-5.5,5.2-8,8-1.5,1.6-2.6,3.6-3.7,5.4-.5.9-.8,2-1,3.4-.2,1.6-.6,2.3-1.8,2.6-1.7.5-2.7,1.8-3,3.9l-.6,3.4c-.5,3.1-1,6.2-1.4,9.4-.2,1.3-.4,1.6-1.4,1.6-1.8,0-2.7,1.1-2.9,3.2,0,1.8-.3,3.7-.6,5.8l-17.1,20.2-3.7-6.4h-.2s0,0,0,0c-.2-.3-.4-.5-.4-.7-.2-.3-.2-.8-.2-1.2v-.5c-.1-1.2-.6-2-1.3-2.3-.5-.3-1.3-.3-2,0l-1.1-2.2-.9.7c-.2.1-.3.3-.5.4h0c-1.8-2.6-4.5-3.9-7-5.1l-.5-.3c-.5-.2-.7-.4-.8-.4,0-.1.2-.4.5-.8,3.8-5.2,7.6-10.3,11.4-15.4.8-1,1.3-1.5,2.8-1.3,1.4.2,2.8-.2,4.1-.5.3,0,.6-.1,1-.2,1.2-.3,2.4-.7,3.5-1l1.1-.3c.3-.1.5-.2.8-.3l.6-.3v-1.5h-.6c-.2,0-.3-.1-.4-.2-.3,0-.7-.1-1.1,0-1.8.1-3.6.3-5.4.5-1.4.1-2.6-.1-3.7-.8-1.5-1-2.6-.8-3.7.5-2.2,2.6-4.2,5.2-6.3,7.8l-2.7,3.4c-1.9,2.4-3.9,4.9-5.7,7.3-.6.8-1.2,1-2.2,1-.9,0-1.7,0-2.6-.1-1.3,0-2.6-.1-3.9-.1s-2.6,0-3.9.1c-.9,0-1.7,0-2.6.1-1,0-1.6-.3-2.2-1-1.9-2.4-3.8-4.9-5.7-7.3l-2.8-3.6c-2.1-2.6-4.2-5.2-6.3-7.7-1.1-1.4-2.2-1.5-3.7-.5-1.1.7-2.3,1-3.7.8-1.8-.2-3.6-.3-5.4-.5-.4,0-.8,0-1.1,0-.2,0-.3,0-.4,0h-.6v1.5c0,0,.6.3.6.3.3.1.5.2.8.3l1.1.3c1.1.4,2.3.8,3.6,1,.3,0,.6.1.9.2,1.3.4,2.8.7,4.1.5,1.4-.2,2,.2,2.7,1.3,2.6,3.6,5.3,7.3,8,10.9l3.4,4.6c.3.4.5.7.6.7,0,0-.2.2-.8.5l-.5.3c-2.6,1.3-5.2,2.6-7.1,5.1-.1-.1-.3-.3-.5-.4l-1-.7-1,2.2c-.8-.3-1.5-.3-2,0-.7.4-1.1,1.1-1.2,2.3v.5c0,.4,0,.9-.2,1.2,0,.2-.3.4-.4.7t0,0h-.2c0,0-3.7,6.4-3.7,6.4l-17.1-20.2c-.4-2.1-.6-4-.7-5.8,0-.8-.1-3.2-2.8-3.2-1,0-1.2-.3-1.4-1.6-.4-3.1-1-6.3-1.4-9.3l-.6-3.5c-.3-2-1.3-3.3-3-3.9-1.1-.3-1.5-1-1.7-2.6-.2-1.5-.5-2.6-1-3.4-1-1.7-2.2-3.7-3.7-5.4-2.5-2.8-5-5.6-8-8l-.3-.3c-1.2-.9-2.1-1.6-2.3-3v-.3c-.2-.5-.2-.9-.3-1.4v-.7c-.1,0-1.8.2-1.8.2l-.2,1.2c0,.6-.2,1.2-.3,1.7-.4-.4-.6-1-1.3-2.7l-.8-2-.6,2.3c-.1.7-.4,1.5,0,2.1.5.8,1,1.6,1.5,2.4,1.4,2.3,2.7,4.7,4.6,6.6.6.5,1.1,1.1,1.7,1.7,3,2.9,5.8,5.7,6.7,10,.4,1.8.4,3-.7,4.2-1.5,1.7-2,3.6-1.3,5.5.7,1.9,1.4,3.9,2.1,5.8.7,1.8,1.3,3.6,2,5.4.3,1,.8,2.3.6,3.2-1.1,3.7-.2,6.9,1.1,9.7.2.4.3.8.4,1.4-.5-.2-.9-.5-1.3-.7-2.3-1.2-4.2-2.2-6.2-3.4-4.3-2.5-8.5-5-12.7-7.5-7.8-4.6-15.9-9.3-23.9-13.8-14.4-8-29.7-12.3-45.6-12.7-8.9-.2-16.6,1.4-23.7,5-3.3,1.7-4.7,4.3-4.3,8,1.2,11,4.6,21.2,9.9,30.4,3.9,6.7,9,9.8,15.7,9.4.1,0,.3,0,.6.1,0,.3-.1.6-.2.8-1,2.5-.8,5,.7,7.7,2.4,4.3,5.8,7.7,10.3,10.2,1.2.7,2.5,1.4,3.3,2.4,4.4,5.4,9.7,9.5,16.3,14,2.9,2,7.4,4.6,12.5,3.3,4.2-1,7.8-.2,11.8,2.6,3.9,2.7,8.3,3.2,13,1.4,1.4-.5,2.7-1.1,4-1.7.8-.4,1.6-.7,2.4-1.1.3-.1.6-.3,1-.4,0,0-.1.2-.2.2-.7.7-1.4,1.4-2.2,2-.9.8-1.7,1.6-2.6,2.5-1.6,1.5-2.1,3.4-1.6,5.5.3,1.2,0,2.1-.8,3.3-2.9,4.3-7.4,5.5-10.6,5.8-3.3.3-6,1.6-8.7,2.9-.7.3-1.5.7-2.2,1-.7.3-1.2.8-1.7,1.3-.2.2-.4.4-.7.6l-.7.5.7.6c0,0,.1.1.2.2l.4.4,1.9-.9c.1,0,.3-.2.4-.2l-1.8,4.5,1.6-.8c.9-.4,1.6-.9,2.1-1.6,1-1.4,1.8-1.9,3.3-1.3,1.3.6,3.1,0,3.9-.3,1.7-.7,3.4-1.4,5-2.1,1.9-.8,3.9-1.7,5.9-2.4,2.7-1,4.5-2.3,6-4.1.3-.4.9-.7,1.1-.8,3,1,4.7-.7,6.1-2.4,2.1-2.6,4.3-5.2,6.3-7.9l1.2-1.4c.8-1,1.1-1.2,1.8-.9,2.1,1,3.5-.2,4.6-1.6,3-3.9,6.2-7.7,9.3-11.3.4-.4,1.3-.7,1.6-.7,1.7.9,3,.4,4.1-.2,2.5-1.5,5.3-1.9,8.2-2.3,1.7-.3,3.5-.6,5.2-1.1,0,0,.1,0,.3,0-.2,1.5-1.1,2.6-2.9,3.6-4.8,2.7-8.6,5.8-11.5,9.3-.8,1-1.7,2.2-1.5,3.3.4,2.7-.7,4.4-3.5,5.7-.6.3-1.1.8-1.5,1.2l-.2.2c-7,6.9-11.5,15.7-13.2,26.1-.2,1.4.1,3.1,1.1,5.1.5,1.1.5,1.6.1,2.3-3.6,6.7-4.6,14-5.1,19.6-.2,2.4.5,4.5,2.2,6.3.4.5.8,1.5.8,2-.1,2.9-.5,5.9-2.9,8.3-1,1-2,2.2-2.9,3.2-1,1.2-2,2.4-3.2,3.5-1.7,1.6-2.7,3.9-3.6,6.1-.4.8-.7,1.7-1.2,2.5-.2.4-.2.9-.1,1.4,0,.2,0,.4,0,.7v3.1l1.4-2.9c.4-.8.7-1.6,1.1-2.3.1-.2.2-.3.3-.5.2.8.4,1.7.6,2.5l.4,1.6.9-1.4c.4-.6.5-1.2.7-1.8,0-.3.1-.5.2-.7v-.3c.3-.6.7-1.4,1.1-1.6,4.9-2.7,7.7-7,9.6-10.6.4-.8.9-1.5,1.4-2.3,1.5-2.3,3.1-4.7,2.9-7.9,0,0,.1-.2.1-.2,3-1.1,3.9-3.8,4.4-5.8,1.7-5.7,2.6-12.1,2.8-20.1,0-.1.3-.4.5-.6.1-.2.3-.3.4-.5,0,.1,0,.4.1.6,0,.6.2,1.4,1,1.9h0s0,.3,0,.3c0,.4-.2.8-.3,1.2,0,.3-.3,1,0,1.5.2.3.5.5,1,.6,0,0,0,.1,0,.2,0,.3,0,.7.1,1,0,.3,0,.6,0,.9,0,.3.2,1.4.9,1.5.1,0,.2,0,.2,0,0,.1,0,.3,0,.4,0,.1,0,.3,0,.4,0,.5-.2,1.1-.2,1.7v.6c0,0,.6.1.6.1.2,0,.4,0,.6.1,0,.2,0,.4-.1.6,0,.4-.1.9-.2,1.3v.9c-.1,0,.8,0,.8,0,.4,0,1,0,1.1,0,0,0,.1.1.1.4,0,.6.6.9,1.1.9h.3c0,.1,0,.3-.1.4v.4c-.3,1-.4,1.5,0,2,.3.3.7.4,1.3.4l-1.3,3.9h1.4c.3,0,.5,0,.7,0,0,0,.2,0,.4,0,0,.2,0,.3,0,.4s0,.1,0,.2c0,.2-.2.5-.1.8,0,.4.3,1.3,1,1.4.1,0,.2,0,.2,0,0,0,0,.3,0,.5v.2c0,.1,0,.3-.1.5,0,.5-.1,1-.1,1.5,0,.5.5.9.6,1,.3.2.6.3.9.3.1,0,.2,0,.2,0,0,.1,0,.4,0,.7,0,.2,0,.4,0,.6,0,.7,0,1.4.5,1.8.5.4.5.7.5,1.5s0,.3,0,.5c0,.5.1,1.1.6,1.6.3.3.8.4,1.3.4.2,0,.2,0,.2,0,0,0,0,0,0,.3.1.8.1,1.7.2,2.5,0,.7.2,1.2.6,1.6.3.3.9.5,1.5.4.4,0,.7,0,.8.8v.4c.3,1.1.6,2.3,1,3.4.2.6.9,1.3,1.6,1.3.5,0,.7,0,.9.7.3.5,1,1.3,1.7,1.3,1.4,0,2.1.4,2.3,1.6.1.7.5,1.2.9,1.4.3.2.7.3,1.4.1.2,0,.2,0,.2,0,0,0,0,.1.1.4.2.8.4,1.6.4,2.2.1.8.4,1.3.8,1.6.5.3,1,.2,1.7,0,.3-.1.3-.2.5.2.3.5.9,1,1.5,1.1q1.5.3,1.9,1.8c.1.5.8,1.4,1.5,1.4.5,0,.7.1.9.8.2.4.7,1.8,2.3,1.3.5-.1.9-.3,1.3-.5.8-.4,1.6-.7,2.6-.6.5,0,.9-.1,1.3-.3.7-.3.9-.3,1.2,0l.2.3h.3c.2.1.5,0,.6,0,0,0,.2,0,.2,0,.1,0,.3.3.5.6.3.4.8,1,1.4,1h0c.7,0,1.1-.6,1.4-1,.3-.5.4-.5.6-.5h.2s.1,0,.1,0c.1,0,.2,0,.6.5.3.5.7,1,1.4,1,.7,0,1.1-.5,1.6-1.1.1-.1.3-.4.4-.4h0c.2.1.5.2.7.2h.3c0,0,.1-.2.1-.2.4-.4.6-.3,1.3,0,.4.2.9.4,1.3.3,1,0,1.7.3,2.5.6.4.2.9.4,1.3.5,1.6.5,2.1-.9,2.3-1.4.2-.7.4-.8.9-.8.7,0,1.4-.9,1.5-1.4q.4-1.6,1.9-1.8c.6-.2,1.2-.6,1.5-1.1.2-.4.3-.4.6-.2.7.3,1.3.3,1.7,0,.5-.3.7-.8.9-1.5,0-.7.2-1.4.4-2.3,0-.3.1-.3.1-.3,0,0,.1,0,.2,0,.7.2,1.1,0,1.4-.1.4-.3.8-.7.9-1.4.2-1.3.9-1.7,2.3-1.6.7,0,1.5-.7,1.7-1.3.3-.6.5-.7.9-.7.7,0,1.5-.7,1.7-1.3.3-1,.5-2,.8-3.1l.2-.7c.2-.8.4-.8.8-.8.6,0,1.1,0,1.4-.4.4-.3.6-.9.6-1.6,0-.9,0-1.7.2-2.6,0-.2,0-.3,0-.3,0,0,0,0,.2,0,.5,0,1,0,1.3-.4.5-.4.6-1,.6-1.6v-.5c0-.7,0-1.1.5-1.5.6-.4.6-1.2.6-1.8,0-.2,0-.4,0-.7,0-.1,0-.5,0-.5,0,0,0,0,.3,0,.3,0,.6,0,.9-.3.1-.1.6-.5.6-1,0-.5,0-1.1-.2-1.6v-.6c-.1-.2-.1-.4-.1-.4,0,0,0,0,.2,0,.6-.1.8-.9,1-1.4,0-.3,0-.5-.1-.8,0,0,0-.1,0-.2s0-.3,0-.4c.2,0,.3,0,.4,0,.2,0,.4,0,.7,0h1.4s-1.3-3.9-1.3-3.9c.6,0,1-.1,1.3-.4.4-.5.3-1,0-2.1v-.3c-.1-.1-.1-.3-.2-.4h.2c.4,0,1.1-.3,1.1-.9s0-.3.1-.4c.1-.2.7,0,1.2,0h.9c0,0-.2-.8-.2-.8,0-.5-.2-.9-.2-1.3,0-.2,0-.4-.1-.6.1,0,.3,0,.6-.1h.6c0-.1,0-.8,0-.8,0-.6-.2-1.2-.2-1.7,0-.1,0-.3,0-.4,0-.1,0-.4,0-.4,0,0,0,0,.2,0,.7-.1.9-1.2.9-1.4,0-.3,0-.7.1-1,0-.3,0-.6.1-1,0,0,0-.1,0-.2.5-.1.8-.3,1-.6.3-.5.2-1.1,0-1.5s-.2-.8-.3-1.2v-.3c0,0,0,0,0,0,.8-.5.9-1.3,1-1.9,0-.3,0-.5.1-.6.2.2.3.3.4.5.1.2.4.5.4.7.2,8,1,14.4,2.8,20.1.6,2,1.4,4.7,4.4,5.8,0,0,.1.1.2.2-.3,3.2,1.3,5.6,2.9,7.9.5.7,1,1.5,1.4,2.3,1.9,3.5,4.7,7.9,9.6,10.6.4.2.7,1,1,1.6v.3c.2.2.3.5.3.7.1.6.3,1.2.7,1.8l.9,1.4.4-1.6c.2-.8.4-1.7.6-2.5,0,.2.2.4.3.5.3.7.7,1.4,1.1,2.2l1.4,2.9v-3.1c0-.3,0-.5,0-.7,0-.5,0-.9-.1-1.4-.4-.8-.8-1.6-1.2-2.5-1-2.2-1.9-4.5-3.6-6.1-1.1-1.1-2.2-2.3-3.2-3.5-.9-1.1-1.8-2.2-2.9-3.2-2.4-2.4-2.8-5.4-2.9-8.3,0-.6.4-1.5.8-2,1.7-1.8,2.4-3.9,2.2-6.3-.4-5.6-1.4-13-5-19.6-.4-.7-.4-1.3,0-2.3.9-2,1.3-3.7,1-5.1-1.7-10.4-6.2-19.2-13.2-26.1l-.2-.2c-.4-.4-.9-.9-1.5-1.2-2.8-1.4-3.9-3.1-3.5-5.7.2-1.1-.7-2.3-1.6-3.3-2.9-3.5-6.6-6.5-11.4-9.3-1.8-1-2.6-2.1-2.9-3.6.1,0,.2,0,.2,0,1.7.5,3.6.8,5.3,1.1,2.9.4,5.7.9,8.2,2.3,1,.6,2.3,1.1,4,.2.3,0,1.2.3,1.6.7,3.2,3.6,6.3,7.4,9.4,11.3,1,1.3,2.4,2.5,4.6,1.6.7-.3,1-.1,1.8.9l1.2,1.5c2.1,2.6,4.2,5.2,6.3,7.8,1.4,1.7,3.1,3.4,6,2.4.2,0,.9.4,1.1.7,1.5,1.8,3.3,3.1,6,4.1,2,.7,4,1.6,5.9,2.4,1.6.7,3.3,1.4,5,2.1.7.3,2.5.8,3.8.3,1.6-.6,2.3,0,3.3,1.3.5.7,1.2,1.2,2.1,1.6l1.6.8-1.3-3.1c-.2-.4-.4-.9-.6-1.4.2,0,.3.1.4.2l1.4.7.5.2.4-.4.2-.2.6-.6-.7-.5c-.2-.2-.5-.4-.7-.6-.5-.4-1.1-.9-1.7-1.3-.8-.3-1.5-.7-2.2-1-2.7-1.3-5.4-2.6-8.7-2.9-3.3-.3-7.7-1.5-10.6-5.8-.8-1.2-1.2-2.1-.9-3.3.6-2,0-3.9-1.6-5.5-.8-.8-1.7-1.7-2.6-2.5-.7-.7-1.5-1.4-2.2-2,0,0-.1-.1-.2-.2.3.2.7.3,1,.4.8.4,1.6.7,2.4,1.1,1.3.6,2.6,1.2,4,1.7,4.7,1.8,9.1,1.3,13-1.4,4-2.8,7.6-3.6,11.7-2.6,5.2,1.2,9.6-1.3,12.6-3.3,6.6-4.5,11.8-8.6,16.2-14,.8-1,2.1-1.7,3.3-2.4,4.6-2.6,7.9-5.9,10.3-10.2,1.5-2.7,1.7-5.2.7-7.7,0-.3-.1-.5-.2-.8.2,0,.4-.1.6-.1,6.6.4,11.7-2.6,15.7-9.4,5.3-9.2,8.7-19.4,9.9-30.4.4-3.7-1-6.3-4.3-8ZM318.2,161.3c.7-.4,1.4-.8,2.1-1.1,3.3-1.3,6.6-2.6,9.9-3.7l1.4-.6c12.6-4.7,25.3-5.9,37.7-3.7.9.2,1.6.5,1.8,1,.3.5,0,1.3-.3,1.8-.4.7-1,1.4-1.8,2-3.5,2.5-7.2,3.6-11.1,3.3-6.1-.5-12.5.3-20.1,2.6-4.3,1.3-8.8,2.3-13.4,2.9-2.8.4-5-.9-7-4.2.2-.1.4-.2.7-.4ZM368.5,192.9c-4.6,2.8-9.4,3.2-14.4,1.2-8.2-3.3-16.5-4.1-24.4-4.4-1.3,0-2.6,0-4,0h-.9c.2-1.3,1.2-1.9,2.8-2.5,5.9-2.1,12.5-3.4,20.2-3.8,1.4-.1,2.9.7,4.2,1.4,1.3.7,2.6,1.4,3.8,2.1,1.7,1,3.4,2,5.3,2.9,2,.9,4,1.5,6.2,2.2.6.2,1.3.4,1.9.6-.2.2-.5.4-.7.6ZM349.8,174.4c-.2,2.9-.9,3.6-4,3.8h-.4c-7,.5-14.3,1-21,4.4-.1,0-.6,0-.7,0-.8-.9-1.2-2.5-1.1-4.2.2-2.2,1.2-4.2,2.6-5.4l.4-.2c.6-.2,1.4-.4,2.2-.7,1.4-.4,2.9-.8,4.4-1.2,2.4-.7,4.9-1.3,7.3-2,1.6-.5,3.2-1.1,4.7-1.6.9-.3,1.9-.7,2.8-1,.6-.2,1.1-.3,1.4,0,.3.2.5.5.5,1.1,0,.6.2,1.2.3,1.8.2,1.6.4,3.2.4,4.7v.6ZM370.4,186.9c-3.9-.4-7.2-2.2-10.7-4l-1.3-.7c-2.3-1.2-3-2.7-2.6-5.2.6-3.6.8-7.8-1.3-11.6.3,0,.6,0,.9,0,1.2,0,2.3.2,3.3.3,5.8,1,10.4,4.7,14.4,7.9,5.7,4.5,5.2,5.7,2.3,10.8-1.4,2.5-2.2,2.9-4.9,2.6ZM294.9,196.2l-10.5,2.8h0c1.2-4.6,4.2-7.1,9.9-8.6,5.2-1.3,10.6-3.1,17.1-5.4,1.6-.6,3-1.5,4.5-2.5.5-.3,1-.6,1.5-1,.1.4.2.7.3,1,.4,1.6.8,3,1,4.5,0,.6.2,1.1.2,1.4,0,1.2-.6,1.4-2.5,1.9-7.1,1.9-14.2,3.7-21.3,5.6ZM311.7,197.2c-10.2,4.4-20.9,8.9-32,12.7,0-.2,0-.4-.1-.6-.1-.8-.2-1.5-.4-2.1,0-.3-.2-.7,0-.9.1-.2.4-.3.9-.5,1.1-.3,2.2-.6,3.2-1,.6-.2,1.3-.4,2-.6l5.1-1.5c5.4-1.6,11-3.2,16.5-4.7,1.6-.4,3.3-.6,4.9-.8ZM297,183.7c1-1.3,1.9-2.6,2.7-4,1.8-3.1,3.2-5.8,4.2-8.6.5-1.5.9-2.5,2.2-3.2.7-.4,1.4-.8,2-1.1,1-.6,2-1.1,3-1.7.6-.3.6-.3,1.2.4l.4.4c1,1.3,2,2.6,3.3,3.6,1.7,1.4,2.4,2.4,2.4,3.1,0,.8-.6,1.7-2.3,3.2-.3.3-.5.5-.8.7l-.3.3c-4.1,3.5-9,4.9-14.2,6.4-1.5.4-3,.9-4.5,1.4.3-.3.5-.6.7-1ZM266.1,192.1c6.1-3.9,12.2-7.7,18.2-11.5l5.7-3.6c1.9-1.2,3.7-2.4,5.6-3.6-.1.4-.3.8-.4,1.1-3.5,7.8-9.5,13.9-17.9,18.1-4.4,2.2-9.2,4-13.7,5.7-2,.8-4,1.5-5.9,2.3,0,0,0,0,0,0,2.7-4,5.4-6.7,8.5-8.7ZM269.9,200.8l9.5-3.6c0,0,0,.2-.1.3-.4,1.2-.7,2.2-1.1,3.2-.2.5-.7.9-1,1-7.8,2-14.8,3.6-21.4,5.2-.4,0-.8,0-1.3,0,5.1-1.9,10.2-3.9,15.4-5.9ZM157.4,206.7c-.5,0-.9.1-1.3,0-6.6-1.5-13.6-3.2-21.4-5.2-.3,0-.8-.5-1-1-.4-.9-.7-1.9-1.1-3.1,0,0,0-.2,0-.3l9.6,3.7c5.2,2,10.2,3.9,15.3,5.9ZM105.1,198c5.5,1.5,11.1,3.2,16.5,4.7l5.1,1.5c.7.2,1.3.4,2,.6,1,.3,2.1.7,3.2,1,.5.1.8.3.9.5.1.2,0,.6,0,.9-.2.7-.3,1.3-.4,2.1,0,.2,0,.4-.1.6-11.2-3.9-21.9-8.3-32-12.7,1.6.2,3.3.4,4.9.8ZM95.7,190.6c-2-.5-2.5-.7-2.5-1.9s0-.8.1-1.4c.2-1.5.6-2.9,1-4.5.1-.3.2-.7.3-1,.5.3,1,.7,1.5,1,1.5,1,2.9,1.9,4.5,2.5,6.5,2.3,11.9,4,17.1,5.4,5.7,1.5,8.7,4,9.9,8.4,0,0,0,0,0,.1l-10.5-2.8c-7.1-1.9-14.2-3.8-21.3-5.6ZM121.9,177.1l5.6,3.5c6.1,3.9,12.2,7.7,18.3,11.6,3.1,2,5.8,4.7,8.6,8.7h0c-2-.8-3.9-1.5-5.9-2.3-4.6-1.7-9.3-3.5-13.8-5.7-8.4-4.2-14.4-10.3-17.9-18.1-.1-.3-.3-.7-.4-1.1,1.8,1.2,3.7,2.4,5.6,3.6ZM95.9,169.5c1.3-1.1,2.3-2.4,3.3-3.6l.4-.5c.3-.4.5-.6.6-.6s.3,0,.5.2c1,.6,2,1.2,3.1,1.7.7.4,1.3.7,2,1.1,1.2.7,1.6,1.7,2.1,3.2,1,2.9,2.4,5.5,4.2,8.6.8,1.4,1.8,2.7,2.7,4,.2.3.5.6.7,1-1.5-.5-3-.9-4.5-1.4-5.2-1.5-10-2.9-14.2-6.5l-.3-.3c-.3-.2-.5-.4-.8-.7-1.6-1.5-2.3-2.4-2.2-3.2,0-.7.7-1.7,2.4-3.1ZM40.7,153.3c.2-.5.9-.8,1.8-1,12.5-2.3,25.2-1,37.8,3.7l1.4.6c3.3,1.2,6.6,2.4,9.9,3.7.7.3,1.4.7,2.1,1.1.2.1.5.2.6.3-2,3.2-4.2,4.5-7,4.2-4.6-.7-9.2-1.7-13.4-2.9-6.1-1.9-11.4-2.7-16.4-2.7s-2.4,0-3.6.1c-3.9.3-7.6-.7-11.1-3.3-.7-.5-1.4-1.3-1.8-2-.3-.5-.6-1.3-.3-1.8ZM88.2,182.6c-.1,0-.6,0-.7,0-6.7-3.4-14-3.9-21-4.3h-.4c-3.1-.3-3.8-.9-4-3.9-.1-1.7.2-3.6.5-5.4,0-.6.1-1.2.2-1.8,0-.5.3-.9.5-1.1.2,0,.3-.1.6-.1s.6,0,.9.2c.9.3,1.9.7,2.8,1,1.5.6,3.1,1.2,4.7,1.6,2.4.7,4.9,1.4,7.3,2,1.5.4,2.9.8,4.4,1.2.9.2,1.7.5,2.4.7h.3c1.4,1.3,2.4,3.3,2.6,5.5.2,1.7-.3,3.3-1.1,4.2ZM32.2,170.6c-.5-4.2-1-8.9-1.5-14.2,0-1,.4-1.8,1.5-2.3.9-.4,1.4-.6,1.6-.6s0,0,.1,0c.1,0,.3.4.6,1.6.5,2.5,2,4.4,4.6,6,1.4.8,2.8,1.7,4.2,2.6h.2c-1.7,1.3-3.3,2.5-5,3.6-1.9,1.4-3.9,2.8-5.9,4.2-.2-.3-.3-.6-.3-.9ZM36.6,184.3c-3-5-3.4-6.3,2.3-10.8,4-3.2,8.6-6.8,14.4-7.9,1.1-.2,2.1-.3,3.3-.3.3,0,.6,0,.9,0-2.1,3.9-1.8,8-1.3,11.6.4,2.5-.3,4-2.6,5.2l-1.4.7c-3.5,1.8-6.8,3.6-10.7,4-2.7.3-3.5,0-4.9-2.6ZM43.4,192.9c-.3-.1-.5-.3-.7-.6.6-.2,1.3-.4,1.9-.6,2.1-.7,4.2-1.3,6.2-2.2,1.8-.9,3.6-1.9,5.3-2.9,1.3-.7,2.5-1.4,3.8-2.1,1.4-.7,2.9-1.5,4.2-1.4,7.8.4,14.4,1.7,20.3,3.8,1.6.6,2.6,1.2,2.7,2.5h-.9c-1.4,0-2.7,0-4,.1-7.9.4-16.3,1.1-24.4,4.4-5,2-9.9,1.6-14.4-1.2ZM67,214.2c-3.7-.2-6.2-1.7-7.8-4.4-.6-1-1.3-2.1-1.9-3.3-1.8-3.6-1.2-5.1,2.5-7,4.1-2.1,8.5-2.7,13.2-3.4h.6c3.8-.6,7.5-.2,11.3,1.3,2.5,1,4.9,2,7.4,3,1.8.8,3.7,1.5,5.5,2.3.7.3.9.6.9.7,0,0,0,.4-.7.9-2.3,2.9-5.3,4.9-9.5,6.3-8.4,2.9-15,4-21.6,3.6ZM106.8,227c-1.4,1.8-2.8,3.7-4.5,4.8-7.3,4.5-14.3,1.8-18.9-1.2-3-2-5.7-4.4-8.4-6.9-1.2-1-2.4-2.1-3.5-3.1,0,0,0-.1-.1-.2.7-.2,1.3-.3,2-.5,2-.4,3.9-.9,5.8-1.4,7.3-2.2,14.7-1.4,23.3,2.3,1.6.7,3.1,1.7,4.5,2.8.4.3.7.5,1,.8.1,0,.3.5.3.6-.5.6-1,1.3-1.5,2ZM135.1,229.7h0c-2.1,3.1-5.4,4.4-8.9,5.9-.9.4-1.9.7-2.8,1.2-2.8,1.3-6.1,2.5-9.6,1.8-1.8-.3-3.6-1.1-5.3-1.9l-.4-.2c-.3-.2-.5-.3-.5-.4,0-.2.1-.5.4-.8,1-1.1,1.9-2.1,2.8-3.2,1.5-1.7,3-3.5,4.6-5.1.8-.8,2.3-1.4,3.3-1.4h.2c5,.3,10,.9,15.5,1.7.6,0,1.9.3,2.3.5-.2.4-1,1.3-1.5,2ZM147.6,220.7c-2.2,1-4.3,2.1-6.6,3-.4.2-1.4-.2-2.1-.4l-.5-.2c-5.8-1.9-11-2.8-15.9-2.8s-3.7.1-5.4.4c-1.5.2-3.3-.2-4.5-.9-4.9-3-9.8-5-15-6.2,0,0-.1,0-.2,0,.5-.4,1-.8,1.4-1.2l1.4-1.2c1.7-1.5,3.4-2.9,5-4.5.8-.8,1.3-.9,2.2-.6,11.6,4.7,24.2,8.8,39.8,12.9.5.2,1.1.4,1.7.7,0,0,.2,0,.2.1-.5.3-1.1.5-1.7.8ZM155.7,216.1c-3.7-.9-7.6-1.9-11.2-2.8-2.1-.6-4.2-1.1-6.3-1.6-.7-.2-1.2-.4-1.3-.7-.2-.3-.1-.8,0-1.5.2-.6.3-1.3.4-2,0-.1,0-.3,0-.5,2.6.9,5.4,1.5,8,2,5.6,1.1,10.8,2.2,15.4,5.9-2,1.2-3.6,1.6-5.3,1.2ZM235.6,325.3l-.3.6-.6-.3.3-.6-.4.6c-.2,0-.4-.1-.5-.4,0,0-.2-.1-.2-.2,0,0,0,.1-.2.3-.1.3-.4.6-.6.8,0,0-.1.1-.2.1-.1.2-.3.3-.4.4-.2.2-.4.5-.6.7,0,.1-.1.3-.2.6,0,.1,0,.3-.1.5l-.4,1.3-.9-1c-.4-.5-.8-1-1.2-1.4,0,.2,0,.3-.1.5,0,.4-.1.8-.2,1.3-.1.7-.2,1.5-.3,2.2,0,.4-.3.8-.5,1.1l-.2.2c-.1.2-.3.4-.4.5-.2.2-.3.4-.3.5-.2.7-.3,1.4-.3,2.2,0,.4-.2,1.1-.7,1.5-.5.4-1.1.3-1.6.2-.4,0-1-.2-1.1-.2-.1,0-.3.6-.5,1-.2.6-.9,2-2.7,1.5-.4,0-.6,0-.8.5-.2.6-.6,1.1-1,1.4-.3.3-.7.4-1.2.6-.1,0-.3.1-.5.2l-.4.2-.8-.6c-.3-.2-.7-.5-1-.7t0,0c-.2.8-.7,2.4-2.7,2.6h-.1c-.2.3-.6.4-1,.4s-.8-.2-1.3-.7c-.3-.3-.5-.7-.7-.9-.2.2-.5.5-.9.9l-.5.6-.5-.7c-.3-.3-.4-.5-.5-.7,0,0-.2-.2-.2-.3l-.3.2-.3-.2c0,0-.2.2-.2.3-.1.2-.3.4-.5.7l-.5.7-.6-.6c-.3-.3-.6-.7-.8-.9-.2.2-.4.5-.7.8-.9,1.1-1.8.7-2.2.4h-.1c-2.1-.3-2.6-2-2.7-2.6h0c-.3.3-.7.6-1,.8l-.8.6-.4-.2c-.2-.1-.4-.2-.5-.2-.5-.2-.8-.4-1.2-.6-.4-.4-.8-.9-1-1.4-.2-.6-.4-.6-.8-.5-1.8.5-2.4-1-2.7-1.5-.2-.3-.4-.9-.6-1-.1,0-.7.1-1.1.2-.5.1-1.1.2-1.6-.2-.6-.4-.6-1-.7-1.5,0-.7-.1-1.5-.3-2.2,0-.1-.2-.3-.3-.5-.1-.2-.3-.3-.4-.5l-.2-.3c-.2-.3-.4-.7-.5-1.1-.2-.7-.2-1.4-.3-2.2,0-.4-.1-.8-.2-1.3,0-.2,0-.3,0-.5-.4.4-.7.9-1.2,1.4l-.8,1-.4-1.3c0-.2,0-.3-.1-.5-.1-.3-.2-.5-.3-.6-.2-.3-.4-.5-.6-.8l-.3-.4s-.1-.1-.2-.1c-.2-.2-.5-.4-.6-.8,0-.1-.1-.2-.2-.3,0,0-.1.1-.2.2-.2.2-.4.3-.5.3l-.6.3-.4-.6c-.9-1.6-.8-5,.6-6.3l.6-.5,1.4,1.6h0s1-1,1-1l.6.9c.1.2.3.4.4.7,0,.3.2.4.2.4,0,0,.1,0,.3-.2.6-.3,1.9-.2,2.4.3.3.4.3.4,1-.1.2-.1.4-.2.5-.2h.3c0,0,.3,0,.3,0,.1,0,.5.3.5.8,0,.3.1.7.2.9.2,0,.6-.1.9-.2h.2c.9-.3,1.9-.4,2.9-.5h.6c.7,0,1.2.6,1.3.9.2.3.2.5.2.7,0,.1,0,.2,0,.3,0,0,0,.1,0,.2t0,0c.2-.2.4-.4.6-.6.1-.2.3-.4.5-.6l.6-.6.5.7c.1.1.2.2.3.3.2.2.4.4.5.7,0,.2.2.4.3.4,0,0,.2,0,.7-.2.1,0,.3-.2.4-.3.3-.2.7-.4,1.1-.5.3,0,.6-.1.9-.2,1-.2,2-.4,2.9-.9.6-.4,1.4-.4,2.1-.2.7.3,1.3.8,1.7,1.6.4-.8,1-1.3,1.7-1.6.7-.3,1.5-.2,2.1.2.9.5,1.9.7,2.9.9.3,0,.6.1.9.2.4,0,.8.3,1.1.5.1,0,.3.2.4.3.5.2.7.2.7.2,0,0,.2-.2.3-.4.1-.3.3-.6.5-.8,0,0,.2-.2.2-.3l.5-.7.6.6c.2.2.3.4.5.6.2.2.4.4.6.6,0,0,0,0,0,0,0,0,0,0,0-.2,0,0,0-.1,0-.3,0-.2,0-.5.1-.7.1-.3.6-.9,1.3-.9h.7c.9.2,1.9.2,2.9.5h.2c.3.1.7.2.9.2,0-.2.1-.6.2-1,0-.4.4-.6.5-.6h.3c0-.1.3-.1.3-.1.2,0,.5.1.6.3.7.5.7.5,1,0,.6-.6,1.8-.7,2.4-.3.2.1.3.2.4.2,0,0,0-.2.2-.5,0-.3.2-.5.3-.7l.6-.9,1,.9c.4-.4.6-.7.9-1l.5-.5.5.5c1.4,1.3,1.5,4.7.6,6.3ZM238.1,251c0-.3-.1-.5-.2-.8l-.2-1.4,1,.2c.4,0,.8.2,1.2.2v-.5c0-.4.1-.9.3-1.3l.4-.7.6.5c4,3,5.8,4.2,6.6,4.7h0c0,0,.8.4.8.4.2.1.4.2.7.4l.5.3v.6c-.1.1.1.4.3.8.3.5.7,1,1,1.4.6.8,1.2,1.7,1.7,2.6.3.5.6,1.2.7,1.8,0,.3.2.5.3.8l.3.7-.7.3c-.3,0-.5.2-.7.2,0,.4.2.7.3,1,.2.7.5,1.4.7,2.2.4,1.1.8,2.3,1.2,3.4.1.5.1,1,0,1.6,0,.2,0,.4,0,.6v.9l-.8-.2c-.7-.2-1.2-.2-1.4,0-.3.2-.5.7-.7,1.7l-.2,1.1-1.7-1.2c0,0-.2-.1-.3-.2,0,.4,0,1.2-.7,1.6-.6.4-1.4,0-1.7-.1,0,0,0,.1,0,.2-.1.6-.2,1.3-.3,2l-.3,1.6-2.4-2c0,.3,0,.6,0,.8v.9c-.1,0-1-.3-1-.3-.4-.1-.5-.1-.5-.1-.1,0-.2.6-.3.8,0,.2,0,.3-.1.5l-.3.9-1.4-.9c-.5-.3-.9-.6-1.4-.9,0,0-.1-.1-.2-.1,0,0,0,0,0,.1-.3.7-1.4.9-1.8.9-.4,0-.8-.3-1-.4,0,0-.2-.1-.3-.2-.3-.1-.7-.4-.9-.4,0,0-.3.5-.5.7-.1.2-.6.9-1.3,1-.7.1-1.2-.3-1.5-.6-.5-.4-1-.8-1.5-1.3t0,0c-.1.6-.4.9-.7,1.1-.6.3-1.3-.1-1.4-.2-.2-.1-.5-.3-.6-.4-.1.2-.2.5-.3.7-.2.3-.2.6-.3.8-.3.9-.5,1.7-1.3,1.8-.7.2-1.3-.4-1.8-1-.2-.1-.3-.3-.4-.4-.2-.2-.4-.4-.6-.6,0,0-.2-.1-.3-.2-.2.4-.4.6-.7.8-.5.3-1.1.3-1.8,0-.1,0-.2.1-.3.2-1,1.6-1.5,1.7-3,.9-.2,0-.3-.2-.4-.2-.8-.5-.8-.4-1.1,0-.4.5-1.1.4-1.4.2,0,0-.1,0-.2,0,0,0,0,.2-.1.3,0,.3-.1.5-.3.8l-.3.9-.6-.2c-.4,0-.7-.3-1.1-.5-.1-.1-.5-.3-.5-.3s-.2,0-.3.3l-.2.4h-.5c-.9-.2-1.4,0-1.8,1l-.6,1.6-1.5-3.2c-.1.3-.3.7-.4,1l-1,2.1-.6-1.6c-.4-1-.9-1.2-1.8-1.1h-.5c0,0-.2-.3-.2-.3-.2-.3-.3-.3-.3-.3-.1,0-.4.2-.5.3-.3.2-.7.4-1.1.5l-.6.2-.3-.9c-.1-.3-.2-.6-.3-.8,0-.2,0-.3-.1-.3,0,0,0,0-.1,0-.4.2-1,.3-1.4-.2-.3-.4-.4-.4-1.1,0-.2,0-.3.2-.4.2-1.6.8-2,.7-3-.9,0,0-.1-.1-.3-.2-.7.3-1.3.3-1.8,0-.3-.2-.5-.4-.7-.8,0,0-.2.1-.3.2-.2.2-.4.4-.5.5-.1.2-.3.3-.4.5-.6.6-1.2,1.1-1.9,1-.7-.2-1-.9-1.3-1.8,0-.3-.2-.5-.3-.7-.1-.3-.2-.6-.3-.8-.2.1-.4.3-.6.4-.2.1-.8.5-1.4.2-.4-.2-.6-.5-.7-1.1,0,0,0,0,0,0-.5.4-1,.9-1.5,1.3-.3.3-.9.7-1.5.6-.7-.1-1.2-.8-1.3-1-.1-.2-.4-.7-.5-.7,0,0-.5.3-.8.4-.1,0-.2.1-.3.2-.3.2-.6.4-1,.4-.4,0-1.5-.1-1.8-.9,0,0,0,0,0-.1,0,0-.1,0-.2.1-.4.3-.9.6-1.3.9l-1.5.9-.3-.9c0-.2,0-.3-.1-.5,0-.3-.2-.7-.3-.8h0c0,0-.3,0-.5.1l-.9.4v-1c-.1-.3-.2-.5-.2-.8l-2.4,2-.2-1.7c-.1-.7-.2-1.3-.3-2,0,0,0-.1,0-.2-.4.2-1.1.5-1.7.1-.6-.4-.7-1.1-.7-1.6,0,0-.2.1-.2.2l-1.7,1.2-.2-1.1c-.2-1-.4-1.6-.7-1.7-.3-.1-.7-.1-1.4,0l-.9.2v-1.5c0-.5,0-1,0-1.6.3-1.1.7-2.3,1.2-3.4.3-.7.5-1.4.7-2.2.1-.3.2-.6.3-1-.2,0-.4-.1-.7-.2l-.7-.3.3-.7c.1-.3.2-.5.3-.8.2-.6.4-1.2.7-1.8.5-.9,1.1-1.8,1.7-2.6.3-.4.6-.9,1-1.4.3-.4.5-.7.5-.8l-.2-.6.7-.3c.2-.1.4-.2.5-.3l.8-.5h0c.8-.4,2.6-1.7,6.6-4.6l.7-.5.4.7c.2.4.3.8.3,1.3,0,.2,0,.3,0,.5.4,0,.7-.1,1.2-.2l1-.2-.2,1.4c0,.3,0,.6-.2.9,0,.1,0,.2,0,.3.3,0,.5.1.8.3.3.2.6.6.7,1.1.1,0,.2,0,.3,0,1.2-.1,2.4-.3,3.6-.5l1.5-.2v.9c-.2.3-.3.7-.3,1.1.5-.2,1.8-.6,2.6.8.1,0,.3,0,.4,0,.2,0,.5-.2.8-.3.2-.1.4-.2.6-.3l.8-.4.3,1.6c0,.4.1.8.2,1.2h0s0,0,0,0c.6-.4,1-.8,1.6-1.3l2-1.6.2,3.7c.1.5,1.8,1.4,2.3,1.3.1,0,.3-.1.4-.2.7-.3,2-.8,3,.5t0,0c.2,0,.3,0,.4,0,.2,0,.4,0,.6,0,.6,0,1.1-.2,1.7,0,.5,0,.9.3,1.3.4.5.2.9.3,1.4.3.3,0,.6,0,.9.1.7.1.9.1,1.1-.1l.2-.2h.3c.5-.1,1.1.3,1.1.4.3.2.5.4.6.7.2.3.4.6.6.8.2-.2.4-.5.6-.8.2-.3.4-.5.7-.8,0,0,.7-.4,1.1-.4h.3s.2.3.2.3c.2.2.4.2,1.1,0,.3,0,.6-.1.9-.1.4,0,.9-.2,1.4-.3.4-.1.8-.3,1.4-.4.6,0,1.1,0,1.7,0,.2,0,.4,0,.6,0,.1,0,.3,0,.4,0t0,0c1-1.3,2.2-.7,3-.5.1,0,.3.1.4.2.5,0,2.2-.8,2.3-1.3l.2-3.6,2,1.6c.5.4,1.1.9,1.6,1.3t0,0h0c0-.4.1-.8.2-1.2l.3-1.6.8.4c.2.1.5.2.6.3.3.1.6.3.9.3,0,0,.2,0,.3,0,.8-1.4,2.1-1,2.6-.8,0-.4-.1-.8-.1-1.1v-.9c-.1,0,1.3.2,1.3.2,1.2.2,2.4.3,3.6.5,0,0,.2,0,.3,0,.1-.5.3-.9.7-1.1.3-.2.5-.3.8-.3,0-.1,0-.2,0-.3ZM243.3,212.6c-.2.6-.5,1.2-1,1.5-.6.3-1.3.3-2,.1,0,0-.3,0-.5,0-.1,0-.4,0-.6,0h-.7c0,0-.2-1.6-.2-1.6,0-.4-.1-.8-.2-1.2-.3.5-.6,1-1,1.6l-.6.9-.6-.9c-.5-.7-.8-1.2-1.1-1.6h0c0,0-.5-.2-.5-.2-.5-.1-.9-.2-1.4-.3-.4.4-.9.9-1.4,1.5l-.9.9-1.3-4c-.2.4-.5.7-.7,1l-1.8,2.6-1.6-3.9-2.1,3.2-.5-1.3c-.3-.7-.6-1.4-.9-2.1-.7.6-1.3,1.2-2,1.9l-.7.6-1.6-2.8c-.4.5-.8,1-1.2,1.6l-.4.6-.6-.5c-.1-.1-.2-.2-.3-.3-.3-.2-.6-.4-.8-.7-.5-.6-.8-.9-1.2-.9-.3,0-.7.1-1.1.4-.8.6-2.3-.4-2.3-.4-.3-.1-.4-.4-.6-.6l-.4.5c0,.1-.2.3-.4.6l-.6.7-1.2-1.6c0-.1-.1-.2-.3-.3h-.5c0,.1-.1.2-.3.3l-1.2,1.6-.6-.7c-.2-.3-.3-.5-.4-.7l-.4-.4c-.2.2-.4.5-.6.7,0,0-.9.6-1.7.6s-.4,0-.6-.2c-.4-.3-.8-.5-1.1-.4-.3,0-.7.3-1.1.9-.3.3-.6.5-.8.7-.1,0-.2.1-.3.3l-.6.5-.4-.6c-.4-.5-.8-1-1.2-1.6l-1.6,2.8-.7-.6c-.7-.7-1.3-1.3-2-1.9-.3.7-.6,1.3-.8,2.1l-.5,1.3-2.2-3.2-1.6,3.9-1.8-2.6c-.2-.3-.5-.7-.7-1l-1.3,4-.8-.9c-.6-.7-1.1-1.2-1.4-1.5-.5.1-1,.2-1.4.3h-.5c-.3.5-.6,1-1.2,1.7l-.6.9-.5-.9c-.4-.6-.7-1.1-1-1.6,0,.3,0,.7-.1,1l-.3,1.8h-.7c-.2-.1-.4-.1-.6-.2-.2,0-.4,0-.4,0-.7.2-1.4.2-2-.1-.5-.3-.9-.8-1.1-1.5-.2-.8,0-2,.5-2.9l.4-.7c1.4-2.2,2.7-4.5,5.4-5.8.4-.2.8-.6,1.2-1.1l.3-.3c.1-.2.3-.3.4-.5l.4-.4c.6-.7,1.3-1.4,2.1-2,.5-.4,1.3-.8,2-.6.3,0,.7,0,1.2-.3.7-.3,1.6-.6,2.5-.1h0c1.1-1.3,2.9-2.4,5.4-.9,1-1.6,2.9-2.1,4.3-1.7,1.1.3,1.3.1,1.9-.6,1-1.3,2.6-1.4,4-.5.1.2.3.3.5.4q.5.4.8.2c.3-.2.7-.4,1-.5.4-.2.7-.3,1-.5.7-.7,1.4-1.1,2.1-1.2h.2c.7,0,1.3.5,2.1,1.2.2.2.6.4,1,.5.3.2.7.3,1,.5q.4.2.8-.2c.2-.2.3-.3.5-.4,1.4-1,3-.8,4,.5.5.7.7.8,1.9.6,1.5-.4,3.3.2,4.3,1.7,2.4-1.5,4.2-.4,5.4.9.3-.1.6-.2.9-.2.5,0,1.1.2,1.6.4.5.2.9.3,1.2.3.7-.2,1.6.2,2,.6.7.6,1.4,1.3,2.1,2l.4.4c.1.1.3.3.4.5l.3.3c.4.5.8.9,1.2,1.1,2.7,1.3,4,3.5,5.4,5.7l.5.7c.5.8.7,2,.4,2.9ZM256.2,216.1c-1.6.4-3.3,0-5.3-1.2,4.6-3.6,9.9-4.7,15.4-5.9,2.7-.5,5.4-1.1,8-2,0,.2,0,.3,0,.5.1.7.2,1.4.4,2,.3.7.3,1.2.1,1.5-.2.3-.6.5-1.3.7-2.1.5-4.2,1.1-6.3,1.6-3.7.9-7.5,1.9-11.2,2.8ZM273.4,223.2l-.5.2c-.7.2-1.7.6-2.1.4-2.2-.9-4.5-2-6.6-3-.5-.3-1.1-.5-1.7-.8,0,0,.1,0,.2-.1.6-.3,1.1-.5,1.7-.7,15.6-4.1,28.3-8.3,39.8-12.9.9-.3,1.4-.2,2.2.6,1.6,1.6,3.3,3.1,5,4.5l1.4,1.2c.4.4.9.7,1.4,1.2,0,0-.1,0-.2,0-5.3,1.2-10.2,3.2-15,6.2-1.2.7-3,1.1-4.5.9-6.6-.9-13.3-.2-21.3,2.4ZM303.9,236.5l-.4.2c-1.7.8-3.5,1.6-5.3,1.9-3.5.6-6.9-.6-9.6-1.8-.9-.4-1.8-.8-2.8-1.2-3.5-1.4-6.8-2.8-9-5.9-.5-.7-1.3-1.6-1.5-2,.4-.2,1.7-.4,2.3-.5,5.4-.8,10.6-1.3,15.6-1.7,1.1,0,2.7.5,3.5,1.4,1.6,1.6,3.1,3.4,4.6,5.1.9,1.1,1.8,2.1,2.8,3.2.3.3.5.6.4.8,0,.1-.2.3-.5.4ZM340.5,220.6c-1.2,1-2.3,2.1-3.5,3.1-2.7,2.4-5.4,4.9-8.4,6.9-4.6,3-11.7,5.7-18.9,1.2-1.8-1.1-3.2-3-4.5-4.8-.5-.7-1-1.3-1.5-2,0-.2.2-.6.3-.6.4-.3.7-.5,1-.8,1.4-1,2.9-2.1,4.5-2.8,8.6-3.7,16-4.4,23.3-2.3,1.9.5,3.8,1,5.8,1.4.7.2,1.3.3,2,.5,0,0,0,.1-.1.2ZM354.5,206.5c-.5,1.1-1.2,2.2-1.8,3.3-1.7,2.8-4.1,4.2-7.8,4.4-6.5.4-13.2-.7-21.6-3.6-4.3-1.5-7.3-3.5-9.6-6.4-.5-.5-.6-.8-.6-.9,0-.1.2-.4.9-.7,1.9-.7,3.7-1.5,5.5-2.3,2.4-1,4.9-2,7.4-3,2.8-1.1,5.5-1.6,8.2-1.6s2.1,0,3.1.2h.6c4.7.7,9,1.4,13.2,3.5,2.4,1.2,3.5,2.3,3.5,3.8s-.3,1.9-1,3.2ZM381.2,156.4c-.5,5.3-1,9.9-1.5,14.2,0,.3-.2.6-.3.9-2.1-1.4-4.1-2.9-6.2-4.3l-4.7-3.3h.2c1.3-.9,2.7-1.8,4.2-2.6,2.6-1.6,4-3.5,4.6-6,.3-1.3.5-1.6.6-1.6.1,0,.6,0,1.7.5,1.1.5,1.5,1.3,1.4,2.3Z"/>
  <path class="cls-1" d="M279.4,197.1c0,0,0,.2-.1.3-.4,1.2-.7,2.2-1.1,3.2-.2.5-.7.9-1,1-7.8,2-14.8,3.6-21.4,5.2-.4,0-.8,0-1.3,0,5.1-1.9,10.2-3.9,15.4-5.9l9.5-3.6Z"/>
  <path class="cls-1" d="M314.3,213.7c0,0-.1,0-.2,0-5.3,1.2-10.2,3.2-15,6.2-1.2.7-3,1.1-4.5.9-6.6-.9-13.3-.2-21.3,2.4l-.5.2c-.7.2-1.7.6-2.1.4-2.2-.9-4.5-2-6.6-3-.5-.3-1.1-.5-1.7-.8,0,0,.1,0,.2-.1.6-.3,1.1-.5,1.7-.7,15.6-4.1,28.3-8.3,39.8-12.9.9-.3,1.4-.2,2.2.6,1.6,1.6,3.3,3.1,5,4.5l1.4,1.2c.4.4.9.7,1.4,1.2Z"/>
  <path class="cls-1" d="M349.8,173.8v.6c-.2,2.9-.9,3.6-4,3.8h-.4c-7,.5-14.3,1-21,4.4-.1,0-.6,0-.7,0-.8-.9-1.2-2.5-1.1-4.2.2-2.2,1.2-4.2,2.6-5.4l.4-.2c.6-.2,1.4-.4,2.2-.7,1.4-.4,2.9-.8,4.4-1.2,2.4-.7,4.9-1.3,7.3-2,1.6-.5,3.2-1.1,4.7-1.6.9-.3,1.9-.7,2.8-1,.6-.2,1.1-.3,1.4,0,.3.2.5.5.5,1.1,0,.6.2,1.2.3,1.8.2,1.6.4,3.2.4,4.7Z"/>
  <path class="cls-1" d="M318.4,172.6c0,.8-.6,1.7-2.3,3.2-.3.3-.5.5-.8.7l-.3.3c-4.1,3.5-9,4.9-14.2,6.4-1.5.4-3,.9-4.5,1.4.3-.3.5-.6.7-1,1-1.3,1.9-2.6,2.7-4,1.8-3.1,3.2-5.8,4.2-8.6.5-1.5.9-2.5,2.2-3.2.7-.4,1.4-.8,2-1.1,1-.6,2-1.1,3-1.7.6-.3.6-.3,1.2.4l.4.4c1,1.3,2,2.6,3.3,3.6,1.7,1.4,2.4,2.4,2.4,3.1Z"/>
  <path class="cls-1" d="M311.7,197.2c-10.2,4.4-20.9,8.9-32,12.7,0-.2,0-.4-.1-.6-.1-.8-.2-1.5-.4-2.1,0-.3-.2-.7,0-.9.1-.2.4-.3.9-.5,1.1-.3,2.2-.6,3.2-1,.6-.2,1.3-.4,2-.6l5.1-1.5c5.4-1.6,11-3.2,16.5-4.7,1.6-.4,3.3-.6,4.9-.8Z"/>
  <path class="cls-1" d="M275,211c-.2.3-.6.5-1.3.7-2.1.5-4.2,1.1-6.3,1.6-3.7.9-7.5,1.9-11.2,2.8-1.6.4-3.3,0-5.3-1.2,4.6-3.6,9.9-4.7,15.4-5.9,2.7-.5,5.4-1.1,8-2,0,.2,0,.3,0,.5.1.7.2,1.4.4,2,.3.7.3,1.2.1,1.5Z"/>
  <path class="cls-1" d="M295.6,173.5c-.1.4-.3.8-.4,1.1-3.5,7.8-9.5,13.9-17.9,18.1-4.4,2.2-9.2,4-13.7,5.7-2,.8-4,1.5-5.9,2.3,0,0,0,0,0,0,2.7-4,5.4-6.7,8.5-8.7,6.1-3.9,12.2-7.7,18.2-11.5l5.7-3.6c1.9-1.2,3.7-2.4,5.6-3.6Z"/>
  <path class="cls-1" d="M318.7,188.7c0,1.2-.6,1.4-2.5,1.9-7.1,1.9-14.2,3.7-21.3,5.6l-10.5,2.8h0c1.2-4.6,4.2-7.1,9.9-8.6,5.2-1.3,10.6-3.1,17.1-5.4,1.6-.6,3-1.5,4.5-2.5.5-.3,1-.6,1.5-1,.1.4.2.7.3,1,.4,1.6.8,3,1,4.5,0,.6.2,1.1.2,1.4Z"/>
  <path class="cls-1" d="M370.9,155.1c-.4.7-1,1.4-1.8,2-3.5,2.5-7.2,3.6-11.1,3.3-6.1-.5-12.5.3-20.1,2.6-4.3,1.3-8.8,2.3-13.4,2.9-2.8.4-5-.9-7-4.2.2-.1.4-.2.7-.4.7-.4,1.4-.8,2.1-1.1,3.3-1.3,6.6-2.6,9.9-3.7l1.4-.6c12.6-4.7,25.3-5.9,37.7-3.7.9.2,1.6.5,1.8,1,.3.5,0,1.3-.3,1.8Z"/>
  <path class="cls-1" d="M381.2,156.4c-.5,5.3-1,9.9-1.5,14.2,0,.3-.2.6-.3.9-2.1-1.4-4.1-2.9-6.2-4.3l-4.7-3.3h.2c1.3-.9,2.7-1.8,4.2-2.6,2.6-1.6,4-3.5,4.6-6,.3-1.3.5-1.6.6-1.6.1,0,.6,0,1.7.5,1.1.5,1.5,1.3,1.4,2.3Z"/>
  <path class="cls-1" d="M375.3,184.3c-1.4,2.5-2.2,2.9-4.9,2.6-3.9-.4-7.2-2.2-10.7-4l-1.3-.7c-2.3-1.2-3-2.7-2.6-5.2.6-3.6.8-7.8-1.3-11.6.3,0,.6,0,.9,0,1.2,0,2.3.2,3.3.3,5.8,1,10.4,4.7,14.4,7.9,5.7,4.5,5.2,5.7,2.3,10.8Z"/>
  <path class="cls-1" d="M369.2,192.3c-.2.2-.5.4-.7.6-4.6,2.8-9.4,3.2-14.4,1.2-8.2-3.3-16.5-4.1-24.4-4.4-1.3,0-2.6,0-4,0h-.9c.2-1.3,1.2-1.9,2.8-2.5,5.9-2.1,12.5-3.4,20.2-3.8,1.4-.1,2.9.7,4.2,1.4,1.3.7,2.6,1.4,3.8,2.1,1.7,1,3.4,2,5.3,2.9,2,.9,4,1.5,6.2,2.2.6.2,1.3.4,1.9.6Z"/>
  <path class="cls-1" d="M355.5,203.3c0,.9-.3,1.9-1,3.2-.5,1.1-1.2,2.2-1.8,3.3-1.7,2.8-4.1,4.2-7.8,4.4-6.5.4-13.2-.7-21.6-3.6-4.3-1.5-7.3-3.5-9.6-6.4-.5-.5-.6-.8-.6-.9,0-.1.2-.4.9-.7,1.9-.7,3.7-1.5,5.5-2.3,2.4-1,4.9-2,7.4-3,2.8-1.1,5.5-1.6,8.2-1.6s2.1,0,3.1.2h.6c4.7.7,9,1.4,13.2,3.5,2.4,1.2,3.5,2.3,3.5,3.8Z"/>
  <path class="cls-1" d="M340.6,220.4c0,0,0,.1-.1.2-1.2,1-2.3,2.1-3.5,3.1-2.7,2.4-5.4,4.9-8.4,6.9-4.6,3-11.7,5.7-18.9,1.2-1.8-1.1-3.2-3-4.5-4.8-.5-.7-1-1.3-1.5-2,0-.2.2-.6.3-.6.4-.3.7-.5,1-.8,1.4-1,2.9-2.1,4.5-2.8,8.6-3.7,16-4.4,23.3-2.3,1.9.5,3.8,1,5.8,1.4.7.2,1.3.3,2,.5Z"/>
  <path class="cls-1" d="M304.4,236c0,.1-.2.3-.5.4l-.4.2c-1.7.8-3.5,1.6-5.3,1.9-3.5.6-6.9-.6-9.6-1.8-.9-.4-1.8-.8-2.8-1.2-3.5-1.4-6.8-2.8-9-5.9-.5-.7-1.3-1.6-1.5-2,.4-.2,1.7-.4,2.3-.5,5.4-.8,10.6-1.3,15.6-1.7,1.1,0,2.7.5,3.5,1.4,1.6,1.6,3.1,3.4,4.6,5.1.9,1.1,1.8,2.1,2.8,3.2.3.3.5.6.4.8Z"/>
  <path class="cls-1" d="M115.6,184.6c-1.5-.5-3-.9-4.5-1.4-5.2-1.5-10-2.9-14.2-6.5l-.3-.3c-.3-.2-.5-.4-.8-.7-1.6-1.5-2.3-2.4-2.2-3.2,0-.7.7-1.7,2.4-3.1,1.3-1.1,2.3-2.4,3.3-3.6l.4-.5c.3-.4.5-.6.6-.6s.3,0,.5.2c1,.6,2,1.2,3.1,1.7.7.4,1.3.7,2,1.1,1.2.7,1.6,1.7,2.1,3.2,1,2.9,2.4,5.5,4.2,8.6.8,1.4,1.8,2.7,2.7,4,.2.3.5.6.7,1Z"/>
  <path class="cls-1" d="M127.5,199l-10.5-2.8c-7.1-1.9-14.2-3.8-21.3-5.6-2-.5-2.5-.7-2.5-1.9s0-.8.1-1.4c.2-1.5.6-2.9,1-4.5.1-.3.2-.7.3-1,.5.3,1,.7,1.5,1,1.5,1,2.9,1.9,4.5,2.5,6.5,2.3,11.9,4,17.1,5.4,5.7,1.5,8.7,4,9.9,8.4,0,0,0,0,0,.1Z"/>
  <path class="cls-1" d="M154.3,200.8h0c-2-.8-3.9-1.5-5.9-2.3-4.6-1.7-9.3-3.5-13.8-5.7-8.4-4.2-14.4-10.3-17.9-18.1-.1-.3-.3-.7-.4-1.1,1.8,1.2,3.7,2.4,5.6,3.6l5.6,3.5c6.1,3.9,12.2,7.7,18.3,11.6,3.1,2,5.8,4.7,8.6,8.7Z"/>
  <path class="cls-1" d="M157.4,206.7c-.5,0-.9.1-1.3,0-6.6-1.5-13.6-3.2-21.4-5.2-.3,0-.8-.5-1-1-.4-.9-.7-1.9-1.1-3.1,0,0,0-.2,0-.3l9.6,3.7c5.2,2,10.2,3.9,15.3,5.9Z"/>
  <path class="cls-1" d="M132.7,207.2c-.2.7-.3,1.3-.4,2.1,0,.2,0,.4-.1.6-11.2-3.9-21.9-8.3-32-12.7,1.6.2,3.3.4,4.9.8,5.5,1.5,11.1,3.2,16.5,4.7l5.1,1.5c.7.2,1.3.4,2,.6,1,.3,2.1.7,3.2,1,.5.1.8.3.9.5.1.2,0,.6,0,.9Z"/>
  <path class="cls-1" d="M160.9,214.8c-2,1.2-3.6,1.6-5.3,1.2-3.7-.9-7.6-1.9-11.2-2.8-2.1-.6-4.2-1.1-6.3-1.6-.7-.2-1.2-.4-1.3-.7-.2-.3-.1-.8,0-1.5.2-.6.3-1.3.4-2,0-.1,0-.3,0-.5,2.6.9,5.4,1.5,8,2,5.6,1.1,10.8,2.2,15.4,5.9Z"/>
  <path class="cls-1" d="M149.3,219.9c-.5.3-1.1.5-1.7.8-2.2,1-4.3,2.1-6.6,3-.4.2-1.4-.2-2.1-.4l-.5-.2c-5.8-1.9-11-2.8-15.9-2.8s-3.7.1-5.4.4c-1.5.2-3.3-.2-4.5-.9-4.9-3-9.8-5-15-6.2,0,0-.1,0-.2,0,.5-.4,1-.8,1.4-1.2l1.4-1.2c1.7-1.5,3.4-2.9,5-4.5.8-.8,1.3-.9,2.2-.6,11.6,4.7,24.2,8.8,39.8,12.9.5.2,1.1.4,1.7.7,0,0,.2,0,.2.1Z"/>
  <path class="cls-1" d="M136.6,227.7c-.2.4-1,1.3-1.5,2h0c-2.1,3.1-5.4,4.4-8.9,5.9-.9.4-1.9.7-2.8,1.2-2.8,1.3-6.1,2.5-9.6,1.8-1.8-.3-3.6-1.1-5.3-1.9l-.4-.2c-.3-.2-.5-.3-.5-.4,0-.2.1-.5.4-.8,1-1.1,1.9-2.1,2.8-3.2,1.5-1.7,3-3.5,4.6-5.1.8-.8,2.3-1.4,3.3-1.4h.2c5,.3,10,.9,15.5,1.7.6,0,1.9.3,2.3.5Z"/>
  <path class="cls-1" d="M108.3,225c-.5.6-1,1.3-1.5,2-1.4,1.8-2.8,3.7-4.5,4.8-7.3,4.5-14.3,1.8-18.9-1.2-3-2-5.7-4.4-8.4-6.9-1.2-1-2.4-2.1-3.5-3.1,0,0,0-.1-.1-.2.7-.2,1.3-.3,2-.5,2-.4,3.9-.9,5.8-1.4,7.3-2.2,14.7-1.4,23.3,2.3,1.6.7,3.1,1.7,4.5,2.8.4.3.7.5,1,.8.1,0,.3.5.3.6Z"/>
  <path class="cls-1" d="M98.8,203.4c0,0,0,.4-.7.9-2.3,2.9-5.3,4.9-9.5,6.3-8.4,2.9-15,4-21.6,3.6-3.7-.2-6.2-1.7-7.8-4.4-.6-1-1.3-2.1-1.9-3.3-1.8-3.6-1.2-5.1,2.5-7,4.1-2.1,8.5-2.7,13.2-3.4h.6c3.8-.6,7.5-.2,11.3,1.3,2.5,1,4.9,2,7.4,3,1.8.8,3.7,1.5,5.5,2.3.7.3.9.6.9.7Z"/>
  <path class="cls-1" d="M87.1,189.5h-.9c-1.4,0-2.7,0-4,.1-7.9.4-16.3,1.1-24.4,4.4-5,2-9.9,1.6-14.4-1.2-.3-.1-.5-.3-.7-.6.6-.2,1.3-.4,1.9-.6,2.1-.7,4.2-1.3,6.2-2.2,1.8-.9,3.6-1.9,5.3-2.9,1.3-.7,2.5-1.4,3.8-2.1,1.4-.7,2.9-1.5,4.2-1.4,7.8.4,14.4,1.7,20.3,3.8,1.6.6,2.6,1.2,2.7,2.5Z"/>
  <path class="cls-1" d="M43.3,163.8c-1.7,1.2-3.3,2.4-5,3.5-1.9,1.4-3.9,2.8-5.9,4.2-.2-.3-.3-.6-.3-.9-.5-4.2-1-8.9-1.5-14.2,0-1,.4-1.8,1.5-2.3.9-.4,1.4-.6,1.6-.6s0,0,.1,0c.1,0,.3.4.6,1.6.5,2.5,2,4.4,4.6,6,1.4.8,2.8,1.7,4.2,2.6h.2Z"/>
  <path class="cls-1" d="M88.2,182.6c-.1,0-.6,0-.7,0-6.7-3.4-14-3.9-21-4.3h-.4c-3.1-.3-3.8-.9-4-3.9-.1-1.7.2-3.6.5-5.4,0-.6.1-1.2.2-1.8,0-.5.3-.9.5-1.1.2,0,.3-.1.6-.1s.6,0,.9.2c.9.3,1.9.7,2.8,1,1.5.6,3.1,1.2,4.7,1.6,2.4.7,4.9,1.4,7.3,2,1.5.4,2.9.8,4.4,1.2.9.2,1.7.5,2.4.7h.3c1.4,1.3,2.4,3.3,2.6,5.5.2,1.7-.3,3.3-1.1,4.2Z"/>
  <path class="cls-1" d="M56.2,176.9c.4,2.5-.3,4-2.6,5.2l-1.4.7c-3.5,1.8-6.8,3.6-10.7,4-2.7.3-3.5,0-4.9-2.6-3-5-3.4-6.3,2.3-10.8,4-3.2,8.6-6.8,14.4-7.9,1.1-.2,2.1-.3,3.3-.3.3,0,.6,0,.9,0-2.1,3.9-1.8,8-1.3,11.6Z"/>
  <path class="cls-1" d="M94.3,161.7c-2,3.2-4.2,4.5-7,4.2-4.6-.7-9.2-1.7-13.4-2.9-6.1-1.9-11.4-2.7-16.4-2.7s-2.4,0-3.6.1c-3.9.3-7.6-.7-11.1-3.3-.7-.5-1.4-1.3-1.8-2-.3-.5-.6-1.3-.3-1.8.2-.5.9-.8,1.8-1,12.5-2.3,25.2-1,37.8,3.7l1.4.6c3.3,1.2,6.6,2.4,9.9,3.7.7.3,1.4.7,2.1,1.1.2.1.5.2.6.3Z"/>
  <path class="cls-1" d="M243.3,212.6c-.2.6-.5,1.2-1,1.5-.6.3-1.3.3-2,.1,0,0-.3,0-.5,0-.1,0-.4,0-.6,0h-.7c0,0-.2-1.6-.2-1.6,0-.4-.1-.8-.2-1.2-.3.5-.6,1-1,1.6l-.6.9-.6-.9c-.5-.7-.8-1.2-1.1-1.6h0c0,0-.5-.2-.5-.2-.5-.1-.9-.2-1.4-.3-.4.4-.9.9-1.4,1.5l-.9.9-1.3-4c-.2.4-.5.7-.7,1l-1.8,2.6-1.6-3.9-2.1,3.2-.5-1.3c-.3-.7-.6-1.4-.9-2.1-.7.6-1.3,1.2-2,1.9l-.7.6-1.6-2.8c-.4.5-.8,1-1.2,1.6l-.4.6-.6-.5c-.1-.1-.2-.2-.3-.3-.3-.2-.6-.4-.8-.7-.5-.6-.8-.9-1.2-.9-.3,0-.7.1-1.1.4-.8.6-2.3-.4-2.3-.4-.3-.1-.4-.4-.6-.6l-.4.5c0,.1-.2.3-.4.6l-.6.7-1.2-1.6c0-.1-.1-.2-.3-.3h-.5c0,.1-.1.2-.3.3l-1.2,1.6-.6-.7c-.2-.3-.3-.5-.4-.7l-.4-.4c-.2.2-.4.5-.6.7,0,0-.9.6-1.7.6s-.4,0-.6-.2c-.4-.3-.8-.5-1.1-.4-.3,0-.7.3-1.1.9-.3.3-.6.5-.8.7-.1,0-.2.1-.3.3l-.6.5-.4-.6c-.4-.5-.8-1-1.2-1.6l-1.6,2.8-.7-.6c-.7-.7-1.3-1.3-2-1.9-.3.7-.6,1.3-.8,2.1l-.5,1.3-2.2-3.2-1.6,3.9-1.8-2.6c-.2-.3-.5-.7-.7-1l-1.3,4-.8-.9c-.6-.7-1.1-1.2-1.4-1.5-.5.1-1,.2-1.4.3h-.5c-.3.5-.6,1-1.2,1.7l-.6.9-.5-.9c-.4-.6-.7-1.1-1-1.6,0,.3,0,.7-.1,1l-.3,1.8h-.7c-.2-.1-.4-.1-.6-.2-.2,0-.4,0-.4,0-.7.2-1.4.2-2-.1-.5-.3-.9-.8-1.1-1.5-.2-.8,0-2,.5-2.9l.4-.7c1.4-2.2,2.7-4.5,5.4-5.8.4-.2.8-.6,1.2-1.1l.3-.3c.1-.2.3-.3.4-.5l.4-.4c.6-.7,1.3-1.4,2.1-2,.5-.4,1.3-.8,2-.6.3,0,.7,0,1.2-.3.7-.3,1.6-.6,2.5-.1h0c1.1-1.3,2.9-2.4,5.4-.9,1-1.6,2.9-2.1,4.3-1.7,1.1.3,1.3.1,1.9-.6,1-1.3,2.6-1.4,4-.5.1.2.3.3.5.4q.5.4.8.2c.3-.2.7-.4,1-.5.4-.2.7-.3,1-.5.7-.7,1.4-1.1,2.1-1.2h.2c.7,0,1.3.5,2.1,1.2.2.2.6.4,1,.5.3.2.7.3,1,.5q.4.2.8-.2c.2-.2.3-.3.5-.4,1.4-1,3-.8,4,.5.5.7.7.8,1.9.6,1.5-.4,3.3.2,4.3,1.7,2.4-1.5,4.2-.4,5.4.9.3-.1.6-.2.9-.2.5,0,1.1.2,1.6.4.5.2.9.3,1.2.3.7-.2,1.6.2,2,.6.7.6,1.4,1.3,2.1,2l.4.4c.1.1.3.3.4.5l.3.3c.4.5.8.9,1.2,1.1,2.7,1.3,4,3.5,5.4,5.7l.5.7c.5.8.7,2,.4,2.9Z"/>
  <path class="cls-1" d="M235.6,325.3l-.3.6-.6-.3.3-.6-.4.6c-.2,0-.4-.1-.5-.4,0,0-.2-.1-.2-.2,0,0,0,.1-.2.3-.1.3-.4.6-.6.8,0,0-.1.1-.2.1-.1.2-.3.3-.4.4-.2.2-.4.5-.6.7,0,.1-.1.3-.2.6,0,.1,0,.3-.1.5l-.4,1.3-.9-1c-.4-.5-.8-1-1.2-1.4,0,.2,0,.3-.1.5,0,.4-.1.8-.2,1.3-.1.7-.2,1.5-.3,2.2,0,.4-.3.8-.5,1.1l-.2.2c-.1.2-.3.4-.4.5-.2.2-.3.4-.3.5-.2.7-.3,1.4-.3,2.2,0,.4-.2,1.1-.7,1.5-.5.4-1.1.3-1.6.2-.4,0-1-.2-1.1-.2-.1,0-.3.6-.5,1-.2.6-.9,2-2.7,1.5-.4,0-.6,0-.8.5-.2.6-.6,1.1-1,1.4-.3.3-.7.4-1.2.6-.1,0-.3.1-.5.2l-.4.2-.8-.6c-.3-.2-.7-.5-1-.7t0,0c-.2.8-.7,2.4-2.7,2.6h-.1c-.2.3-.6.4-1,.4s-.8-.2-1.3-.7c-.3-.3-.5-.7-.7-.9-.2.2-.5.5-.9.9l-.5.6-.5-.7c-.3-.3-.4-.5-.5-.7,0,0-.2-.2-.2-.3l-.3.2-.3-.2c0,0-.2.2-.2.3-.1.2-.3.4-.5.7l-.5.7-.6-.6c-.3-.3-.6-.7-.8-.9-.2.2-.4.5-.7.8-.9,1.1-1.8.7-2.2.4h-.1c-2.1-.3-2.6-2-2.7-2.6h0c-.3.3-.7.6-1,.8l-.8.6-.4-.2c-.2-.1-.4-.2-.5-.2-.5-.2-.8-.4-1.2-.6-.4-.4-.8-.9-1-1.4-.2-.6-.4-.6-.8-.5-1.8.5-2.4-1-2.7-1.5-.2-.3-.4-.9-.6-1-.1,0-.7.1-1.1.2-.5.1-1.1.2-1.6-.2-.6-.4-.6-1-.7-1.5,0-.7-.1-1.5-.3-2.2,0-.1-.2-.3-.3-.5-.1-.2-.3-.3-.4-.5l-.2-.3c-.2-.3-.4-.7-.5-1.1-.2-.7-.2-1.4-.3-2.2,0-.4-.1-.8-.2-1.3,0-.2,0-.3,0-.5-.4.4-.7.9-1.2,1.4l-.8,1-.4-1.3c0-.2,0-.3-.1-.5-.1-.3-.2-.5-.3-.6-.2-.3-.4-.5-.6-.8l-.3-.4s-.1-.1-.2-.1c-.2-.2-.5-.4-.6-.8,0-.1-.1-.2-.2-.3,0,0-.1.1-.2.2-.2.2-.4.3-.5.3l-.6.3-.4-.6c-.9-1.6-.8-5,.6-6.3l.6-.5,1.4,1.6h0s1-1,1-1l.6.9c.1.2.3.4.4.7,0,.3.2.4.2.4,0,0,.1,0,.3-.2.6-.3,1.9-.2,2.4.3.3.4.3.4,1-.1.2-.1.4-.2.5-.2h.3c0,0,.3,0,.3,0,.1,0,.5.3.5.8,0,.3.1.7.2.9.2,0,.6-.1.9-.2h.2c.9-.3,1.9-.4,2.9-.5h.6c.7,0,1.2.6,1.3.9.2.3.2.5.2.7,0,.1,0,.2,0,.3,0,0,0,.1,0,.2t0,0c.2-.2.4-.4.6-.6.1-.2.3-.4.5-.6l.6-.6.5.7c.1.1.2.2.3.3.2.2.4.4.5.7,0,.2.2.4.3.4,0,0,.2,0,.7-.2.1,0,.3-.2.4-.3.3-.2.7-.4,1.1-.5.3,0,.6-.1.9-.2,1-.2,2-.4,2.9-.9.6-.4,1.4-.4,2.1-.2.7.3,1.3.8,1.7,1.6.4-.8,1-1.3,1.7-1.6.7-.3,1.5-.2,2.1.2.9.5,1.9.7,2.9.9.3,0,.6.1.9.2.4,0,.8.3,1.1.5.1,0,.3.2.4.3.5.2.7.2.7.2,0,0,.2-.2.3-.4.1-.3.3-.6.5-.8,0,0,.2-.2.2-.3l.5-.7.6.6c.2.2.3.4.5.6.2.2.4.4.6.6,0,0,0,0,0,0,0,0,0,0,0-.2,0,0,0-.1,0-.3,0-.2,0-.5.1-.7.1-.3.6-.9,1.3-.9h.7c.9.2,1.9.2,2.9.5h.2c.3.1.7.2.9.2,0-.2.1-.6.2-1,0-.4.4-.6.5-.6h.3c0-.1.3-.1.3-.1.2,0,.5.1.6.3.7.5.7.5,1,0,.6-.6,1.8-.7,2.4-.3.2.1.3.2.4.2,0,0,0-.2.2-.5,0-.3.2-.5.3-.7l.6-.9,1,.9c.4-.4.6-.7.9-1l.5-.5.5.5c1.4,1.3,1.5,4.7.6,6.3Z"/>
  <path class="cls-1" d="M255,270.1c0,.2,0,.4,0,.6v.9l-.8-.2c-.7-.2-1.2-.2-1.4,0-.3.2-.5.7-.7,1.7l-.2,1.1-1.7-1.2c0,0-.2-.1-.3-.2,0,.4,0,1.2-.7,1.6-.6.4-1.4,0-1.7-.1,0,0,0,.1,0,.2-.1.6-.2,1.3-.3,2l-.3,1.6-2.4-2c0,.3,0,.6,0,.8v.9c-.1,0-1-.3-1-.3-.4-.1-.5-.1-.5-.1-.1,0-.2.6-.3.8,0,.2,0,.3-.1.5l-.3.9-1.4-.9c-.5-.3-.9-.6-1.4-.9,0,0-.1-.1-.2-.1,0,0,0,0,0,.1-.3.7-1.4.9-1.8.9-.4,0-.8-.3-1-.4,0,0-.2-.1-.3-.2-.3-.1-.7-.4-.9-.4,0,0-.3.5-.5.7-.1.2-.6.9-1.3,1-.7.1-1.2-.3-1.5-.6-.5-.4-1-.8-1.5-1.3t0,0c-.1.6-.4.9-.7,1.1-.6.3-1.3-.1-1.4-.2-.2-.1-.5-.3-.6-.4-.1.2-.2.5-.3.7-.2.3-.2.6-.3.8-.3.9-.5,1.7-1.3,1.8-.7.2-1.3-.4-1.8-1-.2-.1-.3-.3-.4-.4-.2-.2-.4-.4-.6-.6,0,0-.2-.1-.3-.2-.2.4-.4.6-.7.8-.5.3-1.1.3-1.8,0-.1,0-.2.1-.3.2-1,1.6-1.5,1.7-3,.9-.2,0-.3-.2-.4-.2-.8-.5-.8-.4-1.1,0-.4.5-1.1.4-1.4.2,0,0-.1,0-.2,0,0,0,0,.2-.1.3,0,.3-.1.5-.3.8l-.3.9-.6-.2c-.4,0-.7-.3-1.1-.5-.1-.1-.5-.3-.5-.3s-.2,0-.3.3l-.2.4h-.5c-.9-.2-1.4,0-1.8,1l-.6,1.6-1.5-3.2c-.1.3-.3.7-.4,1l-1,2.1-.6-1.6c-.4-1-.9-1.2-1.8-1.1h-.5c0,0-.2-.3-.2-.3-.2-.3-.3-.3-.3-.3-.1,0-.4.2-.5.3-.3.2-.7.4-1.1.5l-.6.2-.3-.9c-.1-.3-.2-.6-.3-.8,0-.2,0-.3-.1-.3,0,0,0,0-.1,0-.4.2-1,.3-1.4-.2-.3-.4-.4-.4-1.1,0-.2,0-.3.2-.4.2-1.6.8-2,.7-3-.9,0,0-.1-.1-.3-.2-.7.3-1.3.3-1.8,0-.3-.2-.5-.4-.7-.8,0,0-.2.1-.3.2-.2.2-.4.4-.5.5-.1.2-.3.3-.4.5-.6.6-1.2,1.1-1.9,1-.7-.2-1-.9-1.3-1.8,0-.3-.2-.5-.3-.7-.1-.3-.2-.6-.3-.8-.2.1-.4.3-.6.4-.2.1-.8.5-1.4.2-.4-.2-.6-.5-.7-1.1,0,0,0,0,0,0-.5.4-1,.9-1.5,1.3-.3.3-.9.7-1.5.6-.7-.1-1.2-.8-1.3-1-.1-.2-.4-.7-.5-.7,0,0-.5.3-.8.4-.1,0-.2.1-.3.2-.3.2-.6.4-1,.4-.4,0-1.5-.1-1.8-.9,0,0,0,0,0-.1,0,0-.1,0-.2.1-.4.3-.9.6-1.3.9l-1.5.9-.3-.9c0-.2,0-.3-.1-.5,0-.3-.2-.7-.3-.8h0c0,0-.3,0-.5.1l-.9.4v-1c-.1-.3-.2-.5-.2-.8l-2.4,2-.2-1.7c-.1-.7-.2-1.3-.3-2,0,0,0-.1,0-.2-.4.2-1.1.5-1.7.1-.6-.4-.7-1.1-.7-1.6,0,0-.2.1-.2.2l-1.7,1.2-.2-1.1c-.2-1-.4-1.6-.7-1.7-.3-.1-.7-.1-1.4,0l-.9.2v-1.5c0-.5,0-1,0-1.6.3-1.1.7-2.3,1.2-3.4.3-.7.5-1.4.7-2.2.1-.3.2-.6.3-1-.2,0-.4-.1-.7-.2l-.7-.3.3-.7c.1-.3.2-.5.3-.8.2-.6.4-1.2.7-1.8.5-.9,1.1-1.8,1.7-2.6.3-.4.6-.9,1-1.4.3-.4.5-.7.5-.8l-.2-.6.7-.3c.2-.1.4-.2.5-.3l.8-.5h0c.8-.4,2.6-1.7,6.6-4.6l.7-.5.4.7c.2.4.3.8.3,1.3,0,.2,0,.3,0,.5.4,0,.7-.1,1.2-.2l1-.2-.2,1.4c0,.3,0,.6-.2.9,0,.1,0,.2,0,.3.3,0,.5.1.8.3.3.2.6.6.7,1.1.1,0,.2,0,.3,0,1.2-.1,2.4-.3,3.6-.5l1.5-.2v.9c-.2.3-.3.7-.3,1.1.5-.2,1.8-.6,2.6.8.1,0,.3,0,.4,0,.2,0,.5-.2.8-.3.2-.1.4-.2.6-.3l.8-.4.3,1.6c0,.4.1.8.2,1.2h0s0,0,0,0c.6-.4,1-.8,1.6-1.3l2-1.6.2,3.7c.1.5,1.8,1.4,2.3,1.3.1,0,.3-.1.4-.2.7-.3,2-.8,3,.5t0,0c.2,0,.3,0,.4,0,.2,0,.4,0,.6,0,.6,0,1.1-.2,1.7,0,.5,0,.9.3,1.3.4.5.2.9.3,1.4.3.3,0,.6,0,.9.1.7.1.9.1,1.1-.1l.2-.2h.3c.5-.1,1.1.3,1.1.4.3.2.5.4.6.7.2.3.4.6.6.8.2-.2.4-.5.6-.8.2-.3.4-.5.7-.8,0,0,.7-.4,1.1-.4h.3s.2.3.2.3c.2.2.4.2,1.1,0,.3,0,.6-.1.9-.1.4,0,.9-.2,1.4-.3.4-.1.8-.3,1.4-.4.6,0,1.1,0,1.7,0,.2,0,.4,0,.6,0,.1,0,.3,0,.4,0t0,0c1-1.3,2.2-.7,3-.5.1,0,.3.1.4.2.5,0,2.2-.8,2.3-1.3l.2-3.6,2,1.6c.5.4,1.1.9,1.6,1.3t0,0h0c0-.4.1-.8.2-1.2l.3-1.6.8.4c.2.1.5.2.6.3.3.1.6.3.9.3,0,0,.2,0,.3,0,.8-1.4,2.1-1,2.6-.8,0-.4-.1-.8-.1-1.1v-.9c-.1,0,1.3.2,1.3.2,1.2.2,2.4.3,3.6.5,0,0,.2,0,.3,0,.1-.5.3-.9.7-1.1.3-.2.5-.3.8-.3,0-.1,0-.2,0-.3,0-.3-.1-.5-.2-.8l-.2-1.4,1,.2c.4,0,.8.2,1.2.2v-.5c0-.4.1-.9.3-1.3l.4-.7.6.5c4,3,5.8,4.2,6.6,4.7h0c0,0,.8.4.8.4.2.1.4.2.7.4l.5.3v.6c-.1.1.1.4.3.8.3.5.7,1,1,1.4.6.8,1.2,1.7,1.7,2.6.3.5.6,1.2.7,1.8,0,.3.2.5.3.8l.3.7-.7.3c-.3,0-.5.2-.7.2,0,.4.2.7.3,1,.2.7.5,1.4.7,2.2.4,1.1.8,2.3,1.2,3.4.1.5.1,1,0,1.6Z"/>
</svg>