<?xml version="1.0" encoding="UTF-8"?>
<svg id="Layer_1" data-name="Layer 1" xmlns="http://www.w3.org/2000/svg" version="1.1" viewBox="0 0 360.4 224.8">
  <defs>
    <style>
      .cls-1 {
        fill: #2a3578;
      }

      .cls-1, .cls-2 {
        stroke-width: 0px;
      }

      .cls-2 {
        fill: none;
      }
    </style>
  </defs>
  <path class="cls-1" d="M355.8,27.9l-.4-.3c-7-3.6-14.7-5.2-23.7-5-15.8.4-31.1,4.7-45.5,12.7-8.1,4.5-16.1,9.2-23.9,13.8-4.3,2.5-8.5,5-12.8,7.5-1.9,1.2-4,2.2-6.1,3.4-.5.2-.9.5-1.3.7.1-.6.3-1,.4-1.4,1.2-2.9,2.2-6.1,1.1-9.7-.2-.9.2-2.2.6-3.2.6-1.8,1.3-3.6,2-5.4.7-1.9,1.4-3.8,2.1-5.7.7-1.9.2-3.9-1.3-5.5-1.1-1.2-1.1-2.4-.7-4.2.9-4.3,3.7-7,6.7-10,.5-.6,1.1-1.1,1.6-1.7,1.9-1.9,3.3-4.3,4.7-6.6.5-.8.9-1.6,1.5-2.4.4-.6.2-1.5,0-2.1l-.6-2.3-.8,2c-.7,1.7-1,2.3-1.3,2.7,0-.6,0-1.1-.3-1.6l-.2-1.3-1.7-.2-.2.7c0,.5-.1.9-.3,1.4v.3c-.3,1.4-1.2,2.1-2.4,3l-.3.3c-3,2.4-5.5,5.2-8,8-1.5,1.6-2.6,3.6-3.7,5.4-.5.9-.8,2-1,3.4-.2,1.6-.6,2.3-1.8,2.6-1.7.5-2.7,1.8-3,3.9l-.6,3.4c-.5,3.1-1,6.2-1.4,9.4-.2,1.3-.4,1.6-1.4,1.6-1.8,0-2.7,1.1-2.9,3.2,0,1.8-.3,3.7-.6,5.8l-17.1,20.2-3.7-6.4h-.2c-.2-.3-.4-.5-.4-.7-.2-.3-.2-.8-.2-1.2v-.5c-.1-1.2-.6-2-1.3-2.3-.5-.3-1.3-.3-2,0l-1.1-2.2-.9.7c-.2,0-.3.3-.5.4-.9-1.3-2-2.3-3.2-3.1-1.2-.8-2.5-1.4-3.8-2l-.5-.3c-.5-.2-.7-.4-.8-.4,0,0,.2-.4.5-.8,3.8-5.2,7.6-10.3,11.4-15.4.8-1,1.3-1.5,2.8-1.3,1.4.2,2.8-.2,4.1-.5.3,0,.6,0,1-.2,1.2-.3,2.4-.7,3.5-1l1.1-.3c.3,0,.5-.2.8-.3l.6-.3v-1.5h-.6c-.2,0-.3-.1-.4-.2-.3,0-.7,0-1.1,0-1.8,0-3.6.3-5.4.5-1.4,0-2.6,0-3.7-.8-1.5-1-2.6-.8-3.7.5-2.2,2.6-4.2,5.2-6.3,7.8l-2.7,3.4c-1.9,2.4-3.9,4.9-5.7,7.3-1.8,2.4-1.2,1-2.2,1s-1.7,0-2.6-.1c-1.3,0-2.6,0-3.9,0s-2.6,0-3.9,0c-.9,0-1.7,0-2.6.1-1,0-1.6-.3-2.2-1-1.9-2.4-3.8-4.9-5.7-7.3l-2.8-3.6c-2.1-2.6-4.2-5.2-6.3-7.7-1.1-1.4-2.2-1.5-3.7-.5-1.1.7-2.3,1-3.7.8-1.8-.2-3.6-.3-5.4-.5h-2.1v1.5l.6.3c.3,0,.5.2.8.3l1.1.3c1.1.4,2.3.8,3.6,1,.3,0,.6.1.9.2,1.3.4,2.8.7,4.1.5,1.4-.2,2,.2,2.7,1.3,2.6,3.6,5.3,7.3,8,10.9l3.4,4.6c.3.4.5.7.6.7,0,0-.2.2-.8.5l-.5.3c-2.6,1.3-5.2,2.6-7.1,5.1,0-.1-.3-.3-.5-.4l-1-.7-1,2.2c-.8-.3-1.5-.3-2,0-.7.4-1.1,1.1-1.2,2.3v.5c0,.4,0,.9-.2,1.2,0,.2-.3.4-.4.7h-.2l-3.7,6.4-17.1-20.2c-.4-2.1-.6-4-.7-5.8,0-.8,0-3.2-2.8-3.2s-1.2-.3-1.4-1.6c-.4-3.1-1-6.3-1.4-9.3l-.6-3.5c-.3-2-1.3-3.3-3-3.9-1.1-.3-1.5-1-1.7-2.6-.2-1.5-.5-2.6-1-3.4-1-1.7-2.2-3.7-3.7-5.4-2.5-2.8-5-5.6-8-8l-.3-.3c-1.2-.9-2.1-1.6-2.3-3v-.3c-.2-.5-.2-.9-.3-1.4v-.7c0,0-1.8.2-1.8.2l-.2,1.2c0,.6-.2,1.2-.3,1.7-.4-.4-.6-1-1.3-2.7l-.8-2-.6,2.3c0,.7-.4,1.5,0,2.1.5.8,1,1.6,1.5,2.4,1.4,2.3,2.7,4.7,4.6,6.6.6.5,1.1,1.1,1.7,1.7,3,2.9,5.8,5.7,6.7,10,.4,1.8.4,3-.7,4.2-1.5,1.7-2,3.6-1.3,5.5.7,1.9,1.4,3.9,2.1,5.8.7,1.8,1.3,3.6,2,5.4.3,1,.8,2.3.6,3.2-1.1,3.7-.2,6.9,1.1,9.7.2.4.3.8.4,1.4-.5-.2-.9-.5-1.3-.7-2.3-1.2-4.2-2.2-6.2-3.4-4.3-2.5-8.5-5-12.7-7.5-7.8-4.6-15.9-9.3-23.9-13.8-14.4-8-29.7-12.3-45.6-12.7-8.9-.2-16.6,1.4-23.7,5C1.6,29.2.2,31.8.6,35.5c1.2,11,4.6,21.2,9.9,30.4,3.9,6.7,9,9.8,15.7,9.4,0,0,.3,0,.6,0,0,.3,0,.6-.2.8-1,2.5-.8,5,.7,7.7,2.4,4.3,5.8,7.7,10.3,10.2,1.2.7,2.5,1.4,3.3,2.4,4.4,5.4,9.7,9.5,16.3,14,2.9,2,7.4,4.6,12.5,3.3,4.2-1,7.8-.2,11.8,2.6,3.9,2.7,8.3,3.2,13,1.4,1.4-.5,2.7-1.1,4-1.7.8-.4,1.6-.7,2.4-1.1.3,0,.6-.3,1-.4,0,0,0,.2-.2.2-.7.7-1.4,1.4-2.2,2-.9.8-1.7,1.6-2.6,2.5-1.6,1.5-2.1,3.4-1.6,5.5.3,1.2,0,2.1-.8,3.3-2.9,4.3-7.4,5.5-10.6,5.8-3.3.3-6,1.6-8.7,2.9-.7.3-1.5.7-2.2,1-.7.3-1.2.8-1.7,1.3s-.4.4-.7.6l-.7.5.7.6.2.2.4.4,1.9-.9c.1,0,.3-.2.4-.2l-1.8,4.5,1.6-.8c.9-.4,1.6-.9,2.1-1.6,1-1.4,1.8-1.9,3.3-1.3,1.3.6,3.1,0,3.9-.3,1.7-.7,3.4-1.4,5-2.1,1.9-.8,3.9-1.7,5.9-2.4,2.7-1,4.5-2.3,6-4.1.3-.4.9-.7,1.1-.8,3,1,4.7-.7,6.1-2.4,2.1-2.6,4.3-5.2,6.3-7.9l1.2-1.4c.8-1,1.1-1.2,1.8-.9,2.1,1,3.5-.2,4.6-1.6,3-3.9,6.2-7.7,9.3-11.3.4-.4,1.3-.7,1.6-.7,1.7.9,3,.4,4.1-.2,2.5-1.5,5.3-1.9,8.2-2.3,1.7-.3,3.5-.6,5.2-1.1h.3c-.2,1.5-1.1,2.6-2.9,3.6-4.8,2.7-8.6,5.8-11.5,9.3-.8,1-1.7,2.2-1.5,3.3.4,2.7-.7,4.4-3.5,5.7-.6.3-1.1.8-1.5,1.2l-.2.2c-7,6.9-11.5,15.7-13.2,26.1-.2,1.4,0,3.1,1.1,5.1.5,1.1.5,1.6.1,2.3-3.6,6.7-4.6,14-5.1,19.6-.2,2.4.5,4.5,2.2,6.3.4.5.8,1.5.8,2,0,2.9-.5,5.9-2.9,8.3-2.4,2.4-2,2.2-2.9,3.2-1,1.2-2,2.4-3.2,3.5-1.7,1.6-2.7,3.9-3.6,6.1-.4.8-.7,1.7-1.2,2.5-.2.4-.2.9,0,1.4v3.8l1.4-2.9c.4-.8.7-1.6,1.1-2.3,0-.2.2-.3.3-.5.2.8.4,1.7.6,2.5l.4,1.6.9-1.4c.4-.6.5-1.2.7-1.8,0-.3.1-.5.2-.7v-.3c.3-.6.7-1.4,1.1-1.6,4.9-2.7,7.7-7,9.6-10.6.4-.8.9-1.5,1.4-2.3,1.5-2.3,3.1-4.7,2.9-7.9v-.2c3.1-1.1,4-3.8,4.5-5.8,1.7-5.7,2.6-12.1,2.8-20.1,0-.1.3-.4.5-.6.1-.2.3-.3.4-.5,0,.1,0,.4,0,.6,0,.6.2,1.4,1,1.9v.3c0,.4-.2.8-.3,1.2,0,.3-.3,1,0,1.5.2.3.5.5,1,.6v.2c0,.3,0,.7,0,1v.9c0,.3.2,1.4.9,1.5h.2v.8c0,.5-.2,1.1-.2,1.7v.6h.6c.2.1.4.1.6.2,0,.2,0,.4-.1.6,0,.4,0,.9-.2,1.3v.9h1.9s.1.1.1.4c0,.6.6.9,1.1.9h.3c0,0,0,.3,0,.4v.4c-.3,1-.4,1.5,0,2,.3.3.7.4,1.3.4l-1.3,3.9h2.5v.6c0,.2-.2.5-.1.8,0,.4.3,1.3,1,1.4h.2v.7c0,0,0,.3,0,.5,0,.5-.1,1-.1,1.5s.5.9.6,1c.3.2.6.3.9.3h.2v1.3c0,.7,0,1.4.5,1.8.5.4.5.7.5,1.5v.5h0c0,.5.1,1.1.6,1.6s.8.4,1.3.4h.2v.3c0,.8,0,1.7.2,2.5,0,.7.2,1.2.6,1.6.4.4.9.5,1.5.4.4,0,.7,0,.8.8v.4c.3,1.1.6,2.3,1,3.4.2.6.9,1.3,1.6,1.3s.7,0,.9.7c.3.5,1,1.3,1.7,1.3,1.4,0,2.1.4,2.3,1.6,0,.7.5,1.2.9,1.4.3.2.7.3,1.4.1h.2s0,0,0,.4c.2.8.4,1.6.4,2.2,0,.8.4,1.3.8,1.6.5.3,1,.2,1.7,0,.3-.1.3-.2.5.2.3.5.9,1,1.5,1.1,1,.2,1.6.8,1.9,1.8,0,.5.8,1.4,1.5,1.4s.7,0,.9.8c.2.4.7,1.8,2.3,1.3.5,0,.9-.3,1.3-.5.8-.4,1.6-.7,2.6-.6.5,0,.9-.1,1.3-.3.7-.3.9-.3,1.2,0l.2.3h.3c.2,0,.5,0,.6,0h.2c.1,0,.3.3.5.6.3.4.8,1,1.4,1s1.1-.6,1.4-1c.3-.5.4-.5.6-.5h.3c0,0,.2,0,.6.5.3.5.7,1,1.4,1s1.1-.5,1.6-1.1c.1-.1.3-.4.4-.4.2,0,.5.2.7.2h.3v-.2c.5-.4.7-.3,1.4,0,.4.2.9.4,1.3.3,1,0,1.7.3,2.5.6.4.2.9.4,1.3.5,1.6.5,2.1-.9,2.3-1.4.2-.7.4-.8.9-.8s1.4-.9,1.5-1.4c.3-1.1.9-1.7,1.9-1.8.6-.2,1.2-.6,1.5-1.1.2-.4.3-.4.6-.2.7.3,1.3.3,1.7,0,.5-.3.7-.8.9-1.5,0-.7.2-1.4.4-2.3,0-.3,0-.3,0-.3h.2c.7.2,1.1,0,1.4,0,.4-.3.8-.7.9-1.4.2-1.3.9-1.7,2.3-1.6.7,0,1.5-.7,1.7-1.3.3-.6.5-.7.9-.7.7,0,1.5-.7,1.7-1.3.3-1,.5-2,.8-3.1l.2-.7c.2-.8.4-.8.8-.8.6,0,1.1,0,1.4-.4.4-.3.6-.9.6-1.6s0-1.7.2-2.6v-.3h.2c.5,0,1,0,1.3-.4.5-.4.6-1,.6-1.6v-.5c0-.7,0-1.1.5-1.5.6-.4.6-1.2.6-1.8v-1.2h.3c.3,0,.6,0,.9-.3.3-.3.6-.5.6-1s0-1.1-.2-1.6v-.6c-.1-.2-.1-.4-.1-.4h.2c.6,0,.8-.9,1-1.4,0-.3,0-.5,0-.8v-.6h2.5l-1.3-3.9c.6,0,1,0,1.3-.4.4-.5.3-1,0-2.1v-.3c-.1,0-.1-.3-.2-.4h.2c.4,0,1.1-.3,1.1-.9s0-.3.1-.4c0-.2.7,0,1.2,0h.9l-.2-.8c0-.5-.2-.9-.2-1.3s0-.4,0-.6c0,0,.3,0,.6-.1h.6v-.8c0-.6-.2-1.2-.2-1.7v-.8h.2c.7,0,.9-1.2.9-1.4,0-.3,0-.7.1-1,0-.3,0-.6,0-1v-.2c.5-.1.8-.3,1-.6.3-.5.2-1.1,0-1.5-.2-.4-.2-.8-.3-1.2v-.3c.8-.5.9-1.3,1-1.9,0-.3,0-.5,0-.6.2.2.3.3.4.5s.4.5.4.7c.2,8,1,14.4,2.8,20.1.6,2,1.4,4.7,4.4,5.8l.2.2c-.3,3.2,1.3,5.6,2.9,7.9.5.7,1,1.5,1.4,2.3,1.9,3.5,4.7,7.9,9.6,10.6.4.2.7,1,1,1.6v.3c.2.2.3.5.3.7,0,.6.3,1.2.7,1.8l.9,1.4.4-1.6c.2-.8.4-1.7.6-2.5,0,.2.2.4.3.5.3.7.7,1.4,1.1,2.2l1.4,2.9v-3.8c0-.5,0-.9-.1-1.4-.4-.8-.8-1.6-1.2-2.5-1-2.2-1.9-4.5-3.6-6.1-1.1-1.1-2.2-2.3-3.2-3.5-.9-1.1-1.8-2.2-2.9-3.2-2.4-2.4-2.8-5.4-2.9-8.3,0-.6.4-1.5.8-2,1.7-1.8,2.4-3.9,2.2-6.3-.4-5.6-1.4-13-5-19.6-.4-.7-.4-1.3,0-2.3.9-2,1.3-3.7,1-5.1-1.7-10.4-6.2-19.2-13.2-26.1l-.2-.2c-.4-.4-.9-.9-1.5-1.2-2.8-1.4-3.9-3.1-3.5-5.7.2-1.1-.7-2.3-1.6-3.3-2.9-3.5-6.6-6.5-11.4-9.3-1.8-1-2.6-2.1-2.9-3.6h.2c1.7.5,3.6.8,5.3,1.1,2.9.4,5.7.9,8.2,2.3,1,.6,2.3,1.1,4,.2.3,0,1.2.3,1.6.7,3.2,3.6,6.3,7.4,9.4,11.3,1,1.3,2.4,2.5,4.6,1.6.7-.3,1-.1,1.8.9l1.2,1.5c2.1,2.6,4.2,5.2,6.3,7.8,1.4,1.7,3.1,3.4,6,2.4.2,0,.9.4,1.1.7,1.5,1.8,3.3,3.1,6,4.1,2,.7,4,1.6,5.9,2.4,1.6.7,3.3,1.4,5,2.1.7.3,2.5.8,3.8.3,1.6-.6,2.3,0,3.3,1.3.5.7,1.2,1.2,2.1,1.6l1.6.8-1.3-3.1c-.2-.4-.4-.9-.6-1.4.2,0,.3.1.4.2l1.4.7.5.2.4-.4.2-.2.6-.6-.7-.5c-.2-.2-.5-.4-.7-.6-.5-.4-1.1-.9-1.7-1.3-.8-.3-1.5-.7-2.2-1-2.7-1.3-5.4-2.6-8.7-2.9-3.3-.3-7.7-1.5-10.6-5.8-.8-1.2-1.2-2.1-.9-3.3.6-2,0-3.9-1.6-5.5s-1.7-1.7-2.6-2.5c-.7-.7-1.5-1.4-2.2-2l-.2-.2c.3.2.7.3,1,.4.8.4,1.6.7,2.4,1.1,1.3.6,2.6,1.2,4,1.7,4.7,1.8,9.1,1.3,13-1.4,4-2.8,7.6-3.6,11.7-2.6,5.2,1.2,9.6-1.3,12.6-3.3,6.6-4.5,11.8-8.6,16.2-14,.8-1,2.1-1.7,3.3-2.4,4.6-2.6,7.9-5.9,10.3-10.2,1.5-2.7,1.7-5.2.7-7.7,0-.3,0-.5-.2-.8.2,0,.4-.1.6-.1,6.6.4,11.7-2.6,15.7-9.4,5.3-9.2,8.7-19.4,9.9-30.4.4-3.7-1-6.3-4.3-8ZM131.3,82.5h0c-.5,0-.9.1-1.3,0-6.6-1.5-13.6-3.2-21.4-5.2-.3,0-.8-.5-1-1-.4-.9-.7-1.9-1.1-3.1v-.3l9.6,3.7c5.2,2,10.2,3.9,15.3,5.9ZM69.6,66.4h0c-2-.5-2.5-.7-2.5-1.9s0-.8,0-1.4c.2-1.5.6-2.9,1-4.5.1-.3.2-.7.3-1,.5.3,1,.7,1.5,1,1.5,1,2.9,1.9,4.5,2.5,6.5,2.3,11.9,4,17.1,5.4,5.7,1.5,8.7,4,9.9,8.4h0s0,0,0,0c-.7,0-10.5-2.7-10.5-2.7-7.1-1.9-14.2-3.8-21.3-5.6v-.2ZM40.3,54.1h-.4c-3.1-.3-3.8-.9-4-3.9,0-1.7.2-3.6.5-5.4,0-.6.1-1.2.2-1.8,0-.5.3-.9.5-1.1.2,0,.3,0,.6,0s.6,0,.9.2c.9.3,1.9.7,2.8,1,1.5.6,3.1,1.2,4.7,1.6,2.4.7,4.9,1.4,7.3,2,1.5.4,2.9.8,4.4,1.2.9.2,1.7.5,2.4.7h.3c1.4,1.3,2.4,3.3,2.6,5.5.2,1.7-.3,3.3-1.1,4.2v.2h-.7c-6.7-3.4-14-3.9-21-4.3ZM74.2,73h0s0,0,0,0c1.6.2,3.3.4,4.9.8h0c5.5,1.5,11.1,3.2,16.5,4.7l5.1,1.5c.7.2,1.3.4,2,.6,1,.3,2.1.7,3.2,1,.5,0,.8.3.9.5,0,.2,0,.6,0,.9-.2.7-.3,1.3-.4,2.1,0,.2,0,.4,0,.6,0,0,0,0,0,0-11.2-3.9-21.8-8.3-31.9-12.7ZM95.8,52.9h0c0,0,5.5,3.5,5.5,3.5,6.1,3.9,12.2,7.7,18.3,11.6,3.1,2,5.8,4.7,8.5,8.6,0,0,0,0,0,0,0,0,0,0-.1,0-2-.8-3.8-1.5-5.8-2.3-4.6-1.7-9.3-3.5-13.8-5.7-2.7-1.3-5.1-2.9-7.3-4.6-.4-.3-.8-.7-1.3-1-.4-.3-.8-.7-1.2-1.1-.8-.7-1.5-1.4-2.1-2.2-.3-.3-.6-.7-.9-1-.3-.3-.5-.6-.8-.9-1.7-2.2-3.2-4.7-4.4-7.3,0-.3-.3-.7-.4-1.1,1.8,1.2,3.7,2.4,5.6,3.6h0c0-.1,0-.2,0-.2h0ZM69.7,45.2h0c0,0,0,0,0,0,.6-.5,1.2-1.1,1.7-1.7.4-.5.9-1,1.3-1.5,0-.1.2-.2.3-.4l.4-.5c.2-.2.3-.4.4-.5,0,0,.1-.1.2-.1,0,0,.3,0,.5.2,1,.6,2,1.2,3.1,1.7.7.4,1.3.7,2,1.1,1.2.7,1.6,1.7,2.1,3.2,1,2.9,2.4,5.5,4.2,8.6.8,1.4,1.8,2.7,2.7,4,.2.3.5.6.7,1,0,0,0,0,0,0-1.5-.5-3-.9-4.5-1.4-5.2-1.5-10-2.9-14.2-6.5l-.3-.3c-.3-.2-.5-.4-.8-.7-1.6-1.5-2.3-2.4-2.2-3.2,0-.7.7-1.7,2.4-3.1ZM14.5,29.1c.2-.5.9-.8,1.8-1,1-.2,2.1-.4,3.1-.5.5,0,1-.1,1.5-.2,1-.1,2-.2,3-.3,2.5-.2,5.1-.2,7.7,0,7.5.4,15,1.9,22.5,4.7l1.4.6c3.3,1.2,6.6,2.4,9.9,3.7.7.3,1.4.7,2.1,1.1.2.1.5.2.6.3-1.7,2.7-3.5,4.1-5.8,4.2-.2,0-.5,0-.7,0-.2,0-.3,0-.5,0-4.6-.7-9.2-1.7-13.4-2.9-5-1.5-9.4-2.4-13.6-2.6-.4,0-.8,0-1.2,0-.5,0-1,0-1.5,0h-1.2c-1.1,0-1.6,0-1.9,0-.1,0-.2,0-.2,0-.3,0,0,0-.2,0,0,0,0,0-.1,0s0,0-.1,0c-.2,0-.4,0-.7,0-.4,0-.8,0-1.2,0-3.2-.1-6.3-1.2-9.2-3.3-.7-.5-1.4-1.3-1.8-2-.3-.5-.6-1.3-.3-1.8ZM6.4,47.2c-.2-.3-.3-.6-.3-.8h0c-.5-4.2-1-8.9-1.5-14.2,0-1,.4-1.8,1.5-2.3.9-.4,1.4-.6,1.6-.6h.1c0,0,.3.4.6,1.6.5,2.5,2,4.4,4.6,6,1.4.8,2.8,1.7,4.2,2.6h.2s0,0,0,0c-.2.1-.3.2-.4.3,0,0,0,0,0,0-1.5,1.1-2.9,2.2-4.4,3.1-1.9,1.4-3.9,2.8-5.9,4.2,0,0,0,0,0,0ZM10.5,60h0c-1.4-2.1-2.2-3.7-2.2-5,0,0,0-.2,0-.3.2-1.6,1.5-3,4.4-5.3,4-3.2,8.6-6.8,14.4-7.9,1.1-.2,2.1-.3,3.3-.3h.9c-1,1.9-1.5,3.9-1.6,5.8,0,.8,0,1.6,0,2.4,0,1.2.2,2.3.3,3.4.4,2.5-.3,4-2.6,5.2l-1.4.7c-3.5,1.8-6.8,3.6-10.7,4-2.7.3-3.5,0-4.9-2.6ZM17.3,68.7c-.2,0-.3-.2-.5-.3,0,0,0,0,0-.1,0,0-.1-.1-.2-.2.6-.2,1.3-.4,1.9-.6,2.1-.7,4.2-1.3,6.2-2.2,1.8-.9,3.6-1.9,5.3-2.9,1.3-.7,2.5-1.4,3.8-2.1,1.4-.7,2.9-1.5,4.2-1.4,7.8.4,14.4,1.7,20.3,3.8.8.3,1.5.6,1.9,1,0,0,.2.1.2.2.3.3.5.8.6,1.3h-.9c-1.4,0-2.7,0-4,.1-7.9.4-16.3,1.1-24.4,4.4-5,2-9.9,1.6-14.4-1.2v.2ZM40.9,90c-3.7-.2-6.2-1.7-7.8-4.4-.6-1-1.3-2.1-1.9-3.3-1.8-3.6-1.2-5.1,2.5-7,4.1-2.1,8.5-2.7,13.2-3.4h.6c.4,0,.8-.1,1.2-.2.4,0,.9,0,1.3,0,.6,0,1.1,0,1.7,0,2.3,0,4.7.6,7.1,1.5,2.5,1,4.9,2,7.4,3,1.8.8,3.7,1.5,5.5,2.3.7.3.9.6.9.7,0,0,0,.4-.7.9-2.3,2.9-5.3,4.9-9.5,6.3-8.4,2.9-14.9,4-21.5,3.6ZM76.1,107.6c-7.3,4.5-14.3,1.8-18.9-1.2-3-2-5.7-4.4-8.4-6.9-1.2-1-2.4-2.1-3.5-3.1,0,0,0,0,0-.2.7-.2,1.3-.3,2-.5,2-.4,3.9-.9,5.8-1.4,7.3-2.2,14.7-1.4,23.3,2.3,1.6.7,3.1,1.7,4.5,2.8.4.3.7.5,1,.8,0,0,.3.5.3.6-.5.6-1,1.3-1.5,2-1.4,1.8-2.8,3.7-4.5,4.8ZM109,105.6h-.1c-1,1.5-2.4,2.5-3.9,3.5-1.5.9-3.2,1.6-5,2.3-.9.4-1.9.7-2.8,1.2-2.8,1.3-6.1,2.5-9.6,1.8-1.8-.3-3.6-1.1-5.3-1.9l-.4-.2c-.3-.2-.5-.3-.5-.4,0-.2.1-.5.4-.8,1-1.1,1.9-2.1,2.8-3.2,1.5-1.7,3-3.5,4.6-5.1,1.6-1.6,2.3-1.4,3.3-1.4h.2c5,.3,10,.9,15.5,1.7.1,0,.3,0,.5,0,.1,0,.2,0,.3,0,.1,0,.2,0,.3,0h0c.2,0,.4,0,.6.2.1,0,.2,0,.3.1,0,0,0,0,0,0,0,0,0,0,.1,0-.2.4-1,1.3-1.5,2ZM121.5,96.5c-2.2,1-4.3,2.1-6.6,3,0,0-.2,0-.3,0h0c-.5,0-1.2-.3-1.7-.5l-.5-.2c-3.6-1.2-7-2-10.3-2.4-2-.3-3.9-.4-5.7-.4s-1.7,0-2.3,0c-.3,0-.5,0-.7,0h0c-.1,0-.2,0-.3,0-.2,0-.3,0-.4,0,0,0-.1,0-.1,0-.4,0-.6.2-1.4.3-.2,0-.3,0-.5,0-.3,0-.5,0-.8,0-1.2,0-2.3-.4-3.2-.9-4.9-3-9.8-5-15-6.2h-.2c.5-.4,1-.8,1.4-1.2l1.4-1.2c1.7-1.5,3.4-2.9,5-4.5.7-.7,1.1-1,1.3-1,0,0,0,0,0,0,.3,0,.4.2.9.4,11.6,4.7,24.2,8.8,39.8,12.9.5.2,1.1.4,1.7.7,0,0,.2,0,.2.1-.5.3-1.1.5-1.7.8h.2ZM132.2,91.7c-1,.3-2,.4-2.9.1h.3c-3.7-.9-7.6-1.9-11.2-2.8-2.1-.6-4.2-1.1-6.3-1.6-.7-.2-1.2-.4-1.3-.7,0-.1-.1-.3-.1-.6s0,0,0-.2c0-.1,0-.2,0-.4,0-.1,0-.3,0-.4.2-.6.3-1.3.4-2v-.5c2.6.9,5.4,1.5,8,2,5.6,1.1,10.8,2.2,15.4,5.9-.7.4-1.4.8-2,1-.1,0-.2,0-.4.1ZM209.4,201.1l-.3.6-.6-.3.3-.6-.4.6c-.2,0-.4,0-.5-.4,0,0-.2,0-.2-.2,0,0,0,0-.2.3-.1.3-.4.6-.6.8,0,0,0,0-.2,0-.1.2-.3.3-.4.4-.2.2-.4.5-.6.7,0,0-.1.3-.2.6,0,.1,0,.3-.1.5l-.4,1.3-.9-1c-.4-.5-.8-1-1.2-1.4,0,.2,0,.3,0,.5,0,.4,0,.8-.2,1.3,0,.7-.2,1.5-.3,2.2,0,.4-.3.8-.5,1.1l-.2.2c0,.2-.3.4-.4.5-.2.2-.3.4-.3.5-.2.7-.3,1.4-.3,2.2s-.2,1.1-.7,1.5c-.5.4-1.1.3-1.6.2-.4,0-1-.2-1.1-.2s-.3.6-.5,1c-.2.6-.9,2-2.7,1.5-.4,0-.6,0-.8.5-.2.6-.6,1.1-1,1.4-.3.3-.7.4-1.2.6-.1,0-.3,0-.5.2l-.4.2-.8-.6c-.3-.2-.7-.5-1-.7-.2.8-.7,2.4-2.7,2.6h0c-.2.3-.6.4-1,.4s-.8-.2-1.3-.7-.5-.7-.7-.9l-.9.9-.5.6-.5-.7c-.3-.3-.4-.5-.5-.7,0,0-.2-.2-.2-.3l-.3.2-.3-.2s-.2.2-.2.3c0,.2-.3.4-.5.7l-.5.7-.6-.6c-.3-.3-.6-.7-.8-.9-.2.2-.4.5-.7.8-.9,1.1-1.8.7-2.2.4h0c-2.1-.3-2.6-2-2.7-2.6-.3.3-.7.6-1,.8l-.8.6-.4-.2c-.2,0-.4-.2-.5-.2-.5-.2-.8-.4-1.2-.6-.4-.4-.8-.9-1-1.4-.2-.6-.4-.6-.8-.5-1.8.5-2.4-1-2.7-1.5-.2-.3-.4-.9-.6-1-.1,0-.7.1-1.1.2-.5,0-1.1.2-1.6-.2-.6-.4-.6-1-.7-1.5,0-.7,0-1.5-.3-2.2,0,0-.2-.3-.3-.5-.1-.2-.3-.3-.4-.5l-.2-.3c-.2-.3-.4-.7-.5-1.1-.2-.7-.2-1.4-.3-2.2,0-.4,0-.8-.2-1.3v-.5c-.4.4-.7.9-1.2,1.4l-.8,1-.4-1.3c0-.2,0-.3-.1-.5,0-.3-.2-.5-.3-.6-.2-.3-.4-.5-.6-.8l-.3-.4s-.1,0-.2,0c-.2-.2-.5-.4-.6-.8,0,0,0-.2-.2-.3l-.2.2c-.2.2-.4.3-.5.3l-.6.3-.4-.6c-.9-1.6-.8-5,.6-6.3l.6-.5,1.4,1.6,1-1,.6.9c0,.2.3.4.4.7,0,.3.2.4.2.4,0,0,0,0,.3-.2.6-.3,1.9-.2,2.4.3.2.3.5.2,1-.1.2,0,.4-.2.5-.2h.6c.1,0,.5.3.5.8s.1.7.2.9c.2,0,.6,0,.9-.2h.2c.9-.3,1.9-.4,2.9-.5h.6c.7,0,1.2.6,1.3.9.2.3.2.5.2.7v.5l.6-.6c0-.2.3-.4.5-.6l.6-.6.5.7.3.3c.2.2.4.4.5.7,0,.2.2.4.3.4,0,0,.2,0,.7-.2.1,0,.3-.2.4-.3.3-.2.7-.4,1.1-.5.3,0,.6,0,.9-.2,1-.2,2-.4,2.9-.9.6-.4,1.4-.4,2.1-.2.7.3,1.3.8,1.7,1.6.4-.8,1-1.3,1.7-1.6.7-.3,1.5-.2,2.1.2.9.5,1.9.7,2.9.9.3,0,.6.1.9.2.4,0,.8.3,1.1.5,0,0,.3.2.4.3.5.2.7.2.7.2,0,0,.2-.2.3-.4.1-.3.3-.6.5-.8,0,0,.2-.2.2-.3l.5-.7.6.6c.2.2.3.4.5.6l.6.6v-.5c0-.2,0-.5,0-.7.1-.3.6-.9,1.3-.9h.7c.9.2,1.9.2,2.9.5h.2c.3,0,.7.2.9.2,0-.2.1-.6.2-1,0-.4.4-.6.5-.6h.3c0,0,.3,0,.3,0,.2,0,.5,0,.6.3.5.3.8.3,1,0,.6-.6,1.8-.7,2.4-.3.2,0,.3.2.4.2,0,0,0-.2.2-.5,0-.3.2-.5.3-.7l.6-.9,1,.9c.4-.4.6-.7.9-1l.5-.5.5.5c1.4,1.3,1.5,4.7.6,6.3l.5.4ZM212.2,124.7h.3c.4,0,.8.3,1.2.3v-.5c0-.4,0-.9.3-1.3l.4-.7.3.2.3.3c4,3,5.8,4.2,6.6,4.7l.8.4c.2,0,.4.2.7.4l.5.3v.6c0,0,.1.4.3.8.3.5.7,1,1,1.4.6.8,1.2,1.7,1.7,2.6.3.5.6,1.2.7,1.8,0,.3.2.5.3.8l.3.7h0s-.7.3-.7.3c0,0,0,0,0,0-.2,0-.4.2-.6.2,0,.4.2.7.3,1,.2.7.5,1.4.7,2.2.4,1.1.8,2.3,1.2,3.4,0,.5,0,1,0,1.6v1.5l-.8-.2c-.7-.2-1.2-.2-1.4,0,0,0,0,0-.1,0,0,0,0,0,0,0-.2.2-.4.7-.6,1.6v.7c-.1,0-.2.4-.2.4l-1.7-1.2s0,0-.1,0c0,0-.1,0-.2-.1,0,.2,0,.7-.2,1,0,.2-.3.4-.5.6-.5.3-1.1.1-1.5,0,0,0-.1,0-.2,0v.2c-.1.6-.2,1.3-.3,2l-.2,1.2v.4c0,0-2.3-1.8-2.3-1.8l-.2-.2v1.7c-.1,0-1-.3-1-.3-.2,0-.4,0-.5,0,0,0,0,0,0,0-.1,0-.2.6-.3.8,0,.2,0,.3,0,.5l-.2.5v.3c-.1,0-1.5-.9-1.5-.9-.5-.3-.9-.6-1.4-.9,0,0,0,0-.2,0t0,0s0,0,0,0c0,0,0,0,0,0-.3.7-1.4.9-1.8.9s-.8-.3-1-.4c0,0-.2,0-.3-.2-.3,0-.7-.4-.9-.4h0s0,0,0,0c0,0,0,0,0,0,0,0,0,0,0,.1,0,.2-.2.4-.4.5-.1.2-.6.9-1.3,1-.7.1-1.2-.3-1.5-.6-.5-.4-.9-.8-1.4-1.2h0c0,.1,0,.3-.2.4-.1.3-.3.5-.5.6-.6.3-1.3,0-1.4-.2-.2,0-.4-.2-.5-.3h0c-.1.2-.2.5-.3.7-.2.3-.2.6-.3.8-.1.4-.3.8-.4,1.1-.2.4-.5.6-.9.7-.7.2-1.3-.4-1.8-1-.2,0-.3-.3-.4-.4l-.6-.6s-.2,0-.3-.2t0,0s0,0,0,.1c0,0,0,0,0,0-.2.3-.3.5-.6.6-.5.3-1.1.3-1.8,0,0,0-.2,0-.3.2,0,.1-.2.2-.2.3-.8,1.3-1.4,1.3-2.8.6-.2,0-.3-.2-.4-.2-.8-.5-.8-.4-1.1,0-.4.5-1.1.4-1.4.2h-.2s0,.2,0,.3c0,.3-.1.5-.3.8l-.2.6v.3c-.1,0-.7-.2-.7-.2-.4,0-.7-.3-1.1-.5-.1,0-.5-.3-.5-.3,0,0,0,0-.1,0h0c0,0-.1.1-.2.2h0c0,0-.1.4-.1.4h-.5c-.6-.1-1.1,0-1.4.3h0c-.1.2-.3.4-.4.7l-.4,1.2-.2.4-1.5-3.1h0s0-.1,0-.1c0,.3-.3.7-.4,1l-.8,1.7-.2.4-.6-1.6c-.4-1-.9-1.2-1.8-1.1h-.5l-.2-.3c-.2-.3-.3-.3-.3-.3-.1,0-.4.2-.5.3-.3.2-.7.4-1.1.5l-.6.2-.3-.9c-.1-.3-.2-.6-.3-.8,0-.2,0-.3-.1-.3h0c-.4.2-1,.3-1.4-.2-.3-.4-.4-.4-1.1,0-.2,0-.3.2-.4.2-1.6.8-2,.7-3-.9,0,0,0-.1-.3-.2-.7.3-1.3.3-1.8,0-.3-.2-.5-.4-.7-.8,0,0-.2,0-.3.2l-.5.5c-.1.2-.3.3-.4.5-.6.6-1.2,1.1-1.9,1-.7-.2-1-.9-1.3-1.8,0-.3-.2-.5-.3-.7,0-.3-.2-.6-.3-.8-.2.1-.4.3-.6.4-.2,0-.8.5-1.4.2s-.6-.5-.7-1.1c-.5.4-1,.9-1.5,1.3-.3.3-.9.7-1.5.6-.7,0-1.2-.8-1.3-1s-.4-.7-.5-.7c0,0-.5.3-.8.4-.1,0-.2,0-.3.2-.3.2-.6.4-1,.4s-1.5,0-1.8-.9c0,0,0,0,0,0s0,0-.1,0c-.4.3-.9.6-1.3.9l-1.5.9-.3-.9c0-.2,0-.3,0-.5,0-.3-.2-.7-.3-.8,0,0-.3,0-.5,0l-.9.4v-1c0-.3-.2-.5-.2-.8l-2.4,2-.2-1.7c-.1-.7-.2-1.3-.3-2v-.2c-.4.2-1.1.5-1.7.1-.6-.4-.7-1.1-.7-1.6,0,0-.2.1-.2.2l-1.7,1.2-.2-1.1c-.2-1-.4-1.6-.7-1.7-.3-.1-.7-.1-1.4,0l-.9.2v-3.1c.3-1.1.7-2.3,1.2-3.4.3-.7.5-1.4.7-2.2.1-.3.2-.6.3-1-.2,0-.4-.1-.7-.2l-.7-.3.3-.7c0-.3.2-.5.3-.8.2-.6.4-1.2.7-1.8.2-.3.4-.6.6-1,.2-.3.4-.7.7-1,.2-.2.3-.4.5-.6.1-.2.3-.4.4-.6,0,0,0,0,0,0,0-.1.2-.2.3-.4,0-.1.2-.2.3-.4.2-.2.3-.4.4-.6h0c0-.1.1-.2.1-.2l-.2-.6h.3c0-.1.4-.3.4-.3.2-.1.4-.2.5-.3l.8-.5c.4-.2,1-.6,2.1-1.4,1.1-.7,2.5-1.8,4.5-3.2l.7-.5.4.7c.2.4.3.8.3,1.3v.5c.4,0,.7,0,1.2-.2l1-.2-.2,1.4c0,.3,0,.6-.2.9v.3c.3,0,.5,0,.8.3.3.2.6.6.7,1.1h.3c1.2,0,2.4-.3,3.6-.5l1.5-.2v.9c-.2.3-.3.7-.3,1.1.5-.2,1.8-.6,2.6.8h.4c.2,0,.5-.2.8-.3.2-.1.4-.2.6-.3l.8-.4.3,1.6c0,.4,0,.8.2,1.2.6-.4,1-.8,1.6-1.3l2-1.6.2,3.7c0,.5,1.8,1.4,2.3,1.3,0,0,.3,0,.4-.2.7-.3,2-.8,3,.5h1c.6,0,1.1-.2,1.7,0,.5,0,.9.3,1.3.4.5.2.9.3,1.4.3s.6,0,.9.1c.7,0,.9,0,1.1-.1l.2-.2h.3c.5-.1,1.1.3,1.1.4.3.2.5.4.6.7.2.3.4.6.6.8.2-.2.3-.4.5-.7,0,0,.1-.1.2-.2.2-.3.4-.5.6-.7,0,0,.7-.4,1.1-.4h.3l.2.3c.2.2.4.2,1.1,0,.3,0,.6,0,.9,0s.9-.2,1.4-.3c.4-.1.8-.3,1.4-.4h2.7c.5-.6,1-.8,1.5-.8s1.1.2,1.5.3c0,0,.3.1.4.2.5,0,2.2-.8,2.3-1.3h0s.2-3.6.2-3.6h.2c0,.1,1.8,1.6,1.8,1.6.5.4,1.1.9,1.6,1.3,0-.1,0-.3,0-.4,0-.3.1-.5.2-.8l.3-1.6h.1c0,0,.7.4.7.4.2.1.5.2.6.3.3,0,.6.3.9.3h.3c0-.1.1-.2.2-.3.8-1,1.9-.7,2.4-.5,0-.1,0-.3,0-.4,0-.3,0-.5,0-.7v-.9s.1,0,.2,0c.4,0,1.1.2,1.1.2,1.2.2,2.4.3,3.6.5h.3c0,0,0-.2,0-.3,0-.2.1-.4.3-.5,0,0,.2-.2.3-.2.3-.2.5-.3.8-.3v-.3h-.4c0-.3,0-.5-.2-.8l-.2-1.4h.7ZM217.2,88.2v.2h-.1c-.2.6-.5,1.2-1,1.5-.6.3-1.3.3-2,0h-1.8l-.2-1.6c0-.4,0-.8-.2-1.2-.3.5-.6,1-1,1.6l-.6.9-.6-.9c-.5-.7-.8-1.2-1.1-1.6l-.5-.2c-.5,0-.9-.2-1.4-.3-.4.4-.9.9-1.4,1.5l-.9.9-1.3-4c-.2.4-.5.7-.7,1l-1.8,2.6-1.6-3.9-2.1,3.2-.5-1.3c-.3-.7-.6-1.4-.9-2.1-.7.6-1.3,1.2-2,1.9l-.7.6-1.6-2.8c-.4.5-.8,1-1.2,1.6l-.4.6-.6-.5-.3-.3c-.3-.2-.6-.4-.8-.7-.5-.6-.8-.9-1.2-.9s-.7,0-1.1.4c-.8.6-2.3-.4-2.3-.4-.3-.1-.4-.4-.6-.6l-.4.5c0,.1-.2.3-.4.6l-.6.7-1.2-1.6c0,0,0-.2-.3-.3h-.5c0,0,0,.2-.3.3l-1.2,1.6-.6-.7c-.2-.3-.3-.5-.4-.7l-.4-.4c-.2.2-.4.5-.6.7,0,0-.9.6-1.7.6s-.4,0-.6-.2c-.4-.3-.8-.5-1.1-.4-.3,0-.7.3-1.1.9-.3.3-.6.5-.8.7-.1,0-.2,0-.3.3l-.6.5-.4-.6c-.4-.5-.8-1-1.2-1.6l-1.6,2.8-.7-.6c-.7-.7-1.3-1.3-2-1.9-.3.7-.6,1.3-.8,2.1l-.5,1.3-2.2-3.2-1.6,3.9-1.8-2.6c-.2-.3-.5-.7-.7-1l-1.3,4-.8-.9c-.6-.7-1.1-1.2-1.4-1.5-.5,0-1,.2-1.4.3h-.5c-.3.5-.6,1-1.2,1.7l-.6.9-.5-.9c-.4-.6-.7-1.1-1-1.6,0,.3,0,.7,0,1l-.3,1.8h-.7c-.2,0-.4,0-.6-.2h-.4c-.7.2-1.4.2-2-.1-.5-.3-.9-.8-1.1-1.5-.2-.8,0-2,.5-2.9l.4-.7c1.4-2.2,2.7-4.5,5.4-5.8.4-.2.8-.6,1.2-1.1l.3-.3c0-.2.3-.3.4-.5l.4-.4c.6-.7,1.3-1.4,2.1-2,.5-.4,1.3-.8,2-.6.3,0,.7,0,1.2-.3.7-.3,1.6-.6,2.5-.1.7-.8,1.8-1.6,3.1-1.6s1.5.2,2.3.7c1-1.6,2.9-2.1,4.3-1.7,1.1.3,1.3,0,1.9-.6,1-1.3,2.6-1.4,4-.5,0,.2.3.3.5.4.3.3.6.3.8.2.3-.2.7-.4,1-.5.4-.2.7-.3,1-.5.7-.7,1.4-1.1,2.1-1.2h.2c.7,0,1.3.5,2.1,1.2.2.2.6.4,1,.5.3.2.7.3,1,.5.3,0,.5,0,.8-.2.2-.2.3-.3.5-.4,1.4-1,3-.8,4,.5.5.7.7.8,1.9.6,1.5-.4,3.3.2,4.3,1.7,2.4-1.5,4.2-.4,5.4.9.3,0,.6-.2.9-.2.5,0,1.1.2,1.6.4s.9.3,1.2.3c.7-.2,1.6.2,2,.6.7.6,1.4,1.3,2.1,2l.4.4c0,.1.3.3.4.5l.3.3c.4.5.8.9,1.2,1.1,2.7,1.3,4,3.5,5.4,5.7l.5.7c.5.8.7,2,.4,2.9ZM292,37h0c0,0,0,.1,0,.1.7-.4,1.4-.8,2.1-1.1,3.3-1.3,6.6-2.6,9.9-3.7l1.4-.6c6.1-2.3,12.2-3.7,18.2-4.4.5,0,.9,0,1.4-.1,0,0,0,0,0,0,.3,0,.7,0,1,0,.2,0,.3,0,.5,0,.4,0,.8,0,1.2,0,2,0,4.1,0,6.1,0,.5,0,.9,0,1.4,0,1.5.1,3.1.2,4.6.5,1,.1,2.1.3,3.1.5.9.2,1.6.5,1.8,1,.3.5,0,1.3-.3,1.8,0,0,0,0,0,0-.4.7-1,1.4-1.8,1.9-3.5,2.5-7.2,3.6-11.1,3.3-6.1-.5-12.5.3-20.1,2.6-4.3,1.3-8.8,2.3-13.4,2.9-2.8.4-5-.9-7-4.1,0,0,0,0,0,0,.2,0,.4-.2.7-.4ZM285.5,73h0s0,0-.1,0t0,0ZM270.7,79.2c-.7.3-1.4.6-2.2.9-2.3.9-4.6,1.8-6.9,2.7-1.3.5-2.6,1-3.9,1.4-1.4.5-2.8,1-4.2,1.5,0-.2,0-.4-.1-.6,0-.8-.2-1.5-.4-2.1,0-.3-.2-.7,0-.9,0-.2.4-.3.9-.5,1.1-.3,2.2-.6,3.2-1,.6-.2,1.3-.4,2-.6l5.1-1.5c5.4-1.6,11-3.2,16.5-4.7,1.5-.4,3.2-.6,4.8-.8,0,0-.2,0-.3.1-1.2.5-2.3,1-3.5,1.5-3.6,1.5-7.2,3.1-11,4.6ZM290.2,66.1c-7.1,1.9-14.2,3.7-21.3,5.6l-.2.3-10.4,2.8h-.1c.6-2.3,1.6-4,3.3-5.4,1.6-1.4,3.8-2.4,6.6-3.1,5.2-1.3,10.6-3.1,17.1-5.4,1.6-.6,3-1.5,4.5-2.5.5-.3,1-.6,1.5-1,0,0,0,0,0,0,0,.4.2.7.3.9.4,1.6.8,3,1,4.5,0,.6.2,1.1.2,1.4s0,.1,0,.2h0c0,.3,0,.4-.1.6h0c-.3.6-1,.8-2.3,1.1ZM296.5,54.2c.2-2.2,1.2-4.2,2.6-5.4l.4-.2c.6-.2,1.4-.4,2.2-.7,1.4-.4,2.9-.8,4.4-1.2,2.4-.7,4.9-1.3,7.3-2,1.6-.5,3.2-1.1,4.7-1.6.9-.3,1.9-.7,2.8-1s1.1-.3,1.4,0c.3.2.5.5.5,1.1s.2,1.2.3,1.8c.2,1.6.4,3.2.4,4.7v.6h.2s0,0,0-.1h0c0,.1,0,.1,0,.1,0,.3,0,.5,0,.8,0,.4-.1.7-.2,1,0,.1,0,.2-.1.3,0,0,0,.2-.1.3,0,0,0,.1-.1.2,0,0,0,.1-.2.2,0,0,0,.1-.1.1-.1.1-.2.2-.4.3,0,0-.1,0-.2.1,0,0-.2,0-.2,0-.2,0-.5.2-.7.2-.1,0-.2,0-.4,0-.2,0-.3,0-.5,0-.2,0-.4,0-.6,0h-.4c-7,.5-14.3,1-21,4.4h-.7c-.8-.9-1.2-2.5-1.1-4.2ZM270.8,59.4h0c1-1.2,1.9-2.5,2.7-3.9,1.8-3.1,3.2-5.8,4.2-8.6.5-1.5.9-2.5,2.2-3.2.7-.4,1.4-.8,2-1.1,1-.6,2-1.1,3-1.7.4-.2.8,0,1.2.4l.4.4c1,1.3,2,2.6,3.3,3.6,1.7,1.4,2.4,2.4,2.4,3.1s0,.2,0,.3c0,0,0,.2,0,.2-.2.4-.5,1-1.1,1.6-.2.2-.3.3-.5.5-.2.2-.4.4-.6.5-.3.3-.5.5-.8.7l-.3.3c-4.1,3.5-9,4.9-14.2,6.4-1.5.4-3,.9-4.5,1.4.3-.3.5-.6.7-1ZM235.7,71.3c1.4-1.4,2.8-2.6,4.4-3.6h0c6.1-3.7,12.1-7.5,18.1-11.3l5.7-3.6c1.9-1.2,3.7-2.4,5.6-3.6-.1.4-.3.8-.4,1.1-3.5,7.8-9.5,13.9-17.9,18.1-4.4,2.2-9.2,4-13.7,5.7-2,.8-3.9,1.5-5.8,2.3,0,0,0,0-.1,0,1.4-2,2.7-3.7,4.1-5.1ZM228.7,82.6c5-1.9,10-3.8,15.1-5.8v-.2l9.5-3.6h0s0,0,0,0c0,0,0,0,0,.1h0c0,0,0,.1,0,.2-.4,1.2-.7,2.2-1.1,3.2s-.7.9-1,1c-7.8,2-14.8,3.6-21.4,5.2h-1.3c0,0,.2,0,.3,0ZM224.8,90.7c4.6-3.6,9.9-4.7,15.4-5.9,2.7-.5,5.4-1.1,8-2v.5c0,.7.2,1.4.4,2,.3.7.3,1.2.1,1.5-.2.3-.6.5-1.3.7-2.1.5-4.2,1.1-6.3,1.6-3.7.9-7.5,1.9-11.2,2.8h.2c-1.6.4-3.3,0-5.3-1.2ZM247.3,99h0c0,0-.2,0-.2,0,0,0,.1,0,.2,0h0s-.5.2-.5.2c-.6.2-1.3.5-1.8.5,0,0,0,0-.1,0,0,0,0,0,0,0,0,0,0,0-.1,0-2.2-.9-4.5-2-6.6-3-.5-.3-1.1-.5-1.7-.8,0,0,.1,0,.2-.1.6-.3,1.1-.5,1.7-.7,15.6-4.1,28.3-8.3,39.8-12.9.3,0,.5-.2.7-.2,0,0,0,0,.1,0,.5,0,.8.2,1.3.8,1.6,1.6,3.3,3.1,5,4.5l1.4,1.2c.4.4.8.7,1.3,1.1h0s0,0,0,.1h-.2c-5.3,1.2-10.2,3.2-15,6.2-1.2.7-3,1.1-4.5.9-6.5-.9-13.2-.2-21.1,2.3ZM278.4,111.6c0,0,0,.1,0,.2,0,0-.2.3-.5.4h0c0,.1-.4.3-.4.3-1.7.8-3.5,1.6-5.3,1.9-3.5.6-6.9-.6-9.6-1.8-.9-.4-1.8-.8-2.8-1.2-3.5-1.4-6.8-2.8-9-5.9-.5-.7-1.3-1.6-1.5-2,0,0,0,0,0,0,.5-.2,1.7-.4,2.2-.5,5.4-.8,10.6-1.3,15.6-1.7,1.1,0,2.7.5,3.5,1.4,1.6,1.6,3.1,3.4,4.6,5.1.9,1.1,1.8,2.1,2.8,3.2.2.2.4.5.4.6h0ZM314.4,96.4h0c-1.2,1-2.3,2.1-3.5,3.1-2.7,2.4-5.4,4.9-8.4,6.9-2.5,1.6-5.7,3.2-9.3,3.5-.2,0-.5,0-.7,0-.5,0-1.1,0-1.7,0-.2,0-.4,0-.6,0h0c-.1,0-.2,0-.3,0-2-.2-4.1-1-6.2-2.3-1.8-1.1-3.2-3-4.5-4.8-.5-.7-1-1.3-1.5-2,0-.2.2-.6.3-.6.4-.3.7-.5,1-.8,1.4-1,2.9-2.1,4.5-2.8,3.1-1.3,6-2.3,8.8-2.8l.9-.2c.6-.1,1.2-.2,1.8-.3.3,0,.6,0,.9,0,.4,0,.9,0,1.3,0h0c.4,0,.9,0,1.3,0,.7,0,1.4,0,2,0,2.1.2,4.1.5,6.1,1.1,1.9.5,3.8,1,5.8,1.4.7.2,1.3.3,2,.5v.2ZM329.4,79h0c0,.2,0,.3,0,.4,0,.8-.2,1.2-.5,1.8,0,0,0,.1-.1.2-.1.2-.2.4-.4.7h0c-.5,1.2-1.2,2.3-1.8,3.4-1.7,2.8-4.1,4.2-7.8,4.4-6.5.4-13.2-.7-21.6-3.6-4.3-1.5-7.3-3.5-9.6-6.4-.5-.5-.6-.8-.6-.9s.2-.4.9-.7c1.9-.7,3.7-1.5,5.5-2.3,2.4-1,4.9-2,7.4-3,2.8-1.1,5.5-1.6,8.2-1.6s2.1,0,3.1.2h.6c4.7.7,9,1.4,13.2,3.5,4.2,2.1,3.5,2.3,3.5,3.8ZM342.3,69v-.3c-4.6,2.8-9.4,3.2-14.4,1.2-8.2-3.3-16.5-4.1-24.4-4.4h-4.9c.2-1.3,1.2-1.9,2.8-2.5,5.9-2.1,12.5-3.4,20.2-3.8,1.4,0,2.9.7,4.2,1.4s2.6,1.4,3.8,2.1c1.7,1,3.4,2,5.3,2.9,2,.9,4,1.5,6.2,2.2.5.2,1.1.3,1.7.5,0,0,.2,0,.2,0-.2.2-.5.4-.7.6ZM349.2,60.2c-1.4,2.5-2.2,2.9-4.9,2.6h0c-3.9-.5-7.2-2.3-10.7-4.1l-1.3-.7c-2.3-1.2-3-2.7-2.6-5.2.6-3.6.8-7.8-1.3-11.6h.9c1.2,0,2.3.2,3.3.3,5.8,1,10.4,4.7,14.4,7.9,5.7,4.5,5.2,5.7,2.3,10.8ZM355.1,32.2c-.5,5.3-1,9.9-1.5,14.2,0,.3-.2.6-.3.9-2.1-1.4-4.1-2.9-6.2-4.3l-4.7-3.3h.2c1.3-.9,2.7-1.8,4.2-2.6,2.6-1.6,4-3.5,4.6-6,.3-1.3.5-1.6.6-1.6s.6,0,1.7.5c.1,0,.3.1.4.2.1,0,.2.2.3.3.3.2.5.5.5.8,0,0,0,.1,0,.2,0,0,0,.1,0,.2,0,0,0,.2,0,.3,0,0,0,.1,0,.2Z"/>
  <path class="cls-2" d="M253.3,72.9s0,.2-.1.3c-.4,1.2-.7,2.2-1.1,3.2-.2.5-.7.9-1,1-7.8,2-14.8,3.6-21.4,5.2h-1.3c5.1-1.9,10.2-3.9,15.4-5.9l9.5-3.6v-.2Z"/>
  <path class="cls-2" d="M288.2,89.5h-.2c-5.3,1.2-10.2,3.2-15,6.2-1.2.7-3,1.1-4.5.9-6.6-.9-13.3-.2-21.3,2.4l-.5.2c-.7.2-1.7.6-2.1.4-2.2-.9-4.5-2-6.6-3-.5-.3-1.1-.5-1.7-.8,0,0,.1,0,.2-.1.6-.3,1.1-.5,1.7-.7,15.6-4.1,28.3-8.3,39.8-12.9.9-.3,1.4-.2,2.2.6,1.6,1.6,3.3,3.1,5,4.5l1.4,1.2c.4.4.9.7,1.4,1.2h.2,0Z"/>
  <path class="cls-2" d="M323.7,49.6v.6c-.2,2.9-.9,3.6-4,3.8h-.4c-7,.5-14.3,1-21,4.4h-.7c-.8-.9-1.2-2.5-1.1-4.2.2-2.2,1.2-4.2,2.6-5.4l.4-.2c.6-.2,1.4-.4,2.2-.7,1.4-.4,2.9-.8,4.4-1.2,2.4-.7,4.9-1.3,7.3-2,1.6-.5,3.2-1.1,4.7-1.6.9-.3,1.9-.7,2.8-1,.6-.2,1.1-.3,1.4,0,.3.2.5.5.5,1.1s.2,1.2.3,1.8c.2,1.6.4,3.2.4,4.7h.2,0Z"/>
  <path class="cls-2" d="M292.2,48.4c0,.8-.6,1.7-2.3,3.2-.3.3-.5.5-.8.7l-.3.3c-4.1,3.5-9,4.9-14.2,6.4-1.5.4-3,.9-4.5,1.4.3-.3.5-.6.7-1,1-1.3,1.9-2.6,2.7-4,1.8-3.1,3.2-5.8,4.2-8.6.5-1.5.9-2.5,2.2-3.2.7-.4,1.4-.8,2-1.1,1-.6,2-1.1,3-1.7.4-.2.8,0,1.2.4l.4.4c1,1.3,2,2.6,3.3,3.6,1.7,1.4,2.4,2.4,2.4,3.1h0Z"/>
  <path class="cls-2" d="M285.5,73c-10.2,4.4-20.9,8.9-32,12.7,0-.2,0-.4-.1-.6-.1-.8-.2-1.5-.4-2.1,0-.3-.2-.7,0-.9.1-.2.4-.3.9-.5,1.1-.3,2.2-.6,3.2-1,.6-.2,1.3-.4,2-.6l5.1-1.5c5.4-1.6,11-3.2,16.5-4.7,1.6-.4,3.3-.6,4.9-.8h-.1Z"/>
  <path class="cls-2" d="M248.9,86.8c-.2.3-.6.5-1.3.7-2.1.5-4.2,1.1-6.3,1.6-3.7.9-7.5,1.9-11.2,2.8-1.6.4-3.3,0-5.3-1.2,4.6-3.6,9.9-4.7,15.4-5.9,2.7-.5,5.4-1.1,8-2v.5c.1.7.2,1.4.4,2,.3.7.3,1.2.1,1.5h.2,0Z"/>
  <path class="cls-2" d="M269.5,49.3c-.1.4-.3.8-.4,1.1-3.5,7.8-9.5,13.9-17.9,18.1-4.4,2.2-9.2,4-13.7,5.7-2,.8-4,1.5-5.9,2.3h0c2.7-4,5.4-6.7,8.5-8.7,6.1-3.9,12.2-7.7,18.2-11.5l5.7-3.6c1.9-1.2,3.7-2.4,5.6-3.6v.2h-.1Z"/>
  <path class="cls-2" d="M292.6,64.5c0,1.2-.6,1.4-2.5,1.9-7.1,1.9-14.2,3.7-21.3,5.6l-10.5,2.8h0c1.2-4.6,4.2-7.1,9.9-8.6,5.2-1.3,10.6-3.1,17.1-5.4,1.6-.6,3-1.5,4.5-2.5.5-.3,1-.6,1.5-1,0,.4.2.7.3,1,.4,1.6.8,3,1,4.5,0,.6.2,1.1.2,1.4l-.2.3h0Z"/>
  <path class="cls-2" d="M344.7,30.9c-.4.7-1,1.4-1.8,2-3.5,2.5-7.2,3.6-11.1,3.3-6.1-.5-12.5.3-20.1,2.6-4.3,1.3-8.8,2.3-13.4,2.9-2.8.4-5-.9-7-4.2.2-.1.4-.2.7-.4.7-.4,1.4-.8,2.1-1.1,3.3-1.3,6.6-2.6,9.9-3.7l1.4-.6c12.6-4.7,25.3-5.9,37.7-3.7.9.2,1.6.5,1.8,1,.3.5,0,1.3-.3,1.8h0Z"/>
  <path class="cls-2" d="M355.1,32.2c-.5,5.3-1,9.9-1.5,14.2,0,.3-.2.6-.3.9-2.1-1.4-4.1-2.9-6.2-4.3l-4.7-3.3h.2c1.3-.9,2.7-1.8,4.2-2.6,2.6-1.6,4-3.5,4.6-6,.3-1.3.5-1.6.6-1.6s.6,0,1.7.5c1.1.5,1.5,1.3,1.4,2.3h0Z"/>
  <path class="cls-2" d="M349.1,60.1c-1.4,2.5-2.2,2.9-4.9,2.6-3.9-.4-7.2-2.2-10.7-4l-1.3-.7c-2.3-1.2-3-2.7-2.6-5.2.6-3.6.8-7.8-1.3-11.6h.9c1.2,0,2.3.2,3.3.3,5.8,1,10.4,4.7,14.4,7.9,5.7,4.5,5.2,5.7,2.3,10.8h-.1Z"/>
  <path class="cls-2" d="M343,68.1c-.2.2-.5.4-.7.6-4.6,2.8-9.4,3.2-14.4,1.2-8.2-3.3-16.5-4.1-24.4-4.4h-4.9c.2-1.3,1.2-1.9,2.8-2.5,5.9-2.1,12.5-3.4,20.2-3.8,1.4-.1,2.9.7,4.2,1.4s2.6,1.4,3.8,2.1c1.7,1,3.4,2,5.3,2.9,2,.9,4,1.5,6.2,2.2.6.2,1.3.4,1.9.6v-.3h0Z"/>
  <path class="cls-2" d="M329.4,79.1c0,.9-.3,1.9-1,3.2-.5,1.1-1.2,2.2-1.8,3.3-1.7,2.8-4.1,4.2-7.8,4.4-6.5.4-13.2-.7-21.6-3.6-4.3-1.5-7.3-3.5-9.6-6.4-.5-.5-.6-.8-.6-.9s.2-.4.9-.7c1.9-.7,3.7-1.5,5.5-2.3,2.4-1,4.9-2,7.4-3,2.8-1.1,5.5-1.6,8.2-1.6s2.1,0,3.1.2h.6c4.7.7,9,1.4,13.2,3.5s3.5,2.3,3.5,3.8h0Z"/>
  <path class="cls-2" d="M314.4,96.2v.2c-1.2,1-2.3,2.1-3.5,3.1-2.7,2.4-5.4,4.9-8.4,6.9-4.6,3-11.7,5.7-18.9,1.2-1.8-1.1-3.2-3-4.5-4.8-.5-.7-1-1.3-1.5-2,0-.2.2-.6.3-.6.4-.3.7-.5,1-.8,1.4-1,2.9-2.1,4.5-2.8,8.6-3.7,16-4.4,23.3-2.3,1.9.5,3.8,1,5.8,1.4.7.2,1.3.3,2,.5h0Z"/>
  <path class="cls-2" d="M278.3,111.8c0,.1-.2.3-.5.4l-.4.2c-1.7.8-3.5,1.6-5.3,1.9-3.5.6-6.9-.6-9.6-1.8-.9-.4-1.8-.8-2.8-1.2-3.5-1.4-6.8-2.8-9-5.9-.5-.7-1.3-1.6-1.5-2,.4-.2,1.7-.4,2.3-.5,5.4-.8,10.6-1.3,15.6-1.7,1.1,0,2.7.5,3.5,1.4,1.6,1.6,3.1,3.4,4.6,5.1.9,1.1,1.8,2.1,2.8,3.2.3.3.5.6.4.8h0Z"/>
  <path class="cls-2" d="M89.4,60.4c-1.5-.5-3-.9-4.5-1.4-5.2-1.5-10-2.9-14.2-6.5l-.3-.3c-.3-.2-.5-.4-.8-.7-1.6-1.5-2.3-2.4-2.2-3.2,0-.7.7-1.7,2.4-3.1,1.3-1.1,2.3-2.4,3.3-3.6l.4-.5c.3-.4.5-.6.6-.6s.3,0,.5.2c1,.6,2,1.2,3.1,1.7.7.4,1.3.7,2,1.1,1.2.7,1.6,1.7,2.1,3.2,1,2.9,2.4,5.5,4.2,8.6.8,1.4,1.8,2.7,2.7,4,.2.3.5.6.7,1h0Z"/>
  <path class="cls-2" d="M101.3,74.8l-10.5-2.8c-7.1-1.9-14.2-3.8-21.3-5.6-2-.5-2.5-.7-2.5-1.9s0-.8.1-1.4c.2-1.5.6-2.9,1-4.5.1-.3.2-.7.3-1,.5.3,1,.7,1.5,1,1.5,1,2.9,1.9,4.5,2.5,6.5,2.3,11.9,4,17.1,5.4,5.7,1.5,8.7,4,9.9,8.4h0c0,.1-.1-.1-.1-.1Z"/>
  <path class="cls-2" d="M128.1,76.6h0c-2-.8-3.9-1.5-5.9-2.3-4.6-1.7-9.3-3.5-13.8-5.7-8.4-4.2-14.4-10.3-17.9-18.1-.1-.3-.3-.7-.4-1.1,1.8,1.2,3.7,2.4,5.6,3.6l5.6,3.5c6.1,3.9,12.2,7.7,18.3,11.6,3.1,2,5.8,4.7,8.6,8.7v-.2h-.1Z"/>
  <path class="cls-2" d="M131.2,82.5c-.5,0-.9.1-1.3,0-6.6-1.5-13.6-3.2-21.4-5.2-.3,0-.8-.5-1-1-.4-.9-.7-1.9-1.1-3.1v-.3l9.6,3.7c5.2,2,10.2,3.9,15.3,5.9h-.1Z"/>
  <path class="cls-2" d="M106.6,83c-.2.7-.3,1.3-.4,2.1,0,.2,0,.4-.1.6-11.2-3.9-21.9-8.3-32-12.7,1.6.2,3.3.4,4.9.8,5.5,1.5,11.1,3.2,16.5,4.7l5.1,1.5c.7.2,1.3.4,2,.6,1,.3,2.1.7,3.2,1,.5.1.8.3.9.5s0,.6,0,.9h-.1Z"/>
  <path class="cls-2" d="M134.8,90.6c-2,1.2-3.6,1.6-5.3,1.2-3.7-.9-7.6-1.9-11.2-2.8-2.1-.6-4.2-1.1-6.3-1.6-.7-.2-1.2-.4-1.3-.7-.2-.3-.1-.8,0-1.5.2-.6.3-1.3.4-2v-.5c2.6.9,5.4,1.5,8,2,5.6,1.1,10.8,2.2,15.4,5.9h.3Z"/>
  <path class="cls-2" d="M123.1,95.7c-.5.3-1.1.5-1.7.8-2.2,1-4.3,2.1-6.6,3-.4.2-1.4-.2-2.1-.4l-.5-.2c-5.8-1.9-11-2.8-15.9-2.8s-3.7.1-5.4.4c-1.5.2-3.3-.2-4.5-.9-4.9-3-9.8-5-15-6.2h-.2c.5-.4,1-.8,1.4-1.2l1.4-1.2c1.7-1.5,3.4-2.9,5-4.5s1.3-.9,2.2-.6c11.6,4.7,24.2,8.8,39.8,12.9.5.2,1.1.4,1.7.7,0,0,.2,0,.2.1h.2Z"/>
  <path class="cls-2" d="M110.4,103.5c-.2.4-1,1.3-1.5,2h0c-2.1,3.1-5.4,4.4-8.9,5.9-.9.4-1.9.7-2.8,1.2-2.8,1.3-6.1,2.5-9.6,1.8-1.8-.3-3.6-1.1-5.3-1.9l-.4-.2c-.3-.2-.5-.3-.5-.4,0-.2.1-.5.4-.8,1-1.1,1.9-2.1,2.8-3.2,1.5-1.7,3-3.5,4.6-5.1s2.3-1.4,3.3-1.4h.2c5,.3,10,.9,15.5,1.7.6,0,1.9.3,2.3.5h-.1Z"/>
  <path class="cls-2" d="M82.1,100.8c-.5.6-1,1.3-1.5,2-1.4,1.8-2.8,3.7-4.5,4.8-7.3,4.5-14.3,1.8-18.9-1.2-3-2-5.7-4.4-8.4-6.9-1.2-1-2.4-2.1-3.5-3.1,0,0,0-.1-.1-.2.7-.2,1.3-.3,2-.5,2-.4,3.9-.9,5.8-1.4,7.3-2.2,14.7-1.4,23.3,2.3,1.6.7,3.1,1.7,4.5,2.8.4.3.7.5,1,.8.1,0,.3.5.3.6h0Z"/>
  <path class="cls-2" d="M72.6,79.2s0,.4-.7.9c-2.3,2.9-5.3,4.9-9.5,6.3-8.4,2.9-15,4-21.6,3.6-3.7-.2-6.2-1.7-7.8-4.4-.6-1-1.3-2.1-1.9-3.3-1.8-3.6-1.2-5.1,2.5-7,4.1-2.1,8.5-2.7,13.2-3.4h.6c3.8-.6,7.5-.2,11.3,1.3,2.5,1,4.9,2,7.4,3,1.8.8,3.7,1.5,5.5,2.3.7.3.9.6.9.7h.1Z"/>
  <path class="cls-2" d="M60.9,65.3h-.9c-1.4,0-2.7,0-4,.1-7.9.4-16.3,1.1-24.4,4.4-5,2-9.9,1.6-14.4-1.2-.3-.1-.5-.3-.7-.6.6-.2,1.3-.4,1.9-.6,2.1-.7,4.2-1.3,6.2-2.2,1.8-.9,3.6-1.9,5.3-2.9,1.3-.7,2.5-1.4,3.8-2.1,1.4-.7,2.9-1.5,4.2-1.4,7.8.4,14.4,1.7,20.3,3.8,1.6.6,2.6,1.2,2.7,2.5v.2Z"/>
  <path class="cls-2" d="M17.2,39.6c-1.7,1.2-3.3,2.4-5,3.5-1.9,1.4-3.9,2.8-5.9,4.2-.2-.3-.3-.6-.3-.9-.5-4.2-1-8.9-1.5-14.2,0-1,.4-1.8,1.5-2.3.9-.4,1.4-.6,1.6-.6s0,0,.1,0,.3.4.6,1.6c.5,2.5,2,4.4,4.6,6,1.4.8,2.8,1.7,4.2,2.6h.2-.1Z"/>
  <path class="cls-2" d="M62,58.4h-.7c-6.7-3.4-14-3.9-21-4.3h-.4c-3.1-.3-3.8-.9-4-3.9-.1-1.7.2-3.6.5-5.4,0-.6.1-1.2.2-1.8,0-.5.3-.9.5-1.1.2,0,.3-.1.6-.1s.6,0,.9.2c.9.3,1.9.7,2.8,1,1.5.6,3.1,1.2,4.7,1.6,2.4.7,4.9,1.4,7.3,2,1.5.4,2.9.8,4.4,1.2.9.2,1.7.5,2.4.7h.3c1.4,1.3,2.4,3.3,2.6,5.5.2,1.7-.3,3.3-1.1,4.2v.2h0Z"/>
  <path class="cls-2" d="M30.1,52.7c.4,2.5-.3,4-2.6,5.2l-1.4.7c-3.5,1.8-6.8,3.6-10.7,4-2.7.3-3.5,0-4.9-2.6-3-5-3.4-6.3,2.3-10.8,4-3.2,8.6-6.8,14.4-7.9,1.1-.2,2.1-.3,3.3-.3h.9c-2.1,3.9-1.8,8-1.3,11.6h0Z"/>
  <path class="cls-2" d="M68.2,37.5c-2,3.2-4.2,4.5-7,4.2-4.6-.7-9.2-1.7-13.4-2.9-6.1-1.9-11.4-2.7-16.4-2.7s-2.4,0-3.6.1c-3.9.3-7.6-.7-11.1-3.3-.7-.5-1.4-1.3-1.8-2-.3-.5-.6-1.3-.3-1.8.2-.5.9-.8,1.8-1,12.5-2.3,25.2-1,37.8,3.7l1.4.6c3.3,1.2,6.6,2.4,9.9,3.7.7.3,1.4.7,2.1,1.1.2.1.5.2.6.3h0Z"/>
  <path class="cls-2" d="M135.2,131.1c0-.1.1-.2.2-.3-.2.2-.3.4-.4.6-.2.2-.3.4-.5.6.2-.3.4-.6.7-.9Z"/>
  <path class="cls-2" d="M136.2,129.7c0,0,.1-.2.2-.3,0,.1-.2.3-.4.6-.2.2-.4.5-.5.7.2-.3.5-.7.7-1Z"/>
  <path class="cls-2" d="M179.8,158.2h0c0,.3-.2.5-.2.7l-1,2.1h0c0,0,.8-1.8.8-1.8.1-.3.3-.7.4-1Z"/>
  <path class="cls-2" d="M180.3,136.9c0,0,.2-.2.3-.4-.2.2-.3.5-.5.7-.2-.2-.4-.5-.6-.8-.1-.3-.3-.5-.6-.7,0,0-.6-.5-1.1-.4h-.3l-.2.2c-.2.2-.4.2-1.1.1-.3-.1-.4-.1-.9-.1s-.9,0-1.4-.3c-.4,0-.8-.4-1.3-.4-.6-.2-1.1,0-1.7,0h-1c-1-1.3-2.3-.8-3-.5,0,0-.3.2-.4.2-.5.1-2.2-.8-2.3-1.3l-.2-3.7-2,1.6c-.6.5-1,.9-1.6,1.3,0-.4-.2-.8-.2-1.2l-.3-1.6-.8.4c-.2.1-.4.2-.6.3-.3,0-.6.3-.8.3h-.4c-.8-1.4-2.1-1-2.6-.8,0-.4,0-.8.3-1.1v-.9l-1.5.2c-1.2.2-2.4.4-3.6.5h-.3c0-.5-.4-.9-.7-1.1-.3-.2-.5-.3-.8-.3v-.3c.2-.3.2-.6.2-.9l.2-1.4-1,.2c-.5.1-.8.2-1.2.2v-.5c0-.5,0-.9-.3-1.3l-.4-.7-.7.5c-2,1.5-3.4,2.5-4.5,3.2-1,.7-1.7,1.2-2.1,1.4l-.8.5c-.1.1-.3.2-.5.3l-.4.2v-.2c0,0,.6-.3.6-.3.2,0,.4-.2.5-.3l.8-.5c.4-.2,1-.6,2.1-1.4s2.5-1.8,4.5-3.2l.7-.5.4.7c.2.4.3.8.3,1.3v.5c.4,0,.7-.1,1.2-.2l1-.2-.2,1.4c0,.3,0,.6-.2.9v.3c.3,0,.5,0,.8.3s.6.6.7,1.1h.3c1.2,0,2.4-.3,3.6-.5l1.5-.2v.9c-.2.3-.3.7-.3,1.1.5-.2,1.8-.6,2.6.8h.4c.2,0,.5-.2.8-.3.2,0,.4-.2.6-.3l.8-.4.3,1.6c0,.4.1.8.2,1.2.6-.4,1-.8,1.6-1.3l2-1.6.2,3.7c.1.5,1.8,1.4,2.3,1.3,0,0,.3,0,.4-.2.7-.3,2-.8,3,.5h1c.6,0,1.1-.2,1.7,0,.5,0,.9.3,1.3.4.5.2.9.3,1.4.3s.6,0,.9.1c.7,0,.9,0,1.1-.1l.2-.2h.3c.5,0,1.1.3,1.1.4.3.2.5.4.6.7.2.3.4.6.6.8Z"/>
  <path class="cls-2" d="M181.9,159.8c.1-.3.2-.5.4-.7,0,.1-.1.2-.2.4l-.6,1.6h0c0-.1.4-1.3.4-1.3Z"/>
  <path class="cls-2" d="M184.4,158.4c0-.1.1-.2.2-.2l-.2.3h0,0Z"/>
  <path class="cls-2" d="M187.6,157.1h.1c0,.3-.1.5-.3.8l-.3.9h0s.2-.6.2-.6c.2-.3.3-.5.3-.8,0,0,0-.3,0-.3Z"/>
  <path class="cls-2" d="M194.1,134.1c.4,0,1.6-.5,2.1-1-.1.5-1.8,1.3-2.3,1.3,0,0-.3-.2-.4-.2-.4,0-.9-.3-1.5-.3s-1,.2-1.5.8h-2.7c-.6.1-1,.3-1.4.4-.5,0-1.1.3-1.4.3s-.6,0-.9,0c-.7.2-.9.2-1.1,0l-.2-.3h-.3c-.4,0-1.1.4-1.1.4-.3.3-.5.5-.6.7,0,0,0-.1.1-.2.2-.3.4-.5.7-.8,0,0,.7-.4,1.1-.4h.3l.2.3c.2.2.4.2,1.1,0,.3,0,.6,0,.9,0s.9-.2,1.4-.3c.4-.1.8-.3,1.4-.4h2.7c.5-.6,1-.8,1.5-.8s1.1.2,1.5.3c0,0,.3,0,.4.2Z"/>
  <path class="cls-2" d="M196.5,155.2s0,0,0,0c0,0,0,0,0,.1,0,0,0,0,0-.1Z"/>
  <path class="cls-2" d="M198.6,130.8c.5.4,1,.8,1.4,1.2,0,.1,0,.3,0,.4-.5-.4-1.1-.9-1.6-1.3l-1.8-1.5v-.4s2,1.6,2,1.6Z"/>
  <path class="cls-2" d="M201.5,154.1s0,0,0,0h0c0,.1,0,.3-.2.4-.2.3-.2.6-.3.8-.2.6-.3,1.1-.6,1.4.2-.3.3-.7.4-1.1.1-.2.1-.5.3-.8,0-.2.2-.5.3-.7Z"/>
  <path class="cls-2" d="M203,130.3h.3c0,0-.1.2-.2.3h-.3c-.3,0-.6-.2-.9-.3,0-.1-.4-.2-.6-.3l-.7-.3v-.4c0,0,.9.4.9.4.2.1.5.2.6.3.3.1.6.3.9.3Z"/>
  <path class="cls-2" d="M204.2,153.6h0c0,.3-.2.4-.3.5,0-.1.1-.3.2-.5Z"/>
  <path class="cls-2" d="M205.7,129.4c0,.1,0,.2,0,.4-.5-.2-1.6-.5-2.4.5.7-1.2,1.8-1.1,2.4-.9Z"/>
  <path class="cls-2" d="M209,153.8h0s0,0,0,0c0,0,0,0,0,0Z"/>
  <path class="cls-2" d="M210.7,128.2h.2c0,.1,0,.2,0,.3h-.3c-1.2-.2-2.4-.3-3.6-.5,0,0-.7-.1-1.1-.2v-.3c.1,0,1.3.2,1.3.2,1.2.2,2.4.3,3.6.5Z"/>
  <path class="cls-2" d="M211.7,127.1c.2-.2.4-.2.6-.3v.3c-.3,0-.5,0-.8.3-.1,0-.2.2-.3.2,0-.2.3-.4.5-.5Z"/>
  <path class="cls-2" d="M213,153.8s0,0,0,0c0,0,0,0,0,0,0,0,0,0,0,0Z"/>
  <path class="cls-2" d="M213.1,124.5c.2,0,.4,0,.6.1v.4c-.4,0-.8-.2-1.2-.2h-.3c0,0,0-.5,0-.5l1,.2Z"/>
  <path class="cls-2" d="M216.7,153.5s0,0,0,0c0,.2-.1.4-.2.5,0,.2,0,.3,0,.5l-.3.9h0s.2-.6.2-.6c0-.2,0-.3,0-.5.1-.2.2-.8.3-.8Z"/>
  <path class="cls-2" d="M218.2,152.2l.2.2v1.2s0,0-.2,0v-1.4Z"/>
  <path class="cls-2" d="M221.2,150.4s.1,0,.2,0c-.1.6-.2,1.2-.3,1.8l-.3,1.6h-.1c0,0,.2-1.3.2-1.3.1-.7.2-1.4.3-2v-.2Z"/>
  <path class="cls-2" d="M223.6,148.9s.1,0,.2.1c0,.3-.1.6-.3.9.2-.4.2-.8.2-1Z"/>
  <path class="cls-2" d="M225.8,149.2c.2-.9.3-1.4.6-1.6-.1.3-.3.7-.4,1.3l-.2,1.1h-.1c0,0,.1-.8.1-.8Z"/>
  <path class="cls-2" d="M226.6,134.2c-.5-.9-1.1-1.8-1.7-2.6-.3-.4-.7-.9-1-1.4-.2-.4-.4-.7-.3-.8v-.6l-.5-.3c-.3-.2-.5-.3-.7-.4l-.8-.4c-.8-.5-2.6-1.7-6.6-4.7l-.3-.3.3-.5.6.5c4,3,5.8,4.2,6.6,4.7l.8.4c.2,0,.4.2.7.4l.5.3v.6c-.1,0,0,.4.3.8.3.5.7,1,1,1.4.6.8,1.2,1.7,1.7,2.6.3.5.6,1.2.7,1.8,0,.3.2.5.3.8l.3.7-.6.3-.3-.7c0-.3-.3-.5-.3-.8,0-.6-.4-1.3-.7-1.8Z"/>
  <path class="cls-2" d="M229.3,145.9h-.4v1.5h-.2v-1.2c0-.6,0-1.1,0-1.6-.4-1.1-.8-2.3-1.2-3.4-.2-.8-.5-1.5-.7-2.2,0-.3-.3-.6-.3-1,.2,0,.4-.2.6-.2,0,.4.2.6.3.9.2.7.5,1.4.7,2.2.4,1.1.8,2.3,1.2,3.4,0,.5,0,1,0,1.6Z"/>
</svg>