<?xml version="1.0" encoding="UTF-8"?>
<svg xmlns="http://www.w3.org/2000/svg" version="1.1" viewBox="0 0 720 960.1">
  <defs>
    <style>
      .cls-1 {
        font-size: 76px;
      }

      .cls-1, .cls-2 {
        font-family: Charter-Roman, Charter;
      }

      .cls-1, .cls-2, .cls-3 {
        fill: #2a3478;
      }

      .cls-4 {
        fill: none;
      }

      .cls-4, .cls-5, .cls-6, .cls-7, .cls-8, .cls-9, .cls-10, .cls-3, .cls-11, .cls-12, .cls-13 {
        stroke-width: 0px;
      }

      .cls-5 {
        fill: #f9b832;
      }

      .cls-6 {
        fill: #96d7ec;
      }

      .cls-2 {
        font-size: 36px;
      }

      .cls-7 {
        fill: #f18131;
      }

      .cls-8 {
        fill: #fab933;
      }

      .cls-9 {
        fill: #f29ca7;
      }

      .cls-10 {
        fill: #fcba16;
      }

      .cls-11 {
        fill: #b5d68d;
      }

      .cls-12 {
        fill: #fff;
      }

      .cls-14 {
        display: none;
      }

      .cls-13 {
        fill: #f9eaca;
      }
    </style>
  </defs>
  <g id="Layer_2" data-name="Layer 2">
    <rect class="cls-12" width="720" height="960.1"/>
  </g>
  <g id="Layer_1" data-name="Layer 1" class="cls-14">
    <path class="cls-3" d="M449.3,526.8c-3.6-1.8-7.5-2.7-12.1-2.6-8.1.2-15.9,2.4-23.2,6.5-4.1,2.3-8.2,4.7-12.2,7-2.2,1.3-4.3,2.6-6.5,3.8-1,.6-2,1.1-3.1,1.7-.3.1-.5.3-.7.4,0-.3.2-.5.2-.7.6-1.5,1.1-3.1.6-5-.1-.5.1-1.1.3-1.6.3-.9.7-1.8,1-2.8.4-1,.7-1.9,1.1-2.9s.1-2-.7-2.8c-.6-.6-.6-1.2-.4-2.1.5-2.2,1.9-3.6,3.4-5.1.3-.3.6-.6.8-.9,1-1,1.7-2.2,2.4-3.4.3-.4.5-.8.8-1.2.2-.3.1-.8,0-1.1l-.3-1.2-.4,1c-.4.9-.5,1.2-.7,1.4,0-.3,0-.6-.2-.8v-.7c-.1,0-1-.1-1-.1v.4c-.1.3-.2.5-.3.7v.2c-.2.7-.6,1.1-1.2,1.5l-.2.2c-1.5,1.2-2.8,2.7-4.1,4.1-.8.8-1.3,1.8-1.9,2.8-.3.5-.4,1-.5,1.7-.1.8-.3,1.2-.9,1.3-.9.3-1.4.9-1.5,2l-.3,1.7c-.3,1.6-.5,3.2-.7,4.8-.1.7-.2.8-.7.8-.9,0-1.4.6-1.5,1.6,0,.9-.2,1.9-.3,3l-8.7,10.3-1.9-3.3h-.1c-.1-.2-.2-.3-.2-.4-.1-.2-.1-.4-.1-.6v-.3c0-.6-.3-1-.7-1.2-.3-.2-.7-.2-1,0l-.6-1.1-.5.4c-.1,0-.2.2-.3.2h0c-.9-1.3-2.3-2-3.6-2.6l-.3-.2c-.3-.1-.4-.2-.4-.2,0,0,.1-.2.3-.4,1.9-2.7,3.9-5.3,5.8-7.9.4-.5.7-.8,1.4-.7.7.1,1.4-.1,2.1-.3.2,0,.3,0,.5-.1.6-.2,1.2-.4,1.8-.5l.6-.2c.2,0,.3-.1.4-.2l.3-.2v-.8h-.3c-.1,0-.2,0-.2-.1-.2,0-.4,0-.6,0-.9,0-1.8.2-2.8.3-.7,0-1.3,0-1.9-.4-.8-.5-1.3-.4-1.9.3-1.1,1.3-2.1,2.7-3.2,4l-1.4,1.7c-1,1.2-2,2.5-2.9,3.7s-.6.5-1.1.5-.9,0-1.3,0c-.7,0-1.3,0-2,0s-1.3,0-2,0c-.5,0-.9,0-1.3,0-.5,0-.8-.2-1.1-.5-1-1.2-1.9-2.5-2.9-3.7l-1.4-1.8c-1.1-1.3-2.1-2.7-3.2-3.9-.6-.7-1.1-.8-1.9-.3-.6.4-1.2.5-1.9.4-.9-.1-1.8-.2-2.8-.3h-1.1v.8l.3.2c.2,0,.3.1.4.2l.6.2c.6.2,1.2.4,1.8.5.2,0,.3,0,.5.1.7.2,1.4.4,2.1.3.7-.1,1,.1,1.4.7,1.3,1.8,2.7,3.7,4.1,5.6l1.7,2.3c.2.2.3.4.3.4,0,0-.1.1-.4.3l-.3.2c-1.3.7-2.7,1.3-3.6,2.6,0,0-.2-.2-.3-.2l-.5-.4-.5,1.1c-.4-.2-.8-.2-1,0-.4.2-.6.6-.6,1.2v.3c0,.2,0,.5-.1.6,0,.1-.2.2-.2.4q0,.1,0,0h-.1l-1.9,3.3-8.7-10.3c-.2-1.1-.3-2-.4-3,0-.4,0-1.6-1.4-1.6s-.6-.2-.7-.8c-.2-1.6-.5-3.2-.7-4.7l-.3-1.8c-.2-1-.7-1.7-1.5-2-.6-.2-.8-.5-.9-1.3-.1-.8-.3-1.3-.5-1.7-.5-.9-1.1-1.9-1.9-2.8-1.3-1.4-2.6-2.9-4.1-4.1l-.2-.2c-.6-.5-1.1-.8-1.2-1.5v-.2c-.1-.3-.1-.5-.2-.7v-.4c0,0-.9.1-.9.1v.6c-.1.3-.2.6-.3.9-.2-.2-.3-.5-.7-1.4l-.4-1-.3,1.2c0,.4-.2.8,0,1.1.3.4.5.8.8,1.2.7,1.2,1.4,2.4,2.3,3.4.3.3.6.6.9.9,1.5,1.5,3,2.9,3.4,5.1.2.9.2,1.5-.4,2.1-.8.9-1,1.8-.7,2.8s.7,2,1.1,3c.4.9.7,1.8,1,2.8.2.5.4,1.2.3,1.6-.6,1.9-.1,3.5.6,5,.1.2.2.4.2.7-.3-.1-.5-.3-.7-.4-1.2-.6-2.1-1.1-3.2-1.7-2.2-1.3-4.3-2.6-6.5-3.8-4-2.3-8.1-4.7-12.2-7-7.3-4.1-15.2-6.3-23.3-6.5-4.5-.1-8.5.7-12.1,2.6-1.7.9-2.4,2.2-2.2,4.1.6,5.6,2.3,10.8,5.1,15.5,2,3.4,4.6,5,8,4.8,0,0,.2,0,.3,0,0,.2,0,.3-.1.4-.5,1.3-.4,2.6.4,3.9,1.2,2.2,3,3.9,5.3,5.2.6.4,1.3.7,1.7,1.2,2.2,2.8,5,4.8,8.3,7.1,1.5,1,3.8,2.3,6.4,1.7,2.1-.5,4-.1,6,1.3,2,1.4,4.2,1.6,6.6.7.7-.3,1.4-.6,2-.9.4-.2.8-.4,1.2-.6.2,0,.3-.2.5-.2,0,0,0,.1-.1.1-.4.4-.7.7-1.1,1-.5.4-.9.8-1.3,1.3-.8.8-1.1,1.7-.8,2.8.2.6,0,1.1-.4,1.7-1.5,2.2-3.8,2.8-5.4,3-1.7.2-3.1.8-4.4,1.5-.4.2-.8.4-1.1.5s-.6.4-.9.7-.2.2-.4.3l-.4.3.4.3h.1c0,.1.2.3.2.3l1-.5c0,0,.2-.1.2-.1l-.9,2.3.8-.4c.5-.2.8-.5,1.1-.8.5-.7.9-1,1.7-.7.7.3,1.6,0,2-.2.9-.4,1.7-.7,2.6-1.1,1-.4,2-.9,3-1.2,1.4-.5,2.3-1.2,3.1-2.1.2-.2.5-.4.6-.4,1.5.5,2.4-.4,3.1-1.2,1.1-1.3,2.2-2.7,3.2-4l.6-.7c.4-.5.6-.6.9-.5,1.1.5,1.8-.1,2.3-.8,1.5-2,3.2-3.9,4.7-5.8.2-.2.7-.4.8-.4.9.5,1.5.2,2.1-.1,1.3-.8,2.7-1,4.2-1.2.9-.2,1.8-.3,2.7-.6h.2c-.1.8-.6,1.3-1.5,1.8-2.4,1.4-4.4,3-5.9,4.7-.4.5-.9,1.1-.8,1.7.2,1.4-.4,2.2-1.8,2.9-.3.2-.6.4-.8.6h-.1c-3.6,3.6-5.9,8.1-6.7,13.4-.1.7,0,1.6.6,2.6.3.6.3.8,0,1.2-1.8,3.4-2.3,7.1-2.6,10-.1,1.2.3,2.3,1.1,3.2.2.3.4.8.4,1,0,1.5-.3,3-1.5,4.2s-1,1.1-1.5,1.6c-.5.6-1,1.2-1.6,1.8-.9.8-1.4,2-1.8,3.1-.2.4-.4.9-.6,1.3-.1.2-.1.5,0,.7v1.9l.7-1.5c.2-.4.4-.8.6-1.2,0-.1.1-.2.2-.3.1.4.2.9.3,1.3l.2.8.5-.7c.2-.3.3-.6.4-.9,0-.2,0-.3.1-.4v-.2c.2-.3.4-.7.6-.8,2.5-1.4,3.9-3.6,4.9-5.4.2-.4.5-.8.7-1.2.8-1.2,1.6-2.4,1.5-4h0c1.5-.7,2-2,2.2-3.1.9-2.9,1.3-6.2,1.4-10.3,0,0,.2-.2.3-.3,0-.1.2-.2.2-.3,0,0,0,.2,0,.3,0,.3.1.7.5,1h0v.2c0,.2-.1.4-.2.6,0,.2-.2.5,0,.8.1.2.3.3.5.3h0c0,.3,0,.5,0,.6v.5c0,.2.1.7.5.8h.1v.4c0,.3-.1.6-.1.9v.3h.3c.1,0,.2,0,.3.1,0,.1,0,.2,0,.3,0,.2,0,.5-.1.7v.5c0,0,.4,0,.4,0h.6s0,0,0,.2c0,.3.3.5.6.5h.2c0,0,0,.2,0,.2v.2c-.2.5-.2.8,0,1,.2.2.4.2.7.2l-.7,2h1.3v.2h0c0,.2-.1.4,0,.5,0,.2.2.7.5.7h.1v.3h0c0,.2,0,.3,0,.4,0,.3,0,.5,0,.8s.3.5.3.5c.2.1.3.2.5.2h.1v.7c0,.4,0,.7.3.9s.3.4.3.8,0,.2,0,.3c0,.3,0,.6.3.8s.4.2.7.2h.1v.2c0,.4,0,.9.1,1.3,0,.4.1.6.3.8s.5.3.8.2c.2,0,.4,0,.4.4v.2c.2.6.3,1.2.5,1.7.1.3.5.7.8.7s.4,0,.5.4c.2.3.5.7.9.7.7,0,1.1.2,1.2.8,0,.4.3.6.5.7.2.1.4.2.7,0h.1s0,0,0,.2c.1.4.2.8.2,1.1,0,.4.2.7.4.8.3.2.5.1.9,0,.2,0,.2-.1.3.1.2.3.5.5.8.6.5.1.8.4,1,.9,0,.3.4.7.8.7s.4,0,.5.4c.1.2.4.9,1.2.7.3,0,.5-.2.7-.3.4-.2.8-.4,1.3-.3.3,0,.5,0,.7-.2.4-.2.5-.2.6,0v.2h.3c.1,0,.3,0,.3,0h.1c0,0,.2.2.3.3.2.2.4.5.7.5h0c.4,0,.6-.3.7-.5.2-.3.2-.3.3-.3h.2c0,0,.1,0,.3.3.2.3.4.5.7.5s.6-.3.8-.6c0,0,.2-.2.2-.2h0c.1,0,.3.1.4.1h.2c.2-.3.3-.3.7-.1.2.1.5.2.7.2.5,0,.9.2,1.3.3.2.1.5.2.7.3.8.3,1.1-.5,1.2-.7.1-.4.2-.4.5-.4s.7-.5.8-.7c.1-.5.5-.9,1-.9.3-.1.6-.3.8-.6.1-.2.2-.2.3-.1.4.2.7.2.9,0,.3-.2.4-.4.5-.8,0-.4.1-.7.2-1.2,0-.2,0-.2,0-.2h.1c.4.1.6,0,.7,0,.2-.2.4-.4.5-.7.1-.7.5-.9,1.2-.8.4,0,.8-.4.9-.7.2-.3.3-.4.5-.4.4,0,.8-.4.9-.7.2-.5.3-1,.4-1.6v-.4c.2-.4.3-.4.5-.4.3,0,.6,0,.7-.2.2-.2.3-.5.3-.8s0-.9.1-1.3v-.2h.1c.3,0,.5,0,.7-.2.3-.2.3-.5.3-.8v-.3c0-.4,0-.6.3-.8.3-.2.3-.6.3-.9v-.6h.2c.2,0,.3,0,.5-.2s.3-.3.3-.5,0-.6-.1-.8v-.3c0-.1,0-.2,0-.2h.1c.3,0,.4-.5.5-.7,0-.2,0-.3,0-.4h0v-.3h1.3l-.7-2c.3,0,.5,0,.7-.2.2-.3.2-.5,0-1.1v-.2c0,0,0-.2-.1-.2h.1c.2,0,.6-.2.6-.5s0-.2,0-.2c0-.1.4,0,.6,0h.5v-.4c-.1-.3-.2-.5-.2-.7s0-.2,0-.3c0,0,.2,0,.3,0h.3v-.4c0-.3-.1-.6-.1-.9v-.4h.1c.4,0,.5-.6.5-.7,0-.2,0-.4,0-.5,0-.2,0-.3,0-.5h0c.3-.2.4-.3.5-.4.2-.3.1-.6,0-.8s-.1-.4-.2-.6v-.2h0c.4-.3.5-.7.5-1,0-.2,0-.3,0-.3.1.1.2.2.2.3s.2.3.2.4c.1,4.1.5,7.3,1.4,10.3.3,1,.7,2.4,2.2,3h.1c-.2,1.7.7,3,1.5,4.1.3.4.5.8.7,1.2,1,1.8,2.4,4,4.9,5.4.2.1.4.5.5.8v.2c.1.1.2.3.2.4,0,.3.2.6.4.9l.5.7.2-.8c.1-.4.2-.9.3-1.3,0,.1.1.2.2.3.2.4.4.7.6,1.1l.7,1.5v-1.9c0-.3,0-.5,0-.7-.2-.4-.4-.8-.6-1.3-.5-1.1-1-2.3-1.8-3.1-.6-.6-1.1-1.2-1.6-1.8-.5-.6-.9-1.1-1.5-1.6-1.2-1.2-1.4-2.8-1.5-4.2,0-.3.2-.8.4-1,.9-.9,1.2-2,1.1-3.2-.2-2.9-.7-6.6-2.6-10-.2-.4-.2-.7,0-1.2.5-1,.7-1.9.5-2.6-.9-5.3-3.2-9.8-6.7-13.3h-.1c-.2-.3-.5-.6-.8-.7-1.4-.7-2-1.6-1.8-2.9.1-.6-.4-1.2-.8-1.7-1.5-1.8-3.4-3.3-5.8-4.7-.9-.5-1.3-1.1-1.5-1.8h.1c.9.3,1.8.4,2.7.6,1.5.2,2.9.5,4.2,1.2.5.3,1.2.6,2,.1.2,0,.6.2.8.4,1.6,1.8,3.2,3.8,4.8,5.8.5.7,1.2,1.3,2.3.8.4-.2.5,0,.9.5l.6.8c1.1,1.3,2.1,2.7,3.2,4,.7.9,1.6,1.7,3.1,1.2.1,0,.5.2.6.4.8.9,1.7,1.6,3.1,2.1,1,.4,2,.8,3,1.2.8.4,1.7.7,2.6,1.1.4.2,1.3.4,1.9.2.8-.3,1.2,0,1.7.7.3.4.6.6,1.1.8l.8.4-.7-1.6c-.1-.2-.2-.5-.3-.7.1,0,.2,0,.2.1l.7.4h.3c0,.1.2-.1.2-.1h.1c0-.1.3-.4.3-.4l-.4-.3c-.1-.1-.3-.2-.4-.3-.3-.2-.6-.5-.9-.7-.4-.2-.8-.4-1.1-.5-1.4-.7-2.8-1.3-4.4-1.5s-3.9-.8-5.4-3c-.4-.6-.6-1.1-.5-1.7.3-1,0-2-.8-2.8s-.9-.9-1.3-1.3c-.4-.4-.8-.7-1.1-1h-.1c.2,0,.4,0,.5.1.4.2.8.4,1.2.6.7.3,1.3.6,2,.9,2.4.9,4.6.7,6.6-.7,2-1.4,3.9-1.8,6-1.3,2.7.6,4.9-.7,6.4-1.7,3.4-2.3,6-4.4,8.3-7.1.4-.5,1.1-.9,1.7-1.2,2.3-1.3,4-3,5.3-5.2.8-1.4.9-2.7.4-3.9,0-.2,0-.3-.1-.4.1,0,.2,0,.3,0,3.4.2,6-1.3,8-4.8,2.7-4.7,4.4-9.9,5.1-15.5.2-1.9-.5-3.2-2.2-4.1l-.2-.2ZM417,531.7c.4-.2.7-.4,1.1-.6,1.7-.7,3.4-1.3,5.1-1.9l.7-.3c6.4-2.4,12.9-3,19.2-1.9.5.1.8.3.9.5.2.3,0,.7-.2.9-.2.4-.5.7-.9,1-1.8,1.3-3.7,1.8-5.7,1.7-3.1-.3-6.4.2-10.3,1.3-2.2.7-4.5,1.2-6.8,1.5-1.4.2-2.6-.5-3.6-2.1.1,0,.2-.1.4-.2h0ZM442.6,547.8c-2.3,1.4-4.8,1.6-7.3.6-4.2-1.7-8.4-2.1-12.5-2.2h-2.5c.1-.7.6-1,1.4-1.3,3-1.1,6.4-1.7,10.3-1.9.7,0,1.5.4,2.1.7s1.3.7,1.9,1.1c.9.5,1.7,1,2.7,1.5,1,.5,2,.8,3.2,1.1.3.1.7.2,1,.3-.1.1-.3.2-.4.3v-.2ZM433.2,538.4c-.1,1.5-.5,1.8-2,1.9h-.2c-3.6.3-7.3.5-10.7,2.2h-.4c-.4-.5-.6-1.3-.6-2.1.1-1.1.6-2.1,1.3-2.8h.2c.3-.2.7-.3,1.1-.5.7-.2,1.5-.4,2.2-.6,1.2-.4,2.5-.7,3.7-1,.8-.3,1.6-.6,2.4-.8.5-.2,1-.4,1.4-.5.3-.1.6-.2.7,0,.2.1.3.3.3.6s.1.6.2.9c.1.8.2,1.6.2,2.4v.3h.1ZM443.6,544.7c-2-.2-3.7-1.1-5.5-2l-.7-.4c-1.2-.6-1.5-1.4-1.3-2.7.3-1.8.4-4-.7-5.9h.5c.6,0,1.2.1,1.7.2,3,.5,5.3,2.4,7.3,4,2.9,2.3,2.7,2.9,1.2,5.5-.7,1.3-1.1,1.5-2.5,1.3h0ZM405.1,549.5l-5.4,1.4h0c.6-2.3,2.1-3.6,5.1-4.4,2.7-.7,5.4-1.6,8.7-2.8.8-.3,1.5-.8,2.3-1.3.3-.2.5-.3.8-.5,0,.2.1.4.2.5.2.8.4,1.5.5,2.3,0,.3.1.6.1.7,0,.6-.3.7-1.3,1-3.6,1-7.2,1.9-10.9,2.9v.2ZM413.7,550c-5.2,2.2-10.7,4.5-16.3,6.5,0-.1,0-.2,0-.3,0-.4-.1-.8-.2-1.1,0-.2-.1-.4,0-.5,0-.1.2-.2.5-.3.6-.2,1.1-.3,1.6-.5.3-.1.7-.2,1-.3l2.6-.8c2.8-.8,5.6-1.6,8.4-2.4.8-.2,1.7-.3,2.5-.4h0ZM406.2,543.1c.5-.7,1-1.3,1.4-2,.9-1.6,1.6-3,2.1-4.4.3-.8.5-1.3,1.1-1.6.4-.2.7-.4,1-.6.5-.3,1-.6,1.5-.9q.3-.2.6.2l.2.2c.5.7,1,1.3,1.7,1.8.9.7,1.2,1.2,1.2,1.6s-.3.9-1.2,1.6c-.2.2-.3.3-.4.4l-.2.2c-2.1,1.8-4.6,2.5-7.2,3.3-.8.2-1.5.5-2.3.7.2-.2.3-.3.4-.5h0ZM390.4,547.4c3.1-2,6.2-3.9,9.3-5.9l2.9-1.8c1-.6,1.9-1.2,2.9-1.8,0,.2-.2.4-.2.6-1.8,4-4.8,7.1-9.1,9.2-2.2,1.1-4.7,2-7,2.9-1,.4-2,.8-3,1.2h0c1.4-2,2.8-3.4,4.3-4.4h0ZM392.4,551.8l4.8-1.8s0,.1,0,.2c-.2.6-.4,1.1-.6,1.6-.1.3-.4.5-.5.5-4,1-7.6,1.8-10.9,2.7h-.7c2.6-1,5.2-2,7.9-3h0ZM334.9,554.8c-.3,0-.5,0-.7,0-3.4-.8-6.9-1.6-10.9-2.7-.2,0-.4-.3-.5-.5-.2-.5-.4-1-.6-1.6v-.2l4.9,1.9c2.7,1,5.2,2,7.8,3h0ZM308.3,550.4c2.8.8,5.7,1.6,8.4,2.4l2.6.8c.4.1.7.2,1,.3.5.2,1.1.4,1.6.5.3,0,.4.2.5.3s0,.3,0,.5c-.1.4-.2.7-.2,1.1,0,.1,0,.2,0,.3-5.7-2-11.2-4.2-16.3-6.5.8.1,1.7.2,2.5.4h0ZM303.4,546.6c-1-.3-1.3-.4-1.3-1s0-.4,0-.7c.1-.8.3-1.5.5-2.3,0-.2.1-.4.2-.5.3.2.5.4.8.5.8.5,1.5,1,2.3,1.3,3.3,1.2,6.1,2,8.7,2.8,2.9.8,4.4,2,5.1,4.3h0c0,0-5.4-1.4-5.4-1.4-3.6-1-7.2-1.9-10.9-2.9h0ZM316.8,539.7l2.9,1.8c3.1,2,6.2,3.9,9.3,5.9,1.6,1,3,2.4,4.4,4.4h0c-1-.4-2-.8-3-1.2-2.3-.9-4.7-1.8-7-2.9-4.3-2.1-7.3-5.3-9.1-9.2,0-.2-.2-.4-.2-.6.9.6,1.9,1.2,2.9,1.8h0ZM303.5,535.9c.7-.6,1.2-1.2,1.7-1.8l.2-.3c.2-.2.3-.3.3-.3s.2,0,.3.1c.5.3,1,.6,1.6.9.4.2.7.4,1,.6.6.4.8.9,1.1,1.6.5,1.5,1.2,2.8,2.1,4.4.4.7.9,1.4,1.4,2,.1.2.3.3.4.5-.8-.3-1.5-.5-2.3-.7-2.7-.8-5.1-1.5-7.2-3.3l-.2-.2c-.2-.1-.3-.2-.4-.4-.8-.8-1.2-1.2-1.1-1.6,0-.4.4-.9,1.2-1.6h0ZM275.4,527.6c.1-.3.5-.4.9-.5,6.4-1.2,12.9-.5,19.3,1.9l.7.3c1.7.6,3.4,1.2,5.1,1.9.4.2.7.4,1.1.6.1,0,.3.1.3.2-1,1.6-2.1,2.3-3.6,2.1-2.3-.4-4.7-.9-6.8-1.5-3.1-1-5.8-1.4-8.4-1.4s-1.2,0-1.8,0c-2,.2-3.9-.4-5.7-1.7-.4-.3-.7-.7-.9-1-.2-.3-.3-.7-.2-.9h0ZM299.6,542.5h-.4c-3.4-1.7-7.1-2-10.7-2.2h-.2c-1.6-.2-1.9-.5-2-2,0-.9.1-1.8.3-2.8,0-.3,0-.6.1-.9,0-.3.2-.5.3-.6.1,0,.2,0,.3,0s.3,0,.5.1c.5.2,1,.4,1.4.5.8.3,1.6.6,2.4.8,1.2.4,2.5.7,3.7,1,.8.2,1.5.4,2.2.6.5.1.9.3,1.2.4h.2c.7.7,1.2,1.7,1.3,2.8.1.9-.2,1.7-.6,2.1h0ZM271,536.4c-.3-2.1-.5-4.5-.8-7.2,0-.5.2-.9.8-1.2.5-.2.7-.3.8-.3s0,0,0,0,.2.2.3.8c.3,1.3,1,2.2,2.3,3.1.7.4,1.4.9,2.1,1.3h.1c-.9.7-1.7,1.3-2.6,1.8-1,.7-2,1.4-3,2.1-.1-.2-.2-.3-.2-.5h0ZM273.3,543.4c-1.5-2.6-1.7-3.2,1.2-5.5,2-1.6,4.4-3.5,7.3-4,.6-.1,1.1-.2,1.7-.2h.5c-1.1,2-.9,4.1-.7,5.9.2,1.3-.2,2-1.3,2.7l-.7.4c-1.8.9-3.5,1.8-5.5,2-1.4.2-1.8,0-2.5-1.3h0ZM276.8,547.8c-.2,0-.3-.2-.4-.3.3-.1.7-.2,1-.3,1.1-.4,2.1-.7,3.2-1.1.9-.5,1.8-1,2.7-1.5.7-.4,1.3-.7,1.9-1.1.7-.4,1.5-.8,2.1-.7,4,.2,7.3.9,10.4,1.9.8.3,1.3.6,1.4,1.3h-.5c-.7,0-1.4,0-2,0-4,.2-8.3.6-12.5,2.2-2.6,1-5.1.8-7.3-.6h0ZM288.8,558.7c-1.9-.1-3.2-.9-4-2.2-.3-.5-.7-1.1-1-1.7-.9-1.8-.6-2.6,1.3-3.6,2.1-1.1,4.3-1.4,6.7-1.7h.3c1.9-.3,3.8-.1,5.8.7,1.3.5,2.5,1,3.8,1.5.9.4,1.9.8,2.8,1.2.4.2.5.3.5.4,0,0,0,.2-.4.5-1.2,1.5-2.7,2.5-4.8,3.2-4.3,1.5-7.7,2-11,1.8h0ZM309.1,565.2c-.7.9-1.4,1.9-2.3,2.4-3.7,2.3-7.3.9-9.6-.6-1.5-1-2.9-2.2-4.3-3.5-.6-.5-1.2-1.1-1.8-1.6,0,0,0,0,0-.1.4-.1.7-.2,1-.3,1-.2,2-.5,3-.7,3.7-1.1,7.5-.7,11.9,1.2.8.4,1.6.9,2.3,1.4.2.2.4.3.5.4,0,0,.2.3.2.3-.3.3-.5.7-.8,1h0ZM323.5,566.6h0c-1.1,1.6-2.8,2.2-4.5,3-.5.2-1,.4-1.4.6-1.4.7-3.1,1.3-4.9.9-.9-.2-1.8-.6-2.7-1h-.2c-.2-.2-.3-.3-.3-.3,0-.1,0-.3.2-.4.5-.6,1-1.1,1.4-1.6.8-.9,1.5-1.8,2.3-2.6s1.2-.7,1.7-.7h.1c2.6.2,5.1.5,7.9.9.3,0,1,.2,1.2.3-.1.2-.5.7-.8,1h0ZM330,562c-1.1.5-2.2,1.1-3.4,1.5-.2.1-.7-.1-1.1-.2h-.3c-3-1.1-5.6-1.5-8.1-1.5s-1.9,0-2.8.2c-.8.1-1.7-.1-2.3-.5-2.5-1.5-5-2.6-7.7-3.2h-.1c.3-.2.5-.4.7-.6l.7-.6c.9-.8,1.7-1.5,2.6-2.3s.7-.5,1.1-.3c5.9,2.4,12.3,4.5,20.3,6.6.3.1.6.2.9.4,0,0,.1,0,.1,0-.3.2-.6.3-.9.4h.1ZM334,559.6c-1.9-.5-3.9-1-5.7-1.4-1.1-.3-2.1-.6-3.2-.8-.4-.1-.6-.2-.7-.4-.1-.2,0-.4,0-.8.1-.3.2-.7.2-1v-.3c1.3.5,2.8.8,4.1,1,2.9.6,5.5,1.1,7.9,3-1,.6-1.8.8-2.7.6h.2ZM374.8,615.4l-.2.3-.3-.2.2-.3-.2.3c-.1,0-.2,0-.3-.2,0,0-.1,0-.1-.1,0,0,0,0-.1.2,0,.2-.2.3-.3.4,0,0,0,0-.1,0,0,.1-.2.2-.2.2-.1.1-.2.3-.3.4,0,0,0,.2-.1.3,0,0,0,.2,0,.3l-.2.7-.5-.5c-.2-.3-.4-.5-.6-.7,0,.1,0,.2,0,.3,0,.2,0,.4-.1.7,0,.4-.1.8-.2,1.1,0,.2-.2.4-.3.6h-.1c0,.2-.2.3-.2.4-.1.1-.2.2-.2.3-.1.4-.2.7-.2,1.1s-.1.6-.4.8-.6.2-.8.1c-.2,0-.5-.1-.6-.1s-.2.3-.3.5c-.1.3-.5,1-1.4.8-.2,0-.3,0-.4.3-.1.3-.3.6-.5.7-.2.2-.4.2-.6.3,0,0-.2,0-.3.1h-.2c0,.1-.4-.2-.4-.2-.2-.1-.4-.3-.5-.4q-.1,0,0,0c-.1.4-.4,1.2-1.4,1.3h0c-.1.2-.3.2-.5.2s-.4-.1-.7-.4-.3-.4-.4-.5l-.5.5-.3.3-.3-.4c-.2-.2-.2-.3-.3-.4,0,0-.1-.1-.1-.2h-.2c0,.1-.2,0-.2,0,0,0-.1.1-.1.2,0,.1-.2.2-.3.4l-.3.4-.3-.3c-.2-.2-.3-.4-.4-.5-.1.1-.2.3-.4.4-.5.6-.9.4-1.1.2h0c-1.1-.2-1.3-1-1.4-1.3h0c-.2.2-.4.3-.5.4l-.4.3h-.2c-.1-.2-.2-.2-.3-.2-.3-.1-.4-.2-.6-.3-.2-.2-.4-.5-.5-.7-.1-.3-.2-.3-.4-.3-.9.3-1.2-.5-1.4-.8-.1-.2-.2-.5-.3-.5,0,0-.4,0-.6.1-.3,0-.6.1-.8-.1-.3-.2-.3-.5-.4-.8,0-.4,0-.8-.2-1.1,0,0-.1-.2-.2-.3,0-.1-.2-.2-.2-.3v-.2c-.2-.2-.3-.4-.4-.6-.1-.4-.1-.7-.2-1.1,0-.2,0-.4-.1-.7v-.3c-.2.2-.4.5-.6.7l-.4.5-.2-.7c0-.1,0-.2,0-.3,0-.2-.1-.3-.2-.3-.1-.2-.2-.3-.3-.4l-.2-.2s0,0-.1,0c-.1-.1-.3-.2-.3-.4,0,0,0-.1-.1-.2h-.1c-.1.2-.2.3-.3.3l-.3.2-.2-.3c-.5-.8-.4-2.6.3-3.2l.3-.3.7.8h0l.5-.5.3.5c0,.1.2.2.2.4,0,.2.1.2.1.2,0,0,0,0,.2-.1.3-.2,1-.1,1.2.2q.2.2.5,0c.1,0,.2-.1.3-.1h.3c0,0,.3.2.3.4s0,.4.1.5c.1,0,.3,0,.5-.1h.1c.5-.2,1-.2,1.5-.3h.3c.4,0,.6.3.7.5.1.2.1.3.1.4v.2h0q0,.1,0,.1l.3-.3c0-.1.2-.2.3-.3l.3-.3.3.4.2.2c.1.1.2.2.3.4,0,.1.1.2.2.2,0,0,.1,0,.4-.1,0,0,.2-.1.2-.2.2-.1.4-.2.6-.3.2,0,.3,0,.5-.1.5-.1,1-.2,1.5-.5.3-.2.7-.2,1.1-.1.4.2.7.4.9.8.2-.4.5-.7.9-.8.4-.2.8-.1,1.1.1.5.3,1,.4,1.5.5.2,0,.3,0,.5.1.2,0,.4.2.6.3,0,0,.2.1.2.2.3.1.4.1.4.1,0,0,.1-.1.2-.2,0-.2.2-.3.3-.4,0,0,.1-.1.1-.2l.3-.4.3.3c.1.1.2.2.3.3l.3.3h0v-.3c0-.1,0-.3,0-.4,0-.2.3-.5.7-.5h.4c.5.1,1,.1,1.5.3h.1c.2,0,.4.1.5.1,0-.1,0-.3.1-.5,0-.2.2-.3.3-.3h.2c0,0,.2,0,.2,0,.1,0,.3,0,.3.2q.4.3.5,0c.3-.3.9-.4,1.2-.2.1,0,.2.1.2.1,0,0,0-.1.1-.3,0-.2.1-.3.2-.4l.3-.5.5.5c.2-.2.3-.4.5-.5l.3-.3.3.3c.7.7.8,2.4.3,3.2l.3.2ZM376.1,577.4c0-.2,0-.3-.1-.4v-.7c-.1,0,.4.1.4.1.2,0,.4.1.6.1v-.3c0-.2,0-.5.2-.7l.2-.4.3.3c2,1.5,3,2.1,3.4,2.4h0l.4.2c.1,0,.2.1.4.2l.3.2v.3c0,0,0,.2.2.4.2.3.4.5.5.7.3.4.6.9.9,1.3.2.3.3.6.4.9,0,.2.1.3.2.4l.2.4-.4.2c-.2,0-.3.1-.4.1,0,.2.1.4.2.5.1.4.3.7.4,1.1.2.6.4,1.2.6,1.7,0,.3,0,.5,0,.8v.8h-.4c-.4-.2-.6-.2-.7-.1-.2.1-.3.4-.4.9v.6c-.1,0-1-.6-1-.6,0,0-.1,0-.2-.1,0,.2,0,.6-.4.8-.3.2-.7,0-.9,0h0c0,.4-.1.8-.2,1.1l-.2.8-1.2-1v.9c0,0-.5-.2-.5-.2-.2,0-.3,0-.3,0,0,0-.1.3-.2.4,0,.1,0,.2,0,.3l-.2.5-.7-.5c-.3-.2-.5-.3-.7-.5,0,0,0,0-.1,0h0c-.2.4-.7.5-.9.5s-.4-.2-.5-.2c0,0-.1,0-.2-.1-.2,0-.4-.2-.5-.2,0,0-.2.3-.3.4,0,.1-.3.5-.7.5-.4,0-.6-.2-.8-.3-.3-.2-.5-.4-.8-.7s-.2-.2,0,0c0,.3-.2.5-.4.6-.3.2-.7,0-.7-.1-.1,0-.3-.2-.3-.2,0,.1-.1.3-.2.4-.1.2-.1.3-.2.4-.2.5-.3.9-.7.9-.4.1-.7-.2-.9-.5-.1,0-.2-.2-.2-.2l-.3-.3s-.1,0-.2-.1c-.1.2-.2.3-.4.4-.3.2-.6.2-.9,0,0,0-.1,0-.2.1-.5.8-.8.9-1.5.5-.1,0-.2-.1-.2-.1-.4-.3-.4-.2-.6,0-.2.3-.6.2-.7.1h-.1s0,.1,0,.2c0,.2,0,.3-.2.4l-.2.5h-.3c-.2-.1-.4-.3-.6-.4,0,0-.3-.2-.3-.2,0,0-.1,0-.2.2v.2h-.4c-.5-.1-.7,0-.9.5l-.3.8-.8-1.6c0,.2-.2.4-.2.5l-.5,1.1-.3-.8c-.2-.5-.5-.6-.9-.6h-.3v-.2c-.2-.2-.3-.2-.3-.2,0,0-.2.1-.3.2-.2.1-.4.2-.6.3h-.3c0,.1-.2-.4-.2-.4,0-.2-.1-.3-.2-.4,0-.1,0-.2,0-.2h0c-.2.1-.5.2-.7-.1-.2-.2-.2-.2-.6,0-.1,0-.2.1-.2.1-.8.4-1,.4-1.5-.5,0,0,0,0-.2-.1-.4.2-.7.2-.9,0-.2-.1-.3-.2-.4-.4,0,0-.1,0-.2.1l-.3.3c0,.1-.2.2-.2.3-.3.3-.6.6-1,.5-.4-.1-.5-.5-.7-.9,0-.2-.1-.3-.2-.4,0-.2-.1-.3-.2-.4-.1,0-.2.2-.3.2s-.4.3-.7.1c-.2-.1-.3-.3-.4-.6h0c-.3.2-.5.5-.8.7-.2.2-.5.4-.8.3-.4,0-.6-.4-.7-.5,0-.1-.2-.4-.3-.4,0,0-.3.2-.4.2,0,0-.1,0-.2.1-.2.1-.3.2-.5.2s-.8,0-.9-.5h0c0,0,0,0-.1,0-.2.2-.5.3-.7.5l-.8.5-.2-.5c0-.1,0-.2,0-.3,0-.2-.1-.4-.2-.4h0s-.2,0-.3,0l-.5.2v-.5c0-.2-.1-.3-.1-.4l-1.2,1v-.9c-.2-.4-.2-.7-.3-1h0c-.2,0-.6.2-.9,0s-.4-.6-.4-.8c0,0-.1,0-.1.1l-.9.6v-.6c-.2-.5-.3-.8-.5-.9-.2,0-.4,0-.7,0h-.5c0,.1,0-.7,0-.7v-.8c.2-.6.4-1.2.6-1.7.2-.4.3-.7.4-1.1,0-.2.1-.3.2-.5-.1,0-.2,0-.4-.1l-.4-.2.2-.4c0-.2.1-.3.2-.4.1-.3.2-.6.4-.9.3-.5.6-.9.9-1.3.2-.2.3-.5.5-.7.2-.2.3-.4.3-.4v-.3c-.1,0,.3-.2.3-.2.1,0,.2-.1.3-.2l.4-.3h0c.4-.2,1.3-.9,3.4-2.3l.4-.3.2.4c.1.2.2.4.2.7v.3c.2,0,.4,0,.6-.1h.5c0-.1-.1.6-.1.6,0,.2,0,.3-.1.5v.2c.2,0,.3,0,.4.2.2.1.3.3.4.6h.2c.6,0,1.2-.2,1.8-.3h.8c0-.1,0,.4,0,.4-.1.2-.2.4-.2.6.3-.1.9-.3,1.3.4h.2c.1,0,.3-.1.4-.2.1,0,.2-.1.3-.2l.4-.2.2.8c0,.2,0,.4.1.6h0c.3-.2.5-.4.8-.7l1-.8v1.9c.2.3,1,.7,1.3.7,0,0,.2,0,.2-.1.4-.2,1-.4,1.5.3q.3.4,0,0h.5c.3,0,.6-.1.9,0,.3,0,.5.2.7.2.3.1.5.2.7.2s.3,0,.5,0c.4,0,.5,0,.6,0h.1c0-.1.2-.1.2-.1.3,0,.6.2.6.2.2.1.3.2.3.4.1.2.2.3.3.4.1-.1.2-.3.3-.4s.2-.3.4-.4c0,0,.4-.2.6-.2h.2v.2c.2.1.3.1.7,0,.2,0,.3,0,.5,0s.5-.1.7-.2c.2,0,.4-.2.7-.2h1.4s0,0,0,0c.5-.7,1.1-.4,1.5-.3,0,0,.2,0,.2.1.3,0,1.1-.4,1.2-.7v-1.8c.1,0,1.1.8,1.1.8.3.2.6.5.8.7q.2.1,0,0h0c0-.2,0-.4.1-.6l.2-.8.4.2c.1,0,.3.1.3.2.2,0,.3.2.5.2h.2c.4-.7,1.1-.5,1.3-.4,0-.2,0-.4,0-.6v-.5c0,0,.7.1.7.1.6.1,1.2.2,1.8.3h.2c0-.3.2-.5.4-.6.2-.1.3-.2.4-.2v-.2h-.2ZM378.8,557.8c-.1.3-.3.6-.5.8-.3.2-.7.2-1,0h-.9v-.8c-.1-.2-.2-.4-.2-.6-.2.3-.3.5-.5.8l-.3.5-.3-.5c-.3-.4-.4-.6-.6-.8h-.3c-.3-.2-.5-.2-.7-.3-.2.2-.5.5-.7.8l-.5.5-.7-2c-.1.2-.3.4-.4.5l-.9,1.3-.8-2-1.1,1.6-.3-.7c-.2-.4-.3-.7-.5-1.1-.4.3-.7.6-1,1l-.4.3-.8-1.4c-.2.3-.4.5-.6.8l-.2.3-.3-.3-.2-.2c-.2-.1-.3-.2-.4-.4-.3-.3-.4-.5-.6-.5s-.4,0-.6.2c-.4.3-1.2-.2-1.2-.2-.2,0-.2-.2-.3-.3l-.2.3c0,0-.1.2-.2.3l-.3.4-.6-.8c0,0,0-.1-.2-.2h-.3c0,0,0,.1-.2.2l-.6.8-.3-.4c-.1-.2-.2-.3-.2-.4l-.2-.2c-.1.1-.2.3-.3.4,0,0-.5.3-.9.3s-.2,0-.3-.1c-.2-.2-.4-.3-.6-.2-.2,0-.4.2-.6.5-.2.2-.3.3-.4.4,0,0-.1,0-.2.2l-.3.3-.2-.3c-.2-.3-.4-.5-.6-.8l-.8,1.4-.4-.3c-.4-.4-.7-.7-1-1-.2.4-.3.7-.4,1.1l-.3.7-1.1-1.6-.8,2-.9-1.3c-.1-.2-.3-.4-.4-.5l-.7,2-.4-.5c-.3-.4-.6-.6-.7-.8-.3,0-.5.1-.7.2h-.3c-.2.3-.3.5-.6.9l-.3.5-.3-.5c-.2-.3-.4-.6-.5-.8,0,.2,0,.4,0,.5l-.2.9h-.4c-.1,0-.2,0-.3-.1h-.2c-.4.1-.7.1-1,0-.3-.2-.5-.4-.6-.8-.1-.4,0-1,.3-1.5l.2-.4c.7-1.1,1.4-2.3,2.8-3,.2-.1.4-.3.6-.6l.2-.2c0-.1.2-.2.2-.3l.2-.2c.3-.4.7-.7,1.1-1,.3-.2.7-.4,1-.3.2,0,.4,0,.6-.2.4-.2.8-.3,1.3,0h0c.6-.7,1.5-1.2,2.8-.5.5-.8,1.5-1.1,2.2-.9.6.2.7,0,1-.3.5-.7,1.3-.7,2-.3,0,.1.2.2.3.2.2.1.3.2.4.1.2-.1.4-.2.5-.3.2-.1.4-.2.5-.3.4-.4.7-.6,1.1-.6h.1c.4,0,.7.3,1.1.6.1.1.3.2.5.3.2.1.4.2.5.3.1,0,.3,0,.4-.1.1-.1.2-.2.3-.2.7-.5,1.5-.4,2,.3.3.4.4.4,1,.3.8-.2,1.7.1,2.2.9,1.2-.8,2.1-.2,2.8.5.2,0,.3-.1.5-.1.3,0,.6.1.8.2.3.1.5.2.6.2.4-.1.8.1,1,.3.4.3.7.7,1.1,1l.2.2c0,0,.2.2.2.3l.2.2c.2.3.4.5.6.6,1.4.7,2,1.8,2.8,2.9l.3.4c.3.4.4,1,.2,1.5h0ZM385.4,559.6c-.8.2-1.7,0-2.7-.6,2.3-1.8,5.1-2.4,7.9-3,1.4-.3,2.8-.6,4.1-1v.3c0,.4.1.7.2,1,.2.4.2.6,0,.8-.1.2-.3.3-.7.4-1.1.3-2.1.6-3.2.8-1.9.5-3.8,1-5.7,1.4h.1ZM394.2,563.3h-.3c-.4.2-.9.4-1.1.3-1.1-.5-2.3-1-3.4-1.5-.3-.2-.6-.3-.9-.4,0,0,0,0,.1,0,.3-.2.6-.3.9-.4,8-2.1,14.4-4.2,20.3-6.6.5-.2.7-.1,1.1.3.8.8,1.7,1.6,2.6,2.3l.7.6c.2.2.5.4.7.6h-.1c-2.7.6-5.2,1.6-7.7,3.2-.6.4-1.5.6-2.3.5-3.4-.5-6.8-.1-10.9,1.2h.1ZM409.7,570h-.2c-.9.5-1.8.9-2.7,1.1-1.8.3-3.5-.3-4.9-.9-.5-.2-.9-.4-1.4-.6-1.8-.7-3.5-1.4-4.6-3-.3-.4-.7-.8-.8-1,.2-.1.9-.2,1.2-.3,2.8-.4,5.4-.7,8-.9.6,0,1.4.3,1.8.7.8.8,1.6,1.7,2.3,2.6.5.6.9,1.1,1.4,1.6.2.2.3.3.2.4,0,0-.1.2-.3.2h0ZM428.4,561.9c-.6.5-1.2,1.1-1.8,1.6-1.4,1.2-2.8,2.5-4.3,3.5-2.3,1.5-6,2.9-9.6.6-.9-.6-1.6-1.5-2.3-2.4-.3-.4-.5-.7-.8-1,0-.1.1-.3.2-.3.2-.2.4-.3.5-.4.7-.5,1.5-1.1,2.3-1.4,4.4-1.9,8.2-2.2,11.9-1.2,1,.3,1.9.5,3,.7.4.1.7.2,1,.3,0,0,0,0,0,.1h0ZM435.6,554.7c-.3.6-.6,1.1-.9,1.7-.9,1.4-2.1,2.1-4,2.2-3.3.2-6.7-.4-11-1.8-2.2-.8-3.7-1.8-4.9-3.3-.3-.3-.3-.4-.3-.5s.1-.2.5-.4c1-.4,1.9-.8,2.8-1.2,1.2-.5,2.5-1,3.8-1.5,1.4-.6,2.8-.8,4.2-.8s1.1,0,1.6.1h.3c2.4.4,4.6.7,6.7,1.8s1.8,1.2,1.8,1.9-.2,1-.5,1.6h0ZM449.2,529.2c-.3,2.7-.5,5.1-.8,7.2,0,.2-.1.3-.2.5-1.1-.7-2.1-1.5-3.2-2.2l-2.4-1.7h.1c.7-.5,1.4-.9,2.1-1.3,1.3-.8,2-1.8,2.3-3.1.2-.7.3-.8.3-.8s.3,0,.9.3c.6.3.8.7.7,1.2h0Z"/>
    <path class="cls-10" d="M673.5,437.3v44.8H46.5v-44.8h627.1M676.5,434.3H43.5v50.8h633.1v-50.8h0Z"/>
    <text class="cls-2" transform="translate(209.5 473.2)"><tspan x="0" y="0">ZERO BUZZ BREW</tspan></text>
    <text class="cls-1" transform="translate(43.5 388.5)"><tspan x="0" y="0">No Buzz | No Fuzz</tspan></text>
  </g>
  <g id="Layer_3" data-name="Layer 3">
    <g>
      <path class="cls-4" d="M360,253l-196.9,113.7v227.3l196.9,113.7,196.9-113.7v-227.3l-196.9-113.7h0ZM539.8,402.7c-1.2,11-4.6,21.2-9.9,30.4-3.9,6.7-9.1,9.8-15.7,9.4,0,0-.3,0-.6.1,0,.3,0,.6.2.8,1.1,2.5.9,5-.7,7.7-2.4,4.3-5.8,7.7-10.3,10.2-1.2.7-2.5,1.4-3.3,2.4-4.4,5.4-9.7,9.5-16.2,14-2.9,2-7.4,4.6-12.6,3.3-4.1-1-7.8-.2-11.7,2.6-3.9,2.7-8.3,3.2-13,1.4-1.4-.5-2.7-1.1-4-1.7-.8-.4-1.6-.7-2.4-1.1-.3-.1-.7-.3-1-.4,0,0,.1.2.2.2.7.7,1.4,1.4,2.2,2,.9.8,1.7,1.6,2.6,2.5,1.6,1.5,2.2,3.4,1.6,5.5-.3,1.2,0,2.1.9,3.3,2.9,4.3,7.4,5.5,10.6,5.8,3.3.3,6,1.6,8.7,2.9.7.3,1.4.7,2.2,1,.7.3,1.2.8,1.7,1.3s.5.4.7.6l.7.5-.6.6-.2.2-.4.4-.5-.2-1.4-.7c-.2,0-.3-.1-.4-.2.2.5.4.9.6,1.4l1.3,3.1-1.6-.8c-1-.4-1.6-.9-2.1-1.6-1-1.4-1.8-1.9-3.3-1.3-1.3.6-3.1,0-3.8-.3-1.7-.7-3.4-1.4-5-2.1-1.9-.8-3.9-1.7-5.9-2.4-2.7-1-4.5-2.3-6-4.1-.3-.4-.9-.7-1.1-.7-2.9,1-4.6-.7-6-2.4-2.1-2.6-4.3-5.2-6.3-7.8l-1.2-1.5c-.8-1-1.1-1.2-1.8-.9-2.1,1-3.5-.2-4.6-1.6-3-3.9-6.2-7.7-9.4-11.3-.3-.4-1.3-.7-1.6-.7-1.7.9-3,.4-4-.2-2.6-1.5-5.3-1.9-8.2-2.3-1.7-.3-3.6-.6-5.3-1.1h-.2c.2,1.5,1.1,2.6,2.9,3.6,4.9,2.7,8.6,5.8,11.4,9.3.8,1,1.7,2.2,1.6,3.3-.4,2.7.7,4.4,3.5,5.7.6.3,1.1.8,1.5,1.2l.2.2c7,6.9,11.5,15.7,13.2,26.1.2,1.4-.1,3.1-1,5.1-.5,1-.5,1.6,0,2.3,3.6,6.7,4.6,14,5,19.6.2,2.4-.5,4.5-2.2,6.3-.4.5-.8,1.5-.8,2,.1,2.9.5,5.9,2.9,8.3s2,2.1,2.9,3.2c1,1.2,2,2.4,3.2,3.5,1.7,1.6,2.7,3.9,3.6,6.1.4.8.7,1.7,1.2,2.5.2.5.2.9.1,1.4v3.8l-1.4-2.9c-.4-.8-.7-1.5-1.1-2.2,0-.2-.2-.4-.3-.5-.2.8-.4,1.7-.6,2.5l-.4,1.6-.9-1.4c-.4-.6-.6-1.2-.7-1.8,0-.3-.2-.5-.2-.7v-.3c-.4-.6-.7-1.4-1.1-1.6-4.9-2.7-7.7-7.1-9.6-10.6-.4-.8-.9-1.6-1.4-2.3-1.5-2.3-3.1-4.7-2.9-7.9,0,0-.1-.2-.2-.2-3-1.1-3.8-3.8-4.4-5.8-1.7-5.7-2.6-12.1-2.8-20.1,0-.2-.3-.5-.4-.7s-.3-.3-.4-.5c0,.1,0,.4-.1.6-.1.6-.2,1.4-1,1.9h0v.3c0,.4.2.8.3,1.2s.3,1,0,1.5c-.2.3-.5.5-1,.6v.2c0,.3,0,.6-.1,1,0,.3,0,.7-.1,1,0,.3-.2,1.3-.9,1.4h-.2v.8c0,.5.2,1.1.2,1.7v.6h-.6c-.2.1-.4.1-.6.2,0,.2,0,.4.1.6,0,.4.1.9.2,1.3l.2.9h-.9c-.5-.1-1.1-.2-1.2,0,0,0-.1.1-.1.4,0,.6-.7.9-1.1.9h-.2c0,.1,0,.3.1.4v.3c.3,1,.4,1.6,0,2.1-.3.3-.7.4-1.3.4l1.3,3.9h-2.5v.6c0,.2.1.5.1.8-.1.5-.3,1.3-1,1.4h-.2v1c.2.5.2,1.1.2,1.6s-.5.9-.6,1c-.3.2-.6.3-.9.3h-.3v1.2c0,.7,0,1.4-.6,1.8-.5.4-.5.7-.5,1.5v.5c0,.5-.1,1.1-.6,1.6s-.8.4-1.3.4h-.2v.3c-.1.9-.1,1.7-.2,2.6,0,.7-.2,1.2-.6,1.6s-.8.5-1.4.4c-.4,0-.7,0-.8.8l-.2.7c-.2,1-.5,2.1-.8,3.1-.2.6-.9,1.3-1.7,1.3s-.6,0-.9.7c-.3.5-1,1.3-1.7,1.3-1.4,0-2.1.4-2.3,1.6-.1.7-.5,1.2-.9,1.4-.3.2-.7.3-1.4.1h-.2v.3c-.3.9-.5,1.6-.5,2.3-.1.7-.4,1.3-.9,1.5-.5.3-1,.3-1.7,0-.3-.1-.3-.2-.6.2-.3.5-.9.9-1.5,1.1-1,.2-1.6.8-1.9,1.8-.1.5-.8,1.4-1.5,1.4s-.7.1-.9.8c-.2.5-.7,1.8-2.3,1.4-.4-.1-.9-.3-1.3-.5-.8-.4-1.6-.7-2.5-.6-.5,0-.9-.1-1.3-.3-.7-.3-.9-.3-1.3,0v.2h-.5c-.2,0-.5,0-.7-.2h0l-.4.4c-.4.6-.9,1.1-1.6,1.1s-1.1-.6-1.4-1c-.3-.5-.4-.5-.6-.5h-.3c-.1,0-.2,0-.6.5-.3.5-.7,1-1.4,1h0c-.6,0-1.1-.5-1.4-1-.2-.3-.4-.5-.5-.6h-.2s-.4.1-.6.1h-.3l-.2-.3c-.3-.3-.5-.2-1.2,0-.4.2-.8.4-1.3.3-1,0-1.7.3-2.6.6-.4.2-.8.4-1.3.5-1.6.5-2.1-.9-2.3-1.3-.2-.7-.4-.8-.9-.8s-1.4-.9-1.5-1.4c-.3-1.1-.9-1.7-1.9-1.8-.6-.2-1.2-.6-1.5-1.1-.2-.4-.3-.3-.5-.2-.7.3-1.3.3-1.7,0-.5-.3-.7-.8-.8-1.6,0-.6-.2-1.3-.4-2.2,0-.3-.1-.4-.1-.4h-.2c-.6.2-1.1,0-1.4-.1-.4-.3-.8-.7-.9-1.4-.2-1.3-.8-1.7-2.3-1.6-.7,0-1.5-.7-1.7-1.3-.3-.6-.5-.7-.9-.7-.7,0-1.4-.7-1.6-1.3-.4-1.1-.6-2.3-.9-3.4v-.4c-.3-.8-.5-.8-.9-.8-.6,0-1.1,0-1.5-.4-.4-.3-.6-.9-.6-1.6s0-1.7-.2-2.5v-.3h-.2c-.6,0-1,0-1.3-.4-.5-.4-.6-1-.6-1.6v-.5c0-.7,0-1.1-.5-1.5-.6-.4-.6-1.2-.5-1.8v-1.3h-.2c-.3,0-.6,0-.9-.3s-.6-.5-.6-1,0-1,.1-1.5v-1.2h-.2c-.7-.1-.9-.9-1-1.4,0-.3,0-.6.1-.8v-.6h-2.5l1.3-3.9c-.6,0-1-.1-1.3-.4-.4-.5-.3-1,0-2v-.4c.1-.1.2-.3.2-.4h-.3c-.4,0-1.1-.4-1.1-.9s0-.3-.1-.4c-.1-.2-.7-.1-1.1,0h-.9v-.8c.1-.5.3-.9.3-1.3s0-.4.1-.6c-.2,0-.3,0-.6-.1h-.6v-.8c0-.6.1-1.2.2-1.7v-.8h-.2c-.8-.1-.9-1.2-.9-1.5v-.9c0-.4,0-.7-.1-1v-.2c-.5-.1-.8-.3-1-.6-.3-.5-.2-1.1,0-1.5.1-.4.3-.8.3-1.2v-.3h0c-.7-.4-.9-1.3-1-1.9,0-.3,0-.5-.1-.6-.1.2-.3.3-.4.5-.2.2-.5.5-.5.6-.2,8-1.1,14.4-2.8,20.1-.6,2-1.4,4.7-4.4,5.8,0,0-.1.1-.1.2.2,3.3-1.3,5.6-2.9,7.9-.5.8-1,1.5-1.4,2.3-1.9,3.6-4.8,7.9-9.6,10.6-.4.2-.7,1-1,1.6v.3c-.2.2-.3.5-.3.7-.2.6-.3,1.2-.7,1.8l-.9,1.4-.4-1.6c-.2-.8-.4-1.7-.6-2.5,0,.1-.2.3-.3.5-.3.7-.7,1.4-1.1,2.3l-1.4,2.9v-3.8c0-.5,0-.9.1-1.4.4-.8.8-1.7,1.2-2.5,1-2.2,1.9-4.5,3.6-6.1,1.1-1.1,2.2-2.3,3.2-3.5.9-1.1,1.8-2.2,2.9-3.2,2.4-2.4,2.8-5.4,2.9-8.3,0-.6-.4-1.5-.8-2-1.7-1.8-2.4-3.9-2.2-6.3.5-5.7,1.5-13,5.1-19.6.4-.7.4-1.2-.1-2.3-.9-2-1.3-3.7-1.1-5.1,1.7-10.4,6.2-19.2,13.2-26.1l.2-.2c.4-.4.9-.9,1.5-1.2,2.8-1.4,3.9-3.1,3.5-5.7-.2-1.1.7-2.3,1.5-3.3,2.9-3.5,6.6-6.5,11.5-9.3,1.8-1,2.7-2.1,2.9-3.6h-.3c-1.7.5-3.5.8-5.2,1.1-2.9.4-5.7.9-8.2,2.3-1,.6-2.4,1.1-4.1.2-.2,0-1.2.3-1.6.7-3.2,3.7-6.3,7.5-9.3,11.3-1,1.3-2.4,2.5-4.6,1.6-.7-.3-1-.1-1.8.9l-1.2,1.4c-2.1,2.6-4.2,5.3-6.3,7.9-1.4,1.7-3.1,3.4-6.1,2.4-.2,0-.8.4-1.1.8-1.5,1.8-3.3,3.1-6,4.1-2,.7-4,1.6-5.9,2.4-1.6.7-3.3,1.4-5,2.1-.7.3-2.5.8-3.9.3-1.5-.6-2.3,0-3.3,1.3-.5.7-1.2,1.2-2.1,1.6l-1.6.8,1.8-4.5c-.2,0-.3.1-.4.2l-1.9.9-.4-.4-.2-.2-.7-.6.7-.5c.2-.2.5-.4.7-.6.5-.4,1.1-.9,1.7-1.3.7-.3,1.5-.7,2.2-1,2.6-1.3,5.4-2.6,8.7-2.9,3.2-.3,7.7-1.5,10.6-5.8.8-1.2,1.2-2.1.8-3.3-.6-2,0-3.9,1.6-5.5.9-.8,1.7-1.7,2.6-2.5.7-.7,1.5-1.4,2.2-2,0,0,.2-.1.2-.2-.3.2-.7.3-1,.4-.9.4-1.7.7-2.4,1.1-1.3.6-2.6,1.2-4,1.7-4.7,1.8-9.1,1.3-13-1.4-4-2.8-7.6-3.6-11.8-2.6-5.1,1.2-9.6-1.3-12.5-3.3-6.6-4.5-11.9-8.6-16.3-14-.8-1-2-1.7-3.3-2.4-4.6-2.6-8-5.9-10.3-10.2-1.5-2.7-1.7-5.2-.7-7.7.1-.2.1-.5.2-.8-.2,0-.4-.1-.6-.1-6.6.4-11.7-2.6-15.7-9.4-5.3-9.2-8.7-19.4-9.9-30.4-.4-3.7,1-6.3,4.3-8,7-3.6,14.8-5.2,23.7-5,15.8.4,31.1,4.7,45.6,12.7,8.1,4.5,16.1,9.2,23.9,13.8,4.3,2.5,8.5,5,12.7,7.5,2,1.2,3.9,2.2,6.2,3.4.5.2.9.5,1.3.7-.2-.6-.3-1-.4-1.4-1.3-2.9-2.2-6.1-1.1-9.7.2-.9-.2-2.1-.6-3.2-.7-1.8-1.3-3.7-2-5.4-.7-1.9-1.4-3.9-2.1-5.8-.7-1.9-.2-3.9,1.3-5.5,1.1-1.2,1.1-2.4.7-4.2-.9-4.3-3.7-7-6.7-10-.5-.6-1.1-1.1-1.7-1.7-1.9-1.9-3.3-4.3-4.6-6.6-.5-.8-.9-1.6-1.5-2.4-.4-.6-.2-1.5,0-2.1l.6-2.3.8,2c.7,1.7,1,2.3,1.3,2.7,0-.6.2-1.2.3-1.7l.2-1.2,1.7-.2v.7c.2.5.3.9.4,1.4v.3c.3,1.4,1.1,2.1,2.4,3l.3.3c3,2.4,5.6,5.2,8,8,1.5,1.7,2.7,3.6,3.7,5.4s.8,2,1,3.4c.2,1.6.6,2.3,1.7,2.6,1.7.5,2.7,1.8,3,3.9l.6,3.5c.5,3,1,6.2,1.4,9.3.2,1.3.5,1.6,1.4,1.6,2.7,0,2.8,2.4,2.8,3.2,0,1.8.3,3.7.7,5.8l17.1,20.2,3.7-6.4h.2c.2-.3.4-.5.4-.7.1-.3.1-.8.2-1.2v-.5c.1-1.2.5-2,1.3-2.3.6-.3,1.3-.3,2,0l1-2.2,1,.7c.2.1.3.3.5.4,1.9-2.6,4.5-3.9,7.1-5.1l.5-.3c.6-.3.8-.4.8-.5,0,0-.3-.3-.6-.7l-3.4-4.6c-2.7-3.6-5.4-7.3-8-10.9-.8-1-1.3-1.5-2.7-1.3-1.4.2-2.8-.2-4.1-.5-.3,0-.6-.1-.9-.2-1.2-.3-2.4-.7-3.6-1l-1.1-.3c-.3-.1-.5-.2-.8-.3l-.7-.3v-1.4h.6c.1,0,.3-.1.4-.2.3,0,.7-.1,1.1,0,1.8.1,3.6.3,5.4.5,1.4.1,2.6-.1,3.7-.8,1.5-1,2.6-.8,3.7.5,2.1,2.6,4.2,5.2,6.3,7.7l2.8,3.6c1.9,2.4,3.8,4.8,5.7,7.3.6.8,1.2,1.1,2.2,1,.8,0,1.7,0,2.6-.1,1.3,0,2.6-.1,3.9-.1s2.6,0,3.9.1c.9,0,1.8,0,2.6.1,1,0,1.6-.3,2.2-1,1.9-2.5,3.8-4.9,5.7-7.3l2.7-3.4c2.1-2.6,4.1-5.2,6.3-7.8,1.1-1.4,2.2-1.5,3.7-.5,1.1.7,2.3,1,3.7.8,1.8-.2,3.6-.3,5.4-.5h2.1v1.6l-.6.3c-.3.1-.5.2-.8.3l-1.1.3c-1.1.4-2.3.8-3.5,1-.3,0-.6.1-1,.2-1.4.4-2.8.7-4.1.5-1.4-.2-2,.2-2.8,1.3-3.8,5.2-7.6,10.3-11.4,15.4-.3.4-.5.7-.5.8,0,0,.3.1.8.4l.5.3c2.6,1.3,5.2,2.6,7,5.1h0c.1-.1.3-.3.5-.4l.9-.7,1.1,2.2c.8-.3,1.5-.3,2,0,.7.4,1.1,1.1,1.2,2.3v.5c0,.4,0,.9.2,1.2,0,.2.3.4.4.7h.2l3.7,6.4,17.1-20.2c.4-2.1.6-4,.6-5.8.1-2.1,1-3.2,2.9-3.2s1.2-.3,1.4-1.6c.4-3.2,1-6.3,1.4-9.4l.6-3.4c.3-2,1.3-3.3,3-3.9,1.1-.3,1.6-1,1.8-2.6.2-1.5.5-2.6,1-3.4,1.1-1.8,2.2-3.7,3.7-5.4,2.5-2.8,5-5.6,8-8l.3-.3c1.2-.9,2.1-1.6,2.3-3v-.3c.2-.5.3-.9.3-1.4l.2-.7,1.7.2.2,1.3c.1.5.2,1.1.3,1.6.3-.4.6-1,1.3-2.7l.8-2,.6,2.3c.2.7.4,1.5,0,2.1-.5.8-1,1.6-1.5,2.4-1.4,2.3-2.8,4.7-4.7,6.6-.5.5-1.1,1.1-1.6,1.7-3,2.9-5.8,5.7-6.7,10-.4,1.8-.4,3,.7,4.2,1.5,1.7,2,3.6,1.3,5.5s-1.4,3.9-2.1,5.7-1.4,3.6-2,5.4c-.4,1-.8,2.3-.6,3.2,1.1,3.7.1,6.9-1.1,9.7-.2.4-.3.8-.4,1.4.4-.2.9-.5,1.3-.7,2.2-1.2,4.2-2.2,6.1-3.4,4.3-2.5,8.5-5,12.8-7.5,7.8-4.6,15.9-9.3,23.9-13.8,14.4-8,29.7-12.3,45.5-12.7,9-.2,16.7,1.4,23.7,5,3.3,1.7,4.7,4.3,4.3,8l.8.4Z"/>
      <path class="cls-5" d="M535.6,394.7c-7-3.6-14.7-5.2-23.7-5-15.8.4-31.1,4.7-45.5,12.7-8.1,4.5-16.1,9.2-23.9,13.8-4.3,2.5-8.5,5-12.8,7.5-1.9,1.2-4,2.2-6.1,3.4-.5.2-.9.5-1.3.7.1-.6.3-1,.4-1.4,1.2-2.9,2.2-6.1,1.1-9.7-.2-.9.2-2.2.6-3.2.6-1.8,1.3-3.6,2-5.4.7-1.9,1.4-3.8,2.1-5.7s.2-3.9-1.3-5.5c-1.1-1.2-1.1-2.4-.7-4.2.9-4.3,3.7-7,6.7-10,.5-.6,1.1-1.1,1.6-1.7,1.9-1.9,3.3-4.3,4.7-6.6.5-.8.9-1.6,1.5-2.4.4-.6.2-1.5,0-2.1l-.6-2.3-.8,2c-.7,1.7-1,2.3-1.3,2.7,0-.6-.1-1.1-.3-1.6l-.2-1.3-1.7-.2-.2.7c0,.5-.1.9-.3,1.4v.3c-.3,1.4-1.2,2.1-2.4,3l-.3.3c-3,2.4-5.5,5.2-8,8-1.5,1.6-2.6,3.6-3.7,5.4-.5.9-.8,2-1,3.4-.2,1.6-.6,2.3-1.8,2.6-1.7.5-2.7,1.8-3,3.9l-.6,3.4c-.5,3.1-1,6.2-1.4,9.4-.2,1.3-.4,1.6-1.4,1.6-1.8,0-2.7,1.1-2.9,3.2,0,1.8-.3,3.7-.6,5.8l-17.1,20.2-3.7-6.4h-.2c-.2-.3-.4-.5-.4-.7-.2-.3-.2-.8-.2-1.2v-.5c-.1-1.2-.6-2-1.3-2.3-.5-.3-1.3-.3-2,0l-1.1-2.2-.9.7c-.2.1-.3.3-.5.4h0c-1.8-2.6-4.5-3.9-7-5.1l-.5-.3c-.5-.2-.7-.4-.8-.4,0-.1.2-.4.5-.8,3.8-5.2,7.6-10.3,11.4-15.4.8-1,1.3-1.5,2.8-1.3,1.4.2,2.8-.2,4.1-.5.3,0,.6-.1,1-.2,1.2-.3,2.4-.7,3.5-1l1.1-.3c.3-.1.5-.2.8-.3l.6-.3v-1.5h-.6c-.2,0-.3-.1-.4-.2-.3,0-.7-.1-1.1,0-1.8.1-3.6.3-5.4.5-1.4.1-2.6-.1-3.7-.8-1.5-1-2.6-.8-3.7.5-2.2,2.6-4.2,5.2-6.3,7.8l-2.7,3.4c-1.9,2.4-3.9,4.9-5.7,7.3s-1.2,1-2.2,1-1.7,0-2.6-.1c-1.3,0-2.6-.1-3.9-.1s-2.6,0-3.9.1c-.9,0-1.7,0-2.6.1-1,0-1.6-.3-2.2-1-1.9-2.4-3.8-4.9-5.7-7.3l-2.8-3.6c-2.1-2.6-4.2-5.2-6.3-7.7-1.1-1.4-2.2-1.5-3.7-.5-1.1.7-2.3,1-3.7.8-1.8-.2-3.6-.3-5.4-.5h-2.1v1.5l.6.3c.3.1.5.2.8.3l1.1.3c1.1.4,2.3.8,3.6,1,.3,0,.6.1.9.2,1.3.4,2.8.7,4.1.5,1.4-.2,2,.2,2.7,1.3,2.6,3.6,5.3,7.3,8,10.9l3.4,4.6c.3.4.5.7.6.7,0,0-.2.2-.8.5l-.5.3c-2.6,1.3-5.2,2.6-7.1,5.1-.1-.1-.3-.3-.5-.4l-1-.7-1,2.2c-.8-.3-1.5-.3-2,0-.7.4-1.1,1.1-1.2,2.3v.5c0,.4,0,.9-.2,1.2,0,.2-.3.4-.4.7q0,.2,0,0h-.2l-3.7,6.4-17.1-20.2c-.4-2.1-.6-4-.7-5.8,0-.8-.1-3.2-2.8-3.2s-1.2-.3-1.4-1.6c-.4-3.1-1-6.3-1.4-9.3l-.6-3.5c-.3-2-1.3-3.3-3-3.9-1.1-.3-1.5-1-1.7-2.6-.2-1.5-.5-2.6-1-3.4-1-1.7-2.2-3.7-3.7-5.4-2.5-2.8-5-5.6-8-8l-.3-.3c-1.2-.9-2.1-1.6-2.3-3v-.3c-.2-.5-.2-.9-.3-1.4v-.7c-.1,0-1.8.2-1.8.2l-.2,1.2c0,.6-.2,1.2-.3,1.7-.4-.4-.6-1-1.3-2.7l-.8-2-.6,2.3c-.1.7-.4,1.5,0,2.1.5.8,1,1.6,1.5,2.4,1.4,2.3,2.7,4.7,4.6,6.6.6.5,1.1,1.1,1.7,1.7,3,2.9,5.8,5.7,6.7,10,.4,1.8.4,3-.7,4.2-1.5,1.7-2,3.6-1.3,5.5s1.4,3.9,2.1,5.8c.7,1.8,1.3,3.6,2,5.4.3,1,.8,2.3.6,3.2-1.1,3.7-.2,6.9,1.1,9.7.2.4.3.8.4,1.4-.5-.2-.9-.5-1.3-.7-2.3-1.2-4.2-2.2-6.2-3.4-4.3-2.5-8.5-5-12.7-7.5-7.8-4.6-15.9-9.3-23.9-13.8-14.4-8-29.7-12.3-45.6-12.7-8.9-.2-16.6,1.4-23.7,5-3.3,1.7-4.7,4.3-4.3,8,1.2,11,4.6,21.2,9.9,30.4,3.9,6.7,9,9.8,15.7,9.4.1,0,.3,0,.6.1,0,.3-.1.6-.2.8-1,2.5-.8,5,.7,7.7,2.4,4.3,5.8,7.7,10.3,10.2,1.2.7,2.5,1.4,3.3,2.4,4.4,5.4,9.7,9.5,16.3,14,2.9,2,7.4,4.6,12.5,3.3,4.2-1,7.8-.2,11.8,2.6,3.9,2.7,8.3,3.2,13,1.4,1.4-.5,2.7-1.1,4-1.7.8-.4,1.6-.7,2.4-1.1.3-.1.6-.3,1-.4,0,0-.1.2-.2.2-.7.7-1.4,1.4-2.2,2-.9.8-1.7,1.6-2.6,2.5-1.6,1.5-2.1,3.4-1.6,5.5.3,1.2,0,2.1-.8,3.3-2.9,4.3-7.4,5.5-10.6,5.8-3.3.3-6,1.6-8.7,2.9-.7.3-1.5.7-2.2,1s-1.2.8-1.7,1.3-.4.4-.7.6l-.7.5.7.6.2.2.4.4,1.9-.9c.1,0,.3-.2.4-.2l-1.8,4.5,1.6-.8c.9-.4,1.6-.9,2.1-1.6,1-1.4,1.8-1.9,3.3-1.3,1.3.6,3.1,0,3.9-.3,1.7-.7,3.4-1.4,5-2.1,1.9-.8,3.9-1.7,5.9-2.4,2.7-1,4.5-2.3,6-4.1.3-.4.9-.7,1.1-.8,3,1,4.7-.7,6.1-2.4,2.1-2.6,4.3-5.2,6.3-7.9l1.2-1.4c.8-1,1.1-1.2,1.8-.9,2.1,1,3.5-.2,4.6-1.6,3-3.9,6.2-7.7,9.3-11.3.4-.4,1.3-.7,1.6-.7,1.7.9,3,.4,4.1-.2,2.5-1.5,5.3-1.9,8.2-2.3,1.7-.3,3.5-.6,5.2-1.1h.3c-.2,1.5-1.1,2.6-2.9,3.6-4.8,2.7-8.6,5.8-11.5,9.3-.8,1-1.7,2.2-1.5,3.3.4,2.7-.7,4.4-3.5,5.7-.6.3-1.1.8-1.5,1.2l-.2.2c-7,6.9-11.5,15.7-13.2,26.1-.2,1.4.1,3.1,1.1,5.1.5,1.1.5,1.6.1,2.3-3.6,6.7-4.6,14-5.1,19.6-.2,2.4.5,4.5,2.2,6.3.4.5.8,1.5.8,2-.1,2.9-.5,5.9-2.9,8.3s-2,2.2-2.9,3.2c-1,1.2-2,2.4-3.2,3.5-1.7,1.6-2.7,3.9-3.6,6.1-.4.8-.7,1.7-1.2,2.5-.2.4-.2.9-.1,1.4v3.8l1.4-2.9c.4-.8.7-1.6,1.1-2.3.1-.2.2-.3.3-.5.2.8.4,1.7.6,2.5l.4,1.6.9-1.4c.4-.6.5-1.2.7-1.8,0-.3.1-.5.2-.7v-.3c.3-.6.7-1.4,1.1-1.6,4.9-2.7,7.7-7,9.6-10.6.4-.8.9-1.5,1.4-2.3,1.5-2.3,3.1-4.7,2.9-7.9v-.2c3.1-1.1,4-3.8,4.5-5.8,1.7-5.7,2.6-12.1,2.8-20.1,0-.1.3-.4.5-.6.1-.2.3-.3.4-.5,0,.1,0,.4.1.6,0,.6.2,1.4,1,1.9h0v.3c0,.4-.2.8-.3,1.2,0,.3-.3,1,0,1.5.2.3.5.5,1,.6v.2c0,.3,0,.7.1,1v.9c0,.3.2,1.4.9,1.5h.2v.8c0,.5-.2,1.1-.2,1.7v.6h.6c.2.1.4.1.6.2,0,.2,0,.4-.1.6,0,.4-.1.9-.2,1.3v.9c-.1,0,.8,0,.8,0h1.1s.1.1.1.4c0,.6.6.9,1.1.9h.3c0,.1,0,.3-.1.4v.4c-.3,1-.4,1.5,0,2,.3.3.7.4,1.3.4l-1.3,3.9h2.5v.6c0,.2-.2.5-.1.8,0,.4.3,1.3,1,1.4h.2v.7c0,.1,0,.3-.1.5,0,.5-.1,1-.1,1.5s.5.9.6,1c.3.2.6.3.9.3h.2v1.3c0,.7,0,1.4.5,1.8s.5.7.5,1.5,0,.3,0,.5c0,.5.1,1.1.6,1.6s.8.4,1.3.4h.2v.3c.1.8.1,1.7.2,2.5,0,.7.2,1.2.6,1.6s.9.5,1.5.4c.4,0,.7,0,.8.8v.4c.3,1.1.6,2.3,1,3.4.2.6.9,1.3,1.6,1.3s.7,0,.9.7c.3.5,1,1.3,1.7,1.3,1.4,0,2.1.4,2.3,1.6.1.7.5,1.2.9,1.4.3.2.7.3,1.4.1h.2s0,.1.1.4c.2.8.4,1.6.4,2.2.1.8.4,1.3.8,1.6.5.3,1,.2,1.7,0,.3-.1.3-.2.5.2.3.5.9,1,1.5,1.1,1,.2,1.6.8,1.9,1.8.1.5.8,1.4,1.5,1.4s.7.1.9.8c.2.4.7,1.8,2.3,1.3.5-.1.9-.3,1.3-.5.8-.4,1.6-.7,2.6-.6.5,0,.9-.1,1.3-.3.7-.3.9-.3,1.2,0l.2.3h.3c.2.1.5,0,.6,0h.2c.1,0,.3.3.5.6.3.4.8,1,1.4,1h0c.7,0,1.1-.6,1.4-1,.3-.5.4-.5.6-.5h.3c.1,0,.2,0,.6.5.3.5.7,1,1.4,1s1.1-.5,1.6-1.1c.1-.1.3-.4.4-.4h0c.2.1.5.2.7.2h.3v-.2c.5-.4.7-.3,1.4,0,.4.2.9.4,1.3.3,1,0,1.7.3,2.5.6.4.2.9.4,1.3.5,1.6.5,2.1-.9,2.3-1.4.2-.7.4-.8.9-.8s1.4-.9,1.5-1.4c.3-1.1.9-1.7,1.9-1.8.6-.2,1.2-.6,1.5-1.1.2-.4.3-.4.6-.2.7.3,1.3.3,1.7,0,.5-.3.7-.8.9-1.5,0-.7.2-1.4.4-2.3,0-.3.1-.3.1-.3h.2c.7.2,1.1,0,1.4-.1.4-.3.8-.7.9-1.4.2-1.3.9-1.7,2.3-1.6.7,0,1.5-.7,1.7-1.3.3-.6.5-.7.9-.7.7,0,1.5-.7,1.7-1.3.3-1,.5-2,.8-3.1l.2-.7c.2-.8.4-.8.8-.8.6,0,1.1,0,1.4-.4.4-.3.6-.9.6-1.6s0-1.7.2-2.6v-.3h.2c.5,0,1,0,1.3-.4.5-.4.6-1,.6-1.6v-.5c0-.7,0-1.1.5-1.5.6-.4.6-1.2.6-1.8v-1.2h.3c.3,0,.6,0,.9-.3s.6-.5.6-1,0-1.1-.2-1.6v-.6c-.1-.2-.1-.4-.1-.4h.2c.6-.1.8-.9,1-1.4,0-.3,0-.5-.1-.8v-.6h2.5l-1.3-3.9c.6,0,1-.1,1.3-.4.4-.5.3-1,0-2.1v-.3c-.1-.1-.1-.3-.2-.4h.2c.4,0,1.1-.3,1.1-.9s0-.3.1-.4c.1-.2.7,0,1.2,0h.9l-.2-.8c0-.5-.2-.9-.2-1.3s0-.4-.1-.6c.1,0,.3,0,.6-.1h.6v-.8c0-.6-.2-1.2-.2-1.7v-.8h.2c.7-.1.9-1.2.9-1.4,0-.3,0-.7.1-1,0-.3,0-.6.1-1v-.2c.5-.1.8-.3,1-.6.3-.5.2-1.1,0-1.5s-.2-.8-.3-1.2v-.3h0c.8-.5.9-1.3,1-1.9,0-.3,0-.5.1-.6.2.2.3.3.4.5s.4.5.4.7c.2,8,1,14.4,2.8,20.1.6,2,1.4,4.7,4.4,5.8l.2.2c-.3,3.2,1.3,5.6,2.9,7.9.5.7,1,1.5,1.4,2.3,1.9,3.5,4.7,7.9,9.6,10.6.4.2.7,1,1,1.6v.3c.2.2.3.5.3.7.1.6.3,1.2.7,1.8l.9,1.4.4-1.6c.2-.8.4-1.7.6-2.5,0,.2.2.4.3.5.3.7.7,1.4,1.1,2.2l1.4,2.9v-3.8c0-.5,0-.9-.1-1.4-.4-.8-.8-1.6-1.2-2.5-1-2.2-1.9-4.5-3.6-6.1-1.1-1.1-2.2-2.3-3.2-3.5-.9-1.1-1.8-2.2-2.9-3.2-2.4-2.4-2.8-5.4-2.9-8.3,0-.6.4-1.5.8-2,1.7-1.8,2.4-3.9,2.2-6.3-.4-5.6-1.4-13-5-19.6-.4-.7-.4-1.3,0-2.3.9-2,1.3-3.7,1-5.1-1.7-10.4-6.2-19.2-13.2-26.1l-.2-.2c-.4-.4-.9-.9-1.5-1.2-2.8-1.4-3.9-3.1-3.5-5.7.2-1.1-.7-2.3-1.6-3.3-2.9-3.5-6.6-6.5-11.4-9.3-1.8-1-2.6-2.1-2.9-3.6h.2c1.7.5,3.6.8,5.3,1.1,2.9.4,5.7.9,8.2,2.3,1,.6,2.3,1.1,4,.2.3,0,1.2.3,1.6.7,3.2,3.6,6.3,7.4,9.4,11.3,1,1.3,2.4,2.5,4.6,1.6.7-.3,1-.1,1.8.9l1.2,1.5c2.1,2.6,4.2,5.2,6.3,7.8,1.4,1.7,3.1,3.4,6,2.4.2,0,.9.4,1.1.7,1.5,1.8,3.3,3.1,6,4.1,2,.7,4,1.6,5.9,2.4,1.6.7,3.3,1.4,5,2.1.7.3,2.5.8,3.8.3,1.6-.6,2.3,0,3.3,1.3.5.7,1.2,1.2,2.1,1.6l1.6.8-1.3-3.1c-.2-.4-.4-.9-.6-1.4.2,0,.3.1.4.2l1.4.7.5.2.4-.4.2-.2.6-.6-.7-.5c-.2-.2-.5-.4-.7-.6-.5-.4-1.1-.9-1.7-1.3-.8-.3-1.5-.7-2.2-1-2.7-1.3-5.4-2.6-8.7-2.9s-7.7-1.5-10.6-5.8c-.8-1.2-1.2-2.1-.9-3.3.6-2,0-3.9-1.6-5.5s-1.7-1.7-2.6-2.5c-.7-.7-1.5-1.4-2.2-2l-.2-.2c.3.2.7.3,1,.4.8.4,1.6.7,2.4,1.1,1.3.6,2.6,1.2,4,1.7,4.7,1.8,9.1,1.3,13-1.4,4-2.8,7.6-3.6,11.7-2.6,5.2,1.2,9.6-1.3,12.6-3.3,6.6-4.5,11.8-8.6,16.2-14,.8-1,2.1-1.7,3.3-2.4,4.6-2.6,7.9-5.9,10.3-10.2,1.5-2.7,1.7-5.2.7-7.7,0-.3,0-.5-.2-.8.2,0,.4-.1.6-.1,6.6.4,11.7-2.6,15.7-9.4,5.3-9.2,8.7-19.4,9.9-30.4.4-3.7-1-6.3-4.3-8l-.4-.3ZM472.3,404.2c.7-.4,1.4-.8,2.1-1.1,3.3-1.3,6.6-2.6,9.9-3.7l1.4-.6c12.6-4.7,25.3-5.9,37.7-3.7.9.2,1.6.5,1.8,1,.3.5,0,1.3-.3,1.8-.4.7-1,1.4-1.8,2-3.5,2.5-7.2,3.6-11.1,3.3-6.1-.5-12.5.3-20.1,2.6-4.3,1.3-8.8,2.3-13.4,2.9-2.8.4-5-.9-7-4.2.2-.1.4-.2.7-.4h0ZM522.5,435.8c-4.6,2.8-9.4,3.2-14.4,1.2-8.2-3.3-16.5-4.1-24.4-4.4h-4.9c.2-1.3,1.2-1.9,2.8-2.5,5.9-2.1,12.5-3.4,20.2-3.8,1.4-.1,2.9.7,4.2,1.4s2.6,1.4,3.8,2.1c1.7,1,3.4,2,5.3,2.9,2,.9,4,1.5,6.2,2.2.6.2,1.3.4,1.9.6-.2.2-.5.4-.7.6v-.3ZM504,417.3c-.2,2.9-.9,3.6-4,3.8h-.4c-7,.5-14.3,1-21,4.4h-.7c-.8-.9-1.2-2.5-1.1-4.2.2-2.2,1.2-4.2,2.6-5.4l.4-.2c.6-.2,1.4-.4,2.2-.7,1.4-.4,2.9-.8,4.4-1.2,2.4-.7,4.9-1.3,7.3-2,1.6-.5,3.2-1.1,4.7-1.6.9-.3,1.9-.7,2.8-1,.6-.2,1.1-.3,1.4,0,.3.2.5.5.5,1.1s.2,1.2.3,1.8c.2,1.6.4,3.2.4,4.7v.6h.2ZM524.5,429.8c-3.9-.4-7.2-2.2-10.7-4l-1.3-.7c-2.3-1.2-3-2.7-2.6-5.2.6-3.6.8-7.8-1.3-11.6h.9c1.2,0,2.3.2,3.3.3,5.8,1,10.4,4.7,14.4,7.9,5.7,4.5,5.2,5.7,2.3,10.8-1.4,2.5-2.2,2.9-4.9,2.6h-.1ZM448.9,439.1l-10.5,2.8h0c1.2-4.6,4.2-7.1,9.9-8.6,5.2-1.3,10.6-3.1,17.1-5.4,1.6-.6,3-1.5,4.5-2.5.5-.3,1-.6,1.5-1,0,.4.2.7.3,1,.4,1.6.8,3,1,4.5,0,.6.2,1.1.2,1.4,0,1.2-.6,1.4-2.5,1.9-7.1,1.9-14.2,3.7-21.3,5.6l-.2.3ZM465.8,440.1c-10.2,4.4-20.9,8.9-32,12.7,0-.2,0-.4-.1-.6-.1-.8-.2-1.5-.4-2.1,0-.3-.2-.7,0-.9.1-.2.4-.3.9-.5,1.1-.3,2.2-.6,3.2-1,.6-.2,1.3-.4,2-.6l5.1-1.5c5.4-1.6,11-3.2,16.5-4.7,1.6-.4,3.3-.6,4.9-.8h-.1ZM451,426.6c1-1.3,1.9-2.6,2.7-4,1.8-3.1,3.2-5.8,4.2-8.6.5-1.5.9-2.5,2.2-3.2.7-.4,1.4-.8,2-1.1,1-.6,2-1.1,3-1.7q.6-.3,1.2.4l.4.4c1,1.3,2,2.6,3.3,3.6,1.7,1.4,2.4,2.4,2.4,3.1s-.6,1.7-2.3,3.2c-.3.3-.5.5-.8.7l-.3.3c-4.1,3.5-9,4.9-14.2,6.4-1.5.4-3,.9-4.5,1.4.3-.3.5-.6.7-1h0ZM420.2,435c6.1-3.9,12.2-7.7,18.2-11.5l5.7-3.6c1.9-1.2,3.7-2.4,5.6-3.6-.1.4-.3.8-.4,1.1-3.5,7.8-9.5,13.9-17.9,18.1-4.4,2.2-9.2,4-13.7,5.7-2,.8-4,1.5-5.9,2.3h0c2.7-4,5.4-6.7,8.5-8.7v.2ZM424,443.7l9.5-3.6s0,.2-.1.3c-.4,1.2-.7,2.2-1.1,3.2-.2.5-.7.9-1,1-7.8,2-14.8,3.6-21.4,5.2h-1.3c5.1-1.9,10.2-3.9,15.4-5.9v-.2ZM311.4,449.6c-.5,0-.9.1-1.3,0-6.6-1.5-13.6-3.2-21.4-5.2-.3,0-.8-.5-1-1-.4-.9-.7-1.9-1.1-3.1v-.3l9.6,3.7c5.2,2,10.2,3.9,15.3,5.9h-.1ZM259.2,440.9c5.5,1.5,11.1,3.2,16.5,4.7l5.1,1.5c.7.2,1.3.4,2,.6,1,.3,2.1.7,3.2,1,.5.1.8.3.9.5s0,.6,0,.9c-.2.7-.3,1.3-.4,2.1,0,.2,0,.4-.1.6-11.2-3.9-21.9-8.3-32-12.7,1.6.2,3.3.4,4.9.8h-.1ZM249.8,433.5c-2-.5-2.5-.7-2.5-1.9s0-.8.1-1.4c.2-1.5.6-2.9,1-4.5.1-.3.2-.7.3-1,.5.3,1,.7,1.5,1,1.5,1,2.9,1.9,4.5,2.5,6.5,2.3,11.9,4,17.1,5.4,5.7,1.5,8.7,4,9.9,8.4h0c0,.1-10.5-2.7-10.5-2.7-7.1-1.9-14.2-3.8-21.3-5.6v-.2ZM275.9,420l5.6,3.5c6.1,3.9,12.2,7.7,18.3,11.6,3.1,2,5.8,4.7,8.6,8.7h0c-2-.8-3.9-1.5-5.9-2.3-4.6-1.7-9.3-3.5-13.8-5.7-8.4-4.2-14.4-10.3-17.9-18.1-.1-.3-.3-.7-.4-1.1,1.8,1.2,3.7,2.4,5.6,3.6v-.2ZM249.9,412.4c1.3-1.1,2.3-2.4,3.3-3.6l.4-.5c.3-.4.5-.6.6-.6s.3,0,.5.2c1,.6,2,1.2,3.1,1.7.7.4,1.3.7,2,1.1,1.2.7,1.6,1.7,2.1,3.2,1,2.9,2.4,5.5,4.2,8.6.8,1.4,1.8,2.7,2.7,4,.2.3.5.6.7,1-1.5-.5-3-.9-4.5-1.4-5.2-1.5-10-2.9-14.2-6.5l-.3-.3c-.3-.2-.5-.4-.8-.7-1.6-1.5-2.3-2.4-2.2-3.2,0-.7.7-1.7,2.4-3.1h0ZM194.7,396.2c.2-.5.9-.8,1.8-1,12.5-2.3,25.2-1,37.8,3.7l1.4.6c3.3,1.2,6.6,2.4,9.9,3.7.7.3,1.4.7,2.1,1.1.2.1.5.2.6.3-2,3.2-4.2,4.5-7,4.2-4.6-.7-9.2-1.7-13.4-2.9-6.1-1.9-11.4-2.7-16.4-2.7s-2.4,0-3.6.1c-3.9.3-7.6-.7-11.1-3.3-.7-.5-1.4-1.3-1.8-2-.3-.5-.6-1.3-.3-1.8h0ZM242.2,425.5h-.7c-6.7-3.4-14-3.9-21-4.3h-.4c-3.1-.3-3.8-.9-4-3.9-.1-1.7.2-3.6.5-5.4,0-.6.1-1.2.2-1.8,0-.5.3-.9.5-1.1.2,0,.3-.1.6-.1s.6,0,.9.2c.9.3,1.9.7,2.8,1,1.5.6,3.1,1.2,4.7,1.6,2.4.7,4.9,1.4,7.3,2,1.5.4,2.9.8,4.4,1.2.9.2,1.7.5,2.4.7h.3c1.4,1.3,2.4,3.3,2.6,5.5.2,1.7-.3,3.3-1.1,4.2v.2ZM186.2,413.5c-.5-4.2-1-8.9-1.5-14.2,0-1,.4-1.8,1.5-2.3.9-.4,1.4-.6,1.6-.6s0,0,.1,0,.3.4.6,1.6c.5,2.5,2,4.4,4.6,6,1.4.8,2.8,1.7,4.2,2.6h.2c-1.7,1.3-3.3,2.5-5,3.6-1.9,1.4-3.9,2.8-5.9,4.2-.2-.3-.3-.6-.3-.9h-.1ZM190.7,427.2c-3-5-3.4-6.3,2.3-10.8,4-3.2,8.6-6.8,14.4-7.9,1.1-.2,2.1-.3,3.3-.3h.9c-2.1,3.9-1.8,8-1.3,11.6.4,2.5-.3,4-2.6,5.2l-1.4.7c-3.5,1.8-6.8,3.6-10.7,4-2.7.3-3.5,0-4.9-2.6h0ZM197.5,435.8c-.3-.1-.5-.3-.7-.6.6-.2,1.3-.4,1.9-.6,2.1-.7,4.2-1.3,6.2-2.2,1.8-.9,3.6-1.9,5.3-2.9,1.3-.7,2.5-1.4,3.8-2.1,1.4-.7,2.9-1.5,4.2-1.4,7.8.4,14.4,1.7,20.3,3.8,1.6.6,2.6,1.2,2.7,2.5h-.9c-1.4,0-2.7,0-4,.1-7.9.4-16.3,1.1-24.4,4.4-5,2-9.9,1.6-14.4-1.2v.2ZM221.1,457.1c-3.7-.2-6.2-1.7-7.8-4.4-.6-1-1.3-2.1-1.9-3.3-1.8-3.6-1.2-5.1,2.5-7,4.1-2.1,8.5-2.7,13.2-3.4h.6c3.8-.6,7.5-.2,11.3,1.3,2.5,1,4.9,2,7.4,3,1.8.8,3.7,1.5,5.5,2.3.7.3.9.6.9.7,0,0,0,.4-.7.9-2.3,2.9-5.3,4.9-9.5,6.3-8.4,2.9-15,4-21.6,3.6h.1ZM260.8,469.9c-1.4,1.8-2.8,3.7-4.5,4.8-7.3,4.5-14.3,1.8-18.9-1.2-3-2-5.7-4.4-8.4-6.9-1.2-1-2.4-2.1-3.5-3.1,0,0,0-.1-.1-.2.7-.2,1.3-.3,2-.5,2-.4,3.9-.9,5.8-1.4,7.3-2.2,14.7-1.4,23.3,2.3,1.6.7,3.1,1.7,4.5,2.8.4.3.7.5,1,.8.1,0,.3.5.3.6-.5.6-1,1.3-1.5,2h0ZM289.1,472.6h0c-2.1,3.1-5.4,4.4-8.9,5.9-.9.4-1.9.7-2.8,1.2-2.8,1.3-6.1,2.5-9.6,1.8-1.8-.3-3.6-1.1-5.3-1.9l-.4-.2c-.3-.2-.5-.3-.5-.4,0-.2.1-.5.4-.8,1-1.1,1.9-2.1,2.8-3.2,1.5-1.7,3-3.5,4.6-5.1s2.3-1.4,3.3-1.4h.2c5,.3,10,.9,15.5,1.7.6,0,1.9.3,2.3.5-.2.4-1,1.3-1.5,2h-.1ZM301.8,463.6c-2.2,1-4.3,2.1-6.6,3-.4.2-1.4-.2-2.1-.4l-.5-.2c-5.8-1.9-11-2.8-15.9-2.8s-3.7.1-5.4.4c-1.5.2-3.3-.2-4.5-.9-4.9-3-9.8-5-15-6.2h-.2c.5-.4,1-.8,1.4-1.2l1.4-1.2c1.7-1.5,3.4-2.9,5-4.5s1.3-.9,2.2-.6c11.6,4.7,24.2,8.8,39.8,12.9.5.2,1.1.4,1.7.7,0,0,.2,0,.2.1-.5.3-1.1.5-1.7.8h.2ZM309.8,459c-3.7-.9-7.6-1.9-11.2-2.8-2.1-.6-4.2-1.1-6.3-1.6-.7-.2-1.2-.4-1.3-.7-.2-.3-.1-.8,0-1.5.2-.6.3-1.3.4-2v-.5c2.6.9,5.4,1.5,8,2,5.6,1.1,10.8,2.2,15.4,5.9-2,1.2-3.6,1.6-5.3,1.2h.3ZM389.6,568.2l-.3.6-.6-.3.3-.6-.4.6c-.2,0-.4-.1-.5-.4,0,0-.2-.1-.2-.2,0,0,0,.1-.2.3-.1.3-.4.6-.6.8,0,0-.1.1-.2.1-.1.2-.3.3-.4.4-.2.2-.4.5-.6.7,0,.1-.1.3-.2.6,0,.1,0,.3-.1.5l-.4,1.3-.9-1c-.4-.5-.8-1-1.2-1.4,0,.2,0,.3-.1.5,0,.4-.1.8-.2,1.3-.1.7-.2,1.5-.3,2.2,0,.4-.3.8-.5,1.1l-.2.2c-.1.2-.3.4-.4.5-.2.2-.3.4-.3.5-.2.7-.3,1.4-.3,2.2s-.2,1.1-.7,1.5-1.1.3-1.6.2c-.4,0-1-.2-1.1-.2s-.3.6-.5,1c-.2.6-.9,2-2.7,1.5-.4,0-.6,0-.8.5-.2.6-.6,1.1-1,1.4-.3.3-.7.4-1.2.6-.1,0-.3.1-.5.2l-.4.2-.8-.6c-.3-.2-.7-.5-1-.7q-.2-.1,0,0c-.2.8-.7,2.4-2.7,2.6h-.1c-.2.3-.6.4-1,.4s-.8-.2-1.3-.7-.5-.7-.7-.9l-.9.9-.5.6-.5-.7c-.3-.3-.4-.5-.5-.7,0,0-.2-.2-.2-.3l-.3.2-.3-.2s-.2.2-.2.3c-.1.2-.3.4-.5.7l-.5.7-.6-.6c-.3-.3-.6-.7-.8-.9-.2.2-.4.5-.7.8-.9,1.1-1.8.7-2.2.4h-.1c-2.1-.3-2.6-2-2.7-2.6h0c-.3.3-.7.6-1,.8l-.8.6-.4-.2c-.2-.1-.4-.2-.5-.2-.5-.2-.8-.4-1.2-.6-.4-.4-.8-.9-1-1.4-.2-.6-.4-.6-.8-.5-1.8.5-2.4-1-2.7-1.5-.2-.3-.4-.9-.6-1-.1,0-.7.1-1.1.2-.5.1-1.1.2-1.6-.2-.6-.4-.6-1-.7-1.5,0-.7-.1-1.5-.3-2.2,0-.1-.2-.3-.3-.5-.1-.2-.3-.3-.4-.5l-.2-.3c-.2-.3-.4-.7-.5-1.1-.2-.7-.2-1.4-.3-2.2,0-.4-.1-.8-.2-1.3v-.5c-.4.4-.7.9-1.2,1.4l-.8,1-.4-1.3c0-.2,0-.3-.1-.5-.1-.3-.2-.5-.3-.6-.2-.3-.4-.5-.6-.8l-.3-.4s-.1-.1-.2-.1c-.2-.2-.5-.4-.6-.8,0-.1-.1-.2-.2-.3l-.2.2c-.2.2-.4.3-.5.3l-.6.3-.4-.6c-.9-1.6-.8-5,.6-6.3l.6-.5,1.4,1.6h0l1-1,.6.9c.1.2.3.4.4.7,0,.3.2.4.2.4,0,0,.1,0,.3-.2.6-.3,1.9-.2,2.4.3q.3.4,1-.1c.2-.1.4-.2.5-.2h.6c.1,0,.5.3.5.8s.1.7.2.9c.2,0,.6-.1.9-.2h.2c.9-.3,1.9-.4,2.9-.5h.6c.7,0,1.2.6,1.3.9.2.3.2.5.2.7v.5q0,0,0,0l.6-.6c.1-.2.3-.4.5-.6l.6-.6.5.7.3.3c.2.2.4.4.5.7,0,.2.2.4.3.4,0,0,.2,0,.7-.2.1,0,.3-.2.4-.3.3-.2.7-.4,1.1-.5.3,0,.6-.1.9-.2,1-.2,2-.4,2.9-.9.6-.4,1.4-.4,2.1-.2.7.3,1.3.8,1.7,1.6.4-.8,1-1.3,1.7-1.6.7-.3,1.5-.2,2.1.2.9.5,1.9.7,2.9.9.3,0,.6.1.9.2.4,0,.8.3,1.1.5.1,0,.3.2.4.3.5.2.7.2.7.2,0,0,.2-.2.3-.4.1-.3.3-.6.5-.8,0,0,.2-.2.2-.3l.5-.7.6.6c.2.2.3.4.5.6l.6.6h0v-.5c0-.2,0-.5.1-.7.1-.3.6-.9,1.3-.9h.7c.9.2,1.9.2,2.9.5h.2c.3.1.7.2.9.2,0-.2.1-.6.2-1,0-.4.4-.6.5-.6h.3c0-.1.3-.1.3-.1.2,0,.5.1.6.3q.7.5,1,0c.6-.6,1.8-.7,2.4-.3.2.1.3.2.4.2,0,0,0-.2.2-.5,0-.3.2-.5.3-.7l.6-.9,1,.9c.4-.4.6-.7.9-1l.5-.5.5.5c1.4,1.3,1.5,4.7.6,6.3l.5.4ZM392.1,493.9c0-.3-.1-.5-.2-.8l-.2-1.4,1,.2c.4,0,.8.2,1.2.2v-.5c0-.4.1-.9.3-1.3l.4-.7.6.5c4,3,5.8,4.2,6.6,4.7h0l.8.4c.2.1.4.2.7.4l.5.3v.6c-.1.1.1.4.3.8.3.5.7,1,1,1.4.6.8,1.2,1.7,1.7,2.6.3.5.6,1.2.7,1.8,0,.3.2.5.3.8l.3.7-.7.3c-.3,0-.5.2-.7.2,0,.4.2.7.3,1,.2.7.5,1.4.7,2.2.4,1.1.8,2.3,1.2,3.4.1.5.1,1,0,1.6v1.5l-.8-.2c-.7-.2-1.2-.2-1.4,0-.3.2-.5.7-.7,1.7l-.2,1.1-1.7-1.2s-.2-.1-.3-.2c0,.4,0,1.2-.7,1.6-.6.4-1.4,0-1.7-.1v.2c-.1.6-.2,1.3-.3,2l-.3,1.6-2.4-2v1.7c-.1,0-1-.3-1-.3-.4-.1-.5-.1-.5-.1-.1,0-.2.6-.3.8,0,.2,0,.3-.1.5l-.3.9-1.4-.9c-.5-.3-.9-.6-1.4-.9,0,0-.1-.1-.2-.1h0c-.3.8-1.4,1-1.8,1s-.8-.3-1-.4c0,0-.2-.1-.3-.2-.3-.1-.7-.4-.9-.4,0,0-.3.5-.5.7-.1.2-.6.9-1.3,1-.7.1-1.2-.3-1.5-.6-.5-.4-1-.8-1.5-1.3s-.3-.3,0,0c-.1.6-.4.9-.7,1.1-.6.3-1.3-.1-1.4-.2-.2-.1-.5-.3-.6-.4-.1.2-.2.5-.3.7-.2.3-.2.6-.3.8-.3.9-.5,1.7-1.3,1.8-.7.2-1.3-.4-1.8-1-.2-.1-.3-.3-.4-.4l-.6-.6s-.2-.1-.3-.2c-.2.4-.4.6-.7.8-.5.3-1.1.3-1.8,0-.1,0-.2.1-.3.2-1,1.6-1.5,1.7-3,.9-.2,0-.3-.2-.4-.2-.8-.5-.8-.4-1.1,0-.4.5-1.1.4-1.4.2h-.2s0,.2-.1.3c0,.3-.1.5-.3.8l-.3.9-.6-.2c-.4,0-.7-.3-1.1-.5-.1-.1-.5-.3-.5-.3,0,0-.2,0-.3.3l-.2.4h-.5c-.9-.2-1.4,0-1.8,1l-.6,1.6-1.5-3.2c-.1.3-.3.7-.4,1l-1,2.1-.6-1.6c-.4-1-.9-1.2-1.8-1.1h-.5l-.2-.3c-.2-.3-.3-.3-.3-.3-.1,0-.4.2-.5.3-.3.2-.7.4-1.1.5l-.6.2-.3-.9c-.1-.3-.2-.6-.3-.8,0-.2,0-.3-.1-.3h-.1c-.4.2-1,.3-1.4-.2-.3-.4-.4-.4-1.1,0-.2,0-.3.2-.4.2-1.6.8-2,.7-3-.9,0,0-.1-.1-.3-.2-.7.3-1.3.3-1.8,0-.3-.2-.5-.4-.7-.8,0,0-.2.1-.3.2l-.5.5c-.1.2-.3.3-.4.5-.6.6-1.2,1.1-1.9,1-.7-.2-1-.9-1.3-1.8,0-.3-.2-.5-.3-.7-.1-.3-.2-.6-.3-.8-.2.1-.4.3-.6.4s-.8.5-1.4.2c-.4-.2-.6-.5-.7-1.1h0c-.5.4-1,.9-1.5,1.3-.3.3-.9.7-1.5.6-.7-.1-1.2-.8-1.3-1-.1-.2-.4-.7-.5-.7,0,0-.5.3-.8.4-.1,0-.2.1-.3.2-.3.2-.6.4-1,.4s-1.5-.1-1.8-.9h0c0-.1-.1-.1-.2,0-.4.3-.9.6-1.3.9l-1.5.9-.3-.9c0-.2,0-.3-.1-.5,0-.3-.2-.7-.3-.8h0s-.3,0-.5.1l-.9.4v-1c-.1-.3-.2-.5-.2-.8l-2.4,2-.2-1.7c-.1-.7-.2-1.3-.3-2v-.2c-.4.2-1.1.5-1.7.1s-.7-1.1-.7-1.6c0,0-.2.1-.2.2l-1.7,1.2-.2-1.1c-.2-1-.4-1.6-.7-1.7-.3-.1-.7-.1-1.4,0l-.9.2v-3.1c.3-1.1.7-2.3,1.2-3.4.3-.7.5-1.4.7-2.2.1-.3.2-.6.3-1-.2,0-.4-.1-.7-.2l-.7-.3.3-.7c.1-.3.2-.5.3-.8.2-.6.4-1.2.7-1.8.5-.9,1.1-1.8,1.7-2.6.3-.4.6-.9,1-1.4.3-.4.5-.7.5-.8l-.2-.6.7-.3c.2-.1.4-.2.5-.3l.8-.5h0c.8-.4,2.6-1.7,6.6-4.6l.7-.5.4.7c.2.4.3.8.3,1.3v.5c.4,0,.7-.1,1.2-.2l1-.2-.2,1.4c0,.3,0,.6-.2.9v.3c.3,0,.5.1.8.3.3.2.6.6.7,1.1h.3c1.2-.1,2.4-.3,3.6-.5l1.5-.2v.9c-.2.3-.3.7-.3,1.1.5-.2,1.8-.6,2.6.8h.4c.2,0,.5-.2.8-.3.2-.1.4-.2.6-.3l.8-.4.3,1.6c0,.4.1.8.2,1.2h0c.6-.4,1-.8,1.6-1.3l2-1.6.2,3.7c.1.5,1.8,1.4,2.3,1.3.1,0,.3-.1.4-.2.7-.3,2-.8,3,.5q.7.9,0,0h1c.6,0,1.1-.2,1.7,0,.5,0,.9.3,1.3.4.5.2.9.3,1.4.3s.6,0,.9.1c.7.1.9.1,1.1-.1l.2-.2h.3c.5-.1,1.1.3,1.1.4.3.2.5.4.6.7.2.3.4.6.6.8.2-.2.4-.5.6-.8s.4-.5.7-.8c0,0,.7-.4,1.1-.4h.3l.2.3c.2.2.4.2,1.1,0,.3,0,.6-.1.9-.1s.9-.2,1.4-.3c.4-.1.8-.3,1.4-.4h2.7q0,0,0,0c1-1.3,2.2-.7,3-.5.1,0,.3.1.4.2.5,0,2.2-.8,2.3-1.3l.2-3.6,2,1.6c.5.4,1.1.9,1.6,1.3q.3.3,0,0h0c0-.4.1-.8.2-1.2l.3-1.6.8.4c.2.1.5.2.6.3.3.1.6.3.9.3h.3c.8-1.4,2.1-1,2.6-.8,0-.4-.1-.8-.1-1.1v-.9c-.1,0,1.3.2,1.3.2,1.2.2,2.4.3,3.6.5h.3c.1-.5.3-.9.7-1.1.3-.2.5-.3.8-.3v-.3h-.4ZM397.3,455.5c-.2.6-.5,1.2-1,1.5-.6.3-1.3.3-2,.1h-1.8l-.2-1.6c0-.4-.1-.8-.2-1.2-.3.5-.6,1-1,1.6l-.6.9-.6-.9c-.5-.7-.8-1.2-1.1-1.6h0l-.5-.2c-.5-.1-.9-.2-1.4-.3-.4.4-.9.9-1.4,1.5l-.9.9-1.3-4c-.2.4-.5.7-.7,1l-1.8,2.6-1.6-3.9-2.1,3.2-.5-1.3c-.3-.7-.6-1.4-.9-2.1-.7.6-1.3,1.2-2,1.9l-.7.6-1.6-2.8c-.4.5-.8,1-1.2,1.6l-.4.6-.6-.5-.3-.3c-.3-.2-.6-.4-.8-.7-.5-.6-.8-.9-1.2-.9s-.7.1-1.1.4c-.8.6-2.3-.4-2.3-.4-.3-.1-.4-.4-.6-.6l-.4.5c0,.1-.2.3-.4.6l-.6.7-1.2-1.6c0-.1-.1-.2-.3-.3h-.5c0,.1-.1.2-.3.3l-1.2,1.6-.6-.7c-.2-.3-.3-.5-.4-.7l-.4-.4c-.2.2-.4.5-.6.7,0,0-.9.6-1.7.6s-.4,0-.6-.2c-.4-.3-.8-.5-1.1-.4-.3,0-.7.3-1.1.9-.3.3-.6.5-.8.7-.1,0-.2.1-.3.3l-.6.5-.4-.6c-.4-.5-.8-1-1.2-1.6l-1.6,2.8-.7-.6c-.7-.7-1.3-1.3-2-1.9-.3.7-.6,1.3-.8,2.1l-.5,1.3-2.2-3.2-1.6,3.9-1.8-2.6c-.2-.3-.5-.7-.7-1l-1.3,4-.8-.9c-.6-.7-1.1-1.2-1.4-1.5-.5.1-1,.2-1.4.3h-.5c-.3.5-.6,1-1.2,1.7l-.6.9-.5-.9c-.4-.6-.7-1.1-1-1.6,0,.3,0,.7-.1,1l-.3,1.8h-.7c-.2-.1-.4-.1-.6-.2h-.4c-.7.2-1.4.2-2-.1-.5-.3-.9-.8-1.1-1.5-.2-.8,0-2,.5-2.9l.4-.7c1.4-2.2,2.7-4.5,5.4-5.8.4-.2.8-.6,1.2-1.1l.3-.3c.1-.2.3-.3.4-.5l.4-.4c.6-.7,1.3-1.4,2.1-2,.5-.4,1.3-.8,2-.6.3,0,.7,0,1.2-.3.7-.3,1.6-.6,2.5-.1h0c1.1-1.3,2.9-2.4,5.4-.9,1-1.6,2.9-2.1,4.3-1.7,1.1.3,1.3.1,1.9-.6,1-1.3,2.6-1.4,4-.5.1.2.3.3.5.4.3.3.6.3.8.2.3-.2.7-.4,1-.5.4-.2.7-.3,1-.5.7-.7,1.4-1.1,2.1-1.2h.2c.7,0,1.3.5,2.1,1.2.2.2.6.4,1,.5.3.2.7.3,1,.5.3.1.5,0,.8-.2.2-.2.3-.3.5-.4,1.4-1,3-.8,4,.5.5.7.7.8,1.9.6,1.5-.4,3.3.2,4.3,1.7,2.4-1.5,4.2-.4,5.4.9.3-.1.6-.2.9-.2.5,0,1.1.2,1.6.4.5.2.9.3,1.2.3.7-.2,1.6.2,2,.6.7.6,1.4,1.3,2.1,2l.4.4c.1.1.3.3.4.5l.3.3c.4.5.8.9,1.2,1.1,2.7,1.3,4,3.5,5.4,5.7l.5.7c.5.8.7,2,.4,2.9v.2ZM410.3,459c-1.6.4-3.3,0-5.3-1.2,4.6-3.6,9.9-4.7,15.4-5.9,2.7-.5,5.4-1.1,8-2v.5c.1.7.2,1.4.4,2,.3.7.3,1.2.1,1.5-.2.3-.6.5-1.3.7-2.1.5-4.2,1.1-6.3,1.6-3.7.9-7.5,1.9-11.2,2.8h.2ZM427.5,466.1l-.5.2c-.7.2-1.7.6-2.1.4-2.2-.9-4.5-2-6.6-3-.5-.3-1.1-.5-1.7-.8,0,0,.1,0,.2-.1.6-.3,1.1-.5,1.7-.7,15.6-4.1,28.3-8.3,39.8-12.9.9-.3,1.4-.2,2.2.6,1.6,1.6,3.3,3.1,5,4.5l1.4,1.2c.4.4.9.7,1.4,1.2h-.2c-5.3,1.2-10.2,3.2-15,6.2-1.2.7-3,1.1-4.5.9-6.6-.9-13.3-.2-21.3,2.4h.2ZM458,479.4l-.4.2c-1.7.8-3.5,1.6-5.3,1.9-3.5.6-6.9-.6-9.6-1.8-.9-.4-1.8-.8-2.8-1.2-3.5-1.4-6.8-2.8-9-5.9-.5-.7-1.3-1.6-1.5-2,.4-.2,1.7-.4,2.3-.5,5.4-.8,10.6-1.3,15.6-1.7,1.1,0,2.7.5,3.5,1.4,1.6,1.6,3.1,3.4,4.6,5.1.9,1.1,1.8,2.1,2.8,3.2.3.3.5.6.4.8,0,.1-.2.3-.5.4h0ZM494.5,463.5c-1.2,1-2.3,2.1-3.5,3.1-2.7,2.4-5.4,4.9-8.4,6.9-4.6,3-11.7,5.7-18.9,1.2-1.8-1.1-3.2-3-4.5-4.8-.5-.7-1-1.3-1.5-2,0-.2.2-.6.3-.6.4-.3.7-.5,1-.8,1.4-1,2.9-2.1,4.5-2.8,8.6-3.7,16-4.4,23.3-2.3,1.9.5,3.8,1,5.8,1.4.7.2,1.3.3,2,.5,0,0,0,.1,0,.2h0ZM508.6,449.4c-.5,1.1-1.2,2.2-1.8,3.3-1.7,2.8-4.1,4.2-7.8,4.4-6.5.4-13.2-.7-21.6-3.6-4.3-1.5-7.3-3.5-9.6-6.4-.5-.5-.6-.8-.6-.9s.2-.4.9-.7c1.9-.7,3.7-1.5,5.5-2.3,2.4-1,4.9-2,7.4-3,2.8-1.1,5.5-1.6,8.2-1.6s2.1,0,3.1.2h.6c4.7.7,9,1.4,13.2,3.5s3.5,2.3,3.5,3.8-.3,1.9-1,3.2h0ZM535.3,399.3c-.5,5.3-1,9.9-1.5,14.2,0,.3-.2.6-.3.9-2.1-1.4-4.1-2.9-6.2-4.3l-4.7-3.3h.2c1.3-.9,2.7-1.8,4.2-2.6,2.6-1.6,4-3.5,4.6-6,.3-1.3.5-1.6.6-1.6s.6,0,1.7.5c1.1.5,1.5,1.3,1.4,2.3h0Z"/>
      <path class="cls-4" d="M433.5,440s0,.2-.1.3c-.4,1.2-.7,2.2-1.1,3.2-.2.5-.7.9-1,1-7.8,2-14.8,3.6-21.4,5.2h-1.3c5.1-1.9,10.2-3.9,15.4-5.9l9.5-3.6v-.2Z"/>
      <path class="cls-4" d="M468.5,456.6h-.2c-5.3,1.2-10.2,3.2-15,6.2-1.2.7-3,1.1-4.5.9-6.6-.9-13.3-.2-21.3,2.4l-.5.2c-.7.2-1.7.6-2.1.4-2.2-.9-4.5-2-6.6-3-.5-.3-1.1-.5-1.7-.8,0,0,.1,0,.2-.1.6-.3,1.1-.5,1.7-.7,15.6-4.1,28.3-8.3,39.8-12.9.9-.3,1.4-.2,2.2.6,1.6,1.6,3.3,3.1,5,4.5l1.4,1.2c.4.4.9.7,1.4,1.2h.2Z"/>
      <path class="cls-4" d="M504,416.7v.6c-.2,2.9-.9,3.6-4,3.8h-.4c-7,.5-14.3,1-21,4.4h-.7c-.8-.9-1.2-2.5-1.1-4.2.2-2.2,1.2-4.2,2.6-5.4l.4-.2c.6-.2,1.4-.4,2.2-.7,1.4-.4,2.9-.8,4.4-1.2,2.4-.7,4.9-1.3,7.3-2,1.6-.5,3.2-1.1,4.7-1.6.9-.3,1.9-.7,2.8-1,.6-.2,1.1-.3,1.4,0,.3.2.5.5.5,1.1s.2,1.2.3,1.8c.2,1.6.4,3.2.4,4.7h.2Z"/>
      <path class="cls-4" d="M472.5,415.5c0,.8-.6,1.7-2.3,3.2-.3.3-.5.5-.8.7l-.3.3c-4.1,3.5-9,4.9-14.2,6.4-1.5.4-3,.9-4.5,1.4.3-.3.5-.6.7-1,1-1.3,1.9-2.6,2.7-4,1.8-3.1,3.2-5.8,4.2-8.6.5-1.5.9-2.5,2.2-3.2.7-.4,1.4-.8,2-1.1,1-.6,2-1.1,3-1.7q.6-.3,1.2.4l.4.4c1,1.3,2,2.6,3.3,3.6,1.7,1.4,2.4,2.4,2.4,3.1h0Z"/>
      <path class="cls-4" d="M465.8,440.1c-10.2,4.4-20.9,8.9-32,12.7,0-.2,0-.4-.1-.6-.1-.8-.2-1.5-.4-2.1,0-.3-.2-.7,0-.9.1-.2.4-.3.9-.5,1.1-.3,2.2-.6,3.2-1,.6-.2,1.3-.4,2-.6l5.1-1.5c5.4-1.6,11-3.2,16.5-4.7,1.6-.4,3.3-.6,4.9-.8h-.1Z"/>
      <path class="cls-4" d="M429.1,453.9c-.2.3-.6.5-1.3.7-2.1.5-4.2,1.1-6.3,1.6-3.7.9-7.5,1.9-11.2,2.8-1.6.4-3.3,0-5.3-1.2,4.6-3.6,9.9-4.7,15.4-5.9,2.7-.5,5.4-1.1,8-2v.5c.1.7.2,1.4.4,2,.3.7.3,1.2.1,1.5h.2Z"/>
      <path class="cls-4" d="M449.8,416.4c-.1.4-.3.8-.4,1.1-3.5,7.8-9.5,13.9-17.9,18.1-4.4,2.2-9.2,4-13.7,5.7-2,.8-4,1.5-5.9,2.3h0c2.7-4,5.4-6.7,8.5-8.7,6.1-3.9,12.2-7.7,18.2-11.5l5.7-3.6c1.9-1.2,3.7-2.4,5.6-3.6v.2Z"/>
      <path class="cls-4" d="M472.8,431.6c0,1.2-.6,1.4-2.5,1.9-7.1,1.9-14.2,3.7-21.3,5.6l-10.5,2.8h0c1.2-4.6,4.2-7.1,9.9-8.6,5.2-1.3,10.6-3.1,17.1-5.4,1.6-.6,3-1.5,4.5-2.5.5-.3,1-.6,1.5-1,0,.4.2.7.3,1,.4,1.6.8,3,1,4.5,0,.6.2,1.1.2,1.4l-.2.3Z"/>
      <path class="cls-4" d="M525,398c-.4.7-1,1.4-1.8,2-3.5,2.5-7.2,3.6-11.1,3.3-6.1-.5-12.5.3-20.1,2.6-4.3,1.3-8.8,2.3-13.4,2.9-2.8.4-5-.9-7-4.2.2-.1.4-.2.7-.4.7-.4,1.4-.8,2.1-1.1,3.3-1.3,6.6-2.6,9.9-3.7l1.4-.6c12.6-4.7,25.3-5.9,37.7-3.7.9.2,1.6.5,1.8,1,.3.5,0,1.3-.3,1.8h0Z"/>
      <path class="cls-4" d="M535.3,399.3c-.5,5.3-1,9.9-1.5,14.2,0,.3-.2.6-.3.9-2.1-1.4-4.1-2.9-6.2-4.3l-4.7-3.3h.2c1.3-.9,2.7-1.8,4.2-2.6,2.6-1.6,4-3.5,4.6-6,.3-1.3.5-1.6.6-1.6s.6,0,1.7.5c1.1.5,1.5,1.3,1.4,2.3h0Z"/>
      <path class="cls-4" d="M529.3,427.2c-1.4,2.5-2.2,2.9-4.9,2.6-3.9-.4-7.2-2.2-10.7-4l-1.3-.7c-2.3-1.2-3-2.7-2.6-5.2.6-3.6.8-7.8-1.3-11.6h.9c1.2,0,2.3.2,3.3.3,5.8,1,10.4,4.7,14.4,7.9,5.7,4.5,5.2,5.7,2.3,10.8h-.1Z"/>
      <path class="cls-4" d="M523.2,435.2c-.2.2-.5.4-.7.6-4.6,2.8-9.4,3.2-14.4,1.2-8.2-3.3-16.5-4.1-24.4-4.4h-4.9c.2-1.3,1.2-1.9,2.8-2.5,5.9-2.1,12.5-3.4,20.2-3.8,1.4-.1,2.9.7,4.2,1.4s2.6,1.4,3.8,2.1c1.7,1,3.4,2,5.3,2.9,2,.9,4,1.5,6.2,2.2.6.2,1.3.4,1.9.6v-.3Z"/>
      <path class="cls-4" d="M509.6,446.2c0,.9-.3,1.9-1,3.2-.5,1.1-1.2,2.2-1.8,3.3-1.7,2.8-4.1,4.2-7.8,4.4-6.5.4-13.2-.7-21.6-3.6-4.3-1.5-7.3-3.5-9.6-6.4-.5-.5-.6-.8-.6-.9s.2-.4.9-.7c1.9-.7,3.7-1.5,5.5-2.3,2.4-1,4.9-2,7.4-3,2.8-1.1,5.5-1.6,8.2-1.6s2.1,0,3.1.2h.6c4.7.7,9,1.4,13.2,3.5s3.5,2.3,3.5,3.8h0Z"/>
      <path class="cls-4" d="M494.6,463.3s0,.1,0,.2c-1.2,1-2.3,2.1-3.5,3.1-2.7,2.4-5.4,4.9-8.4,6.9-4.6,3-11.7,5.7-18.9,1.2-1.8-1.1-3.2-3-4.5-4.8-.5-.7-1-1.3-1.5-2,0-.2.2-.6.3-.6.4-.3.7-.5,1-.8,1.4-1,2.9-2.1,4.5-2.8,8.6-3.7,16-4.4,23.3-2.3,1.9.5,3.8,1,5.8,1.4.7.2,1.3.3,2,.5h0Z"/>
      <path class="cls-4" d="M458.5,478.9c0,.1-.2.3-.5.4l-.4.2c-1.7.8-3.5,1.6-5.3,1.9-3.5.6-6.9-.6-9.6-1.8-.9-.4-1.8-.8-2.8-1.2-3.5-1.4-6.8-2.8-9-5.9-.5-.7-1.3-1.6-1.5-2,.4-.2,1.7-.4,2.3-.5,5.4-.8,10.6-1.3,15.6-1.7,1.1,0,2.7.5,3.5,1.4,1.6,1.6,3.1,3.4,4.6,5.1.9,1.1,1.8,2.1,2.8,3.2.3.3.5.6.4.8h0Z"/>
      <path class="cls-4" d="M269.6,427.5c-1.5-.5-3-.9-4.5-1.4-5.2-1.5-10-2.9-14.2-6.5l-.3-.3c-.3-.2-.5-.4-.8-.7-1.6-1.5-2.3-2.4-2.2-3.2,0-.7.7-1.7,2.4-3.1,1.3-1.1,2.3-2.4,3.3-3.6l.4-.5c.3-.4.5-.6.6-.6s.3,0,.5.2c1,.6,2,1.2,3.1,1.7.7.4,1.3.7,2,1.1,1.2.7,1.6,1.7,2.1,3.2,1,2.9,2.4,5.5,4.2,8.6.8,1.4,1.8,2.7,2.7,4,.2.3.5.6.7,1h0Z"/>
      <path class="cls-4" d="M281.5,441.9l-10.5-2.8c-7.1-1.9-14.2-3.8-21.3-5.6-2-.5-2.5-.7-2.5-1.9s0-.8.1-1.4c.2-1.5.6-2.9,1-4.5.1-.3.2-.7.3-1,.5.3,1,.7,1.5,1,1.5,1,2.9,1.9,4.5,2.5,6.5,2.3,11.9,4,17.1,5.4,5.7,1.5,8.7,4,9.9,8.4h0c0,.1-.1-.1-.1-.1Z"/>
      <path class="cls-4" d="M308.3,443.7h0c-2-.8-3.9-1.5-5.9-2.3-4.6-1.7-9.3-3.5-13.8-5.7-8.4-4.2-14.4-10.3-17.9-18.1-.1-.3-.3-.7-.4-1.1,1.8,1.2,3.7,2.4,5.6,3.6l5.6,3.5c6.1,3.9,12.2,7.7,18.3,11.6,3.1,2,5.8,4.7,8.6,8.7v-.2Z"/>
      <path class="cls-4" d="M311.4,449.6c-.5,0-.9.1-1.3,0-6.6-1.5-13.6-3.2-21.4-5.2-.3,0-.8-.5-1-1-.4-.9-.7-1.9-1.1-3.1v-.3l9.6,3.7c5.2,2,10.2,3.9,15.3,5.9h-.1Z"/>
      <path class="cls-4" d="M286.8,450.1c-.2.7-.3,1.3-.4,2.1,0,.2,0,.4-.1.6-11.2-3.9-21.9-8.3-32-12.7,1.6.2,3.3.4,4.9.8,5.5,1.5,11.1,3.2,16.5,4.7l5.1,1.5c.7.2,1.3.4,2,.6,1,.3,2.1.7,3.2,1,.5.1.8.3.9.5s0,.6,0,.9h-.1Z"/>
      <path class="cls-4" d="M315,457.7c-2,1.2-3.6,1.6-5.3,1.2-3.7-.9-7.6-1.9-11.2-2.8-2.1-.6-4.2-1.1-6.3-1.6-.7-.2-1.2-.4-1.3-.7-.2-.3-.1-.8,0-1.5.2-.6.3-1.3.4-2v-.5c2.6.9,5.4,1.5,8,2,5.6,1.1,10.8,2.2,15.4,5.9h.3Z"/>
      <path class="cls-4" d="M303.3,462.8c-.5.3-1.1.5-1.7.8-2.2,1-4.3,2.1-6.6,3-.4.2-1.4-.2-2.1-.4l-.5-.2c-5.8-1.9-11-2.8-15.9-2.8s-3.7.1-5.4.4c-1.5.2-3.3-.2-4.5-.9-4.9-3-9.8-5-15-6.2h-.2c.5-.4,1-.8,1.4-1.2l1.4-1.2c1.7-1.5,3.4-2.9,5-4.5s1.3-.9,2.2-.6c11.6,4.7,24.2,8.8,39.8,12.9.5.2,1.1.4,1.7.7,0,0,.2,0,.2.1h.2Z"/>
      <path class="cls-4" d="M290.6,470.6c-.2.4-1,1.3-1.5,2h0c-2.1,3.1-5.4,4.4-8.9,5.9-.9.4-1.9.7-2.8,1.2-2.8,1.3-6.1,2.5-9.6,1.8-1.8-.3-3.6-1.1-5.3-1.9l-.4-.2c-.3-.2-.5-.3-.5-.4,0-.2.1-.5.4-.8,1-1.1,1.9-2.1,2.8-3.2,1.5-1.7,3-3.5,4.6-5.1s2.3-1.4,3.3-1.4h.2c5,.3,10,.9,15.5,1.7.6,0,1.9.3,2.3.5h-.1Z"/>
      <path class="cls-4" d="M262.3,467.9c-.5.6-1,1.3-1.5,2-1.4,1.8-2.8,3.7-4.5,4.8-7.3,4.5-14.3,1.8-18.9-1.2-3-2-5.7-4.4-8.4-6.9-1.2-1-2.4-2.1-3.5-3.1,0,0,0-.1-.1-.2.7-.2,1.3-.3,2-.5,2-.4,3.9-.9,5.8-1.4,7.3-2.2,14.7-1.4,23.3,2.3,1.6.7,3.1,1.7,4.5,2.8.4.3.7.5,1,.8.1,0,.3.5.3.6h0Z"/>
      <path class="cls-4" d="M252.8,446.3s0,.4-.7.9c-2.3,2.9-5.3,4.9-9.5,6.3-8.4,2.9-15,4-21.6,3.6-3.7-.2-6.2-1.7-7.8-4.4-.6-1-1.3-2.1-1.9-3.3-1.8-3.6-1.2-5.1,2.5-7,4.1-2.1,8.5-2.7,13.2-3.4h.6c3.8-.6,7.5-.2,11.3,1.3,2.5,1,4.9,2,7.4,3,1.8.8,3.7,1.5,5.5,2.3.7.3.9.6.9.7h.1Z"/>
      <path class="cls-4" d="M241.1,432.4h-.9c-1.4,0-2.7,0-4,.1-7.9.4-16.3,1.1-24.4,4.4-5,2-9.9,1.6-14.4-1.2-.3-.1-.5-.3-.7-.6.6-.2,1.3-.4,1.9-.6,2.1-.7,4.2-1.3,6.2-2.2,1.8-.9,3.6-1.9,5.3-2.9,1.3-.7,2.5-1.4,3.8-2.1,1.4-.7,2.9-1.5,4.2-1.4,7.8.4,14.4,1.7,20.3,3.8,1.6.6,2.6,1.2,2.7,2.5v.2Z"/>
      <path class="cls-4" d="M197.4,406.7c-1.7,1.2-3.3,2.4-5,3.5-1.9,1.4-3.9,2.8-5.9,4.2-.2-.3-.3-.6-.3-.9-.5-4.2-1-8.9-1.5-14.2,0-1,.4-1.8,1.5-2.3.9-.4,1.4-.6,1.6-.6s0,0,.1,0,.3.4.6,1.6c.5,2.5,2,4.4,4.6,6,1.4.8,2.8,1.7,4.2,2.6h.2-.1Z"/>
      <path class="cls-4" d="M242.2,425.5h-.7c-6.7-3.4-14-3.9-21-4.3h-.4c-3.1-.3-3.8-.9-4-3.9-.1-1.7.2-3.6.5-5.4,0-.6.1-1.2.2-1.8,0-.5.3-.9.5-1.1.2,0,.3-.1.6-.1s.6,0,.9.2c.9.3,1.9.7,2.8,1,1.5.6,3.1,1.2,4.7,1.6,2.4.7,4.9,1.4,7.3,2,1.5.4,2.9.8,4.4,1.2.9.2,1.7.5,2.4.7h.3c1.4,1.3,2.4,3.3,2.6,5.5.2,1.7-.3,3.3-1.1,4.2v.2Z"/>
      <path class="cls-4" d="M210.3,419.8c.4,2.5-.3,4-2.6,5.2l-1.4.7c-3.5,1.8-6.8,3.6-10.7,4-2.7.3-3.5,0-4.9-2.6-3-5-3.4-6.3,2.3-10.8,4-3.2,8.6-6.8,14.4-7.9,1.1-.2,2.1-.3,3.3-.3h.9c-2.1,3.9-1.8,8-1.3,11.6h0Z"/>
      <path class="cls-4" d="M248.4,404.6c-2,3.2-4.2,4.5-7,4.2-4.6-.7-9.2-1.7-13.4-2.9-6.1-1.9-11.4-2.7-16.4-2.7s-2.4,0-3.6.1c-3.9.3-7.6-.7-11.1-3.3-.7-.5-1.4-1.3-1.8-2-.3-.5-.6-1.3-.3-1.8.2-.5.9-.8,1.8-1,12.5-2.3,25.2-1,37.8,3.7l1.4.6c3.3,1.2,6.6,2.4,9.9,3.7.7.3,1.4.7,2.1,1.1.2.1.5.2.6.3h0Z"/>
      <path class="cls-4" d="M397.3,455.5c-.2.6-.5,1.2-1,1.5-.6.3-1.3.3-2,.1h-1.8l-.2-1.6c0-.4-.1-.8-.2-1.2-.3.5-.6,1-1,1.6l-.6.9-.6-.9c-.5-.7-.8-1.2-1.1-1.6h0l-.5-.2c-.5-.1-.9-.2-1.4-.3-.4.4-.9.9-1.4,1.5l-.9.9-1.3-4c-.2.4-.5.7-.7,1l-1.8,2.6-1.6-3.9-2.1,3.2-.5-1.3c-.3-.7-.6-1.4-.9-2.1-.7.6-1.3,1.2-2,1.9l-.7.6-1.6-2.8c-.4.5-.8,1-1.2,1.6l-.4.6-.6-.5-.3-.3c-.3-.2-.6-.4-.8-.7-.5-.6-.8-.9-1.2-.9s-.7.1-1.1.4c-.8.6-2.3-.4-2.3-.4-.3-.1-.4-.4-.6-.6l-.4.5c0,.1-.2.3-.4.6l-.6.7-1.2-1.6c0-.1-.1-.2-.3-.3h-.5c0,.1-.1.2-.3.3l-1.2,1.6-.6-.7c-.2-.3-.3-.5-.4-.7l-.4-.4c-.2.2-.4.5-.6.7,0,0-.9.6-1.7.6s-.4,0-.6-.2c-.4-.3-.8-.5-1.1-.4-.3,0-.7.3-1.1.9-.3.3-.6.5-.8.7-.1,0-.2.1-.3.3l-.6.5-.4-.6c-.4-.5-.8-1-1.2-1.6l-1.6,2.8-.7-.6c-.7-.7-1.3-1.3-2-1.9-.3.7-.6,1.3-.8,2.1l-.5,1.3-2.2-3.2-1.6,3.9-1.8-2.6c-.2-.3-.5-.7-.7-1l-1.3,4-.8-.9c-.6-.7-1.1-1.2-1.4-1.5-.5.1-1,.2-1.4.3h-.5c-.3.5-.6,1-1.2,1.7l-.6.9-.5-.9c-.4-.6-.7-1.1-1-1.6,0,.3,0,.7-.1,1l-.3,1.8h-.7c-.2-.1-.4-.1-.6-.2h-.4c-.7.2-1.4.2-2-.1-.5-.3-.9-.8-1.1-1.5-.2-.8,0-2,.5-2.9l.4-.7c1.4-2.2,2.7-4.5,5.4-5.8.4-.2.8-.6,1.2-1.1l.3-.3c.1-.2.3-.3.4-.5l.4-.4c.6-.7,1.3-1.4,2.1-2,.5-.4,1.3-.8,2-.6.3,0,.7,0,1.2-.3.7-.3,1.6-.6,2.5-.1h0c1.1-1.3,2.9-2.4,5.4-.9,1-1.6,2.9-2.1,4.3-1.7,1.1.3,1.3.1,1.9-.6,1-1.3,2.6-1.4,4-.5.1.2.3.3.5.4.3.3.6.3.8.2.3-.2.7-.4,1-.5.4-.2.7-.3,1-.5.7-.7,1.4-1.1,2.1-1.2h.2c.7,0,1.3.5,2.1,1.2.2.2.6.4,1,.5.3.2.7.3,1,.5.3.1.5,0,.8-.2.2-.2.3-.3.5-.4,1.4-1,3-.8,4,.5.5.7.7.8,1.9.6,1.5-.4,3.3.2,4.3,1.7,2.4-1.5,4.2-.4,5.4.9.3-.1.6-.2.9-.2.5,0,1.1.2,1.6.4.5.2.9.3,1.2.3.7-.2,1.6.2,2,.6.7.6,1.4,1.3,2.1,2l.4.4c.1.1.3.3.4.5l.3.3c.4.5.8.9,1.2,1.1,2.7,1.3,4,3.5,5.4,5.7l.5.7c.5.8.7,2,.4,2.9v.2Z"/>
      <path class="cls-4" d="M389.6,568.2l-.3.6-.6-.3.3-.6-.4.6c-.2,0-.4-.1-.5-.4,0,0-.2-.1-.2-.2,0,0,0,.1-.2.3-.1.3-.4.6-.6.8,0,0-.1.1-.2.1-.1.2-.3.3-.4.4-.2.2-.4.5-.6.7,0,.1-.1.3-.2.6,0,.1,0,.3-.1.5l-.4,1.3-.9-1c-.4-.5-.8-1-1.2-1.4,0,.2,0,.3-.1.5,0,.4-.1.8-.2,1.3-.1.7-.2,1.5-.3,2.2,0,.4-.3.8-.5,1.1l-.2.2c-.1.2-.3.4-.4.5-.2.2-.3.4-.3.5-.2.7-.3,1.4-.3,2.2s-.2,1.1-.7,1.5-1.1.3-1.6.2c-.4,0-1-.2-1.1-.2s-.3.6-.5,1c-.2.6-.9,2-2.7,1.5-.4,0-.6,0-.8.5-.2.6-.6,1.1-1,1.4-.3.3-.7.4-1.2.6-.1,0-.3.1-.5.2l-.4.2-.8-.6c-.3-.2-.7-.5-1-.7q-.2-.1,0,0c-.2.8-.7,2.4-2.7,2.6h-.1c-.2.3-.6.4-1,.4s-.8-.2-1.3-.7-.5-.7-.7-.9l-.9.9-.5.6-.5-.7c-.3-.3-.4-.5-.5-.7,0,0-.2-.2-.2-.3l-.3.2-.3-.2s-.2.2-.2.3c-.1.2-.3.4-.5.7l-.5.7-.6-.6c-.3-.3-.6-.7-.8-.9-.2.2-.4.5-.7.8-.9,1.1-1.8.7-2.2.4h-.1c-2.1-.3-2.6-2-2.7-2.6h0c-.3.3-.7.6-1,.8l-.8.6-.4-.2c-.2-.1-.4-.2-.5-.2-.5-.2-.8-.4-1.2-.6-.4-.4-.8-.9-1-1.4-.2-.6-.4-.6-.8-.5-1.8.5-2.4-1-2.7-1.5-.2-.3-.4-.9-.6-1-.1,0-.7.1-1.1.2-.5.1-1.1.2-1.6-.2-.6-.4-.6-1-.7-1.5,0-.7-.1-1.5-.3-2.2,0-.1-.2-.3-.3-.5-.1-.2-.3-.3-.4-.5l-.2-.3c-.2-.3-.4-.7-.5-1.1-.2-.7-.2-1.4-.3-2.2,0-.4-.1-.8-.2-1.3v-.5c-.4.4-.7.9-1.2,1.4l-.8,1-.4-1.3c0-.2,0-.3-.1-.5-.1-.3-.2-.5-.3-.6-.2-.3-.4-.5-.6-.8l-.3-.4s-.1-.1-.2-.1c-.2-.2-.5-.4-.6-.8,0-.1-.1-.2-.2-.3l-.2.2c-.2.2-.4.3-.5.3l-.6.3-.4-.6c-.9-1.6-.8-5,.6-6.3l.6-.5,1.4,1.6h0l1-1,.6.9c.1.2.3.4.4.7,0,.3.2.4.2.4,0,0,.1,0,.3-.2.6-.3,1.9-.2,2.4.3q.3.4,1-.1c.2-.1.4-.2.5-.2h.6c.1,0,.5.3.5.8s.1.7.2.9c.2,0,.6-.1.9-.2h.2c.9-.3,1.9-.4,2.9-.5h.6c.7,0,1.2.6,1.3.9.2.3.2.5.2.7v.5q0,0,0,0l.6-.6c.1-.2.3-.4.5-.6l.6-.6.5.7.3.3c.2.2.4.4.5.7,0,.2.2.4.3.4,0,0,.2,0,.7-.2.1,0,.3-.2.4-.3.3-.2.7-.4,1.1-.5.3,0,.6-.1.9-.2,1-.2,2-.4,2.9-.9.6-.4,1.4-.4,2.1-.2.7.3,1.3.8,1.7,1.6.4-.8,1-1.3,1.7-1.6.7-.3,1.5-.2,2.1.2.9.5,1.9.7,2.9.9.3,0,.6.1.9.2.4,0,.8.3,1.1.5.1,0,.3.2.4.3.5.2.7.2.7.2,0,0,.2-.2.3-.4.1-.3.3-.6.5-.8,0,0,.2-.2.2-.3l.5-.7.6.6c.2.2.3.4.5.6l.6.6h0v-.5c0-.2,0-.5.1-.7.1-.3.6-.9,1.3-.9h.7c.9.2,1.9.2,2.9.5h.2c.3.1.7.2.9.2,0-.2.1-.6.2-1,0-.4.4-.6.5-.6h.3c0-.1.3-.1.3-.1.2,0,.5.1.6.3q.7.5,1,0c.6-.6,1.8-.7,2.4-.3.2.1.3.2.4.2,0,0,0-.2.2-.5,0-.3.2-.5.3-.7l.6-.9,1,.9c.4-.4.6-.7.9-1l.5-.5.5.5c1.4,1.3,1.5,4.7.6,6.3l.5.4Z"/>
      <path class="cls-4" d="M409.1,513v1.5l-.8-.2c-.7-.2-1.2-.2-1.4,0-.3.2-.5.7-.7,1.7l-.2,1.1-1.7-1.2s-.2-.1-.3-.2c0,.4,0,1.2-.7,1.6-.6.4-1.4,0-1.7-.1v.2c-.1.6-.2,1.3-.3,2l-.3,1.6-2.4-2v1.7c-.1,0-1-.3-1-.3-.4-.1-.5-.1-.5-.1-.1,0-.2.6-.3.8,0,.2,0,.3-.1.5l-.3.9-1.4-.9c-.5-.3-.9-.6-1.4-.9,0,0-.1-.1-.2-.1h0c-.3.8-1.4,1-1.8,1s-.8-.3-1-.4c0,0-.2-.1-.3-.2-.3-.1-.7-.4-.9-.4,0,0-.3.5-.5.7-.1.2-.6.9-1.3,1-.7.1-1.2-.3-1.5-.6-.5-.4-1-.8-1.5-1.3s-.3-.3,0,0c-.1.6-.4.9-.7,1.1-.6.3-1.3-.1-1.4-.2-.2-.1-.5-.3-.6-.4-.1.2-.2.5-.3.7-.2.3-.2.6-.3.8-.3.9-.5,1.7-1.3,1.8-.7.2-1.3-.4-1.8-1-.2-.1-.3-.3-.4-.4l-.6-.6s-.2-.1-.3-.2c-.2.4-.4.6-.7.8-.5.3-1.1.3-1.8,0-.1,0-.2.1-.3.2-1,1.6-1.5,1.7-3,.9-.2,0-.3-.2-.4-.2-.8-.5-.8-.4-1.1,0-.4.5-1.1.4-1.4.2h-.2s0,.2-.1.3c0,.3-.1.5-.3.8l-.3.9-.6-.2c-.4,0-.7-.3-1.1-.5-.1-.1-.5-.3-.5-.3,0,0-.2,0-.3.3l-.2.4h-.5c-.9-.2-1.4,0-1.8,1l-.6,1.6-1.5-3.2c-.1.3-.3.7-.4,1l-1,2.1-.6-1.6c-.4-1-.9-1.2-1.8-1.1h-.5l-.2-.3c-.2-.3-.3-.3-.3-.3-.1,0-.4.2-.5.3-.3.2-.7.4-1.1.5l-.6.2-.3-.9c-.1-.3-.2-.6-.3-.8,0-.2,0-.3-.1-.3h-.1c-.4.2-1,.3-1.4-.2-.3-.4-.4-.4-1.1,0-.2,0-.3.2-.4.2-1.6.8-2,.7-3-.9,0,0-.1-.1-.3-.2-.7.3-1.3.3-1.8,0-.3-.2-.5-.4-.7-.8,0,0-.2.1-.3.2l-.5.5c-.1.2-.3.3-.4.5-.6.6-1.2,1.1-1.9,1-.7-.2-1-.9-1.3-1.8,0-.3-.2-.5-.3-.7-.1-.3-.2-.6-.3-.8-.2.1-.4.3-.6.4s-.8.5-1.4.2c-.4-.2-.6-.5-.7-1.1h0c-.5.4-1,.9-1.5,1.3-.3.3-.9.7-1.5.6-.7-.1-1.2-.8-1.3-1-.1-.2-.4-.7-.5-.7,0,0-.5.3-.8.4-.1,0-.2.1-.3.2-.3.2-.6.4-1,.4s-1.5-.1-1.8-.9h0c0-.1-.1-.1-.2,0-.4.3-.9.6-1.3.9l-1.5.9-.3-.9c0-.2,0-.3-.1-.5,0-.3-.2-.7-.3-.8h0s-.3,0-.5.1l-.9.4v-1c-.1-.3-.2-.5-.2-.8l-2.4,2-.2-1.7c-.1-.7-.2-1.3-.3-2v-.2c-.4.2-1.1.5-1.7.1s-.7-1.1-.7-1.6c0,0-.2.1-.2.2l-1.7,1.2-.2-1.1c-.2-1-.4-1.6-.7-1.7-.3-.1-.7-.1-1.4,0l-.9.2v-3.1c.3-1.1.7-2.3,1.2-3.4.3-.7.5-1.4.7-2.2.1-.3.2-.6.3-1-.2,0-.4-.1-.7-.2l-.7-.3.3-.7c.1-.3.2-.5.3-.8.2-.6.4-1.2.7-1.8.5-.9,1.1-1.8,1.7-2.6.3-.4.6-.9,1-1.4.3-.4.5-.7.5-.8l-.2-.6.7-.3c.2-.1.4-.2.5-.3l.8-.5h0c.8-.4,2.6-1.7,6.6-4.6l.7-.5.4.7c.2.4.3.8.3,1.3v.5c.4,0,.7-.1,1.2-.2l1-.2-.2,1.4c0,.3,0,.6-.2.9v.3c.3,0,.5.1.8.3.3.2.6.6.7,1.1h.3c1.2-.1,2.4-.3,3.6-.5l1.5-.2v.9c-.2.3-.3.7-.3,1.1.5-.2,1.8-.6,2.6.8h.4c.2,0,.5-.2.8-.3.2-.1.4-.2.6-.3l.8-.4.3,1.6c0,.4.1.8.2,1.2h0c.6-.4,1-.8,1.6-1.3l2-1.6.2,3.7c.1.5,1.8,1.4,2.3,1.3.1,0,.3-.1.4-.2.7-.3,2-.8,3,.5q.7.9,0,0h1c.6,0,1.1-.2,1.7,0,.5,0,.9.3,1.3.4.5.2.9.3,1.4.3s.6,0,.9.1c.7.1.9.1,1.1-.1l.2-.2h.3c.5-.1,1.1.3,1.1.4.3.2.5.4.6.7.2.3.4.6.6.8.2-.2.4-.5.6-.8s.4-.5.7-.8c0,0,.7-.4,1.1-.4h.3l.2.3c.2.2.4.2,1.1,0,.3,0,.6-.1.9-.1s.9-.2,1.4-.3c.4-.1.8-.3,1.4-.4h2.7q0,0,0,0c1-1.3,2.2-.7,3-.5.1,0,.3.1.4.2.5,0,2.2-.8,2.3-1.3l.2-3.6,2,1.6c.5.4,1.1.9,1.6,1.3q.3.3,0,0h0c0-.4.1-.8.2-1.2l.3-1.6.8.4c.2.1.5.2.6.3.3.1.6.3.9.3h.3c.8-1.4,2.1-1,2.6-.8,0-.4-.1-.8-.1-1.1v-.9c-.1,0,1.3.2,1.3.2,1.2.2,2.4.3,3.6.5h.3c.1-.5.3-.9.7-1.1.3-.2.5-.3.8-.3v-.3c0-.3-.1-.5-.2-.8l-.2-1.4,1,.2c.4,0,.8.2,1.2.2v-.5c0-.4.1-.9.3-1.3l.4-.7.6.5c4,3,5.8,4.2,6.6,4.7h0l.8.4c.2.1.4.2.7.4l.5.3v.6c-.1.1.1.4.3.8.3.5.7,1,1,1.4.6.8,1.2,1.7,1.7,2.6.3.5.6,1.2.7,1.8,0,.3.2.5.3.8l.3.7-.7.3c-.3,0-.5.2-.7.2,0,.4.2.7.3,1,.2.7.5,1.4.7,2.2.4,1.1.8,2.3,1.2,3.4.1.5.1,1,0,1.6h-.4Z"/>
      <g>
        <g>
          <polygon class="cls-13" points="562.5 594.1 562.5 366 566.7 363.6 566.6 596.5 562.5 594.1"/>
          <polygon class="cls-13" points="569.1 600.8 560 595.5 560 364.6 569.2 359.3 569.1 600.8"/>
        </g>
        <g>
          <polygon class="cls-8" points="362.5 712.4 560 598.4 564.1 600.8 362.5 717.2 362.5 712.4"/>
          <polygon class="cls-8" points="360 721.5 360 711 560 595.5 569.1 600.8 360 721.5"/>
        </g>
        <g>
          <polygon class="cls-7" points="155.8 600.8 160 598.4 357.5 712.4 357.5 717.2 155.8 600.8"/>
          <polygon class="cls-7" points="360 721.6 150.8 600.8 160 595.5 360 711 360 721.6"/>
        </g>
        <g>
          <polygon class="cls-9" points="153.3 363.6 157.5 366 157.5 594.1 153.3 596.5 153.3 363.6"/>
          <polygon class="cls-9" points="150.8 600.8 150.8 359.3 160 364.6 160 595.5 150.8 600.8"/>
        </g>
        <polygon class="cls-6" points="360 238.5 360 249.1 160 364.6 150.8 359.3 360 238.5"/>
        <g>
          <polygon class="cls-11" points="362.5 247.7 362.5 242.9 564.1 359.3 560 361.7 362.5 247.7"/>
          <polygon class="cls-11" points="560 364.6 360 249.1 360 238.5 569.1 359.3 560 364.6"/>
        </g>
      </g>
    </g>
  </g>
</svg>