<?xml version="1.0" encoding="UTF-8"?>
<svg xmlns="http://www.w3.org/2000/svg" viewBox="0 0 720 960.09">
  <defs>
    <style>
      .cls-1 {
        font-size: 76px;
      }

      .cls-1, .cls-2 {
        font-family: Charter-Roman, Charter;
      }

      .cls-1, .cls-2, .cls-3 {
        fill: #2a3478;
      }

      .cls-2 {
        font-size: 36px;
      }

      .cls-4 {
        fill: #fcba16;
      }

      .cls-4, .cls-3, .cls-5 {
        stroke-width: 0px;
      }

      .cls-5 {
        fill: #fff;
      }
    </style>
  </defs>
  <g id="Layer_2" data-name="Layer 2">
    <rect class="cls-5" width="720" height="960.09"/>
  </g>
  <g id="Layer_1" data-name="Layer 1">
    <path class="cls-3" d="M449.33,526.82c-3.57-1.84-7.5-2.65-12.09-2.55-8.06.2-15.87,2.4-23.22,6.48-4.13,2.3-8.22,4.7-12.2,7.04-2.19,1.28-4.34,2.55-6.53,3.83-.97.61-2.04,1.12-3.11,1.74-.26.1-.46.26-.66.36.05-.31.15-.51.2-.71.61-1.48,1.12-3.11.56-4.95-.1-.46.1-1.12.31-1.63.31-.92.66-1.84,1.02-2.76.36-.97.71-1.94,1.07-2.91s.1-1.99-.66-2.81c-.56-.61-.56-1.22-.36-2.14.46-2.19,1.89-3.57,3.42-5.1.26-.31.56-.56.82-.87.97-.97,1.68-2.19,2.4-3.37.26-.41.46-.82.77-1.22.2-.31.1-.77,0-1.07l-.31-1.17-.41,1.02c-.36.87-.51,1.17-.66,1.38,0-.31-.05-.56-.15-.82l-.1-.66-.87-.1-.1.36c0,.26-.05.46-.15.71v.15c-.15.71-.61,1.07-1.22,1.53l-.15.15c-1.53,1.22-2.81,2.65-4.08,4.08-.77.82-1.33,1.84-1.89,2.76-.26.46-.41,1.02-.51,1.74-.1.82-.31,1.17-.92,1.33-.87.26-1.38.92-1.53,1.99l-.31,1.74c-.26,1.58-.51,3.16-.71,4.8-.1.66-.2.82-.71.82-.92,0-1.38.56-1.48,1.63,0,.92-.15,1.89-.31,2.96l-8.73,10.31-1.89-3.27h-.1c-.1-.15-.2-.26-.2-.36-.1-.15-.1-.41-.1-.61v-.26c-.05-.61-.31-1.02-.66-1.17-.26-.15-.66-.15-1.02,0l-.56-1.12-.46.36c-.1.05-.15.15-.26.2h0c-.92-1.33-2.3-1.99-3.57-2.6l-.26-.15c-.26-.1-.36-.2-.41-.2,0-.05.1-.2.26-.41,1.94-2.65,3.88-5.26,5.82-7.86.41-.51.66-.77,1.43-.66.71.1,1.43-.1,2.09-.26.15,0,.31-.05.51-.1.61-.15,1.22-.36,1.79-.51l.56-.15c.15-.05.26-.1.41-.15l.31-.15v-.77h-.31c-.1,0-.15-.05-.2-.1-.15,0-.36-.05-.56,0-.92.05-1.84.15-2.76.26-.71.05-1.33-.05-1.89-.41-.77-.51-1.33-.41-1.89.26-1.12,1.33-2.14,2.65-3.22,3.98l-1.38,1.74c-.97,1.22-1.99,2.5-2.91,3.73-.31.41-.61.51-1.12.51-.46,0-.87,0-1.33-.05-.66,0-1.33-.05-1.99-.05s-1.33,0-1.99.05c-.46,0-.87,0-1.33.05-.51,0-.82-.15-1.12-.51-.97-1.22-1.94-2.5-2.91-3.73l-1.43-1.84c-1.07-1.33-2.14-2.65-3.22-3.93-.56-.71-1.12-.77-1.89-.26-.56.36-1.17.51-1.89.41-.92-.1-1.84-.15-2.76-.26h-1.07v.77l.31.15c.15.05.26.1.41.15l.56.15c.56.2,1.17.41,1.84.51.15,0,.31.05.46.1.66.2,1.43.36,2.09.26.71-.1,1.02.1,1.38.66,1.33,1.84,2.7,3.73,4.08,5.56l1.74,2.35c.15.2.26.36.31.36,0,0-.1.1-.41.26l-.26.15c-1.33.66-2.65,1.33-3.62,2.6-.05-.05-.15-.15-.26-.2l-.51-.36-.51,1.12c-.41-.15-.77-.15-1.02,0-.36.2-.56.56-.61,1.17v.26c0,.2,0,.46-.1.61,0,.1-.15.2-.2.36q-.03.1,0,0h-.1l-1.89,3.27-8.73-10.31c-.2-1.07-.31-2.04-.36-2.96,0-.41-.05-1.63-1.43-1.63-.51,0-.61-.15-.71-.82-.2-1.58-.51-3.22-.71-4.75l-.31-1.79c-.15-1.02-.66-1.68-1.53-1.99-.56-.15-.77-.51-.87-1.33-.1-.77-.26-1.33-.51-1.74-.51-.87-1.12-1.89-1.89-2.76-1.28-1.43-2.55-2.86-4.08-4.08l-.15-.15c-.61-.46-1.07-.82-1.17-1.53v-.15c-.1-.26-.1-.46-.15-.71v-.36c-.05,0-.92.1-.92.1l-.1.61c0,.31-.1.61-.15.87-.2-.2-.31-.51-.66-1.38l-.41-1.02-.31,1.17c-.05.36-.2.77,0,1.07.26.41.51.82.77,1.22.71,1.17,1.38,2.4,2.35,3.37.31.26.56.56.87.87,1.53,1.48,2.96,2.91,3.42,5.1.2.92.2,1.53-.36,2.14-.77.87-1.02,1.84-.66,2.81s.71,1.99,1.07,2.96c.36.92.66,1.84,1.02,2.76.15.51.41,1.17.31,1.63-.56,1.89-.1,3.52.56,4.95.1.2.15.41.2.71-.26-.1-.46-.26-.66-.36-1.17-.61-2.14-1.12-3.16-1.74-2.19-1.28-4.34-2.55-6.48-3.83-3.98-2.35-8.11-4.75-12.2-7.04-7.35-4.08-15.16-6.28-23.27-6.48-4.54-.1-8.47.71-12.09,2.55-1.68.87-2.4,2.19-2.19,4.08.61,5.61,2.35,10.82,5.05,15.51,1.99,3.42,4.59,5,8.01,4.8.05,0,.15,0,.31.05,0,.15-.05.31-.1.41-.51,1.28-.41,2.55.36,3.93,1.22,2.19,2.96,3.93,5.26,5.21.61.36,1.28.71,1.68,1.22,2.25,2.76,4.95,4.85,8.32,7.14,1.48,1.02,3.78,2.35,6.38,1.68,2.14-.51,3.98-.1,6.02,1.33,1.99,1.38,4.24,1.63,6.63.71.71-.26,1.38-.56,2.04-.87.41-.2.82-.36,1.22-.56.15-.05.31-.15.51-.2,0,0-.05.1-.1.1-.36.36-.71.71-1.12,1.02-.46.41-.87.82-1.33,1.28-.82.77-1.07,1.74-.82,2.81.15.61,0,1.07-.41,1.68-1.48,2.19-3.78,2.81-5.41,2.96-1.68.15-3.06.82-4.44,1.48-.36.15-.77.36-1.12.51s-.61.41-.87.66c-.1.1-.2.2-.36.31l-.36.26.36.31.1.1.2.2.97-.46c.05,0,.15-.1.2-.1l-.92,2.3.82-.41c.46-.2.82-.46,1.07-.82.51-.71.92-.97,1.68-.66.66.31,1.58,0,1.99-.15.87-.36,1.74-.71,2.55-1.07.97-.41,1.99-.87,3.01-1.22,1.38-.51,2.3-1.17,3.06-2.09.15-.2.46-.36.56-.41,1.53.51,2.4-.36,3.11-1.22,1.07-1.33,2.19-2.65,3.22-4.03l.61-.71c.41-.51.56-.61.92-.46,1.07.51,1.79-.1,2.35-.82,1.53-1.99,3.16-3.93,4.75-5.77.2-.2.66-.36.82-.36.87.46,1.53.2,2.09-.1,1.28-.77,2.7-.97,4.18-1.17.87-.15,1.79-.31,2.65-.56h.15c-.1.77-.56,1.33-1.48,1.84-2.45,1.38-4.39,2.96-5.87,4.75-.41.51-.87,1.12-.77,1.68.2,1.38-.36,2.25-1.79,2.91-.31.15-.56.41-.77.61l-.1.1c-3.57,3.52-5.87,8.01-6.74,13.32-.1.71.05,1.58.56,2.6.26.56.26.82.05,1.17-1.84,3.42-2.35,7.14-2.6,10-.1,1.22.26,2.3,1.12,3.22.2.26.41.77.41,1.02-.05,1.48-.26,3.01-1.48,4.24-.51.51-1.02,1.12-1.48,1.63-.51.61-1.02,1.22-1.63,1.79-.87.82-1.38,1.99-1.84,3.11-.2.41-.36.87-.61,1.28-.1.2-.1.46-.05.71v1.94l.71-1.48c.2-.41.36-.82.56-1.17.05-.1.1-.15.15-.26.1.41.2.87.31,1.28l.2.82.46-.71c.2-.31.26-.61.36-.92,0-.15.05-.26.1-.36v-.15c.15-.31.36-.71.56-.82,2.5-1.38,3.93-3.57,4.9-5.41.2-.41.46-.77.71-1.17.77-1.17,1.58-2.4,1.48-4.03l.05-.1c1.53-.56,1.99-1.94,2.25-2.96.87-2.91,1.33-6.17,1.43-10.26,0-.05.15-.2.26-.31.05-.1.15-.15.2-.26,0,.05,0,.2.05.31,0,.31.1.71.51.97h0v.15c0,.2-.1.41-.15.61,0,.15-.15.51,0,.77.1.15.26.26.51.31v.1c0,.15,0,.36.05.51v.46c0,.15.1.71.46.77h.1v.41c0,.26-.1.56-.1.87v.31l.31.05c.1,0,.2,0,.31.05,0,.1,0,.2-.05.31,0,.2-.05.46-.1.66v.46c-.05,0,.41,0,.41,0h.56s.05.05.05.2c0,.31.31.46.56.46h.15c0,.05,0,.15-.05.2v.2c-.15.51-.2.77,0,1.02.15.15.36.2.66.2l-.66,1.99h1.28v.31c0,.1-.1.26-.05.41,0,.2.15.66.51.71h.1v.36c0,.05,0,.15-.05.26,0,.26-.05.51-.05.77s.26.46.31.51c.15.1.31.15.46.15h.1v.66c0,.36,0,.71.26.92s.26.36.26.77,0,.15,0,.26c0,.26.05.56.31.82.15.15.41.2.66.2h.1v.15c.05.41.05.87.1,1.28,0,.36.1.61.31.82.15.15.46.26.77.2.2,0,.36,0,.41.41v.2c.15.56.31,1.17.51,1.74.1.31.46.66.82.66.26,0,.36,0,.46.36.15.26.51.66.87.66.71,0,1.07.2,1.17.82.05.36.26.61.46.71.15.1.36.15.71.05h.1s0,.05.05.2c.1.41.2.82.2,1.12.05.41.2.66.41.82.26.15.51.1.87,0,.15-.05.15-.1.26.1.15.26.46.51.77.56.51.1.83.41.97.92.05.26.41.71.77.71.26,0,.36.05.46.41.1.2.36.92,1.17.66.26-.05.46-.15.66-.26.41-.2.82-.36,1.33-.31.26,0,.46-.05.66-.15.36-.15.46-.15.61,0l.1.15h.15c.1.05.26,0,.31,0h.1c.05,0,.15.15.26.31.15.2.41.51.71.51h0c.36,0,.56-.31.71-.51.15-.26.2-.26.31-.26h.15c.05,0,.1,0,.31.26.15.26.36.51.71.51s.56-.26.82-.56c.05-.05.15-.2.2-.2h0c.1.05.26.1.36.1h.15l.05-.1c.2-.2.31-.15.66,0,.2.1.46.2.66.15.51,0,.87.15,1.28.31.2.1.46.2.66.26.82.26,1.07-.46,1.17-.71.1-.36.2-.41.46-.41.36,0,.71-.46.77-.71.14-.54.46-.85.97-.92.31-.1.61-.31.77-.56.1-.2.15-.2.31-.1.36.15.66.15.87,0,.26-.15.36-.41.46-.77,0-.36.1-.71.2-1.17,0-.15.05-.15.05-.15h.1c.36.1.56,0,.71-.05.2-.15.41-.36.46-.71.1-.66.46-.87,1.17-.82.36,0,.77-.36.87-.66.15-.31.26-.36.46-.36.36,0,.77-.36.87-.66.15-.51.26-1.02.41-1.58l.1-.36c.1-.41.2-.41.41-.41.31,0,.56,0,.71-.2.2-.15.31-.46.31-.82,0-.46,0-.87.1-1.33v-.15h.1c.26,0,.51,0,.66-.2.26-.2.31-.51.31-.82v-.26c0-.36,0-.56.26-.77.31-.2.31-.61.31-.92v-.61h.15c.15,0,.31,0,.46-.15.05-.05.31-.26.31-.51s0-.56-.1-.82v-.31c-.05-.1-.05-.2-.05-.2h.1c.31-.05.41-.46.51-.71,0-.15,0-.26-.05-.41v-.31h1.28l-.66-1.99c.31,0,.51-.05.66-.2.2-.26.15-.51,0-1.07v-.15c-.05-.05-.05-.15-.1-.2h.1c.2,0,.56-.15.56-.46s0-.15.05-.2c.05-.1.36,0,.61,0h.46l-.1-.41c0-.26-.1-.46-.1-.66,0-.1,0-.2-.05-.31.05,0,.15,0,.31-.05h.31v-.41c0-.31-.1-.61-.1-.87v-.41h.1c.36-.05.46-.61.46-.71,0-.15,0-.36.05-.51,0-.15,0-.31.05-.51v-.1c.26-.05.41-.15.51-.31.15-.26.1-.56,0-.77s-.1-.41-.15-.61v-.15h0c.41-.26.46-.66.51-.97,0-.15,0-.26.05-.31.1.1.15.15.2.26s.2.26.2.36c.1,4.08.51,7.35,1.43,10.26.31,1.02.71,2.4,2.25,2.96l.1.1c-.15,1.63.66,2.86,1.48,4.03.26.36.51.77.71,1.17.97,1.79,2.4,4.03,4.9,5.41.2.1.36.51.51.82v.15c.1.1.15.26.15.36.05.31.15.61.36.92l.46.71.2-.82c.1-.41.2-.87.31-1.28,0,.1.1.2.15.26.15.36.36.71.56,1.12l.71,1.48v-1.94c0-.26,0-.46-.05-.71-.2-.41-.41-.82-.61-1.28-.51-1.12-.97-2.3-1.84-3.11-.56-.56-1.12-1.17-1.63-1.79-.46-.56-.92-1.12-1.48-1.63-1.22-1.22-1.43-2.76-1.48-4.24,0-.31.2-.77.41-1.02.87-.92,1.22-1.99,1.12-3.22-.2-2.86-.71-6.63-2.55-10-.2-.36-.2-.66,0-1.17.46-1.02.66-1.89.51-2.6-.87-5.31-3.16-9.8-6.74-13.32l-.1-.1c-.2-.2-.46-.46-.77-.61-1.43-.71-1.99-1.58-1.79-2.91.1-.56-.36-1.17-.82-1.68-1.48-1.79-3.37-3.32-5.82-4.75-.92-.51-1.33-1.07-1.48-1.84h.1c.87.26,1.84.41,2.7.56,1.48.2,2.91.46,4.18,1.17.51.31,1.17.56,2.04.1.15,0,.61.15.82.36,1.63,1.84,3.22,3.78,4.8,5.77.51.66,1.22,1.28,2.35.82.36-.15.51-.05.92.46l.61.77c1.07,1.33,2.14,2.65,3.22,3.98.71.87,1.58,1.74,3.06,1.22.1,0,.46.2.56.36.77.92,1.68,1.58,3.06,2.09,1.02.36,2.04.82,3.01,1.22.82.36,1.68.71,2.55,1.07.36.15,1.28.41,1.94.15.82-.31,1.17,0,1.68.66.26.36.61.61,1.07.82l.82.41-.66-1.58c-.1-.2-.2-.46-.31-.71.1,0,.15.05.2.1l.71.36.26.1.2-.2.1-.1.31-.31-.36-.26c-.1-.1-.26-.2-.36-.31-.26-.2-.56-.46-.87-.66-.41-.15-.77-.36-1.12-.51-1.38-.66-2.76-1.33-4.44-1.48s-3.93-.77-5.41-2.96c-.41-.61-.61-1.07-.46-1.68.31-1.02,0-1.99-.82-2.81-.41-.41-.87-.87-1.33-1.28-.36-.36-.77-.71-1.12-1.02l-.1-.1c.15.1.36.15.51.2.41.2.82.36,1.22.56.66.31,1.33.61,2.04.87,2.4.92,4.64.66,6.63-.71,2.04-1.43,3.88-1.84,5.97-1.33,2.65.61,4.9-.66,6.43-1.68,3.37-2.3,6.02-4.39,8.27-7.14.41-.51,1.07-.87,1.68-1.22,2.35-1.33,4.03-3.01,5.26-5.21.77-1.38.87-2.65.36-3.93,0-.15-.05-.26-.1-.41.1,0,.2-.05.31-.05,3.37.2,5.97-1.33,8.01-4.8,2.7-4.7,4.44-9.9,5.05-15.51.2-1.89-.51-3.22-2.19-4.08l-.2-.15ZM417.03,531.67c.36-.2.71-.41,1.07-.56,1.68-.66,3.37-1.33,5.05-1.89l.71-.31c6.43-2.4,12.91-3.01,19.24-1.89.46.1.82.26.92.51.15.26,0,.66-.15.92-.2.36-.51.71-.92,1.02-1.79,1.28-3.67,1.84-5.66,1.68-3.11-.26-6.38.15-10.26,1.33-2.19.66-4.49,1.17-6.84,1.48-1.43.2-2.55-.46-3.57-2.14.1-.05.2-.1.36-.2l.05.05ZM442.65,547.79c-2.35,1.43-4.8,1.63-7.35.61-4.18-1.68-8.42-2.09-12.45-2.25h-2.5c.1-.66.61-.97,1.43-1.28,3.01-1.07,6.38-1.74,10.31-1.94.71-.05,1.48.36,2.14.71s1.33.71,1.94,1.07c.87.51,1.74,1.02,2.7,1.48,1.02.46,2.04.77,3.16,1.12.31.1.66.2.97.31-.1.1-.26.2-.36.31v-.15ZM433.16,538.35c-.1,1.48-.46,1.84-2.04,1.94h-.2c-3.57.26-7.3.51-10.72,2.25h-.36c-.41-.46-.61-1.28-.56-2.14.1-1.12.61-2.14,1.33-2.76l.2-.1c.31-.1.71-.2,1.12-.36.71-.2,1.48-.41,2.25-.61,1.22-.36,2.5-.66,3.73-1.02.82-.26,1.63-.56,2.4-.82.46-.15.97-.36,1.43-.51.31-.1.56-.15.71,0,.15.1.26.26.26.56s.1.61.15.92c.1.82.2,1.63.2,2.4v.31l.1-.05ZM443.62,544.73c-1.99-.2-3.67-1.12-5.46-2.04l-.66-.36c-1.17-.61-1.53-1.38-1.33-2.65.31-1.84.41-3.98-.66-5.92h.46c.61,0,1.17.1,1.68.15,2.96.51,5.31,2.4,7.35,4.03,2.91,2.3,2.65,2.91,1.17,5.51-.71,1.28-1.12,1.48-2.5,1.33l-.05-.05ZM405.09,549.48l-5.36,1.43h0c.61-2.35,2.14-3.62,5.05-4.39,2.65-.66,5.41-1.58,8.73-2.76.82-.31,1.53-.77,2.3-1.28.26-.15.51-.31.77-.51.05.2.1.36.15.51.2.82.41,1.53.51,2.3,0,.31.1.56.1.71,0,.61-.31.71-1.28.97-3.62.97-7.25,1.89-10.87,2.86l-.1.15ZM413.66,549.99c-5.21,2.25-10.67,4.54-16.33,6.48,0-.1,0-.2-.05-.31-.05-.41-.1-.77-.2-1.07,0-.15-.1-.36,0-.46.05-.1.2-.15.46-.26.56-.15,1.12-.31,1.63-.51.31-.1.66-.2,1.02-.31l2.6-.77c2.76-.82,5.61-1.63,8.42-2.4.82-.2,1.68-.31,2.5-.41h-.05ZM406.16,543.1c.51-.66.97-1.33,1.38-2.04.92-1.58,1.63-2.96,2.14-4.39.26-.77.46-1.28,1.12-1.63.36-.2.71-.41,1.02-.56.51-.31,1.02-.56,1.53-.87q.31-.15.61.2l.2.2c.51.66,1.02,1.33,1.68,1.84.87.71,1.22,1.22,1.22,1.58,0,.41-.31.87-1.17,1.63-.15.15-.26.26-.41.36l-.15.15c-2.09,1.79-4.59,2.5-7.25,3.27-.77.2-1.53.46-2.3.71.15-.15.26-.31.36-.51v.05ZM390.44,547.39c3.11-1.99,6.23-3.93,9.29-5.87l2.91-1.84c.97-.61,1.89-1.22,2.86-1.84-.05.2-.15.41-.2.56-1.79,3.98-4.85,7.09-9.13,9.24-2.25,1.12-4.7,2.04-6.99,2.91-1.02.41-2.04.77-3.01,1.17h0c1.38-2.04,2.76-3.42,4.34-4.44l-.05.1ZM392.38,551.83l4.85-1.84s0,.1-.05.15c-.2.61-.36,1.12-.56,1.63-.1.26-.36.46-.51.51-3.98,1.02-7.55,1.84-10.92,2.65h-.66c2.6-.97,5.21-1.99,7.86-3.01v-.1ZM334.92,554.84c-.26,0-.46.05-.66,0-3.37-.77-6.94-1.63-10.92-2.65-.15,0-.41-.26-.51-.51-.2-.46-.36-.97-.56-1.58v-.15l4.9,1.89c2.65,1.02,5.21,1.99,7.81,3.01h-.05ZM308.28,550.4c2.81.77,5.66,1.63,8.42,2.4l2.6.77c.36.1.66.2,1.02.31.51.15,1.07.36,1.63.51.26.05.41.15.46.26s0,.31,0,.46c-.1.36-.15.66-.2,1.07,0,.1,0,.2-.05.31-5.72-1.99-11.18-4.24-16.33-6.48.82.1,1.68.2,2.5.41h-.05ZM303.43,546.62c-1.02-.26-1.28-.36-1.28-.97s0-.41.05-.71c.1-.77.31-1.48.51-2.3.05-.15.1-.36.15-.51.26.15.51.36.77.51.77.51,1.48.97,2.3,1.28,3.32,1.17,6.07,2.04,8.73,2.76,2.91.77,4.44,2.04,5.05,4.29v.05l-5.36-1.43c-3.62-.97-7.25-1.94-10.87-2.86l-.05-.1ZM316.8,539.73l2.86,1.79c3.11,1.99,6.23,3.93,9.34,5.92,1.58,1.02,2.96,2.4,4.39,4.44h0c-1.02-.41-1.99-.77-3.01-1.17-2.35-.87-4.75-1.79-7.04-2.91-4.29-2.14-7.35-5.26-9.13-9.24-.05-.15-.15-.36-.2-.56.92.61,1.89,1.22,2.86,1.84l-.05-.1ZM303.53,535.85c.66-.56,1.17-1.22,1.68-1.84l.2-.26c.15-.2.26-.31.31-.31s.15,0,.26.1c.51.31,1.02.61,1.58.87.36.2.66.36,1.02.56.61.36.82.87,1.07,1.63.51,1.48,1.22,2.81,2.14,4.39.41.71.92,1.38,1.38,2.04.1.15.26.31.36.51-.77-.26-1.53-.46-2.3-.71-2.65-.77-5.1-1.48-7.25-3.32l-.15-.15c-.15-.1-.26-.2-.41-.36-.82-.77-1.17-1.22-1.12-1.63,0-.36.36-.87,1.22-1.58v.05ZM275.36,527.58c.1-.26.46-.41.92-.51,6.38-1.17,12.86-.51,19.29,1.89l.71.31c1.68.61,3.37,1.22,5.05,1.89.36.15.71.36,1.07.56.1.05.26.1.31.15-1.02,1.63-2.14,2.3-3.57,2.14-2.35-.36-4.7-.87-6.84-1.48-3.11-.97-5.82-1.38-8.37-1.38s-1.22,0-1.84.05c-1.99.15-3.88-.36-5.66-1.68-.36-.26-.71-.66-.92-1.02-.15-.26-.31-.66-.15-.92h0ZM299.6,542.54h-.36c-3.42-1.74-7.14-1.99-10.72-2.19h-.2c-1.58-.15-1.94-.46-2.04-1.99-.05-.87.1-1.84.26-2.76,0-.31.05-.61.1-.92,0-.26.15-.46.26-.56.1,0,.15-.05.31-.05s.31,0,.46.1c.46.15.97.36,1.43.51.77.31,1.58.61,2.4.82,1.22.36,2.5.71,3.73,1.02.77.2,1.48.41,2.25.61.46.1.87.26,1.22.36h.15c.71.66,1.22,1.68,1.33,2.81.1.87-.15,1.68-.56,2.14v.1ZM271.02,536.41c-.26-2.14-.51-4.54-.77-7.25,0-.51.2-.92.77-1.17.46-.2.71-.31.82-.31s0,0,.05,0,.15.2.31.82c.26,1.28,1.02,2.25,2.35,3.06.71.41,1.43.87,2.14,1.33h.1c-.87.66-1.68,1.28-2.55,1.84-.97.71-1.99,1.43-3.01,2.14-.1-.15-.15-.31-.15-.46h-.05ZM273.32,543.41c-1.53-2.55-1.74-3.22,1.17-5.51,2.04-1.63,4.39-3.47,7.35-4.03.56-.1,1.07-.15,1.68-.15h.46c-1.07,1.99-.92,4.08-.66,5.92.2,1.28-.15,2.04-1.33,2.65l-.71.36c-1.79.92-3.47,1.84-5.46,2.04-1.38.15-1.79,0-2.5-1.33v.05ZM276.79,547.79c-.15-.05-.26-.15-.36-.31.31-.1.66-.2.97-.31,1.07-.36,2.14-.66,3.16-1.12.92-.46,1.84-.97,2.7-1.48.66-.36,1.28-.71,1.94-1.07.71-.36,1.48-.77,2.14-.71,3.98.2,7.35.87,10.36,1.94.82.31,1.33.61,1.38,1.28h-.46c-.71,0-1.38,0-2.04.05-4.03.2-8.32.56-12.45,2.25-2.55,1.02-5.05.82-7.35-.61v.1ZM288.84,558.66c-1.89-.1-3.16-.87-3.98-2.25-.31-.51-.66-1.07-.97-1.68-.92-1.84-.61-2.6,1.28-3.57,2.09-1.07,4.34-1.38,6.74-1.74h.31c1.94-.31,3.83-.1,5.77.66,1.28.51,2.5,1.02,3.78,1.53.92.41,1.89.77,2.81,1.17.36.15.46.31.46.36,0,0,0,.2-.36.46-1.17,1.48-2.7,2.5-4.85,3.22-4.29,1.48-7.65,2.04-11.02,1.84h.05ZM309.09,565.2c-.71.92-1.43,1.89-2.3,2.45-3.73,2.3-7.3.92-9.65-.61-1.53-1.02-2.91-2.25-4.29-3.52-.61-.51-1.22-1.07-1.79-1.58,0,0,0-.05-.05-.1.36-.1.66-.15,1.02-.26,1.02-.2,1.99-.46,2.96-.71,3.73-1.12,7.5-.71,11.89,1.17.82.36,1.58.87,2.3,1.43.2.15.36.26.51.41.05,0,.15.26.15.31-.26.31-.51.66-.77,1.02h0ZM323.54,566.57h0c-1.07,1.58-2.76,2.25-4.54,3.01-.46.2-.97.36-1.43.61-1.43.66-3.11,1.28-4.9.92-.92-.15-1.84-.56-2.7-.97l-.2-.1c-.15-.1-.26-.15-.26-.2,0-.1.05-.26.2-.41.51-.56.97-1.07,1.43-1.63.77-.87,1.53-1.79,2.35-2.6.41-.41,1.17-.71,1.68-.71h.1c2.55.15,5.1.46,7.91.87.31,0,.97.15,1.17.26-.1.2-.51.66-.77,1.02l-.05-.05ZM329.97,561.98c-1.12.51-2.19,1.07-3.37,1.53-.2.1-.71-.1-1.07-.2l-.26-.1c-2.96-.97-5.61-1.43-8.11-1.43s-1.89.05-2.76.2c-.77.1-1.68-.1-2.3-.46-2.5-1.53-5-2.55-7.65-3.16h-.1c.26-.2.51-.41.71-.61l.71-.61c.87-.77,1.74-1.48,2.55-2.3.41-.41.66-.46,1.12-.31,5.92,2.4,12.35,4.49,20.31,6.58.26.1.56.2.87.36,0,0,.1,0,.1.05-.26.15-.56.26-.87.41l.1.05ZM334.05,559.63c-1.89-.46-3.88-.97-5.72-1.43-1.07-.31-2.14-.56-3.22-.82-.36-.1-.61-.2-.66-.36-.1-.15-.05-.41,0-.77.1-.31.15-.66.2-1.02v-.26c1.33.46,2.76.77,4.08,1.02,2.86.56,5.51,1.12,7.86,3.01-1.02.61-1.84.82-2.7.61h.15ZM374.83,615.36l-.15.31-.31-.15.15-.31-.2.31c-.1,0-.2-.05-.26-.2,0,0-.1-.05-.1-.1,0,0,0,.05-.1.15-.05.15-.2.31-.31.41,0,0-.05.05-.1.05-.05.1-.15.15-.2.2-.1.1-.2.26-.31.36,0,.05-.05.15-.1.31,0,.05,0,.15-.05.26l-.2.66-.46-.51c-.2-.26-.41-.51-.61-.71,0,.1,0,.15-.05.26,0,.2-.05.41-.1.66-.05.36-.1.77-.15,1.12,0,.2-.15.41-.26.56l-.1.1c-.05.1-.15.2-.2.26-.1.1-.15.2-.15.26-.1.36-.15.71-.15,1.12,0,.2-.1.56-.36.77s-.56.15-.82.1c-.2,0-.51-.1-.56-.1s-.15.31-.26.51c-.1.31-.46,1.02-1.38.77-.2,0-.31,0-.41.26-.1.31-.31.56-.51.71-.15.15-.36.2-.61.31-.05,0-.15.05-.26.1l-.2.1-.41-.31c-.15-.1-.36-.26-.51-.36q-.1-.07,0,0c-.1.41-.36,1.22-1.38,1.33h-.05c-.1.15-.31.2-.51.2s-.41-.1-.66-.36c-.15-.15-.26-.36-.36-.46l-.46.46-.26.31-.26-.36c-.15-.15-.2-.26-.26-.36,0,0-.1-.1-.1-.15l-.15.1-.15-.1s-.1.1-.1.15c-.05.1-.15.2-.26.36l-.26.36-.31-.31c-.15-.15-.31-.36-.41-.46-.1.1-.2.26-.36.41-.46.56-.92.36-1.12.2h-.05c-1.07-.15-1.33-1.02-1.38-1.33h0c-.15.15-.36.31-.51.41l-.41.31-.2-.1c-.1-.05-.2-.1-.26-.1-.26-.1-.41-.2-.61-.31-.2-.2-.41-.46-.51-.71-.1-.31-.2-.31-.41-.26-.92.26-1.22-.51-1.38-.77-.1-.15-.2-.46-.31-.51-.05,0-.36.05-.56.1-.26.05-.56.1-.82-.1-.31-.2-.31-.51-.36-.77,0-.36-.05-.77-.15-1.12,0-.05-.1-.15-.15-.26-.05-.1-.15-.15-.2-.26l-.1-.15c-.1-.15-.2-.36-.26-.56-.1-.36-.1-.71-.15-1.12,0-.2-.05-.41-.1-.66v-.26c-.2.2-.36.46-.61.71l-.41.51-.2-.66c0-.1,0-.15-.05-.26-.05-.15-.1-.26-.15-.31-.1-.15-.2-.26-.31-.41l-.15-.2s-.05-.05-.1-.05c-.1-.1-.26-.2-.31-.41,0-.05-.05-.1-.1-.15l-.1.1c-.1.1-.2.15-.26.15l-.31.15-.2-.31c-.46-.82-.41-2.55.31-3.22l.31-.26.71.82h0l.51-.51.31.46c.05.1.15.2.2.36,0,.15.1.2.1.2,0,0,.05,0,.15-.1.31-.15.97-.1,1.22.15q.15.2.51-.05c.1-.05.2-.1.26-.1h.31c.05,0,.26.15.26.41,0,.15.05.36.1.46.1,0,.31-.05.46-.1h.1c.46-.15.97-.2,1.48-.26h.31c.36,0,.61.31.66.46.1.15.1.26.1.36v.26s0,.03,0,0l.31-.31c.05-.1.15-.2.26-.31l.31-.31.26.36.15.15c.1.1.2.2.26.36,0,.1.1.2.15.2,0,0,.1,0,.36-.1.05,0,.15-.1.2-.15.15-.1.36-.2.56-.26.15,0,.31-.05.46-.1.51-.1,1.02-.2,1.48-.46.31-.2.71-.2,1.07-.1.36.15.66.41.87.82.2-.41.51-.66.87-.82.36-.15.77-.1,1.07.1.46.26.97.36,1.48.46.15,0,.31.05.46.1.2,0,.41.15.56.26.05,0,.15.1.2.15.26.1.36.1.36.1,0,0,.1-.1.15-.2.05-.15.15-.31.26-.41,0,0,.1-.1.1-.15l.26-.36.31.31c.1.1.15.2.26.31l.31.31h0v-.26c0-.1,0-.26.05-.36.05-.15.31-.46.66-.46h.36c.46.1.97.1,1.48.26h.1c.15.05.36.1.46.1,0-.1.05-.31.1-.51,0-.2.2-.31.26-.31h.15c0-.05.15-.05.15-.05.1,0,.26.05.31.15q.36.26.51,0c.31-.31.92-.36,1.22-.15.1.05.15.1.2.1,0,0,0-.1.1-.26,0-.15.1-.26.15-.36l.31-.46.51.46c.2-.2.31-.36.46-.51l.26-.26.26.26c.71.66.77,2.4.31,3.22l.26.2ZM376.1,577.44c0-.15-.05-.26-.1-.41l-.1-.71.51.1c.2,0,.41.1.61.1v-.26c0-.2.05-.46.15-.66l.2-.36.31.26c2.04,1.53,2.96,2.14,3.37,2.4h0l.41.2c.1.05.2.1.36.2l.26.15v.31c-.05.05.05.2.15.41.15.26.36.51.51.71.31.41.61.87.87,1.33.15.26.31.61.36.92,0,.15.1.26.15.41l.15.36-.36.15c-.15,0-.26.1-.36.1,0,.2.1.36.15.51.1.36.26.71.36,1.12.2.56.41,1.17.61,1.74.05.26.05.51,0,.82v.77l-.41-.1c-.36-.1-.61-.1-.71,0-.15.1-.26.36-.36.87l-.1.56-.87-.61s-.1-.05-.15-.1c0,.2,0,.61-.36.82-.31.2-.71,0-.87-.05v.1c-.05.31-.1.66-.15,1.02l-.15.82-1.22-1.02v.87c-.05,0-.51-.15-.51-.15-.2-.05-.26-.05-.26-.05-.05,0-.1.31-.15.41,0,.1,0,.15-.05.26l-.15.46-.71-.46c-.26-.15-.46-.31-.71-.46,0,0-.05-.05-.1-.05v.05c-.15.36-.71.46-.92.46s-.41-.15-.51-.2c0,0-.1-.05-.15-.1-.15-.05-.36-.2-.46-.2,0,0-.15.26-.26.36-.05.1-.31.46-.66.51-.36.05-.61-.15-.77-.31-.26-.2-.51-.41-.77-.66q-.17-.17,0,0c-.05.31-.2.46-.36.56-.31.15-.66-.05-.71-.1-.1-.05-.26-.15-.31-.2-.05.1-.1.26-.15.36-.1.15-.1.31-.15.41-.15.46-.26.87-.66.92-.36.1-.66-.2-.92-.51-.1-.05-.15-.15-.2-.2l-.31-.31s-.1-.05-.15-.1c-.1.2-.2.31-.36.41-.26.15-.56.15-.92,0-.05,0-.1.05-.15.1-.51.82-.77.87-1.53.46-.1,0-.15-.1-.2-.1-.41-.26-.41-.2-.56,0-.2.26-.56.2-.71.1h-.1s0,.1-.05.15c0,.15-.05.26-.15.41l-.15.46-.31-.1c-.2,0-.36-.15-.56-.26-.05-.05-.26-.15-.26-.15,0,0-.1,0-.15.15l-.1.2h-.26c-.46-.1-.71,0-.92.51l-.31.82-.77-1.63c-.05.15-.15.36-.2.51l-.51,1.07-.31-.82c-.2-.51-.46-.61-.92-.56h-.26l-.1-.15c-.1-.15-.15-.15-.15-.15-.05,0-.2.1-.26.15-.15.1-.36.2-.56.26l-.31.1-.15-.46c-.05-.15-.1-.31-.15-.41,0-.1,0-.15-.05-.15h-.05c-.2.1-.51.15-.71-.1-.15-.2-.2-.2-.56,0-.1,0-.15.1-.2.1-.82.41-1.02.36-1.53-.46,0,0-.05-.05-.15-.1-.36.15-.66.15-.92,0-.15-.1-.26-.2-.36-.41,0,0-.1.05-.15.1l-.26.26c-.05.1-.15.15-.2.26-.31.31-.61.56-.97.51-.36-.1-.51-.46-.66-.92,0-.15-.1-.26-.15-.36-.05-.15-.1-.31-.15-.41-.1.05-.2.15-.31.2s-.41.26-.71.1c-.2-.1-.31-.26-.36-.56h0c-.26.2-.51.46-.77.66-.15.15-.46.36-.77.31-.36-.05-.61-.41-.66-.51-.05-.1-.2-.36-.26-.36,0,0-.26.15-.41.2-.05,0-.1.05-.15.1-.15.1-.31.2-.51.2s-.77-.05-.92-.46v-.05s-.05,0-.1.05c-.2.15-.46.31-.66.46l-.77.46-.15-.46c0-.1,0-.15-.05-.26,0-.15-.1-.36-.15-.41h0s-.15,0-.26.05l-.46.2v-.51c-.05-.15-.1-.26-.1-.41l-1.22,1.02-.1-.87c-.05-.36-.1-.66-.15-1.02v-.1c-.2.1-.56.26-.87.05s-.36-.56-.36-.82c0,0-.1.05-.1.1l-.87.61-.1-.56c-.1-.51-.2-.82-.36-.87-.15-.05-.36-.05-.71,0l-.46.1v-1.58c.15-.56.36-1.17.61-1.74.15-.36.26-.71.36-1.12.05-.15.1-.31.15-.51-.1,0-.2-.05-.36-.1l-.36-.15.15-.36c.05-.15.1-.26.15-.41.1-.31.2-.61.36-.92.26-.46.56-.92.87-1.33.15-.2.31-.46.51-.71.15-.2.26-.36.26-.41l-.1-.31.36-.15c.1-.05.2-.1.26-.15l.41-.26h0c.41-.2,1.33-.87,3.37-2.35l.36-.26.2.36c.1.2.15.41.15.66v.26c.2,0,.36-.05.61-.1l.51-.1-.1.71c0,.15,0,.31-.1.46v.15c.15,0,.26.05.41.15.15.1.31.31.36.56h.15c.61-.05,1.22-.15,1.84-.26l.77-.1v.46c-.1.15-.15.36-.15.56.26-.1.92-.31,1.33.41h.2c.1,0,.26-.1.41-.15.1-.05.2-.1.31-.15l.41-.2.15.82c0,.2.05.41.1.61h0c.31-.2.51-.41.82-.66l1.02-.82.1,1.89c.05.26.92.71,1.17.66.05,0,.15-.05.2-.1.36-.15,1.02-.41,1.53.26q.34.44,0,0h.51c.31,0,.56-.1.87,0,.26,0,.46.15.66.2.26.1.46.15.71.15.15,0,.31,0,.46.05.36.05.46.05.56-.05l.1-.1h.15c.26-.05.56.15.56.2.15.1.26.2.31.36.1.15.2.31.31.41.1-.1.2-.26.31-.41s.2-.26.36-.41c0,0,.36-.2.56-.2h.15l.1.15c.1.1.2.1.56,0,.15,0,.31-.05.46-.05.2,0,.46-.1.71-.15.2-.05.41-.15.71-.2h1.38s.03,0,0,0c.51-.66,1.12-.36,1.53-.26.05,0,.15.05.2.1.26,0,1.12-.41,1.17-.66l.1-1.84,1.02.82c.26.2.56.46.82.66q.17.14,0,0h0c0-.2.05-.41.1-.61l.15-.82.41.2c.1.05.26.1.31.15.15.05.31.15.46.15h.15c.41-.71,1.07-.51,1.33-.41,0-.2-.05-.41-.05-.56v-.46c-.05,0,.66.1.66.1.61.1,1.22.15,1.84.26h.15c.05-.26.15-.46.36-.56.15-.1.26-.15.41-.15v-.15h-.2ZM378.75,557.85c-.1.31-.26.61-.51.77-.31.15-.66.15-1.02.05h-.92l-.1-.82c0-.2-.05-.41-.1-.61-.15.26-.31.51-.51.82l-.31.46-.31-.46c-.26-.36-.41-.61-.56-.82h0l-.26-.1c-.26-.05-.46-.1-.71-.15-.2.2-.46.46-.71.77l-.46.46-.66-2.04c-.1.2-.26.36-.36.51l-.92,1.33-.82-1.99-1.07,1.63-.26-.66c-.15-.36-.31-.71-.46-1.07-.36.31-.66.61-1.02.97l-.36.31-.82-1.43c-.2.26-.41.51-.61.82l-.2.31-.31-.26-.15-.15c-.15-.1-.31-.2-.41-.36-.26-.31-.41-.46-.61-.46-.15,0-.36.05-.56.2-.41.31-1.17-.2-1.17-.2-.15-.05-.2-.2-.31-.31l-.2.26c0,.05-.1.15-.2.31l-.31.36-.61-.82c0-.05-.05-.1-.15-.15h-.26c0,.05-.05.1-.15.15l-.61.82-.31-.36c-.1-.15-.15-.26-.2-.36l-.2-.2c-.1.1-.2.26-.31.36,0,0-.46.31-.87.31s-.2,0-.31-.1c-.2-.15-.41-.26-.56-.2-.15,0-.36.15-.56.46-.15.15-.31.26-.41.36-.05,0-.1.05-.15.15l-.31.26-.2-.31c-.2-.26-.41-.51-.61-.82l-.82,1.43-.36-.31c-.36-.36-.66-.66-1.02-.97-.15.36-.31.66-.41,1.07l-.26.66-1.12-1.63-.82,1.99-.92-1.33c-.1-.15-.26-.36-.36-.51l-.66,2.04-.41-.46c-.31-.36-.56-.61-.71-.77-.26.05-.51.1-.71.15h-.26c-.15.26-.31.51-.61.87l-.31.46-.26-.46c-.2-.31-.36-.56-.51-.82,0,.15,0,.36-.05.51l-.15.92h-.36c-.1-.05-.2-.05-.31-.1h-.2c-.36.1-.71.1-1.02-.05-.26-.15-.46-.41-.56-.77-.1-.41,0-1.02.26-1.48l.2-.36c.71-1.12,1.38-2.3,2.76-2.96.2-.1.41-.31.61-.56l.15-.15c.05-.1.15-.15.2-.26l.2-.2c.31-.36.66-.71,1.07-1.02.26-.2.66-.41,1.02-.31.15,0,.36,0,.61-.15.36-.15.82-.31,1.28-.05h0c.56-.66,1.48-1.22,2.76-.46.51-.82,1.48-1.07,2.19-.87.56.15.66.05.97-.31.51-.66,1.33-.71,2.04-.26.05.1.15.15.26.2.17.14.31.17.41.1.15-.1.36-.2.51-.26.2-.1.36-.15.51-.26.36-.36.71-.56,1.07-.61h.1c.36,0,.66.26,1.07.61.1.1.31.2.51.26.15.1.36.15.51.26.14.07.27.03.41-.1.1-.1.15-.15.26-.2.71-.51,1.53-.41,2.04.26.26.36.36.41.97.31.77-.2,1.68.1,2.19.87,1.22-.77,2.14-.2,2.76.46.15-.05.31-.1.46-.1.26,0,.56.1.82.2.26.1.46.15.61.15.36-.1.82.1,1.02.31.36.31.71.66,1.07,1.02l.2.2c.05.05.15.15.2.26l.15.15c.2.26.41.46.61.56,1.38.66,2.04,1.79,2.76,2.91l.26.36c.26.41.36,1.02.2,1.48l-.05.1ZM385.39,559.63c-.82.2-1.68,0-2.7-.61,2.35-1.84,5.05-2.4,7.86-3.01,1.38-.26,2.76-.56,4.08-1.02v.26c.05.36.1.71.2,1.02.15.36.15.61.05.77-.1.15-.31.26-.66.36-1.07.26-2.14.56-3.22.82-1.89.46-3.83.97-5.72,1.43h.1ZM394.17,563.26l-.26.1c-.36.1-.87.31-1.07.2-1.12-.46-2.3-1.02-3.37-1.53-.26-.15-.56-.26-.87-.41,0,0,.05,0,.1-.05.31-.15.56-.26.87-.36,7.96-2.09,14.44-4.24,20.31-6.58.46-.15.71-.1,1.12.31.82.82,1.68,1.58,2.55,2.3l.71.61c.2.2.46.36.71.61h-.1c-2.7.61-5.21,1.63-7.65,3.16-.61.36-1.53.56-2.3.46-3.37-.46-6.79-.1-10.87,1.22l.1-.05ZM409.73,570.04l-.2.1c-.87.41-1.79.82-2.7.97-1.79.31-3.52-.31-4.9-.92-.46-.2-.92-.41-1.43-.61-1.79-.71-3.47-1.43-4.59-3.01-.26-.36-.66-.82-.77-1.02.2-.1.87-.2,1.17-.26,2.76-.41,5.41-.66,7.96-.87.56,0,1.38.26,1.79.71.82.82,1.58,1.74,2.35,2.6.46.56.92,1.07,1.43,1.63.15.15.26.31.2.41,0,.05-.1.15-.26.2l-.05.05ZM428.36,561.93c-.61.51-1.17,1.07-1.79,1.58-1.38,1.22-2.76,2.5-4.29,3.52-2.35,1.53-5.97,2.91-9.65.61-.92-.56-1.63-1.53-2.3-2.45-.26-.36-.51-.66-.77-1.02,0-.1.1-.31.15-.31.2-.15.36-.26.51-.41.71-.51,1.48-1.07,2.3-1.43,4.39-1.89,8.17-2.25,11.89-1.17.97.26,1.94.51,2.96.71.36.1.66.15,1.02.26,0,0,0,.05-.05.1h0ZM435.55,554.73c-.26.56-.61,1.12-.92,1.68-.87,1.43-2.09,2.14-3.98,2.25-3.32.2-6.74-.36-11.02-1.84-2.19-.77-3.73-1.79-4.9-3.27-.26-.26-.31-.41-.31-.46s.1-.2.46-.36c.97-.36,1.89-.77,2.81-1.17,1.22-.51,2.5-1.02,3.78-1.53,1.43-.56,2.81-.82,4.18-.82s1.07,0,1.58.1h.31c2.4.36,4.59.71,6.74,1.79,1.22.61,1.79,1.17,1.79,1.94s-.15.97-.51,1.63v.05ZM449.18,529.17c-.26,2.7-.51,5.05-.77,7.25,0,.15-.1.31-.15.46-1.07-.71-2.09-1.48-3.16-2.19l-2.4-1.68h.1c.66-.46,1.38-.92,2.14-1.33,1.33-.82,2.04-1.79,2.35-3.06.15-.66.26-.82.31-.82s.31,0,.87.26c.56.26.77.66.71,1.17v-.05Z"/>
    <path class="cls-4" d="M673.54,437.29v44.8H46.46v-44.8h627.09M676.54,434.29H43.46v50.8h633.09v-50.8h0Z"/>
    <text class="cls-2" transform="translate(209.49 473.19)"><tspan x="0" y="0">ZERO BUZZ BREW</tspan></text>
    <text class="cls-1" transform="translate(43.46 388.52)"><tspan x="0" y="0">No Buzz | No Fuzz</tspan></text>
  </g>
</svg>