<?xml version="1.0" encoding="UTF-8"?>
<svg xmlns="http://www.w3.org/2000/svg" viewBox="0 0 720 960.09">
  <defs>
    <style>
      .cls-1 {
        fill: #2a3478;
      }

      .cls-1, .cls-2 {
        stroke-width: 0px;
      }

      .cls-2 {
        fill: #fff;
      }
    </style>
  </defs>
  <g id="Layer_2" data-name="Layer 2">
    <rect class="cls-2" width="720" height="960.09"/>
  </g>
  <g id="Layer_3" data-name="Layer 3">
    <path class="cls-1" d="M615.79,355.84c-10.23-5.26-21.48-7.6-34.63-7.31-23.09.58-45.45,6.87-66.49,18.56-11.84,6.58-23.53,13.44-34.92,20.17-6.28,3.65-12.42,7.31-18.7,10.96-2.78,1.75-5.85,3.21-8.91,4.97-.73.29-1.32.73-1.9,1.02.15-.88.44-1.46.58-2.05,1.75-4.24,3.21-8.91,1.61-14.17-.29-1.32.29-3.21.88-4.68.88-2.63,1.9-5.26,2.92-7.89,1.02-2.78,2.05-5.55,3.07-8.33s.29-5.7-1.9-8.04c-1.61-1.75-1.61-3.51-1.02-6.14,1.32-6.28,5.41-10.23,9.79-14.61.73-.88,1.61-1.61,2.34-2.48,2.78-2.78,4.82-6.28,6.87-9.64.73-1.17,1.32-2.34,2.19-3.51.58-.88.29-2.19,0-3.07l-.88-3.36-1.17,2.92c-1.02,2.48-1.46,3.36-1.9,3.95,0-.88-.15-1.61-.44-2.34l-.29-1.9-2.48-.29-.29,1.02c0,.73-.15,1.32-.44,2.05v.44c-.44,2.05-1.75,3.07-3.51,4.38l-.44.44c-4.38,3.51-8.04,7.6-11.69,11.69-2.19,2.34-3.8,5.26-5.41,7.89-.73,1.32-1.17,2.92-1.46,4.97-.29,2.34-.88,3.36-2.63,3.8-2.48.73-3.95,2.63-4.38,5.7l-.88,4.97c-.73,4.53-1.46,9.06-2.05,13.74-.29,1.9-.58,2.34-2.05,2.34-2.63,0-3.95,1.61-4.24,4.68,0,2.63-.44,5.41-.88,8.48l-24.99,29.52-5.41-9.35h-.29c-.29-.44-.58-.73-.58-1.02-.29-.44-.29-1.17-.29-1.75v-.73c-.15-1.75-.88-2.92-1.9-3.36-.73-.44-1.9-.44-2.92,0l-1.61-3.21-1.32,1.02c-.29.15-.44.44-.73.58h0c-2.63-3.8-6.58-5.7-10.23-7.45l-.73-.44c-.73-.29-1.02-.58-1.17-.58,0-.15.29-.58.73-1.17,5.55-7.6,11.11-15.05,16.66-22.5,1.17-1.46,1.9-2.19,4.09-1.9,2.05.29,4.09-.29,5.99-.73.44,0,.88-.15,1.46-.29,1.75-.44,3.51-1.02,5.11-1.46l1.61-.44c.44-.15.73-.29,1.17-.44l.88-.44v-2.19h-.88c-.29,0-.44-.15-.58-.29-.44,0-1.02-.15-1.61,0-2.63.15-5.26.44-7.89.73-2.05.15-3.8-.15-5.41-1.17-2.19-1.46-3.8-1.17-5.41.73-3.21,3.8-6.14,7.6-9.21,11.4l-3.95,4.97c-2.78,3.51-5.7,7.16-8.33,10.67-.88,1.17-1.75,1.46-3.21,1.46-1.32,0-2.48,0-3.8-.15-1.9,0-3.8-.15-5.7-.15s-3.8,0-5.7.15c-1.32,0-2.48,0-3.8.15-1.46,0-2.34-.44-3.21-1.46-2.78-3.51-5.55-7.16-8.33-10.67l-4.09-5.26c-3.07-3.8-6.14-7.6-9.21-11.25-1.61-2.05-3.21-2.19-5.41-.73-1.61,1.02-3.36,1.46-5.41,1.17-2.63-.29-5.26-.44-7.89-.73h-3.07v2.19l.88.44c.44.15.73.29,1.17.44l1.61.44c1.61.58,3.36,1.17,5.26,1.46.44,0,.88.15,1.32.29,1.9.58,4.09,1.02,5.99.73,2.05-.29,2.92.29,3.95,1.9,3.8,5.26,7.74,10.67,11.69,15.93l4.97,6.72c.44.58.73,1.02.88,1.02,0,0-.29.29-1.17.73l-.73.44c-3.8,1.9-7.6,3.8-10.37,7.45-.15-.15-.44-.44-.73-.58l-1.46-1.02-1.46,3.21c-1.17-.44-2.19-.44-2.92,0-1.02.58-1.61,1.61-1.75,3.36v.73c0,.58,0,1.32-.29,1.75,0,.29-.44.58-.58,1.02q-.1.29,0,0h-.29l-5.41,9.35-24.99-29.52c-.58-3.07-.88-5.85-1.02-8.48,0-1.17-.15-4.68-4.09-4.68-1.46,0-1.75-.44-2.05-2.34-.58-4.53-1.46-9.21-2.05-13.59l-.88-5.11c-.44-2.92-1.9-4.82-4.38-5.7-1.61-.44-2.19-1.46-2.48-3.8-.29-2.19-.73-3.8-1.46-4.97-1.46-2.48-3.21-5.41-5.41-7.89-3.65-4.09-7.31-8.18-11.69-11.69l-.44-.44c-1.75-1.32-3.07-2.34-3.36-4.38v-.44c-.29-.73-.29-1.32-.44-2.05v-1.02c-.15,0-2.63.29-2.63.29l-.29,1.75c0,.88-.29,1.75-.44,2.48-.58-.58-.88-1.46-1.9-3.95l-1.17-2.92-.88,3.36c-.15,1.02-.58,2.19,0,3.07.73,1.17,1.46,2.34,2.19,3.51,2.05,3.36,3.95,6.87,6.72,9.64.88.73,1.61,1.61,2.48,2.48,4.38,4.24,8.48,8.33,9.79,14.61.58,2.63.58,4.38-1.02,6.14-2.19,2.48-2.92,5.26-1.9,8.04,1.02,2.78,2.05,5.7,3.07,8.48,1.02,2.63,1.9,5.26,2.92,7.89.44,1.46,1.17,3.36.88,4.68-1.61,5.41-.29,10.08,1.61,14.17.29.58.44,1.17.58,2.05-.73-.29-1.32-.73-1.9-1.02-3.36-1.75-6.14-3.21-9.06-4.97-6.28-3.65-12.42-7.31-18.56-10.96-11.4-6.72-23.23-13.59-34.92-20.17-21.04-11.69-43.4-17.97-66.63-18.56-13.01-.29-24.26,2.05-34.63,7.31-4.82,2.48-6.87,6.28-6.28,11.69,1.75,16.07,6.72,30.98,14.47,44.42,5.7,9.79,13.15,14.32,22.94,13.74.15,0,.44,0,.88.15,0,.44-.15.88-.29,1.17-1.46,3.65-1.17,7.31,1.02,11.25,3.51,6.28,8.48,11.25,15.05,14.9,1.75,1.02,3.65,2.05,4.82,3.51,6.43,7.89,14.17,13.88,23.82,20.46,4.24,2.92,10.81,6.72,18.27,4.82,6.14-1.46,11.4-.29,17.24,3.8,5.7,3.95,12.13,4.68,19,2.05,2.05-.73,3.95-1.61,5.85-2.48,1.17-.58,2.34-1.02,3.51-1.61.44-.15.88-.44,1.46-.58,0,0-.15.29-.29.29-1.02,1.02-2.05,2.05-3.21,2.92-1.32,1.17-2.48,2.34-3.8,3.65-2.34,2.19-3.07,4.97-2.34,8.04.44,1.75,0,3.07-1.17,4.82-4.24,6.28-10.81,8.04-15.49,8.48-4.82.44-8.77,2.34-12.71,4.24-1.02.44-2.19,1.02-3.21,1.46-1.02.44-1.75,1.17-2.48,1.9-.29.29-.58.58-1.02.88l-1.02.73,1.02.88.29.29.58.58,2.78-1.32c.15,0,.44-.29.58-.29l-2.63,6.58,2.34-1.17c1.32-.58,2.34-1.32,3.07-2.34,1.46-2.05,2.63-2.78,4.82-1.9,1.9.88,4.53,0,5.7-.44,2.48-1.02,4.97-2.05,7.31-3.07,2.78-1.17,5.7-2.48,8.62-3.51,3.95-1.46,6.58-3.36,8.77-5.99.44-.58,1.32-1.02,1.61-1.17,4.38,1.46,6.87-1.02,8.91-3.51,3.07-3.8,6.28-7.6,9.21-11.54l1.75-2.05c1.17-1.46,1.61-1.75,2.63-1.32,3.07,1.46,5.11-.29,6.72-2.34,4.38-5.7,9.06-11.25,13.59-16.51.58-.58,1.9-1.02,2.34-1.02,2.48,1.32,4.38.58,5.99-.29,3.65-2.19,7.74-2.78,11.98-3.36,2.48-.44,5.11-.88,7.6-1.61h.44c-.29,2.19-1.61,3.8-4.24,5.26-7.01,3.95-12.57,8.48-16.8,13.59-1.17,1.46-2.48,3.21-2.19,4.82.58,3.95-1.02,6.43-5.11,8.33-.88.44-1.61,1.17-2.19,1.75l-.29.29c-10.23,10.08-16.8,22.94-19.29,38.14-.29,2.05.15,4.53,1.61,7.45.73,1.61.73,2.34.15,3.36-5.26,9.79-6.72,20.46-7.45,28.64-.29,3.51.73,6.58,3.21,9.21.58.73,1.17,2.19,1.17,2.92-.15,4.24-.73,8.62-4.24,12.13-1.46,1.46-2.92,3.21-4.24,4.68-1.46,1.75-2.92,3.51-4.68,5.11-2.48,2.34-3.95,5.7-5.26,8.91-.58,1.17-1.02,2.48-1.75,3.65-.29.58-.29,1.32-.15,2.05v5.55l2.05-4.24c.58-1.17,1.02-2.34,1.61-3.36.15-.29.29-.44.44-.73.29,1.17.58,2.48.88,3.65l.58,2.34,1.32-2.05c.58-.88.73-1.75,1.02-2.63,0-.44.15-.73.29-1.02v-.44c.44-.88,1.02-2.05,1.61-2.34,7.16-3.95,11.25-10.23,14.03-15.49.58-1.17,1.32-2.19,2.05-3.36,2.19-3.36,4.53-6.87,4.24-11.54l.15-.29c4.38-1.61,5.7-5.55,6.43-8.48,2.48-8.33,3.8-17.68,4.09-29.37,0-.15.44-.58.73-.88.15-.29.44-.44.58-.73,0,.15,0,.58.15.88,0,.88.29,2.05,1.46,2.78h0v.44c0,.58-.29,1.17-.44,1.75,0,.44-.44,1.46,0,2.19.29.44.73.73,1.46.88v.29c0,.44,0,1.02.15,1.46v1.32c0,.44.29,2.05,1.32,2.19h.29v1.17c0,.73-.29,1.61-.29,2.48v.88l.88.15c.29,0,.58,0,.88.15,0,.29,0,.58-.15.88,0,.58-.15,1.32-.29,1.9v1.32c-.15,0,1.17,0,1.17,0h1.61s.15.15.15.58c0,.88.88,1.32,1.61,1.32h.44c0,.15,0,.44-.15.58v.58c-.44,1.46-.58,2.19,0,2.92.44.44,1.02.58,1.9.58l-1.9,5.7h3.65v.88c0,.29-.29.73-.15,1.17,0,.58.44,1.9,1.46,2.05h.29v1.02c0,.15,0,.44-.15.73,0,.73-.15,1.46-.15,2.19s.73,1.32.88,1.46c.44.29.88.44,1.32.44h.29v1.9c0,1.02,0,2.05.73,2.63s.73,1.02.73,2.19,0,.44,0,.73c0,.73.15,1.61.88,2.34.44.44,1.17.58,1.9.58h.29v.44c.15,1.17.15,2.48.29,3.65,0,1.02.29,1.75.88,2.34.44.44,1.32.73,2.19.58.58,0,1.02,0,1.17,1.17v.58c.44,1.61.88,3.36,1.46,4.97.29.88,1.32,1.9,2.34,1.9.73,0,1.02,0,1.32,1.02.44.73,1.46,1.9,2.48,1.9,2.05,0,3.07.58,3.36,2.34.15,1.02.73,1.75,1.32,2.05.44.29,1.02.44,2.05.15h.29s0,.15.15.58c.29,1.17.58,2.34.58,3.21.15,1.17.58,1.9,1.17,2.34.73.44,1.46.29,2.48,0,.44-.15.44-.29.73.29.44.73,1.32,1.46,2.19,1.61,1.46.29,2.39,1.17,2.78,2.63.15.73,1.17,2.05,2.19,2.05.73,0,1.02.15,1.32,1.17.29.58,1.02,2.63,3.36,1.9.73-.15,1.32-.44,1.9-.73,1.17-.58,2.34-1.02,3.8-.88.73,0,1.32-.15,1.9-.44,1.02-.44,1.32-.44,1.75,0l.29.44h.44c.29.15.73,0,.88,0h.29c.15,0,.44.44.73.88.44.58,1.17,1.46,2.05,1.46h0c1.02,0,1.61-.88,2.05-1.46.44-.73.58-.73.88-.73h.44c.15,0,.29,0,.88.73.44.73,1.02,1.46,2.05,1.46s1.61-.73,2.34-1.61c.15-.15.44-.58.58-.58h0c.29.15.73.29,1.02.29h.44l.15-.29c.58-.58.88-.44,1.9,0,.58.29,1.32.58,1.9.44,1.46,0,2.48.44,3.65.88.58.29,1.32.58,1.9.73,2.34.73,3.07-1.32,3.36-2.05.29-1.02.58-1.17,1.32-1.17,1.02,0,2.05-1.32,2.19-2.05.39-1.56,1.32-2.44,2.78-2.63.88-.29,1.75-.88,2.19-1.61.29-.58.44-.58.88-.29,1.02.44,1.9.44,2.48,0,.73-.44,1.02-1.17,1.32-2.19,0-1.02.29-2.05.58-3.36,0-.44.15-.44.15-.44h.29c1.02.29,1.61,0,2.05-.15.58-.44,1.17-1.02,1.32-2.05.29-1.9,1.32-2.48,3.36-2.34,1.02,0,2.19-1.02,2.48-1.9.44-.88.73-1.02,1.32-1.02,1.02,0,2.19-1.02,2.48-1.9.44-1.46.73-2.92,1.17-4.53l.29-1.02c.29-1.17.58-1.17,1.17-1.17.88,0,1.61,0,2.05-.58.58-.44.88-1.32.88-2.34,0-1.32,0-2.48.29-3.8v-.44h.29c.73,0,1.46,0,1.9-.58.73-.58.88-1.46.88-2.34v-.73c0-1.02,0-1.61.73-2.19.88-.58.88-1.75.88-2.63v-1.75h.44c.44,0,.88,0,1.32-.44.15-.15.88-.73.88-1.46s0-1.61-.29-2.34v-.88c-.15-.29-.15-.58-.15-.58h.29c.88-.15,1.17-1.32,1.46-2.05,0-.44,0-.73-.15-1.17v-.88h3.65l-1.9-5.7c.88,0,1.46-.15,1.9-.58.58-.73.44-1.46,0-3.07v-.44c-.15-.15-.15-.44-.29-.58h.29c.58,0,1.61-.44,1.61-1.32s0-.44.15-.58c.15-.29,1.02,0,1.75,0h1.32l-.29-1.17c0-.73-.29-1.32-.29-1.9,0-.29,0-.58-.15-.88.15,0,.44,0,.88-.15h.88v-1.17c0-.88-.29-1.75-.29-2.48v-1.17h.29c1.02-.15,1.32-1.75,1.32-2.05,0-.44,0-1.02.15-1.46,0-.44,0-.88.15-1.46v-.29c.73-.15,1.17-.44,1.46-.88.44-.73.29-1.61,0-2.19s-.29-1.17-.44-1.75v-.44h0c1.17-.73,1.32-1.9,1.46-2.78,0-.44,0-.73.15-.88.29.29.44.44.58.73s.58.73.58,1.02c.29,11.69,1.46,21.04,4.09,29.37.88,2.92,2.05,6.87,6.43,8.48l.29.29c-.44,4.68,1.9,8.18,4.24,11.54.73,1.02,1.46,2.19,2.05,3.36,2.78,5.11,6.87,11.54,14.03,15.49.58.29,1.02,1.46,1.46,2.34v.44c.29.29.44.73.44,1.02.15.88.44,1.75,1.02,2.63l1.32,2.05.58-2.34c.29-1.17.58-2.48.88-3.65,0,.29.29.58.44.73.44,1.02,1.02,2.05,1.61,3.21l2.05,4.24v-5.55c0-.73,0-1.32-.15-2.05-.58-1.17-1.17-2.34-1.75-3.65-1.46-3.21-2.78-6.58-5.26-8.91-1.61-1.61-3.21-3.36-4.68-5.11-1.32-1.61-2.63-3.21-4.24-4.68-3.51-3.51-4.09-7.89-4.24-12.13,0-.88.58-2.19,1.17-2.92,2.48-2.63,3.51-5.7,3.21-9.21-.58-8.18-2.05-19-7.31-28.64-.58-1.02-.58-1.9,0-3.36,1.32-2.92,1.9-5.41,1.46-7.45-2.48-15.2-9.06-28.06-19.29-38.14l-.29-.29c-.58-.58-1.32-1.32-2.19-1.75-4.09-2.05-5.7-4.53-5.11-8.33.29-1.61-1.02-3.36-2.34-4.82-4.24-5.11-9.64-9.5-16.66-13.59-2.63-1.46-3.8-3.07-4.24-5.26h.29c2.48.73,5.26,1.17,7.74,1.61,4.24.58,8.33,1.32,11.98,3.36,1.46.88,3.36,1.61,5.85.29.44,0,1.75.44,2.34,1.02,4.68,5.26,9.21,10.81,13.74,16.51,1.46,1.9,3.51,3.65,6.72,2.34,1.02-.44,1.46-.15,2.63,1.32l1.75,2.19c3.07,3.8,6.14,7.6,9.21,11.4,2.05,2.48,4.53,4.97,8.77,3.51.29,0,1.32.58,1.61,1.02,2.19,2.63,4.82,4.53,8.77,5.99,2.92,1.02,5.85,2.34,8.62,3.51,2.34,1.02,4.82,2.05,7.31,3.07,1.02.44,3.65,1.17,5.55.44,2.34-.88,3.36,0,4.82,1.9.73,1.02,1.75,1.75,3.07,2.34l2.34,1.17-1.9-4.53c-.29-.58-.58-1.32-.88-2.05.29,0,.44.15.58.29l2.05,1.02.73.29.58-.58.29-.29.88-.88-1.02-.73c-.29-.29-.73-.58-1.02-.88-.73-.58-1.61-1.32-2.48-1.9-1.17-.44-2.19-1.02-3.21-1.46-3.95-1.9-7.89-3.8-12.71-4.24s-11.25-2.19-15.49-8.48c-1.17-1.75-1.75-3.07-1.32-4.82.88-2.92,0-5.7-2.34-8.04-1.17-1.17-2.48-2.48-3.8-3.65-1.02-1.02-2.19-2.05-3.21-2.92l-.29-.29c.44.29,1.02.44,1.46.58,1.17.58,2.34,1.02,3.51,1.61,1.9.88,3.8,1.75,5.85,2.48,6.87,2.63,13.3,1.9,19-2.05,5.85-4.09,11.11-5.26,17.1-3.8,7.6,1.75,14.03-1.9,18.41-4.82,9.64-6.58,17.24-12.57,23.67-20.46,1.17-1.46,3.07-2.48,4.82-3.51,6.72-3.8,11.54-8.62,15.05-14.9,2.19-3.95,2.48-7.6,1.02-11.25,0-.44-.15-.73-.29-1.17.29,0,.58-.15.88-.15,9.64.58,17.1-3.8,22.94-13.74,7.74-13.44,12.71-28.35,14.47-44.42.58-5.41-1.46-9.21-6.28-11.69l-.58-.44ZM523.3,369.72c1.02-.58,2.05-1.17,3.07-1.61,4.82-1.9,9.64-3.8,14.47-5.41l2.05-.88c18.41-6.87,36.97-8.62,55.09-5.41,1.32.29,2.34.73,2.63,1.46.44.73,0,1.9-.44,2.63-.58,1.02-1.46,2.05-2.63,2.92-5.11,3.65-10.52,5.26-16.22,4.82-8.91-.73-18.27.44-29.37,3.8-6.28,1.9-12.86,3.36-19.58,4.24-4.09.58-7.31-1.32-10.23-6.14.29-.15.58-.29,1.02-.58l.15.15ZM596.65,415.89c-6.72,4.09-13.74,4.68-21.04,1.75-11.98-4.82-24.11-5.99-35.65-6.43h-7.16c.29-1.9,1.75-2.78,4.09-3.65,8.62-3.07,18.27-4.97,29.52-5.55,2.05-.15,4.24,1.02,6.14,2.05,1.9,1.02,3.8,2.05,5.55,3.07,2.48,1.46,4.97,2.92,7.74,4.24,2.92,1.32,5.85,2.19,9.06,3.21.88.29,1.9.58,2.78.88-.29.29-.73.58-1.02.88v-.44ZM569.47,388.86c-.29,4.24-1.32,5.26-5.85,5.55h-.58c-10.23.73-20.9,1.46-30.69,6.43h-1.02c-1.17-1.32-1.75-3.65-1.61-6.14.29-3.21,1.75-6.14,3.8-7.89l.58-.29c.88-.29,2.05-.58,3.21-1.02,2.05-.58,4.24-1.17,6.43-1.75,3.51-1.02,7.16-1.9,10.67-2.92,2.34-.73,4.68-1.61,6.87-2.34,1.32-.44,2.78-1.02,4.09-1.46.88-.29,1.61-.44,2.05,0,.44.29.73.73.73,1.61s.29,1.75.44,2.63c.29,2.34.58,4.68.58,6.87v.88l.29-.15ZM599.43,407.13c-5.7-.58-10.52-3.21-15.64-5.85l-1.9-1.02c-3.36-1.75-4.38-3.95-3.8-7.6.88-5.26,1.17-11.4-1.9-16.95h1.32c1.75,0,3.36.29,4.82.44,8.48,1.46,15.2,6.87,21.04,11.54,8.33,6.58,7.6,8.33,3.36,15.78-2.05,3.65-3.21,4.24-7.16,3.8l-.15-.15ZM489.1,420.72l-15.34,4.09h0c1.75-6.72,6.14-10.37,14.47-12.57,7.6-1.9,15.49-4.53,24.99-7.89,2.34-.88,4.38-2.19,6.58-3.65.73-.44,1.46-.88,2.19-1.46.15.58.29,1.02.44,1.46.58,2.34,1.17,4.38,1.46,6.58,0,.88.29,1.61.29,2.05,0,1.75-.88,2.05-3.65,2.78-10.37,2.78-20.75,5.41-31.12,8.18l-.29.44ZM513.65,422.18c-14.9,6.43-30.54,13.01-46.76,18.56,0-.29,0-.58-.15-.88-.15-1.17-.29-2.19-.58-3.07,0-.44-.29-1.02,0-1.32.15-.29.58-.44,1.32-.73,1.61-.44,3.21-.88,4.68-1.46.88-.29,1.9-.58,2.92-.88l7.45-2.19c7.89-2.34,16.07-4.68,24.11-6.87,2.34-.58,4.82-.88,7.16-1.17h-.15ZM492.17,402.45c1.46-1.9,2.78-3.8,3.95-5.85,2.63-4.53,4.68-8.48,6.14-12.57.73-2.19,1.32-3.65,3.21-4.68,1.02-.58,2.05-1.17,2.92-1.61,1.46-.88,2.92-1.61,4.38-2.48q.88-.44,1.75.58l.58.58c1.46,1.9,2.92,3.8,4.82,5.26,2.48,2.05,3.51,3.51,3.51,4.53,0,1.17-.88,2.48-3.36,4.68-.44.44-.73.73-1.17,1.02l-.44.44c-5.99,5.11-13.15,7.16-20.75,9.35-2.19.58-4.38,1.32-6.58,2.05.44-.44.73-.88,1.02-1.46v.15ZM447.16,414.72c8.91-5.7,17.83-11.25,26.59-16.8l8.33-5.26c2.78-1.75,5.41-3.51,8.18-5.26-.15.58-.44,1.17-.58,1.61-5.11,11.4-13.88,20.31-26.16,26.45-6.43,3.21-13.44,5.85-20.02,8.33-2.92,1.17-5.85,2.19-8.62,3.36h0c3.95-5.85,7.89-9.79,12.42-12.71l-.15.29ZM452.72,427.44l13.88-5.26s0,.29-.15.44c-.58,1.75-1.02,3.21-1.61,4.68-.29.73-1.02,1.32-1.46,1.46-11.4,2.92-21.63,5.26-31.27,7.6h-1.9c7.45-2.78,14.9-5.7,22.5-8.62v-.29ZM288.18,436.06c-.73,0-1.32.15-1.9,0-9.64-2.19-19.87-4.68-31.27-7.6-.44,0-1.17-.73-1.46-1.46-.58-1.32-1.02-2.78-1.61-4.53v-.44l14.03,5.41c7.6,2.92,14.9,5.7,22.36,8.62h-.15ZM211.9,423.35c8.04,2.19,16.22,4.68,24.11,6.87l7.45,2.19c1.02.29,1.9.58,2.92.88,1.46.44,3.07,1.02,4.68,1.46.73.15,1.17.44,1.32.73s0,.88,0,1.32c-.29,1.02-.44,1.9-.58,3.07,0,.29,0,.58-.15.88-16.37-5.7-32-12.13-46.76-18.56,2.34.29,4.82.58,7.16,1.17h-.15ZM198.02,412.53c-2.92-.73-3.65-1.02-3.65-2.78s0-1.17.15-2.05c.29-2.19.88-4.24,1.46-6.58.15-.44.29-1.02.44-1.46.73.44,1.46,1.02,2.19,1.46,2.19,1.46,4.24,2.78,6.58,3.65,9.5,3.36,17.39,5.85,24.99,7.89,8.33,2.19,12.71,5.85,14.47,12.27v.15l-15.34-4.09c-10.37-2.78-20.75-5.55-31.12-8.18l-.15-.29ZM236.3,392.81l8.18,5.11c8.91,5.7,17.83,11.25,26.74,16.95,4.53,2.92,8.48,6.87,12.57,12.71h0c-2.92-1.17-5.7-2.19-8.62-3.36-6.72-2.48-13.59-5.11-20.17-8.33-12.27-6.14-21.04-15.05-26.16-26.45-.15-.44-.44-1.02-.58-1.61,2.63,1.75,5.41,3.51,8.18,5.26l-.15-.29ZM198.31,381.7c1.9-1.61,3.36-3.51,4.82-5.26l.58-.73c.44-.58.73-.88.88-.88s.44,0,.73.29c1.46.88,2.92,1.75,4.53,2.48,1.02.58,1.9,1.02,2.92,1.61,1.75,1.02,2.34,2.48,3.07,4.68,1.46,4.24,3.51,8.04,6.14,12.57,1.17,2.05,2.63,3.95,3.95,5.85.29.44.73.88,1.02,1.46-2.19-.73-4.38-1.32-6.58-2.05-7.6-2.19-14.61-4.24-20.75-9.5l-.44-.44c-.44-.29-.73-.58-1.17-1.02-2.34-2.19-3.36-3.51-3.21-4.68,0-1.02,1.02-2.48,3.51-4.53v.15ZM117.65,358.03c.29-.73,1.32-1.17,2.63-1.46,18.27-3.36,36.82-1.46,55.24,5.41l2.05.88c4.82,1.75,9.64,3.51,14.47,5.41,1.02.44,2.05,1.02,3.07,1.61.29.15.73.29.88.44-2.92,4.68-6.14,6.58-10.23,6.14-6.72-1.02-13.44-2.48-19.58-4.24-8.91-2.78-16.66-3.95-23.96-3.95s-3.51,0-5.26.15c-5.7.44-11.11-1.02-16.22-4.82-1.02-.73-2.05-1.9-2.63-2.92-.44-.73-.88-1.9-.44-2.63h0ZM187.06,400.84h-1.02c-9.79-4.97-20.46-5.7-30.69-6.28h-.58c-4.53-.44-5.55-1.32-5.85-5.7-.15-2.48.29-5.26.73-7.89,0-.88.15-1.75.29-2.63,0-.73.44-1.32.73-1.61.29,0,.44-.15.88-.15s.88,0,1.32.29c1.32.44,2.78,1.02,4.09,1.46,2.19.88,4.53,1.75,6.87,2.34,3.51,1.02,7.16,2.05,10.67,2.92,2.19.58,4.24,1.17,6.43,1.75,1.32.29,2.48.73,3.51,1.02h.44c2.05,1.9,3.51,4.82,3.8,8.04.29,2.48-.44,4.82-1.61,6.14v.29ZM105.23,383.31c-.73-6.14-1.46-13.01-2.19-20.75,0-1.46.58-2.63,2.19-3.36,1.32-.58,2.05-.88,2.34-.88s0,0,.15,0,.44.58.88,2.34c.73,3.65,2.92,6.43,6.72,8.77,2.05,1.17,4.09,2.48,6.14,3.8h.29c-2.48,1.9-4.82,3.65-7.31,5.26-2.78,2.05-5.7,4.09-8.62,6.14-.29-.44-.44-.88-.44-1.32h-.15ZM111.8,403.33c-4.38-7.31-4.97-9.21,3.36-15.78,5.85-4.68,12.57-9.94,21.04-11.54,1.61-.29,3.07-.44,4.82-.44h1.32c-3.07,5.7-2.63,11.69-1.9,16.95.58,3.65-.44,5.85-3.8,7.6l-2.05,1.02c-5.11,2.63-9.94,5.26-15.64,5.85-3.95.44-5.11,0-7.16-3.8v.15ZM121.74,415.89c-.44-.15-.73-.44-1.02-.88.88-.29,1.9-.58,2.78-.88,3.07-1.02,6.14-1.9,9.06-3.21,2.63-1.32,5.26-2.78,7.74-4.24,1.9-1.02,3.65-2.05,5.55-3.07,2.05-1.02,4.24-2.19,6.14-2.05,11.4.58,21.04,2.48,29.66,5.55,2.34.88,3.8,1.75,3.95,3.65h-1.32c-2.05,0-3.95,0-5.85.15-11.54.58-23.82,1.61-35.65,6.43-7.31,2.92-14.47,2.34-21.04-1.75v.29ZM156.23,447.02c-5.41-.29-9.06-2.48-11.4-6.43-.88-1.46-1.9-3.07-2.78-4.82-2.63-5.26-1.75-7.45,3.65-10.23,5.99-3.07,12.42-3.95,19.29-4.97h.88c5.55-.88,10.96-.29,16.51,1.9,3.65,1.46,7.16,2.92,10.81,4.38,2.63,1.17,5.41,2.19,8.04,3.36,1.02.44,1.32.88,1.32,1.02,0,0,0,.58-1.02,1.32-3.36,4.24-7.74,7.16-13.88,9.21-12.27,4.24-21.92,5.85-31.56,5.26h.15ZM214.24,465.72c-2.05,2.63-4.09,5.41-6.58,7.01-10.67,6.58-20.9,2.63-27.62-1.75-4.38-2.92-8.33-6.43-12.27-10.08-1.75-1.46-3.51-3.07-5.11-4.53,0,0,0-.15-.15-.29,1.02-.29,1.9-.44,2.92-.73,2.92-.58,5.7-1.32,8.48-2.05,10.67-3.21,21.48-2.05,34.05,3.36,2.34,1.02,4.53,2.48,6.58,4.09.58.44,1.02.73,1.46,1.17.15,0,.44.73.44.88-.73.88-1.46,1.9-2.19,2.92h0ZM255.59,469.67h0c-3.07,4.53-7.89,6.43-13.01,8.62-1.32.58-2.78,1.02-4.09,1.75-4.09,1.9-8.91,3.65-14.03,2.63-2.63-.44-5.26-1.61-7.74-2.78l-.58-.29c-.44-.29-.73-.44-.73-.58,0-.29.15-.73.58-1.17,1.46-1.61,2.78-3.07,4.09-4.68,2.19-2.48,4.38-5.11,6.72-7.45,1.17-1.17,3.36-2.05,4.82-2.05h.29c7.31.44,14.61,1.32,22.65,2.48.88,0,2.78.44,3.36.73-.29.58-1.46,1.9-2.19,2.92l-.15-.15ZM274,456.52c-3.21,1.46-6.28,3.07-9.64,4.38-.58.29-2.05-.29-3.07-.58l-.73-.29c-8.48-2.78-16.07-4.09-23.23-4.09s-5.41.15-7.89.58c-2.19.29-4.82-.29-6.58-1.32-7.16-4.38-14.32-7.31-21.92-9.06h-.29c.73-.58,1.46-1.17,2.05-1.75l2.05-1.75c2.48-2.19,4.97-4.24,7.31-6.58,1.17-1.17,1.9-1.32,3.21-.88,16.95,6.87,35.36,12.86,58.16,18.85.73.29,1.61.58,2.48,1.02,0,0,.29,0,.29.15-.73.44-1.61.73-2.48,1.17l.29.15ZM285.7,449.79c-5.41-1.32-11.11-2.78-16.37-4.09-3.07-.88-6.14-1.61-9.21-2.34-1.02-.29-1.75-.58-1.9-1.02-.29-.44-.15-1.17,0-2.19.29-.88.44-1.9.58-2.92v-.73c3.8,1.32,7.89,2.19,11.69,2.92,8.18,1.61,15.78,3.21,22.5,8.62-2.92,1.75-5.26,2.34-7.74,1.75h.44ZM402.45,609.36l-.44.88-.88-.44.44-.88-.58.88c-.29,0-.58-.15-.73-.58,0,0-.29-.15-.29-.29,0,0,0,.15-.29.44-.15.44-.58.88-.88,1.17,0,0-.15.15-.29.15-.15.29-.44.44-.58.58-.29.29-.58.73-.88,1.02,0,.15-.15.44-.29.88,0,.15,0,.44-.15.73l-.58,1.9-1.32-1.46c-.58-.73-1.17-1.46-1.75-2.05,0,.29,0,.44-.15.73,0,.58-.15,1.17-.29,1.9-.15,1.02-.29,2.19-.44,3.21,0,.58-.44,1.17-.73,1.61l-.29.29c-.15.29-.44.58-.58.73-.29.29-.44.58-.44.73-.29,1.02-.44,2.05-.44,3.21,0,.58-.29,1.61-1.02,2.19s-1.61.44-2.34.29c-.58,0-1.46-.29-1.61-.29s-.44.88-.73,1.46c-.29.88-1.32,2.92-3.95,2.19-.58,0-.88,0-1.17.73-.29.88-.88,1.61-1.46,2.05-.44.44-1.02.58-1.75.88-.15,0-.44.15-.73.29l-.58.29-1.17-.88c-.44-.29-1.02-.73-1.46-1.02q-.29-.19,0,0c-.29,1.17-1.02,3.51-3.95,3.8h-.15c-.29.44-.88.58-1.46.58s-1.17-.29-1.9-1.02c-.44-.44-.73-1.02-1.02-1.32l-1.32,1.32-.73.88-.73-1.02c-.44-.44-.58-.73-.73-1.02,0,0-.29-.29-.29-.44l-.44.29-.44-.29s-.29.29-.29.44c-.15.29-.44.58-.73,1.02l-.73,1.02-.88-.88c-.44-.44-.88-1.02-1.17-1.32-.29.29-.58.73-1.02,1.17-1.32,1.61-2.63,1.02-3.21.58h-.15c-3.07-.44-3.8-2.92-3.95-3.8h0c-.44.44-1.02.88-1.46,1.17l-1.17.88-.58-.29c-.29-.15-.58-.29-.73-.29-.73-.29-1.17-.58-1.75-.88-.58-.58-1.17-1.32-1.46-2.05-.29-.88-.58-.88-1.17-.73-2.63.73-3.51-1.46-3.95-2.19-.29-.44-.58-1.32-.88-1.46-.15,0-1.02.15-1.61.29-.73.15-1.61.29-2.34-.29-.88-.58-.88-1.46-1.02-2.19,0-1.02-.15-2.19-.44-3.21,0-.15-.29-.44-.44-.73-.15-.29-.44-.44-.58-.73l-.29-.44c-.29-.44-.58-1.02-.73-1.61-.29-1.02-.29-2.05-.44-3.21,0-.58-.15-1.17-.29-1.9v-.73c-.58.58-1.02,1.32-1.75,2.05l-1.17,1.46-.58-1.9c0-.29,0-.44-.15-.73-.15-.44-.29-.73-.44-.88-.29-.44-.58-.73-.88-1.17l-.44-.58s-.15-.15-.29-.15c-.29-.29-.73-.58-.88-1.17,0-.15-.15-.29-.29-.44l-.29.29c-.29.29-.58.44-.73.44l-.88.44-.58-.88c-1.32-2.34-1.17-7.31.88-9.21l.88-.73,2.05,2.34h0l1.46-1.46.88,1.32c.15.29.44.58.58,1.02,0,.44.29.58.29.58,0,0,.15,0,.44-.29.88-.44,2.78-.29,3.51.44q.44.58,1.46-.15c.29-.15.58-.29.73-.29h.88c.15,0,.73.44.73,1.17,0,.44.15,1.02.29,1.32.29,0,.88-.15,1.32-.29h.29c1.32-.44,2.78-.58,4.24-.73h.88c1.02,0,1.75.88,1.9,1.32.29.44.29.73.29,1.02v.73q0,.1,0,0l.88-.88c.15-.29.44-.58.73-.88l.88-.88.73,1.02.44.44c.29.29.58.58.73,1.02,0,.29.29.58.44.58,0,0,.29,0,1.02-.29.15,0,.44-.29.58-.44.44-.29,1.02-.58,1.61-.73.44,0,.88-.15,1.32-.29,1.46-.29,2.92-.58,4.24-1.32.88-.58,2.05-.58,3.07-.29,1.02.44,1.9,1.17,2.48,2.34.58-1.17,1.46-1.9,2.48-2.34,1.02-.44,2.19-.29,3.07.29,1.32.73,2.78,1.02,4.24,1.32.44,0,.88.15,1.32.29.58,0,1.17.44,1.61.73.15,0,.44.29.58.44.73.29,1.02.29,1.02.29,0,0,.29-.29.44-.58.15-.44.44-.88.73-1.17,0,0,.29-.29.29-.44l.73-1.02.88.88c.29.29.44.58.73.88l.88.88h0v-.73c0-.29,0-.73.15-1.02.15-.44.88-1.32,1.9-1.32h1.02c1.32.29,2.78.29,4.24.73h.29c.44.15,1.02.29,1.32.29,0-.29.15-.88.29-1.46,0-.58.58-.88.73-.88h.44c0-.15.44-.15.44-.15.29,0,.73.15.88.44q1.02.73,1.46,0c.88-.88,2.63-1.02,3.51-.44.29.15.44.29.58.29,0,0,0-.29.29-.73,0-.44.29-.73.44-1.02l.88-1.32,1.46,1.32c.58-.58.88-1.02,1.32-1.46l.73-.73.73.73c2.05,1.9,2.19,6.87.88,9.21l.73.58ZM406.1,500.79c0-.44-.15-.73-.29-1.17l-.29-2.05,1.46.29c.58,0,1.17.29,1.75.29v-.73c0-.58.15-1.32.44-1.9l.58-1.02.88.73c5.85,4.38,8.48,6.14,9.64,6.87h0l1.17.58c.29.15.58.29,1.02.58l.73.44v.88c-.15.15.15.58.44,1.17.44.73,1.02,1.46,1.46,2.05.88,1.17,1.75,2.48,2.48,3.8.44.73.88,1.75,1.02,2.63,0,.44.29.73.44,1.17l.44,1.02-1.02.44c-.44,0-.73.29-1.02.29,0,.58.29,1.02.44,1.46.29,1.02.73,2.05,1.02,3.21.58,1.61,1.17,3.36,1.75,4.97.15.73.15,1.46,0,2.34v2.19l-1.17-.29c-1.02-.29-1.75-.29-2.05,0-.44.29-.73,1.02-1.02,2.48l-.29,1.61-2.48-1.75s-.29-.15-.44-.29c0,.58,0,1.75-1.02,2.34-.88.58-2.05,0-2.48-.15v.29c-.15.88-.29,1.9-.44,2.92l-.44,2.34-3.51-2.92v2.48c-.15,0-1.46-.44-1.46-.44-.58-.15-.73-.15-.73-.15-.15,0-.29.88-.44,1.17,0,.29,0,.44-.15.73l-.44,1.32-2.05-1.32c-.73-.44-1.32-.88-2.05-1.32,0,0-.15-.15-.29-.15v.15c-.44,1.02-2.05,1.32-2.63,1.32s-1.17-.44-1.46-.58c0,0-.29-.15-.44-.29-.44-.15-1.02-.58-1.32-.58,0,0-.44.73-.73,1.02-.15.29-.88,1.32-1.9,1.46-1.02.15-1.75-.44-2.19-.88-.73-.58-1.46-1.17-2.19-1.9q-.49-.49,0,0c-.15.88-.58,1.32-1.02,1.61-.88.44-1.9-.15-2.05-.29-.29-.15-.73-.44-.88-.58-.15.29-.29.73-.44,1.02-.29.44-.29.88-.44,1.17-.44,1.32-.73,2.48-1.9,2.63-1.02.29-1.9-.58-2.63-1.46-.29-.15-.44-.44-.58-.58l-.88-.88s-.29-.15-.44-.29c-.29.58-.58.88-1.02,1.17-.73.44-1.61.44-2.63,0-.15,0-.29.15-.44.29-1.46,2.34-2.19,2.48-4.38,1.32-.29,0-.44-.29-.58-.29-1.17-.73-1.17-.58-1.61,0-.58.73-1.61.58-2.05.29h-.29s0,.29-.15.44c0,.44-.15.73-.44,1.17l-.44,1.32-.88-.29c-.58,0-1.02-.44-1.61-.73-.15-.15-.73-.44-.73-.44,0,0-.29,0-.44.44l-.29.58h-.73c-1.32-.29-2.05,0-2.63,1.46l-.88,2.34-2.19-4.68c-.15.44-.44,1.02-.58,1.46l-1.46,3.07-.88-2.34c-.58-1.46-1.32-1.75-2.63-1.61h-.73l-.29-.44c-.29-.44-.44-.44-.44-.44-.15,0-.58.29-.73.44-.44.29-1.02.58-1.61.73l-.88.29-.44-1.32c-.15-.44-.29-.88-.44-1.17,0-.29,0-.44-.15-.44h-.15c-.58.29-1.46.44-2.05-.29-.44-.58-.58-.58-1.61,0-.29,0-.44.29-.58.29-2.34,1.17-2.92,1.02-4.38-1.32,0,0-.15-.15-.44-.29-1.02.44-1.9.44-2.63,0-.44-.29-.73-.58-1.02-1.17,0,0-.29.15-.44.29l-.73.73c-.15.29-.44.44-.58.73-.88.88-1.75,1.61-2.78,1.46-1.02-.29-1.46-1.32-1.9-2.63,0-.44-.29-.73-.44-1.02-.15-.44-.29-.88-.44-1.17-.29.15-.58.44-.88.58s-1.17.73-2.05.29c-.58-.29-.88-.73-1.02-1.61h0c-.73.58-1.46,1.32-2.19,1.9-.44.44-1.32,1.02-2.19.88-1.02-.15-1.75-1.17-1.9-1.46-.15-.29-.58-1.02-.73-1.02,0,0-.73.44-1.17.58-.15,0-.29.15-.44.29-.44.29-.88.58-1.46.58s-2.19-.15-2.63-1.32v-.15s-.15,0-.29.15c-.58.44-1.32.88-1.9,1.32l-2.19,1.32-.44-1.32c0-.29,0-.44-.15-.73,0-.44-.29-1.02-.44-1.17h0s-.44,0-.73.15l-1.32.58v-1.46c-.15-.44-.29-.73-.29-1.17l-3.51,2.92-.29-2.48c-.15-1.02-.29-1.9-.44-2.92v-.29c-.58.29-1.61.73-2.48.15s-1.02-1.61-1.02-2.34c0,0-.29.15-.29.29l-2.48,1.75-.29-1.61c-.29-1.46-.58-2.34-1.02-2.48-.44-.15-1.02-.15-2.05,0l-1.32.29v-4.53c.44-1.61,1.02-3.36,1.75-4.97.44-1.02.73-2.05,1.02-3.21.15-.44.29-.88.44-1.46-.29,0-.58-.15-1.02-.29l-1.02-.44.44-1.02c.15-.44.29-.73.44-1.17.29-.88.58-1.75,1.02-2.63.73-1.32,1.61-2.63,2.48-3.8.44-.58.88-1.32,1.46-2.05.44-.58.73-1.02.73-1.17l-.29-.88,1.02-.44c.29-.15.58-.29.73-.44l1.17-.73h0c1.17-.58,3.8-2.48,9.64-6.72l1.02-.73.58,1.02c.29.58.44,1.17.44,1.9v.73c.58,0,1.02-.15,1.75-.29l1.46-.29-.29,2.05c0,.44,0,.88-.29,1.32v.44c.44,0,.73.15,1.17.44.44.29.88.88,1.02,1.61h.44c1.75-.15,3.51-.44,5.26-.73l2.19-.29v1.32c-.29.44-.44,1.02-.44,1.61.73-.29,2.63-.88,3.8,1.17h.58c.29,0,.73-.29,1.17-.44.29-.15.58-.29.88-.44l1.17-.58.44,2.34c0,.58.15,1.17.29,1.75h0c.88-.58,1.46-1.17,2.34-1.9l2.92-2.34.29,5.41c.15.73,2.63,2.05,3.36,1.9.15,0,.44-.15.58-.29,1.02-.44,2.92-1.17,4.38.73q.97,1.27,0,0h1.46c.88,0,1.61-.29,2.48,0,.73,0,1.32.44,1.9.58.73.29,1.32.44,2.05.44.44,0,.88,0,1.32.15,1.02.15,1.32.15,1.61-.15l.29-.29h.44c.73-.15,1.61.44,1.61.58.44.29.73.58.88,1.02.29.44.58.88.88,1.17.29-.29.58-.73.88-1.17s.58-.73,1.02-1.17c0,0,1.02-.58,1.61-.58h.44l.29.44c.29.29.58.29,1.61,0,.44,0,.88-.15,1.32-.15.58,0,1.32-.29,2.05-.44.58-.15,1.17-.44,2.05-.58h3.95q.1,0,0,0c1.46-1.9,3.21-1.02,4.38-.73.15,0,.44.15.58.29.73,0,3.21-1.17,3.36-1.9l.29-5.26,2.92,2.34c.73.58,1.61,1.32,2.34,1.9q.49.39,0,0h0c0-.58.15-1.17.29-1.75l.44-2.34,1.17.58c.29.15.73.29.88.44.44.15.88.44,1.32.44h.44c1.17-2.05,3.07-1.46,3.8-1.17,0-.58-.15-1.17-.15-1.61v-1.32c-.15,0,1.9.29,1.9.29,1.75.29,3.51.44,5.26.73h.44c.15-.73.44-1.32,1.02-1.61.44-.29.73-.44,1.17-.44v-.44h-.58ZM413.7,444.68c-.29.88-.73,1.75-1.46,2.19-.88.44-1.9.44-2.92.15h-2.63l-.29-2.34c0-.58-.15-1.17-.29-1.75-.44.73-.88,1.46-1.46,2.34l-.88,1.32-.88-1.32c-.73-1.02-1.17-1.75-1.61-2.34h0l-.73-.29c-.73-.15-1.32-.29-2.05-.44-.58.58-1.32,1.32-2.05,2.19l-1.32,1.32-1.9-5.85c-.29.58-.73,1.02-1.02,1.46l-2.63,3.8-2.34-5.7-3.07,4.68-.73-1.9c-.44-1.02-.88-2.05-1.32-3.07-1.02.88-1.9,1.75-2.92,2.78l-1.02.88-2.34-4.09c-.58.73-1.17,1.46-1.75,2.34l-.58.88-.88-.73-.44-.44c-.44-.29-.88-.58-1.17-1.02-.73-.88-1.17-1.32-1.75-1.32-.44,0-1.02.15-1.61.58-1.17.88-3.36-.58-3.36-.58-.44-.15-.58-.58-.88-.88l-.58.73c0,.15-.29.44-.58.88l-.88,1.02-1.75-2.34c0-.15-.15-.29-.44-.44h-.73c0,.15-.15.29-.44.44l-1.75,2.34-.88-1.02c-.29-.44-.44-.73-.58-1.02l-.58-.58c-.29.29-.58.73-.88,1.02,0,0-1.32.88-2.48.88s-.58,0-.88-.29c-.58-.44-1.17-.73-1.61-.58-.44,0-1.02.44-1.61,1.32-.44.44-.88.73-1.17,1.02-.15,0-.29.15-.44.44l-.88.73-.58-.88c-.58-.73-1.17-1.46-1.75-2.34l-2.34,4.09-1.02-.88c-1.02-1.02-1.9-1.9-2.92-2.78-.44,1.02-.88,1.9-1.17,3.07l-.73,1.9-3.21-4.68-2.34,5.7-2.63-3.8c-.29-.44-.73-1.02-1.02-1.46l-1.9,5.85-1.17-1.32c-.88-1.02-1.61-1.75-2.05-2.19-.73.15-1.46.29-2.05.44h-.73c-.44.73-.88,1.46-1.75,2.48l-.88,1.32-.73-1.32c-.58-.88-1.02-1.61-1.46-2.34,0,.44,0,1.02-.15,1.46l-.44,2.63h-1.02c-.29-.15-.58-.15-.88-.29h-.58c-1.02.29-2.05.29-2.92-.15-.73-.44-1.32-1.17-1.61-2.19-.29-1.17,0-2.92.73-4.24l.58-1.02c2.05-3.21,3.95-6.58,7.89-8.48.58-.29,1.17-.88,1.75-1.61l.44-.44c.15-.29.44-.44.58-.73l.58-.58c.88-1.02,1.9-2.05,3.07-2.92.73-.58,1.9-1.17,2.92-.88.44,0,1.02,0,1.75-.44,1.02-.44,2.34-.88,3.65-.15h0c1.61-1.9,4.24-3.51,7.89-1.32,1.46-2.34,4.24-3.07,6.28-2.48,1.61.44,1.9.15,2.78-.88,1.46-1.9,3.8-2.05,5.85-.73.15.29.44.44.73.58.49.39.88.49,1.17.29.44-.29,1.02-.58,1.46-.73.58-.29,1.02-.44,1.46-.73,1.02-1.02,2.05-1.61,3.07-1.75h.29c1.02,0,1.9.73,3.07,1.75.29.29.88.58,1.46.73.44.29,1.02.44,1.46.73.39.19.78.1,1.17-.29.29-.29.44-.44.73-.58,2.05-1.46,4.38-1.17,5.85.73.73,1.02,1.02,1.17,2.78.88,2.19-.58,4.82.29,6.28,2.48,3.51-2.19,6.14-.58,7.89,1.32.44-.15.88-.29,1.32-.29.73,0,1.61.29,2.34.58.73.29,1.32.44,1.75.44,1.02-.29,2.34.29,2.92.88,1.02.88,2.05,1.9,3.07,2.92l.58.58c.15.15.44.44.58.73l.44.44c.58.73,1.17,1.32,1.75,1.61,3.95,1.9,5.85,5.11,7.89,8.33l.73,1.02c.73,1.17,1.02,2.92.58,4.24l-.15.29ZM432.7,449.79c-2.34.58-4.82,0-7.74-1.75,6.72-5.26,14.47-6.87,22.5-8.62,3.95-.73,7.89-1.61,11.69-2.92v.73c.15,1.02.29,2.05.58,2.92.44,1.02.44,1.75.15,2.19-.29.44-.88.73-1.9,1.02-3.07.73-6.14,1.61-9.21,2.34-5.41,1.32-10.96,2.78-16.37,4.09h.29ZM457.83,460.17l-.73.29c-1.02.29-2.48.88-3.07.58-3.21-1.32-6.58-2.92-9.64-4.38-.73-.44-1.61-.73-2.48-1.17,0,0,.15,0,.29-.15.88-.44,1.61-.73,2.48-1.02,22.8-5.99,41.35-12.13,58.16-18.85,1.32-.44,2.05-.29,3.21.88,2.34,2.34,4.82,4.53,7.31,6.58l2.05,1.75c.58.58,1.32,1.02,2.05,1.75h-.29c-7.74,1.75-14.9,4.68-21.92,9.06-1.75,1.02-4.38,1.61-6.58,1.32-9.64-1.32-19.43-.29-31.12,3.51l.29-.15ZM502.4,479.6l-.58.29c-2.48,1.17-5.11,2.34-7.74,2.78-5.11.88-10.08-.88-14.03-2.63-1.32-.58-2.63-1.17-4.09-1.75-5.11-2.05-9.94-4.09-13.15-8.62-.73-1.02-1.9-2.34-2.19-2.92.58-.29,2.48-.58,3.36-.73,7.89-1.17,15.49-1.9,22.8-2.48,1.61,0,3.95.73,5.11,2.05,2.34,2.34,4.53,4.97,6.72,7.45,1.32,1.61,2.63,3.07,4.09,4.68.44.44.73.88.58,1.17,0,.15-.29.44-.73.58l-.15.15ZM555.74,456.37c-1.75,1.46-3.36,3.07-5.11,4.53-3.95,3.51-7.89,7.16-12.27,10.08-6.72,4.38-17.1,8.33-27.62,1.75-2.63-1.61-4.68-4.38-6.58-7.01-.73-1.02-1.46-1.9-2.19-2.92,0-.29.29-.88.44-.88.58-.44,1.02-.73,1.46-1.17,2.05-1.46,4.24-3.07,6.58-4.09,12.57-5.41,23.38-6.43,34.05-3.36,2.78.73,5.55,1.46,8.48,2.05,1.02.29,1.9.44,2.92.73,0,0,0,.15-.15.29h0ZM576.34,435.77c-.73,1.61-1.75,3.21-2.63,4.82-2.48,4.09-5.99,6.14-11.4,6.43-9.5.58-19.29-1.02-31.56-5.26-6.28-2.19-10.67-5.11-14.03-9.35-.73-.73-.88-1.17-.88-1.32s.29-.58,1.32-1.02c2.78-1.02,5.41-2.19,8.04-3.36,3.51-1.46,7.16-2.92,10.81-4.38,4.09-1.61,8.04-2.34,11.98-2.34s3.07,0,4.53.29h.88c6.87,1.02,13.15,2.05,19.29,5.11,3.51,1.75,5.11,3.36,5.11,5.55s-.44,2.78-1.46,4.68v.15ZM615.36,362.56c-.73,7.74-1.46,14.47-2.19,20.75,0,.44-.29.88-.44,1.32-3.07-2.05-5.99-4.24-9.06-6.28l-6.87-4.82h.29c1.9-1.32,3.95-2.63,6.14-3.8,3.8-2.34,5.85-5.11,6.72-8.77.44-1.9.73-2.34.88-2.34s.88,0,2.48.73c1.61.73,2.19,1.9,2.05,3.36v-.15Z"/>
  </g>
</svg>