<?xml version="1.0" encoding="UTF-8"?>
<svg id="Layer_5" data-name="Layer 5" xmlns="http://www.w3.org/2000/svg" viewBox="0 0 411.05 474.95">
  <defs>
    <style>
      .cls-1 {
        fill: #fcba16;
        stroke-width: 0px;
      }
    </style>
  </defs>
  <path class="cls-1" d="M315.73,73.65L205.5,10l-84.97,49.06.2.27L205.55,10.35l110,63.52.19-.21h-.01ZM51,99.21l-42.4,24.49v227.3l.05.03V124.05l42.56-24.57-.21-.27ZM315.73,73.65L205.5,10l-84.97,49.06.2.27L205.55,10.35l110,63.52.19-.21h-.01ZM347.77,92.15l-.19.22,54.82,31.65v-.32l-54.63-31.55ZM51,99.21l-42.4,24.49v227.3l.05.03V124.05l42.56-24.57-.21-.27ZM315.73,73.65L205.5,10l-84.97,49.06.2.27L205.55,10.35l110,63.52.19-.21h-.01ZM347.77,92.15l-.19.22,54.82,31.65v-.32l-54.63-31.55ZM411,118.92v236.98l-8.6,5-38.89,22.45-65.87,38.02-28.64,16.53-63.5,36.7-63.5-36.6-60.12-34.75-29.91-17.28-43.37-25.07L.05,355.93v.32l8.6,5,43.24,24.99,29.8,17.23,60.36,34.88,63.5,36.6,63.5-36.7,28.79-16.62,65.67-37.9,38.94-22.48,8.6-5V118.95l-.05-.03ZM402.4,123.7l-54.63-31.55-.19.22,54.82,31.65v-.32ZM205.55,10.35l110,63.52.19-.21h-.01S205.5,10,205.5,10l-84.97,49.06.2.27L205.55,10.35ZM8.65,124.05l42.56-24.57-.21-.27-42.4,24.49v227.3l.05.03V124.05ZM347.77,92.15l-.19.22,54.82,31.65v-.32l-54.63-31.55ZM315.73,73.65L205.5,10l-84.97,49.06.2.27L205.55,10.35l110,63.52.19-.21h-.01ZM51,99.21l-42.4,24.49v227.3l.05.03V124.05l42.56-24.57-.21-.27ZM347.77,92.15l-.19.22,54.82,31.65v-.32l-54.63-31.55ZM51,99.21l-42.4,24.49v227.3l.05.03V124.05l42.56-24.57-.21-.27Z"/>
  <path class="cls-1" d="M353.63,85.49l-32.01-18.48L205.5,0l-90.25,52.08-67.67,39.06L0,118.6v237.3l.05.03V118.95l47.52-27.42,67.88-39.18L205.55.35l115.88,66.88,32.01,18.47,57.56,33.22v-.32l-57.37-33.11ZM292.4,414.52l-86.9,50.18-117.84-68.05-.19.22,118.08,68.18,87.05-50.27-.2-.26ZM8.65,351.35l46.64,26.93.19-.21-46.83-27.04v.32ZM402.4,124.02v226.98l-42.33,24.44.2.27,42.18-24.36V124.05l-.05-.03Z"/>
  <path class="cls-1" d="M353.44,85.7l-32.01-18.47L205.55.35l-90.1,52-67.88,39.18L.05,118.95v236.98l8.55,4.97,43.37,25.07,29.91,17.28,60.12,34.75,63.5,36.6,63.5-36.7,28.64-16.53,65.87-38.02,38.89-22.45,8.6-5V118.92l-57.56-33.22ZM205.5,10l110.23,63.65h.01s-.19.22-.19.22l-23.97,27.06-75.18,84.88L120.73,59.33l-.2-.27L205.5,10ZM8.65,351.35v-.32l-.05-.03V123.7l42.4-24.49.21.27,115.27,150.99-111,127.6-.19.21-46.64-26.93ZM205.55,465.05l-118.08-68.18.19-.22,27.3-31.18,74.69-85.31,102.75,134.36.2.26-87.05,50.27ZM280.22,351.56L104.46,121.99h28.85l173.76,229.57h-26.85ZM402.45,351.35l-42.18,24.36-.2-.27-120.82-159.73,37.41-42.59,68.95-78.51,1.97-2.24.19-.22,54.63,31.55v.32l.05.03v227.3Z"/>
</svg>